<svg xmlns="http://www.w3.org/2000/svg" xmlns:xlink="http://www.w3.org/1999/xlink" width="169" height="210" viewBox="0 0 169 210"><defs><style>.a{fill:none;}.b{clip-path:url(#a);}.c{fill:#f93e29;}.d{fill:#69e506;}.e{fill:#0073fd;}.f{fill:#41fafd;}.g{fill:#fff;}.h{fill:#ffeb2c;}.i{fill:#ef82ff;}.j{fill:#696969;font-size:13px;font-family:NotoSansCJKkr-Medium, Noto Sans CJK KR;font-weight:500;letter-spacing:0.02em;}</style><clipPath id="a"><rect class="a" width="169" height="171"/></clipPath></defs><g transform="translate(0)"><g class="b"><path class="c" d="M262.314,55.369A55.293,55.293,0,1,1,207.021,0a55.33,55.33,0,0,1,55.293,55.366" transform="translate(-125.268 -0.002)"/><path class="d" d="M58.627,406.093a55.334,55.334,0,0,1,25.979-46.938,55.366,55.366,0,1,0,0,93.877,55.334,55.334,0,0,1-25.979-46.939" transform="translate(0.342 -290.353)"/><path class="e" d="M520.813,350.726a54.96,54.96,0,0,0-29.313,8.428,55.393,55.393,0,0,1,0,93.877,55.339,55.339,0,1,0,29.313-102.305" transform="translate(-406.551 -290.353)"/><path class="f" d="M392.538,446.624a55.334,55.334,0,0,0-25.979-46.938,55.393,55.393,0,0,0,0,93.877,55.334,55.334,0,0,0,25.979-46.939" transform="translate(-281.61 -330.884)"/><path class="g" d="M370.53,399.686a55.4,55.4,0,0,0-25.152,37.383,55.221,55.221,0,0,0,49.715-2.942,55.447,55.447,0,0,0-24.562-34.442" transform="translate(-285.582 -330.884)"/><path class="h" d="M159.946,358.2a55.459,55.459,0,0,0,31.919,38.321,55.08,55.08,0,0,1,1.319-5.741l.026-.091q.4-1.391.872-2.754l.012-.032a55.114,55.114,0,0,1,2.157-5.3l.067-.143q.594-1.259,1.249-2.482l.07-.128q1.314-2.439,2.86-4.726l.152-.225q.749-1.1,1.548-2.156l.175-.228q1.622-2.124,3.438-4.082c.089-.1.177-.193.266-.288q.873-.928,1.788-1.816c.1-.1.2-.189.3-.284q1.884-1.8,3.932-3.421c.123-.1.244-.195.368-.29q.985-.767,2-1.488c.13-.092.261-.181.391-.272.709-.493,1.425-.974,2.158-1.433l0,0a55.189,55.189,0,0,0-57.071-.938" transform="translate(-132.071 -290.341)"/><path class="i" d="M542.773,355.268a55.231,55.231,0,0,0-51.274,3.878l0,0c.679.425,1.344.871,2,1.325q.224.155.447.31c.644.454,1.28.918,1.9,1.4.084.065.166.133.25.2q.849.661,1.671,1.357c.125.105.25.208.373.315q.892.765,1.751,1.568c.11.1.218.208.327.312q.778.739,1.527,1.507c.082.084.166.166.248.251q.822.854,1.606,1.745c.111.125.22.252.329.378.515.593,1.021,1.194,1.51,1.81.014.017.028.033.041.05.5.633.987,1.28,1.462,1.935q.146.2.29.4c.468.658.926,1.323,1.365,2,.029.045.057.091.086.136.418.649.82,1.309,1.211,1.976.074.127.15.253.223.381q.6,1.05,1.165,2.127c.052.1.1.2.154.306q.516,1.009.991,2.043c.045.1.091.192.135.29q.506,1.118.962,2.263c.052.13.1.262.154.394.295.753.577,1.513.839,2.282.009.026.018.051.027.076.269.792.516,1.594.749,2.4.042.146.084.292.125.437.228.815.443,1.635.634,2.465a55.416,55.416,0,0,0,26.711-38.321" transform="translate(-406.551 -290.347)"/></g></g><text class="j" transform="translate(65 206)"><tspan x="0" y="0">RGB</tspan></text></svg>