<svg xmlns="http://www.w3.org/2000/svg" xmlns:xlink="http://www.w3.org/1999/xlink" width="169" height="210" viewBox="0 0 169 210"><defs><style>.a{fill:none;}.b{clip-path:url(#a);}.c{fill:#ffeb2c;}.d{fill:#ef82ff;}.e{fill:#41fafd;}.f{fill:#0073fd;}.g{fill:#1a1a1a;}.h{fill:#f93e29;}.i{fill:#69e506;}.j{fill:#696969;font-size:13px;font-family:NotoSansCJKkr-Medium, Noto Sans CJK KR;font-weight:500;letter-spacing:0.02em;}</style><clipPath id="a"><rect class="a" width="169" height="171" transform="translate(0.294)"/></clipPath></defs><g transform="translate(-0.294)"><g transform="translate(0 0)"><g class="b"><path class="c" d="M262.581,55.369A55.349,55.349,0,1,1,207.232,0a55.358,55.358,0,0,1,55.349,55.366" transform="translate(-125.567 -0.121)"/><path class="d" d="M58.687,406.093a55.321,55.321,0,0,1,26.006-46.938,55.366,55.366,0,1,0,0,93.877,55.321,55.321,0,0,1-26.006-46.939" transform="translate(0.17 -290.471)"/><path class="e" d="M521.343,350.726A55.056,55.056,0,0,0,492,359.154a55.364,55.364,0,0,1,0,93.877,55.358,55.358,0,1,0,29.343-102.305" transform="translate(-407.137 -290.471)"/><path class="f" d="M392.935,446.624a55.321,55.321,0,0,0-26.006-46.938,55.363,55.363,0,0,0,0,93.877,55.321,55.321,0,0,0,26.006-46.939" transform="translate(-282.067 -331.003)"/><path class="g" d="M370.906,399.686a55.4,55.4,0,0,0-25.178,37.383,55.328,55.328,0,0,0,49.765-2.942,55.449,55.449,0,0,0-24.587-34.442" transform="translate(-286.045 -331.003)"/><path class="h" d="M160.109,358.2a55.473,55.473,0,0,0,31.952,38.321,54.94,54.94,0,0,1,1.321-5.741c.009-.03.017-.06.025-.091q.4-1.391.874-2.754l.012-.032a55.081,55.081,0,0,1,2.16-5.3l.067-.143q.6-1.259,1.25-2.482c.023-.043.047-.085.07-.128q1.315-2.439,2.863-4.726l.152-.225q.749-1.1,1.549-2.156l.175-.228q1.623-2.124,3.441-4.082c.089-.1.177-.193.267-.288q.874-.928,1.789-1.816c.1-.1.2-.189.3-.284q1.886-1.8,3.936-3.421c.123-.1.245-.195.368-.29q.986-.767,2.007-1.488c.13-.092.261-.181.391-.272.709-.493,1.427-.974,2.16-1.433l0,0a55.293,55.293,0,0,0-57.13-.938" transform="translate(-132.378 -290.46)"/><path class="i" d="M543.326,355.268A55.336,55.336,0,0,0,492,359.147l0,0c.679.425,1.345.871,2,1.325q.224.155.447.31c.645.454,1.282.918,1.906,1.4.084.065.167.133.25.2q.851.661,1.673,1.357c.124.105.25.208.374.315q.893.765,1.753,1.568c.11.1.218.208.327.312q.778.739,1.529,1.507c.082.084.166.166.248.251q.823.854,1.608,1.745c.111.125.22.252.33.378.515.593,1.022,1.194,1.512,1.81.014.017.028.033.042.05.5.633.988,1.28,1.464,1.935q.146.2.29.4c.469.658.927,1.323,1.366,2,.029.045.057.091.086.136q.628.974,1.212,1.976c.074.127.15.253.224.381q.6,1.05,1.166,2.127c.052.1.1.2.154.306q.517,1.009.992,2.043c.045.1.091.192.135.29q.506,1.118.963,2.263c.052.13.1.262.154.394.3.753.578,1.513.84,2.282.009.026.018.051.027.076.269.792.516,1.594.75,2.4.042.146.084.292.125.437.228.815.443,1.635.635,2.465a55.417,55.417,0,0,0,26.738-38.321" transform="translate(-407.137 -290.466)"/></g></g></g><text class="j" transform="translate(74 206)"><tspan x="0" y="0">CMYK</tspan></text></svg>