<svg xmlns="http://www.w3.org/2000/svg" width="717.927" height="185" viewBox="0 0 717.927 185"><defs><style>.a,.e,.i,.l{fill:#fff;}.a,.d,.f,.k,.l,.m{stroke:#1a1a1a;stroke-miterlimit:10;}.b{fill:#969696;}.b,.e{font-size:43px;font-family:NotoSansCJKkr-Regular, Noto Sans CJK KR;}.c{fill:#696969;font-size:13px;}.c,.h{font-family:NotoSansCJKkr-Medium, Noto Sans CJK KR;font-weight:500;letter-spacing:0.02em;}.d,.j{fill:#ababab;}.f,.m{fill:#30e646;}.g,.k{fill:none;}.g{stroke:#707070;}.h{fill:#707070;font-size:12px;}.l,.m{stroke-width:0.783px;}</style></defs><g transform="translate(0.5)"><g transform="translate(346 -24)"><g transform="translate(-52 67)"><rect class="a" width="66" height="84" transform="translate(0 0)"/><text class="b" transform="translate(21.069 58.632)"><tspan x="0" y="0">2</tspan></text><rect class="a" width="66" height="84" transform="translate(66.048 0)"/><text class="b" transform="translate(87.342 58.632)"><tspan x="0" y="0">3</tspan></text><rect class="a" width="66" height="84" transform="translate(132.048)"/><rect class="a" width="66" height="84" transform="translate(198.048)"/><text class="b" transform="translate(153.342 58.631)"><tspan x="0" y="0">4</tspan></text><text class="b" transform="translate(219.342 58.631)"><tspan x="0" y="0">5</tspan></text></g><text class="c" transform="translate(92 176)"><tspan x="-24.18" y="0">안쪽</tspan></text><g transform="translate(-280 67)"><rect class="d" width="66" height="84" transform="translate(66)"/><text class="e" transform="translate(87.069 58.604)"><tspan x="0" y="0">8</tspan></text><rect class="f" width="66" height="84" transform="translate(132.048)"/><text class="e" transform="translate(153.342 58.604)"><tspan x="0" y="0">1</tspan></text><rect class="d" width="66" height="84"/><rect class="d" width="66" height="84" transform="translate(-66)"/><text class="e" transform="translate(21.069 58.604)"><tspan x="0" y="0">7</tspan></text><text class="e" transform="translate(-44.931 58.604)"><tspan x="0" y="0">6</tspan></text></g><text class="c" transform="translate(-196 176)"><tspan x="-36.4" y="0">바깥쪽</tspan></text><g transform="translate(-441.355 66.5)"><g transform="translate(95.303 -42.5)"><line class="g" y2="20" transform="translate(0.052 18)"/><path class="g" d="M0,0V20" transform="translate(64.782 18)"/><line class="g" x1="64" transform="translate(0.5 28)"/><text class="h" transform="translate(20 14)"><tspan x="0" y="0">97%</tspan></text></g><g transform="translate(161.363 -42.5)"><line class="g" y2="20" transform="translate(0.052 18)"/><path class="g" d="M0,0V20" transform="translate(64.782 18)"/><path class="g" d="M65,0H0" transform="translate(-0.008 28)"/><text class="h" transform="translate(16.492 14)"><tspan x="0" y="0">100%</tspan></text></g><g transform="translate(228.303 -42.5)"><line class="g" y2="20" transform="translate(0.052 18)"/><path class="g" d="M0,0V20" transform="translate(64.782 18)"/><line class="g" x1="64" transform="translate(0.485 28)"/><text class="h" transform="translate(15.985 14)"><tspan x="0" y="0">100%</tspan></text></g><g transform="translate(294.303 -42.5)"><line class="g" y2="20" transform="translate(0.052 18)"/><path class="g" d="M0,0V20" transform="translate(64.782 18)"/><line class="g" x1="64" transform="translate(0.485 28)"/><text class="h" transform="translate(19.985 14)"><tspan x="0" y="0">97%</tspan></text></g></g><g transform="translate(-147.355 66.5)"><g transform="translate(95.303 -42.5)"><line class="g" y2="20" transform="translate(0.052 18)"/><path class="g" d="M0,0V20" transform="translate(64.782 18)"/><line class="g" x1="64" transform="translate(0.5 28)"/><text class="h" transform="translate(20 14)"><tspan x="0" y="0">97%</tspan></text></g><g transform="translate(161.363 -42.5)"><line class="g" y2="20" transform="translate(0.052 18)"/><path class="g" d="M0,0V20" transform="translate(64.782 18)"/><path class="g" d="M65,0H0" transform="translate(-0.008 28)"/><text class="h" transform="translate(16.492 14)"><tspan x="0" y="0">100%</tspan></text></g><g transform="translate(228.303 -42.5)"><line class="g" y2="20" transform="translate(0.052 18)"/><path class="g" d="M0,0V20" transform="translate(64.782 18)"/><line class="g" x1="64" transform="translate(0.485 28)"/><text class="h" transform="translate(15.985 14)"><tspan x="0" y="0">100%</tspan></text></g><g transform="translate(294.303 -42.5)"><line class="g" y2="20" transform="translate(0.052 18)"/><path class="g" d="M0,0V20" transform="translate(64.782 18)"/><line class="g" x1="64" transform="translate(0.485 28)"/><text class="h" transform="translate(19.985 14)"><tspan x="0" y="0">97%</tspan></text></g></g></g><g transform="translate(629.036 6)"><rect class="a" width="81.511" height="110.501" transform="translate(0.057)"/><g transform="translate(37.615 0.13)"><path class="i" d="M2.649,127.479l43.957-17.053L46.61.9,2.649,12.506Z" transform="translate(-2.649 -0.899)"/><path class="j" d="M2.649,127.479l43.957-17.053L46.61.9,2.649,12.506Z" transform="translate(-2.649 -0.899)"/><path class="k" d="M2.649,127.479l43.957-17.053L46.61.9,2.649,12.506Z" transform="translate(-2.649 -0.899)"/></g><path class="l" d="M398.738,133.807,348.3,110.328V.8l50.438,23.535Z" transform="translate(-310.738 11.193)"/><path class="m" d="M398.738,133.807l-50.474-22.432L348.3.8l50.438,23.535Z" transform="translate(-348.3 -0.629)"/></g><text class="c" transform="translate(697 181)"><tspan x="-47.255" y="0">4단 접지</tspan></text></g></svg>