<svg xmlns="http://www.w3.org/2000/svg" width="379" height="119" viewBox="0 0 379 119"><defs><style>.a{fill:#696969;font-size:13px;font-family:NotoSansCJKkr-Medium, Noto Sans CJK KR;font-weight:500;letter-spacing:0.02em;}.b{fill:#30e646;}.c{fill:#231815;}</style></defs><text class="a" transform="translate(147 115)"><tspan x="-133.51" y="0">인쇄용 레이어 (레이어1)</tspan></text><g transform="translate(0 0)"><g transform="translate(61 0)"><g transform="translate(9.836 1.617)"><path class="b" d="M118.6,2.079s6.645,4.984.316,15.585h22.152s9.019-4.826.237-15.664Z" transform="translate(-118.6 -2)"/></g><path class="c" d="M138.154.447a3.293,3.293,0,0,0-1.4-.458h-3.43c-5.145,0-17.229-.076-20.893,0a1.469,1.469,0,0,0-.546.153,3.44,3.44,0,0,0-.39.076,7.7,7.7,0,0,0-4.911,3.816,8.934,8.934,0,0,0-1.091,3.74c-.078.611,0,2.366,0,2.6V32.582a1.588,1.588,0,0,0,.39.992,1.454,1.454,0,0,0,.935.382h0l29.078-.076a1.425,1.425,0,0,0,1.4-1.3h0l-2.261-10.3a1.421,1.421,0,0,0-1.325-1.374,1.3,1.3,0,0,0-.936.382,1.393,1.393,0,0,0-.39.916h0l2.261,8.93-26.272.076V7.928a6.418,6.418,0,0,1,.78-2.6,5.12,5.12,0,0,1,3.2-2.519,3.415,3.415,0,0,1,2.729.305c1.949,1.3,3.274,2.366,3.274,6.03,0,3.969-3.352,7.1-3.352,7.1a1.476,1.476,0,0,0-.39,1.45,1.336,1.336,0,0,0,1.247.84h19.489c1.715-.076,1.793-.076,2.027-.076a5.443,5.443,0,0,0,.624-.229,9.3,9.3,0,0,0,5.457-8.7C143.222,3.577,139.714,1.211,138.154.447ZM136.6,15.866h-.078a7.309,7.309,0,0,0-1.4.076H118.587a12.155,12.155,0,0,0,2.261-6.717,9,9,0,0,0-2.183-6.488h17.852c.078,0,.156.076.156,0l.156.076c1.091.534,3.586,2.214,3.586,6.717A6.606,6.606,0,0,1,136.6,15.866Z" transform="translate(-105.456 0.044)"/></g><g transform="translate(0 49)"><g transform="translate(104.607 6.545)"><path class="c" d="M175.48,72.5a6.38,6.38,0,1,0,6.38,6.38A6.378,6.378,0,0,0,175.48,72.5Zm0,10.578a4.192,4.192,0,0,1-4.2-4.2,4.2,4.2,0,0,1,8.4,0A4.265,4.265,0,0,1,175.48,83.078Z" transform="translate(-169.1 -72.5)"/></g><g transform="translate(37.805 22.549)"><path class="c" d="M61.3,108.828a1.123,1.123,0,0,0,1.119,1.119h6.157a1.119,1.119,0,1,0,0-2.239H63.539v-4.589a1.119,1.119,0,0,0-2.239,0Z" transform="translate(-61.3 -102)"/></g><g transform="translate(64.314 5.897)"><path class="c" d="M105.819,71.3a1.123,1.123,0,0,0-1.119,1.119v10.8a1.119,1.119,0,0,0,2.239,0v-10.8A1.123,1.123,0,0,0,105.819,71.3Z" transform="translate(-104.7 -71.3)"/></g><g transform="translate(37.655 5.897)"><path class="c" d="M62.419,71.3A1.123,1.123,0,0,0,61.3,72.419v10.8a1.119,1.119,0,0,0,2.239,0v-10.8A1.123,1.123,0,0,0,62.419,71.3Z" transform="translate(-61.3 -71.3)"/></g><g transform="translate(121.072 5.897)"><path class="c" d="M198.219,71.3a1.123,1.123,0,0,0-1.119,1.119v10.8a1.119,1.119,0,1,0,2.239,0v-10.8A1.123,1.123,0,0,0,198.219,71.3Z" transform="translate(-197.1 -71.3)"/></g><g transform="translate(72.219 6.933)"><path class="c" d="M135.374,83.106l-8.563-9.515h0a1.19,1.19,0,0,0-.84-.392,1.007,1.007,0,0,0-.84.392l-8.675,9.627a1.15,1.15,0,0,0,.056,1.623,1.047,1.047,0,0,0,.784.28,1.007,1.007,0,0,0,.84-.392L125.971,76l.056.056,7.668,8.507a1.492,1.492,0,0,0,.784.392,1.337,1.337,0,0,0,.784-.28A1.042,1.042,0,0,0,135.374,83.106Z" transform="translate(-116.148 -73.2)"/></g><g transform="translate(131.463 7.098)"><path class="c" d="M221.418,73.5h-10.3A1.123,1.123,0,0,0,210,74.619v9.4a1.123,1.123,0,0,0,1.119,1.119h10.186a1.119,1.119,0,1,0,0-2.239h-9.011V75.739h9.179a1.123,1.123,0,0,0,1.119-1.119A1.172,1.172,0,0,0,221.418,73.5Z" transform="translate(-210 -73.5)"/></g><g transform="translate(56.522 21.821)"><path class="c" d="M96.189,100.7a4.589,4.589,0,1,0,4.589,4.589A4.61,4.61,0,0,0,96.189,100.7Zm0,6.94a2.351,2.351,0,1,1,2.351-2.351A2.365,2.365,0,0,1,96.189,107.64Z" transform="translate(-91.6 -100.7)"/></g><g transform="translate(45.897 7.19)"><path class="c" d="M85.73,73.5H75.319a1.119,1.119,0,0,0,0,2.239H85.73a1.119,1.119,0,0,0,0-2.239Z" transform="translate(-74.2 -73.5)"/></g><g transform="translate(45.897 11.766)"><path class="c" d="M85.73,81.9H75.319a1.119,1.119,0,0,0,0,2.239H85.73a1.119,1.119,0,0,0,0-2.239Z" transform="translate(-74.2 -81.9)"/></g><g transform="translate(45.897 16.342)"><path class="c" d="M85.73,90.3H75.319a1.119,1.119,0,0,0,0,2.239H85.73a1.119,1.119,0,0,0,0-2.239Z" transform="translate(-74.2 -90.3)"/></g><g transform="translate(17.182 7.153)"><path class="c" d="M31.819,85.186H42.23a1.119,1.119,0,0,0,0-2.239H34.618l7.892-7a.983.983,0,0,0,.224-.28h0a1.154,1.154,0,0,0,.56-.951A1.123,1.123,0,0,0,42.174,73.6H31.819a1.119,1.119,0,1,0,0,2.239h7.5l-7.948,6.94a1,1,0,0,0-.28.392v.056a1.139,1.139,0,0,0-.336.84A1.043,1.043,0,0,0,31.819,85.186Z" transform="translate(-30.7 -73.6)"/></g><g transform="translate(0 22.715)"><path class="c" d="M1.119,104.239H11.53a1.119,1.119,0,0,0,0-2.239H1.119a1.119,1.119,0,0,0,0,2.239Z" transform="translate(0 -102)"/></g><path class="c" d="M1.119,79.329H11.53a1.119,1.119,0,0,0,0-2.239h-.951V62.539h.951a1.119,1.119,0,0,0,0-2.239H1.119a1.119,1.119,0,0,0,0,2.239h.951V77.091H1.119a1.119,1.119,0,0,0,0,2.239ZM4.366,62.539H8.339V77.091H4.366Z" transform="translate(0 -60.3)"/><g transform="translate(95.7 5.191)"><path class="c" d="M160.032,70c-3.694.9-4.589,3.47-4.533,4.757v7.892a1.119,1.119,0,1,0,2.239,0v-8s0-1.959,2.91-2.575a1.727,1.727,0,0,0,.056-1.119A1.52,1.52,0,0,0,160.032,70Z" transform="translate(-155.496 -70)"/></g><g transform="translate(146.684 5.191)"><path class="c" d="M241.732,70c-3.694.9-4.589,3.47-4.533,4.757v7.892a1.119,1.119,0,1,0,2.239,0v-8s0-1.959,2.91-2.575a1.728,1.728,0,0,0,.056-1.119A1.773,1.773,0,0,0,241.732,70Z" transform="translate(-237.196 -70)"/></g><g transform="translate(154.634 2.966)"><circle class="b" cx="2.183" cy="2.183" r="2.183"/></g></g></g><text class="a" transform="translate(373 115)"><tspan x="-145.73" y="0">후가공용 레이어 (레이어2)</tspan></text><g transform="translate(220)"><g transform="translate(55.499 0)"><g transform="translate(9.631 1.629)"><path class="c" d="M118.6,2.08s6.694,5.02.319,15.7h22.313s9.084-4.861.239-15.778Z" transform="translate(-118.6 -2)"/></g><path class="c" d="M138.154.447a3.293,3.293,0,0,0-1.4-.458h-3.43c-5.145,0-17.229-.076-20.893,0a1.469,1.469,0,0,0-.546.153,3.439,3.439,0,0,0-.39.076,7.7,7.7,0,0,0-4.911,3.816,8.934,8.934,0,0,0-1.091,3.74c-.078.611,0,2.366,0,2.6V32.582a1.588,1.588,0,0,0,.39.992,1.454,1.454,0,0,0,.935.382h0l29.078-.076a1.425,1.425,0,0,0,1.4-1.3h0l-2.261-10.3a1.421,1.421,0,0,0-1.325-1.374,1.3,1.3,0,0,0-.936.382,1.393,1.393,0,0,0-.39.916h0l2.261,8.93-26.272.076V7.928a6.417,6.417,0,0,1,.78-2.6,5.12,5.12,0,0,1,3.2-2.519,3.415,3.415,0,0,1,2.729.305c1.949,1.3,3.274,2.366,3.274,6.03,0,3.969-3.352,7.1-3.352,7.1a1.476,1.476,0,0,0-.39,1.45,1.336,1.336,0,0,0,1.247.84h19.489c1.715-.076,1.793-.076,2.027-.076a5.442,5.442,0,0,0,.624-.229,9.3,9.3,0,0,0,5.457-8.7C143.222,3.577,139.714,1.211,138.154.447ZM136.6,15.866h-.078a7.31,7.31,0,0,0-1.4.076H118.587a12.155,12.155,0,0,0,2.261-6.717,9,9,0,0,0-2.183-6.488h17.852c.078,0,.156.076.156,0l.156.076c1.091.534,3.586,2.214,3.586,6.717A6.606,6.606,0,0,1,136.6,15.866Z" transform="translate(-105.456 0.044)"/></g><g transform="translate(0 49)"><g transform="translate(104.707 6.595)"><path class="c" d="M175.411,72.5a6.311,6.311,0,1,0,6.311,6.311A6.308,6.308,0,0,0,175.411,72.5Zm0,10.462a4.146,4.146,0,0,1-4.152-4.152,4.152,4.152,0,0,1,8.3,0A4.219,4.219,0,0,1,175.411,82.962Z" transform="translate(-169.1 -72.5)"/></g><g transform="translate(37.828 22.641)"><path class="c" d="M61.3,108.754a1.11,1.11,0,0,0,1.107,1.107H68.5a1.107,1.107,0,1,0,0-2.214H63.514v-4.539a1.107,1.107,0,0,0-2.214,0v5.646Z" transform="translate(-61.3 -102)"/></g><g transform="translate(64.324 5.944)"><path class="c" d="M105.807,71.3a1.11,1.11,0,0,0-1.107,1.107V83.091a1.107,1.107,0,0,0,2.214,0V72.407A1.11,1.11,0,0,0,105.807,71.3Z" transform="translate(-104.7 -71.3)"/></g><g transform="translate(37.661 5.944)"><path class="c" d="M62.407,71.3A1.11,1.11,0,0,0,61.3,72.407V83.091a1.107,1.107,0,0,0,2.214,0V72.407A1.11,1.11,0,0,0,62.407,71.3Z" transform="translate(-61.3 -71.3)"/></g><g transform="translate(121.091 5.944)"><path class="c" d="M198.207,71.3a1.11,1.11,0,0,0-1.107,1.107V83.091a1.107,1.107,0,0,0,2.214,0V72.407A1.11,1.11,0,0,0,198.207,71.3Z" transform="translate(-197.1 -71.3)"/></g><g transform="translate(72.33 6.98)"><path class="c" d="M135.164,83l-8.47-9.411h0a1.177,1.177,0,0,0-.83-.387,1,1,0,0,0-.83.387l-8.58,9.521a1.137,1.137,0,0,0,.055,1.605,1.036,1.036,0,0,0,.775.277,1,1,0,0,0,.83-.388l7.75-8.636.055.055,7.584,8.414a1.476,1.476,0,0,0,.775.387,1.323,1.323,0,0,0,.775-.277A1.031,1.031,0,0,0,135.164,83Z" transform="translate(-116.148 -73.2)"/></g><g transform="translate(131.765 7.145)"><path class="c" d="M221.293,73.5H211.107A1.11,1.11,0,0,0,210,74.607v9.3a1.11,1.11,0,0,0,1.107,1.107h10.075a1.107,1.107,0,0,0,0-2.214H212.27V75.714h9.078a1.11,1.11,0,0,0,1.107-1.107A1.159,1.159,0,0,0,221.293,73.5Z" transform="translate(-210 -73.5)"/></g><g transform="translate(56.56 21.922)"><path class="c" d="M96.139,100.7a4.539,4.539,0,1,0,4.539,4.539A4.56,4.56,0,0,0,96.139,100.7Zm0,6.864a2.325,2.325,0,1,1,2.325-2.325A2.339,2.339,0,0,1,96.139,107.564Z" transform="translate(-91.6 -100.7)"/></g><g transform="translate(45.94 7.196)"><path class="c" d="M85.6,73.5h-10.3a1.107,1.107,0,1,0,0,2.214H85.6a1.107,1.107,0,0,0,0-2.214Z" transform="translate(-74.2 -73.5)"/></g><g transform="translate(45.94 11.776)"><path class="c" d="M85.6,81.9h-10.3a1.107,1.107,0,1,0,0,2.214H85.6a1.107,1.107,0,0,0,0-2.214Z" transform="translate(-74.2 -81.9)"/></g><g transform="translate(45.94 16.356)"><path class="c" d="M85.6,90.3h-10.3a1.107,1.107,0,1,0,0,2.214H85.6a1.107,1.107,0,0,0,0-2.214Z" transform="translate(-74.2 -90.3)"/></g><g transform="translate(16.994 7.199)"><path class="c" d="M31.807,85.059H42.1a1.107,1.107,0,0,0,0-2.214H34.575l7.805-6.92a.972.972,0,0,0,.221-.277h0a1.142,1.142,0,0,0,.554-.941A1.11,1.11,0,0,0,42.048,73.6H31.807a1.107,1.107,0,1,0,0,2.214h7.418l-7.861,6.864a.993.993,0,0,0-.277.387v.055a1.127,1.127,0,0,0-.332.83A1.032,1.032,0,0,0,31.807,85.059Z" transform="translate(-30.7 -73.6)"/></g><g transform="translate(0 22.734)"><path class="c" d="M1.107,104.214H11.4a1.107,1.107,0,1,0,0-2.214H1.107a1.107,1.107,0,1,0,0,2.214Z" transform="translate(0 -102)"/></g><path class="c" d="M1.107,79.121H11.4a1.107,1.107,0,0,0,0-2.214h-.941V62.514H11.4a1.107,1.107,0,0,0,0-2.214H1.107a1.107,1.107,0,0,0,0,2.214h.941V76.907H1.107a1.107,1.107,0,0,0,0,2.214ZM4.318,62.514h3.93V76.907H4.318Z" transform="translate(0 -60.3)"/><g transform="translate(95.736 5.236)"><path class="c" d="M159.982,70c-3.654.886-4.539,3.432-4.484,4.705v7.805a1.107,1.107,0,1,0,2.214,0V74.595s0-1.937,2.879-2.546a1.709,1.709,0,0,0,.055-1.107A1.5,1.5,0,0,0,159.982,70Z" transform="translate(-155.496 -70)"/></g><g transform="translate(146.819 5.236)"><path class="c" d="M241.682,70c-3.654.886-4.539,3.432-4.484,4.705v7.805a1.107,1.107,0,0,0,2.214,0V74.595s0-1.937,2.879-2.546a1.709,1.709,0,0,0,.055-1.107A1.754,1.754,0,0,0,241.682,70Z" transform="translate(-237.196 -70)"/></g><g transform="translate(154.682 2.934)"><circle class="c" cx="2.159" cy="2.159" r="2.159"/></g></g></g></svg>