<svg xmlns="http://www.w3.org/2000/svg" width="585.055" height="184" viewBox="0 0 585.055 184"><defs><style>.a,.g,.i{fill:#fff;}.a,.f,.h,.k,.l{stroke:#1a1a1a;stroke-miterlimit:10;}.b{fill:#969696;}.b,.g{font-size:43px;font-family:NotoSansCJKkr-Regular, Noto Sans CJK KR;}.c{fill:#696969;font-size:13px;}.c,.e{font-family:NotoSansCJKkr-Medium, Noto Sans CJK KR;font-weight:500;letter-spacing:0.02em;}.d,.k{fill:none;}.d{stroke:#707070;}.e{fill:#707070;font-size:12px;}.f,.j{fill:#ababab;}.h,.l{fill:#30e646;}.l{stroke-width:0.783px;}</style></defs><g transform="translate(0.5)"><g transform="translate(395 -87)"><g transform="translate(-3)"><g transform="translate(-164 130)"><rect class="a" width="66" height="84" transform="translate(0 0)"/><text class="b" transform="translate(21.069 58.632)"><tspan x="0" y="0">2</tspan></text><rect class="a" width="66" height="84" transform="translate(66.024 0)"/><text class="b" transform="translate(87.318 58.632)"><tspan x="0" y="0">4</tspan></text><rect class="a" width="66" height="84" transform="translate(132)"/><text class="b" transform="translate(153.294 58.631)"><tspan x="0" y="0">5</tspan></text></g><text class="c" transform="translate(-53 239)"><tspan x="-24.18" y="0">안쪽</tspan></text><g transform="translate(-259.355 129.5)"><g transform="translate(95.355 -42.5)"><line class="d" y2="20" transform="translate(0.052 18)"/><path class="d" d="M0,0V20" transform="translate(64.782 18)"/><line class="d" x1="64" transform="translate(0.5 28)"/><text class="e" transform="translate(15 14)"><tspan x="0" y="0">100%</tspan></text></g><g transform="translate(161.863 -42.5)"><line class="d" y2="20" transform="translate(0.052 18)"/><path class="d" d="M0,0V20" transform="translate(64.782 18)"/><line class="d" x1="64" transform="translate(0.492 28)"/><text class="e" transform="translate(16.5 14)"><tspan x="0" y="0">100%</tspan></text></g><g transform="translate(228.371 -42.5)"><line class="d" y2="20" transform="translate(0.052 18)"/><path class="d" d="M0,0V20" transform="translate(64.782 18)"/><line class="d" x1="64" transform="translate(0.485 28)"/><text class="e" transform="translate(19.985 14)"><tspan x="0" y="0">97%</tspan></text></g></g></g><g transform="translate(-395 130)"><rect class="f" width="66" height="84" transform="translate(65.976)"/><text class="g" transform="translate(87.045 58.604)"><tspan x="0" y="0">6</tspan></text><rect class="h" width="66" height="84" transform="translate(132)"/><text class="g" transform="translate(153.294 58.604)"><tspan x="0" y="0">1</tspan></text><rect class="f" width="66" height="84"/><text class="g" transform="translate(21.069 58.604)"><tspan x="0" y="0">3</tspan></text></g><text class="c" transform="translate(-278 239)"><tspan x="-36.4" y="0">바깥쪽</tspan></text><g transform="translate(-490.355 129.5)"><g transform="translate(95.355 -42.5)"><line class="d" y2="20" transform="translate(0.052 18)"/><path class="d" d="M0,0V20" transform="translate(64.782 18)"/><line class="d" x1="64" transform="translate(0.5 28)"/><text class="e" transform="translate(20 14)"><tspan x="0" y="0">97%</tspan></text></g><g transform="translate(161.863 -42.5)"><line class="d" y2="20" transform="translate(0.052 18)"/><path class="d" d="M0,0V20" transform="translate(64.782 18)"/><path class="d" d="M65,0H0" transform="translate(-0.008 28)"/><text class="e" transform="translate(16.492 14)"><tspan x="0" y="0">100%</tspan></text></g><g transform="translate(228.371 -42.5)"><line class="d" y2="20" transform="translate(0.052 18)"/><path class="d" d="M0,0V20" transform="translate(64.782 18)"/><line class="d" x1="64" transform="translate(0.485 28)"/><text class="e" transform="translate(15.985 14)"><tspan x="0" y="0">100%</tspan></text></g></g></g><g transform="translate(496.055 6)"><rect class="a" width="87.931" height="118.544" transform="translate(0.061)"/><g transform="translate(40.84 0.14)"><path class="i" d="M2.649,137.821l47.156-18.446L49.809.9,2.649,13.454Z" transform="translate(-2.649 -0.899)"/><path class="j" d="M2.649,137.821l47.156-18.446L49.809.9,2.649,13.454Z" transform="translate(-2.649 -0.899)"/><path class="k" d="M2.649,137.821,49.8,119.457,49.809.9,2.649,13.454Z" transform="translate(-2.649 -0.899)"/></g><path class="l" d="M402.409,144.617l-54.164-25.185L348.3.8l54.109,25.448Z" transform="translate(-348.3 -0.617)"/></g><text class="c" transform="translate(563 180)"><tspan x="-47.255" y="0">3단 접지</tspan></text></g></svg>