<svg xmlns="http://www.w3.org/2000/svg" width="989" height="185.5" viewBox="0 0 989 185.5"><defs><style>.a,.e{fill:#fff;}.a,.d,.f,.g{stroke:#1a1a1a;stroke-miterlimit:10;}.b{fill:#969696;}.b,.e{font-size:43px;font-family:NotoSansCJKkr-Regular, Noto Sans CJK KR;}.c{fill:#696969;font-size:13px;font-family:NotoSansCJKkr-Medium, Noto Sans CJK KR;font-weight:500;letter-spacing:0.02em;}.d{fill:#ababab;}.f,.g{fill:#30e646;}.g{stroke-width:0.783px;}.h,.j{fill:none;}.h{stroke:#eee;}.i{stroke:none;}</style></defs><g transform="translate(0.5 0.5)"><g transform="translate(0 24)"><g transform="translate(152)"><rect class="a" width="66" height="84"/><text class="b" transform="translate(21.5 59.5)"><tspan x="0" y="0">2</tspan></text><rect class="a" width="66" height="84" transform="translate(66)"/><text class="b" transform="translate(87.5 59.5)"><tspan x="0" y="0">3</tspan></text></g><text class="c" transform="translate(229.5 109)"><tspan x="-24.18" y="0">안쪽</tspan></text><g transform="translate(0 0)"><rect class="d" width="66" height="84"/><text class="e" transform="translate(21.5 59.5)"><tspan x="0" y="0">4</tspan></text><rect class="f" width="66" height="84" transform="translate(66)"/><text class="e" transform="translate(87.5 60.5)"><tspan x="0" y="0">1</tspan></text></g><text class="c" transform="translate(84.5 109)"><tspan x="-36.4" y="0">바깥쪽</tspan></text></g><g transform="translate(354 11)"><rect class="a" width="87.939" height="118.273" transform="translate(0.061)"/><path class="g" d="M411.871,140.617,348.3,119.693V.8l63.571,20.986Z" transform="translate(-348.3 -0.617)"/></g><text class="c" transform="translate(463 181)"><tspan x="-129.376" y="0">2단 접지(반접지) - 좌우</tspan></text><g class="h" transform="translate(517 6) rotate(90)"><rect class="i" width="150" height="1"/><rect class="j" x="0.5" y="0.5" width="149"/></g><g transform="translate(590)"><g transform="translate(188) rotate(90)"><rect class="a" width="66" height="84"/><text class="b" transform="translate(51.5 52.5) rotate(-90)"><tspan x="0" y="0">2</tspan></text><rect class="a" width="66" height="84" transform="translate(66.5)"/><text class="b" transform="translate(117 52.5) rotate(-90)"><tspan x="0" y="0">3</tspan></text></g><text class="c" transform="translate(158 157)"><tspan x="-24.18" y="0">안쪽</tspan></text><g transform="translate(0 132) rotate(-90)"><rect class="d" width="66" height="84"/><text class="e" transform="translate(14.5 30) rotate(90)"><tspan x="0" y="0">4</tspan></text><rect class="f" width="66" height="84" transform="translate(66)"/><text class="e" transform="translate(116.5 54) rotate(-90)"><tspan x="0" y="0">1</tspan></text></g><text class="c" transform="translate(60 157)"><tspan x="-36.4" y="0">바깥쪽</tspan></text></g><g transform="translate(988 37) rotate(90)"><rect class="a" width="87.939" height="118.874" transform="translate(0.061 0)"/><path class="g" d="M63.894,139.816,0,118.892V0L63.894,20.985Z" transform="translate(0 0.184)"/></g><text class="c" transform="translate(983 181)"><tspan x="-129.376" y="0">2단 접지(반접지) - 상하</tspan></text></g></svg>