<svg xmlns="http://www.w3.org/2000/svg" width="21" height="17" viewBox="0 0 21 17"><defs><style>.a,.b,.d{fill:none;}.a{stroke:#909090;stroke-linecap:round;stroke-linejoin:round;}.c,.e{stroke:none;}.e{fill:#909090;}</style></defs><g class="a"><rect class="c" width="21" height="17"/><rect class="d" x="0.5" y="0.5" width="20" height="16"/></g><g class="b" transform="translate(4 4)"><path class="c" d="M1.778.168a2,2,0,1,1-2,2A2,2,0,0,1,1.778.168Z"/><path class="e" d="M 1.7783203125 1.16796875 C 1.226920366287231 1.16796875 0.7783203125 1.616568803787231 0.7783203125 2.16796875 C 0.7783203125 2.719368696212769 1.226920366287231 3.16796875 1.7783203125 3.16796875 C 2.329720258712769 3.16796875 2.7783203125 2.719368696212769 2.7783203125 2.16796875 C 2.7783203125 1.616568803787231 2.329720258712769 1.16796875 1.7783203125 1.16796875 M 1.7783203125 0.16796875 C 2.882890224456787 0.16796875 3.7783203125 1.063398838043213 3.7783203125 2.16796875 C 3.7783203125 3.272538661956787 2.882890224456787 4.16796875 1.7783203125 4.16796875 C 0.6737504005432129 4.16796875 -0.2216796875 3.272538661956787 -0.2216796875 2.16796875 C -0.2216796875 1.063398838043213 0.6737504005432129 0.16796875 1.7783203125 0.16796875 Z"/></g><path class="a" d="M37.449,312.29l6.316-5.513,4.2,4.256" transform="translate(-35 -297.999)"/><path class="a" d="M46.078,308.307l3.374-3.648,4.4,3.944" transform="translate(-35 -297.999)"/></svg>