<svg xmlns="http://www.w3.org/2000/svg" width="28.509" height="28.642" viewBox="0 0 28.509 28.642"><defs><style>.a{fill:none;stroke:#30e646;stroke-width:1.5px;}.b{fill:#30e646;}</style></defs><g transform="translate(0.759 0.748)"><path class="a" d="M5316.088,404.239c.535.412,2.314,2.217,3.152,3.056a1.77,1.77,0,0,1,.352,2.189c-.246.427-1.46,1.435-1.771,2.324a3.8,3.8,0,0,0,.138,3.015,13.391,13.391,0,0,0,3.426,3.483,3.162,3.162,0,0,0,3.039.408c1.344-.406,2.165-1.727,2.563-1.929a1.845,1.845,0,0,1,1.685,0,30.3,30.3,0,0,1,3.438,3.3,1.925,1.925,0,0,1,.095,2.19,8.342,8.342,0,0,1-2.7,2.429,13.4,13.4,0,0,1-4.516.095,15.471,15.471,0,0,1-10.746-6.8,14.039,14.039,0,0,1-2.412-5.649c-.28-1.641-.6-4.35-.119-5.424a8.638,8.638,0,0,1,2.3-2.687A1.853,1.853,0,0,1,5316.088,404.239Z" transform="translate(-5311.464 -397.937)"/><path class="a" d="M5323.293,413.861c0-.544,0-11.969,0-12.865a3.288,3.288,0,0,1,1.125-2.356,3.906,3.906,0,0,1,2.954-.969c1.214,0,1.322-.077,8.271,0a3.239,3.239,0,0,1,3.083,3.325v7.078a3.308,3.308,0,0,1-2.778,3.295c-.823.1-8.7-.175-9.006,0S5323.293,414.405,5323.293,413.861Z" transform="translate(-5311.723 -397.637)"/><path class="b" d="M5329.895,403.817c.357-.3.126-.784.322-1.115a.833.833,0,0,1,.723-.492.784.784,0,0,1,.768.286,1.045,1.045,0,0,1,0,1.146c-.232.359-.437.347-.937.5s-.465.235-.62.534a.867.867,0,0,0,0,.661,1.025,1.025,0,0,0,.62.474,2.089,2.089,0,0,0,1.651-.3,2.539,2.539,0,0,0,1.214-1.446,3.358,3.358,0,0,0-.089-2.09,2.332,2.332,0,0,0-1.585-1.4,2.768,2.768,0,0,0-2.252.143,2.862,2.862,0,0,0-1.341,1.714,1.3,1.3,0,0,0,.214,1.394A1.1,1.1,0,0,0,5329.895,403.817Z" transform="translate(-5311.664 -397.637)"/><path class="b" d="M1.43,0a1,1,0,1,1-1,1A1,1,0,0,1,1.43,0Z" transform="translate(17.943 9.03)"/></g></svg>