<svg xmlns="http://www.w3.org/2000/svg" width="57.881" height="76.027" viewBox="0 0 57.881 76.027"><defs><style>.a,.c{fill:none;stroke-linecap:round;}.a,.b{stroke:#ebebeb;stroke-linejoin:round;stroke-width:1.2px;}.b{fill:#fff;}.c{stroke:#d2d2d2;stroke-width:4px;}</style></defs><g transform="translate(0.6 0.6)"><path class="a" d="M4904.928,11419.044l10.163,22.575v51.536l-10.163-21.569Z" transform="translate(-4886.882 -11419.044)"/><path class="a" d="M4915.091,11419.044l-10.163,22.575v51.536l10.163-21.569Z" transform="translate(-4876.856 -11419.044)"/><path class="b" d="M4896.7,11421.156l20.094,19.328v51.631l-19.068-16.708Z" transform="translate(-4889.356 -11418.004)"/><path class="b" d="M4919.368,11421.156l-22.669,19.328v51.631l21.511-16.708Z" transform="translate(-4868.402 -11418.004)"/><path class="b" d="M4891.511,11424.582l28.3,14.186v52.379l-27.7-15.512Z" transform="translate(-4891.511 -11416.318)"/><path class="b" d="M4919.895,11424.582l-28.384,14.186v52.379l27.914-15.408Z" transform="translate(-4863.214 -11416.318)"/><line class="c" y2="47.633" transform="translate(28.296 24.384)"/></g></svg>