<svg xmlns="http://www.w3.org/2000/svg" width="57.879" height="76.025" viewBox="0 0 57.879 76.025"><defs><style>.a,.c{fill:none;stroke-linecap:round;}.a,.b{stroke:#ebebeb;stroke-linejoin:round;stroke-width:1.2px;}.b{fill:#fff;}.c{stroke:#30e646;stroke-width:4px;}</style></defs><g transform="translate(0.6 0.6)"><path class="a" d="M4904.928,11419.045l10.163,22.574v51.535l-10.163-21.568Z" transform="translate(-4886.882 -11419.045)"/><path class="a" d="M4915.09,11419.045l-10.163,22.574v51.535l10.163-21.568Z" transform="translate(-4876.856 -11419.045)"/><path class="b" d="M4896.7,11421.156l20.094,19.327v51.631l-19.067-16.708Z" transform="translate(-4889.355 -11418.004)"/><path class="b" d="M4919.368,11421.156l-22.669,19.327v51.631l21.511-16.708Z" transform="translate(-4868.402 -11418.004)"/><path class="b" d="M4891.511,11424.582l28.3,14.186v52.377l-27.7-15.51Z" transform="translate(-4891.511 -11416.318)"/><path class="b" d="M4919.894,11424.582l-28.383,14.186v52.377l27.914-15.406Z" transform="translate(-4863.215 -11416.318)"/><line class="c" y2="5.245" transform="translate(28.296 30.254)"/><line class="c" y2="5.245" transform="translate(28.296 58.072)"/></g></svg>