<svg xmlns="http://www.w3.org/2000/svg" width="55.015" height="62.556" viewBox="0 0 55.015 62.556"><defs><style>.a,.c,.d{fill:#fff;}.a,.b,.c{stroke:#ebebeb;stroke-width:2px;}.a{stroke-linecap:round;}.a,.c{stroke-linejoin:round;}.b{fill:none;}.c{stroke-miterlimit:10;}</style></defs><g transform="translate(1.015 1.013)"><path class="a" d="M1028.713,6619.957l-44.532-.14v-45.951h40.94Z" transform="translate(-977.231 -6559.413)"/><path class="b" d="M851.484,1795.4a6.706,6.706,0,0,0-6.378,6.257l-.56,45.821,6.938-6.006Z" transform="translate(-844.534 -1795.395)"/><path class="a" d="M1030.231,6620.17h-46.05v-46.305h40.929Z" transform="translate(-977.231 -6573.865)"/><path class="c" d="M7.7,0C2.037,0-.257,3.645.023,7.376c.194,3.733,2.05,5.935,6.971,6.758" transform="translate(0 46.284)"/><path class="d" d="M43.571.476l-42-.191-.385,12.1.835.112,41.711-.087Z" transform="translate(5.623 46.993)"/><path class="b" d="M14.1,0H0" transform="translate(46.338 46.305) rotate(90)"/></g></svg>