<svg xmlns="http://www.w3.org/2000/svg" width="70.015" height="62.015" viewBox="0 0 70.015 62.015"><defs><style>.a,.c,.d,.e{fill:#fff;}.a,.b,.c{stroke:#ebebeb;}.a,.e{stroke-linecap:round;}.a,.c,.e{stroke-linejoin:round;}.a,.b,.c,.e{stroke-width:2px;}.b{fill:none;}.c{stroke-miterlimit:10;}.e{stroke:#d2d2d2;}</style></defs><g transform="translate(1.015 1.013)"><path class="a" d="M1028.361,6619.816h-44.18v-45.951h39.267Z" transform="translate(-977.231 -6559.816)"/><path class="b" d="M851.484,1795.4a6.692,6.692,0,0,0-6.378,6.209l-.56,45.466,6.938-5.96Z" transform="translate(-844.534 -1795.395)"/><path class="a" d="M1029.878,6619.745h-45.7v-45.88H1024.8Z" transform="translate(-977.231 -6573.865)"/><path class="c" d="M7.7,0C2.037,0-.257,3.645.023,7.376c.194,3.733,2.05,5.935,6.971,6.758" transform="translate(0 45.881)"/><path class="d" d="M42.941.379,1.777.284l-.609,12.1.813.063,40.961-.056Z" transform="translate(5.623 46.589)"/><path class="e" d="M1032.477,6626.391l-15.337-4.98-5.061-45.939,11.992,5.749Z" transform="translate(-964.477 -6575.462)"/><path class="b" d="M14.1,0H0" transform="translate(45.985 45.902) rotate(90)"/></g></svg>