<svg xmlns="http://www.w3.org/2000/svg" width="55.015" height="62.556" viewBox="0 0 55.015 62.556"><defs><style>.a{opacity:0.6;}.b,.d,.e{fill:#fff;}.b,.c,.d{stroke:#30e646;stroke-width:2px;}.b{stroke-linecap:round;}.b,.d{stroke-linejoin:round;}.c{fill:none;}.d{stroke-miterlimit:10;}</style></defs><g transform="translate(1.015 1.013)"><g class="a" transform="translate(-844.538 -1795.395)"><path class="b" d="M1028.713,6619.957l-44.532-.14v-45.951h40.94Z" transform="translate(-132.693 -4764.018)"/><path class="c" d="M851.484,1795.4a6.706,6.706,0,0,0-6.378,6.257l-.56,45.821,6.938-6.006Z" transform="translate(0.004)"/><path class="b" d="M1030.231,6620.17h-46.05v-46.305h40.929Z" transform="translate(-132.693 -4778.47)"/><path class="d" d="M7.7,0C2.037,0-.257,3.645.023,7.376c.194,3.733,2.05,5.935,6.971,6.758" transform="translate(844.538 1841.679)"/><path class="e" d="M43.571.476l-42-.191-.385,12.1.835.112,41.711-.087Z" transform="translate(850.161 1842.388)"/><path class="c" d="M14.1,0H0" transform="translate(890.876 1841.7) rotate(90)"/></g></g></svg>