<svg xmlns="http://www.w3.org/2000/svg" width="70.015" height="62.015" viewBox="0 0 70.015 62.015"><defs><style>.a{opacity:0.6;}.b,.d,.e{fill:#fff;}.b,.c,.d{stroke:#30e646;stroke-width:2px;}.b{stroke-linecap:round;}.b,.d{stroke-linejoin:round;}.c{fill:none;}.d{stroke-miterlimit:10;}</style></defs><g transform="translate(1.015 1.013)"><g class="a" transform="translate(-844.538 -1795.395)"><path class="b" d="M1028.361,6619.816h-44.18v-45.951h39.267Z" transform="translate(-132.693 -4764.421)"/><path class="c" d="M851.484,1795.4a6.692,6.692,0,0,0-6.378,6.209l-.56,45.466,6.938-5.96Z" transform="translate(0.004)"/><path class="b" d="M1029.878,6619.745h-45.7v-45.88H1024.8Z" transform="translate(-132.693 -4778.47)"/><path class="d" d="M7.7,0C2.037,0-.257,3.645.023,7.376c.194,3.733,2.05,5.935,6.971,6.758" transform="translate(844.538 1841.276)"/><path class="e" d="M42.941.379,1.777.284l-.609,12.1.813.063,40.961-.056Z" transform="translate(850.161 1841.984)"/><path class="c" d="M14.1,0H0" transform="translate(890.523 1841.297) rotate(90)"/><path class="b" d="M1032.477,6626.391l-15.337-4.98-5.061-45.939,11.992,5.749Z" transform="translate(-119.939 -4780.067)"/></g><path class="b" d="M1032.477,6626.391l-15.337-4.98-5.061-45.939,11.992,5.749Z" transform="translate(-964.477 -6575.462)"/></g></svg>