<svg xmlns="http://www.w3.org/2000/svg" width="66.149" height="55.325" viewBox="0 0 66.149 55.325"><defs><style>.a{fill:#30e646;}.b,.c{fill:none;stroke:#30e646;stroke-linecap:round;stroke-width:2px;}.b{stroke-linejoin:round;}.c{stroke-miterlimit:10;}</style></defs><g transform="translate(1 0.13)"><path class="a" d="M375.7,43.51" transform="translate(-326.151 -43.51)"/><rect class="b" width="53.325" height="64.149" transform="translate(0 54.195) rotate(-90)"/><g transform="translate(5.902 4.963)"><path class="a" d="M96.679,99.365V93.914a6.471,6.471,0,0,0-1.908-4.606,6.611,6.611,0,0,0-.754-.648,6.86,6.86,0,0,0,.674-.589,6.789,6.789,0,1,0-8.919.591A6.508,6.508,0,0,0,83.1,93.915v5.451a1.328,1.328,0,0,0,1.329,1.329H95.35a1.33,1.33,0,0,0,1.33-1.329ZM85.763,83.273A4.128,4.128,0,1,1,89.892,87.4h0A4.132,4.132,0,0,1,85.763,83.273Zm0,14.763V93.915a3.859,3.859,0,0,1,3.855-3.855h.546a3.888,3.888,0,0,1,.89.1,3.859,3.859,0,0,1,2.965,3.752v4.121Z" transform="translate(-83.104 -76.486)"/></g><line class="c" x2="17.743" transform="translate(24.285 9.864)"/><line class="c" x2="27.479" transform="translate(24.045 18.75)"/><line class="c" x2="27.479" transform="translate(24.045 24.772)"/><line class="c" x2="48.717" transform="translate(8.182 34.077)"/><line class="c" x2="48.717" transform="translate(8.182 40.099)"/><line class="c" x2="26.658" transform="translate(8.182 46.21)"/></g></svg>