<svg xmlns="http://www.w3.org/2000/svg" width="66.325" height="66" viewBox="0 0 66.325 66"><defs><style>.a{fill:#30e646;}.b,.d{fill:none;}.b,.d,.e{stroke:#d2d2d2;stroke-linecap:round;stroke-width:2px;}.b,.e{stroke-linejoin:round;}.c{fill:#d2d2d2;}.d{stroke-miterlimit:10;}.e{fill:#fff;}</style></defs><g transform="translate(1 1)"><g transform="translate(42.893) rotate(90)"><path class="a" d="M0,0" transform="translate(38.265 0)"/><rect class="b" width="42.217" height="52.951" transform="translate(0 42.893) rotate(-90)"/><g transform="translate(4.074 36.992) rotate(-90)"><g transform="translate(0)"><path class="c" d="M10.542,17.766V13.533A5.025,5.025,0,0,0,9.059,9.957a5.134,5.134,0,0,0-.585-.5A5.328,5.328,0,0,0,9,9,5.27,5.27,0,0,0,1.543,1.544a5.267,5.267,0,0,0,.528,7.912A5.054,5.054,0,0,0,0,13.534v4.233A1.031,1.031,0,0,0,1.033,18.8H9.509a1.033,1.033,0,0,0,1.033-1.032ZM2.065,5.271A3.206,3.206,0,1,1,5.271,8.476h0A3.209,3.209,0,0,1,2.065,5.271Zm0,11.464v-3.2A3,3,0,0,1,5.059,10.54h.424a3.019,3.019,0,0,1,.691.08,3,3,0,0,1,2.3,2.914v3.2Z"/></g></g><line class="d" y1="6.5" transform="translate(7.879 16.689)"/><line class="d" x2="16.962" transform="translate(14.697 23.005) rotate(-90)"/><line class="d" x2="16.962" transform="translate(19.347 23.005) rotate(-90)"/><line class="d" x2="31.192" transform="translate(26.476 37.381) rotate(-90)"/><line class="d" x2="31.192" transform="translate(31.6 37.381) rotate(-90)"/><line class="d" x2="31.191" transform="translate(36.724 37.381) rotate(-90)"/><line class="d" x2="31.191" transform="translate(41.849 37.381) rotate(-90)"/><line class="d" y1="13.852" transform="translate(46.939 23.529)"/></g><g transform="translate(65 11.049) rotate(90)"><path class="a" d="M0,0" transform="translate(38.265 0)"/><rect class="e" width="42.217" height="52.951" transform="translate(0 42.893) rotate(-90)"/><g transform="translate(4.074 36.992) rotate(-90)"><g transform="translate(0)"><path class="c" d="M10.542,17.766V13.533A5.025,5.025,0,0,0,9.059,9.957a5.134,5.134,0,0,0-.585-.5A5.328,5.328,0,0,0,9,9,5.27,5.27,0,0,0,1.543,1.544a5.267,5.267,0,0,0,.528,7.912A5.054,5.054,0,0,0,0,13.534v4.233A1.031,1.031,0,0,0,1.033,18.8H9.509a1.033,1.033,0,0,0,1.033-1.032ZM2.065,5.271A3.206,3.206,0,1,1,5.271,8.476h0A3.209,3.209,0,0,1,2.065,5.271Zm0,11.464v-3.2A3,3,0,0,1,5.059,10.54h.424a3.019,3.019,0,0,1,.691.08,3,3,0,0,1,2.3,2.914v3.2Z"/></g></g><line class="d" y1="6.5" transform="translate(7.879 16.689)"/><line class="d" x2="16.962" transform="translate(14.697 23.005) rotate(-90)"/><line class="d" x2="16.962" transform="translate(19.347 23.005) rotate(-90)"/><line class="d" x2="31.192" transform="translate(26.476 37.381) rotate(-90)"/><line class="d" x2="31.192" transform="translate(31.6 37.381) rotate(-90)"/><line class="d" x2="31.191" transform="translate(36.724 37.381) rotate(-90)"/><line class="d" x2="31.191" transform="translate(41.849 37.381) rotate(-90)"/><line class="d" y1="13.852" transform="translate(46.939 23.529)"/></g></g></svg>