<svg xmlns="http://www.w3.org/2000/svg" width="46.466" height="59.756" viewBox="0 0 46.466 59.756"><defs><style>.a{fill:#ebebeb;}.b{opacity:0.5;mix-blend-mode:multiply;isolation:isolate;}.c{fill:#f6f6f6;}.d{fill:#fff;opacity:0.6;}</style></defs><path class="a" d="M690.176,185.51c-.047.08-.095.161-.143.24C690.081,185.671,690.128,185.59,690.176,185.51Z" transform="translate(-646.88 -137.295)"/><path class="a" d="M658.279,150.94l.124-.2.043-.07.043-.073.032-.054,0,.005c.047-.079.094-.158.141-.238l.019-.032-.014.025.031-.054c.069-.118.136-.238.2-.357s.123-.221.182-.331q.1-.2.206-.394c.058-.113.114-.225.17-.339q.1-.2.192-.4.082-.173.16-.349.091-.2.177-.405c.05-.119.1-.238.149-.358q.082-.2.162-.408c.047-.123.092-.247.137-.37s.1-.273.146-.411.085-.254.127-.381.088-.273.13-.412.077-.263.115-.4.078-.273.114-.41.069-.273.1-.41.067-.271.1-.408.061-.284.09-.426.056-.268.082-.4.051-.3.076-.446c.022-.131.045-.262.065-.394.023-.155.043-.313.063-.47.016-.127.034-.253.049-.38.018-.166.032-.335.047-.5.011-.119.024-.238.032-.357.015-.188.023-.379.033-.57,0-.1.013-.2.016-.3.011-.291.017-.584.017-.877q0-.675-.041-1.354l.035-.02q-.058-.976-.2-1.936l-.034-.007c-2.447-17.529-23-33.182-23-33.182s-23.232,17.445-23.232,36.5v.024a23,23,0,0,0,.12,2.351h0q.029.282.064.561c0,.011,0,.023,0,.035.023.18.048.361.076.54.007.046.015.092.023.138.018.113.036.225.055.338.016.091.032.181.049.272l.029.151a23.158,23.158,0,0,0,5.391,10.96l.138.154.16.176c.08.088.161.175.243.261l.081.086c.122.128.246.255.371.38l0,0q.193.193.391.383l.01.009a23.162,23.162,0,0,0,2.43,2.022l.133.094.031.022a23.111,23.111,0,0,0,8.249,3.7l.051.012a23.209,23.209,0,0,0,19.443-4.343l-.031-.008a23.328,23.328,0,0,0,2.355-2.111l.159-.163.125-.134c.082-.087.164-.174.245-.262.036-.039.072-.079.107-.12.085-.094.17-.19.253-.285l.1-.114c.085-.1.169-.2.253-.3l.093-.113c.083-.1.167-.2.249-.309l.089-.112c.082-.1.161-.209.241-.314.029-.039.06-.077.088-.117.075-.1.15-.2.223-.306.032-.045.065-.089.1-.134l0,0c.1-.145.2-.291.3-.439.009-.014.019-.028.028-.043q.158-.235.31-.476c-.008.013-.016.026-.024.039C658.214,151.046,658.246,150.993,658.279,150.94Zm.664-1.126.007-.013-.044.08Z" transform="translate(-615.369 -102.089)"/><g class="b" transform="translate(9.093 24.28)"><path class="c" d="M690.176,185.51c-.047.08-.095.161-.143.24C690.081,185.671,690.128,185.59,690.176,185.51Z" transform="translate(-655.973 -161.575)"/><path class="c" d="M664.919,168.669c.042-.066.083-.132.124-.2l.043-.07.043-.073.032-.054,0,.005c.047-.079.094-.158.141-.238l.019-.032-.014.025.031-.054c.069-.118.136-.238.2-.357s.122-.221.182-.331q.1-.2.206-.394c.058-.113.115-.225.17-.339q.1-.2.193-.4.081-.173.159-.349.091-.2.177-.405c.05-.119.1-.238.149-.358q.082-.2.162-.408c.047-.123.092-.247.137-.37s.1-.273.146-.411.085-.254.127-.381.089-.273.13-.412.077-.263.114-.4.078-.273.115-.41.069-.273.1-.41.067-.271.1-.408.061-.284.09-.426.056-.268.081-.4.051-.3.076-.446c.022-.131.045-.262.065-.394.023-.155.043-.313.063-.47.016-.127.034-.253.048-.38.019-.166.032-.335.047-.5.011-.119.024-.238.032-.357.014-.188.023-.379.033-.57,0-.1.013-.2.016-.3.011-.291.017-.584.017-.877q0-.675-.041-1.354l.035-.02q-.058-.976-.2-1.936l-.034-.007a34.412,34.412,0,0,0-2.63-8.9q.09,1.132.092,2.275t-.094,2.3a28.891,28.891,0,0,1-.9,5.188q-.205.764-.451,1.515a29.028,29.028,0,0,1-6.491,10.909c-.178.187-.357.373-.54.556a28.9,28.9,0,0,1-26.12,7.915c.18.138.361.275.545.407l.134.094.031.022a23.111,23.111,0,0,0,8.249,3.7l.051.012a23.209,23.209,0,0,0,19.443-4.343l-.031-.008a23.308,23.308,0,0,0,2.355-2.111l.16-.163.125-.134c.082-.087.164-.174.245-.262.036-.039.072-.079.108-.12.085-.094.17-.19.253-.285l.1-.114c.085-.1.169-.2.253-.3l.093-.113c.083-.1.166-.2.249-.309l.089-.112c.081-.1.161-.209.241-.314.029-.039.06-.077.088-.117.075-.1.15-.2.223-.306.032-.045.065-.089.1-.134l0,0c.1-.145.2-.291.3-.439.009-.014.019-.028.028-.043q.158-.235.31-.476c-.008.013-.016.026-.024.039C664.854,168.775,664.886,168.722,664.919,168.669Zm.663-1.126.007-.013-.044.08Z" transform="translate(-631.102 -144.098)"/></g><path class="d" d="M639.335,112.666l-1.21,1.652c-.76,1.051-1.83,2.55-3.049,4.365-.61.907-1.254,1.9-1.914,2.951s-1.329,2.175-2,3.344c-.325.589-.66,1.183-.981,1.793q-.245.455-.476.923c-.161.309-.315.621-.473.935-.615,1.258-1.189,2.554-1.714,3.864s-.981,2.641-1.374,3.965c-.1.33-.184.664-.273.994s-.168.66-.253.988-.146.658-.217.983-.126.652-.188.975a33.622,33.622,0,0,0-.454,3.763c-.044.6-.055,1.194-.064,1.766,0,.286,0,.568,0,.845s.023.549.027.816c.05,1.068.149,2.051.263,2.927.061.437.127.847.187,1.228s.13.729.193,1.045.126.6.174.846.105.456.144.625l.114.528-.3-.448c-.1-.147-.218-.328-.35-.548s-.275-.475-.437-.764-.317-.619-.5-.977c-.093-.178-.17-.37-.258-.569s-.179-.4-.264-.618a23.512,23.512,0,0,1-.958-2.982,23.749,23.749,0,0,1-.588-3.689,25.82,25.82,0,0,1,.014-4.187c.03-.362.069-.727.112-1.094s.1-.734.163-1.1.124-.74.2-1.109.159-.741.254-1.109a32.47,32.47,0,0,1,1.4-4.38,37.545,37.545,0,0,1,1.955-4.131c.359-.659.733-1.3,1.126-1.925.191-.313.392-.618.587-.923s.4-.6.605-.89c.812-1.168,1.655-2.252,2.492-3.244s1.672-1.888,2.469-2.686,1.56-1.5,2.255-2.093,1.319-1.092,1.846-1.485A19.373,19.373,0,0,1,639.335,112.666Z" transform="translate(-618.197 -106.553)"/></svg>