<svg xmlns="http://www.w3.org/2000/svg" width="56.215" height="70" viewBox="0 0 56.215 70"><defs><style>.a{fill:#30e646;}.b,.c{fill:none;stroke:#30e646;stroke-linecap:round;stroke-width:2px;}.b{stroke-linejoin:round;}.c{stroke-miterlimit:10;}</style></defs><g transform="translate(1 1)"><g transform="translate(55.083) rotate(90)"><path class="a" d="M0,0" transform="translate(49.139 0)"/><rect class="b" width="54.215" height="68" transform="translate(0 55.083) rotate(-90)"/><g transform="translate(5.232 47.504) rotate(-90)"><g transform="translate(0)"><path class="a" d="M13.537,22.815V17.38a6.453,6.453,0,0,0-1.9-4.593,6.593,6.593,0,0,0-.752-.646,6.842,6.842,0,0,0,.672-.587A6.768,6.768,0,0,0,1.982,1.983a6.764,6.764,0,0,0,.678,10.16A6.49,6.49,0,0,0,0,17.381v5.436a1.325,1.325,0,0,0,1.326,1.326H12.211a1.326,1.326,0,0,0,1.326-1.326ZM2.652,6.768a4.117,4.117,0,1,1,4.117,4.116h0A4.121,4.121,0,0,1,2.652,6.768Zm0,14.722v-4.11A3.849,3.849,0,0,1,6.5,13.536h.545a3.877,3.877,0,0,1,.888.1,3.849,3.849,0,0,1,2.957,3.742v4.11Z"/></g></g><line class="c" y1="8.348" transform="translate(10.118 21.432)"/><line class="c" x2="21.782" transform="translate(18.873 29.543) rotate(-90)"/><line class="c" x2="21.782" transform="translate(24.845 29.543) rotate(-90)"/><line class="c" x2="40.056" transform="translate(34 48.004) rotate(-90)"/><line class="c" x2="40.056" transform="translate(40.581 48.004) rotate(-90)"/><line class="c" x2="40.056" transform="translate(47.161 48.004) rotate(-90)"/><line class="c" x2="40.056" transform="translate(53.742 48.004) rotate(-90)"/><line class="c" y1="17.788" transform="translate(60.279 30.216)"/></g></g></svg>