<svg xmlns="http://www.w3.org/2000/svg" viewBox="0 0 366.73 682.76">
    <defs>
        <style>
            .cls-1,.cls-46,.cls-47,.cls-48{fill:none}.cls-2,.cls-45{fill:#f7f7f7}.cls-2,.cls-46,.cls-47,.cls-48{stroke:#231815}.cls-2,.cls-45,.cls-46,.cls-47,.cls-48,.cls-7{stroke-linecap:round;stroke-linejoin:round}.cls-2,.cls-45,.cls-48,.cls-6,.cls-7{stroke-width:4px}.cls-3,.cls-5,.cls-6,.cls-7{fill:#231815}.cls-3,.cls-4{fill-rule:evenodd}.cls-11,.cls-4{fill:#fff}.cls-45,.cls-6,.cls-7{stroke:#333}.cls-6{stroke-miterlimit:10}.cls-8{fill:#f4f4f4}.cls-9{fill:#30e646}.cls-10{clip-path:url(#clip-path)}.cls-12{fill:#fffffe}.cls-13{fill:#fefefe}.cls-14{fill:#fefefd}.cls-15{fill:#fdfdfd}.cls-16{fill:#fcfdfc}.cls-17{fill:#fbfcfa}.cls-18{fill:#fafbf9}.cls-19{fill:#f8faf7}.cls-20{fill:#f6f8f5}.cls-21{fill:#f4f7f3}.cls-22{fill:#f2f5f0}.cls-23{fill:#f1f4ef}.cls-24{fill:#eff2ee}.cls-25{fill:#eef1ec}.cls-26{fill:#ecf0eb}.cls-27{fill:#ebeeea}.cls-28{fill:#eaede9}.cls-29{fill:#e8ece8}.cls-30{fill:#e7ebe7}.cls-31{fill:#e6eae6}.cls-32{fill:#e5e9e5}.cls-33{fill:#e4e8e4}.cls-34{fill:#e3e7e3}.cls-35{fill:#e2e6e3}.cls-36{fill:#e1e5e2}.cls-37{fill:#e0e4e1}.cls-38{fill:#dfe3e0}.cls-39{clip-path:url(#clip-path-2)}.cls-40{clip-path:url(#clip-path-3)}.cls-41{fill:#84153e}.cls-42{fill:#e36820}.cls-43{fill:#da5b02}.cls-44{fill:#720427}.cls-46{stroke-width:3px}
        </style>
        <clipPath id="clip-path">
            <path d="M145.23 357a5.79 5.79 0 1 0 3.86-7 5.66 5.66 0 0 0-3.86 7z" class="cls-1"/>
        </clipPath>
        <clipPath id="clip-path-2">
            <ellipse cx="143.83" cy="316.86" class="cls-1" rx="4.58" ry="4.38" transform="matrix(.95 -.3 .3 .95 -88.18 57.52)"/>
        </clipPath>
        <clipPath id="clip-path-3">
            <ellipse cx="154.11" cy="326.88" class="cls-1" rx="5.9" ry="5.65" transform="rotate(-17.4 154.127 326.921)"/>
        </clipPath>
    </defs>
    <g id="레이어_2" data-name="레이어 2">
        <g id="레이어_1-2" data-name="레이어 1">
            <path d="M56.72 566.85L77 635.38s7 21.34 4.47 24.82c0 0-19.58 13.9-6.22 17.95s54.75 3.54 56.75-2.54 12-76.44 44.74-78c0 0 30.71-7.09 44.07 21.26 0 0 10.58 21.43 22.5 55.19 2.45 6.94 40.94 7.08 58.3 1.51s-8-16.7-6.68-22.78 22-46.58 25.38-83" class="cls-2"/>
            <path d="M290.71 223.6c-15.71-26.22-29.51-63.12-28-93.71 2.2-45.17-7-70.41-7-70.41s-.53-.3 4.84-9c10-16.18-3.18-33.7-9.72-36S230 18.22 230 18.22 212.94 4.56 182.81 2.37c-40.7-3-60.5 12.57-69.86 22.27a24 24 0 0 0-15.48-2.59c-3 .44-15.08 12.08-14.53 25.31.29 6.89 6.4 10 12.7 16.23-10.48 24.64-5.69 62-.21 99.58 5.85 40.25-37.64 101.54-37.64 101.54C26 291.87 27.39 416 30 497.26A162.55 162.55 0 0 1 41.56 535l.24 6.56c.73-.17 1.46-.36 2.2-.52a120.3 120.3 0 0 1 62.57-7.77 159 159 0 0 1 78.14 29.47l29.77 28q3.3 4 6.3 8.21a121.75 121.75 0 0 1 9.74-18 119.62 119.62 0 0 1 37.82-48 119.86 119.86 0 0 1 47.28-26.13c7.41-24.86 5.36-35 5.36-35 21.26-99.82-14.56-222-30.27-248.22z" class="cls-2"/>
            <path d="M157.78 53.34c-3.71-.19-6.95 3.56-7.23 8.38s2.5 8.87 6.21 9.06 7-3.56 7.23-8.37-2.5-8.88-6.21-9.07z" class="cls-3"/>
            <path d="M154.07 58a2.26 2.26 0 1 0 2.13 2.38 2.25 2.25 0 0 0-2.13-2.38z" class="cls-4"/>
            <path d="M194.51 55.06c-3.71-.19-7 3.75-7.26 8.78s2.47 9.28 6.18 9.47 7-3.75 7.26-8.78-2.47-9.29-6.18-9.47z" class="cls-3"/>
            <path d="M190.77 60.15a2.26 2.26 0 1 0 2.12 2.38 2.25 2.25 0 0 0-2.12-2.38z" class="cls-4"/>
            <path d="M170.37 86.8c-.63.12-4.6-.32-6.35 5.12-.59 1.85 3 5.68 4.18 7.24s1.55 1.89 4.91 2.57 4.33-.13 5.8.17 7.65-6.06 8.12-9.46-2.15-4.09-4.72-5.46c-2.31-1.22-10.8-.39-11.94-.18z" class="cls-5"/>
            <path d="M172.86 100.8l-2-2.15s-2.2.94-1.15 2.24 4 4.66 4 4.66.53 4.17.82 6.66.06 12.26.69 12.39a5.17 5.17 0 0 0 2-.42s-.51-15.09-.55-17.07 1.09-2.39 2.86-4.29c1.34-1.45 3-3.49 3-3.49a9.1 9.1 0 0 0-2.09-1.33c-.63-.13-7.33 3.77-7.33 3.77M237.65 27.54c1.4-1.05 10.81-2.11 13.55 3.16 3.59 6.87-1.08 16.72-2.6 16.67-1.74 0-3.34-6.55-5.11-10-3.4-6.7-7.15-8.84-5.84-9.83zM107.65 35.17c-1.27-.8-9.39-1-11.36 3.68-2.56 6.15 2.14 14.21 3.43 14.06 1.49-.18 2.38-5.84 3.64-8.94 2.43-5.97 5.48-8.05 4.29-8.8z" class="cls-5"/>
            <path d="M27.06 381.64s-25.27 100 1.25 167.88c0 0 19.94 48.67 26.23 53.67 10.53 8.35 58.28 21.62 121.13 25.8 53.84 3.58 138.14-8.63 152.32-19.12a96.08 96.08 0 0 0 11-22c14.69-44.74 35.55-112.18 19.71-194.6l-60.39-93.06-243 77.31z" class="cls-6"/>
            <path d="M303.53 328.16s-13.69 13.51-34.92 2c-9.68-5.22-10.93-3-12.1-1.73s-2.36 4.54-2.74 7.09a87.86 87.86 0 0 1-4.34 17.6c-2.93 7.52-9.33 13.48-13.16 18.36-5.6 6.05 7.72 20.85 7.72 20.85 33.63 41 61.92 49.72 79.07 47.31 35.53-5 40-40.15 41.53-58.44s-9.24-57.73-29-85.41c-22.35-31.33-43.85-80-43.85-80 .31-10.95 2.34-21.48-5.21-28.48s-32.82-.22-32.82-.22c-20.2 5.75-54.31 11.3-81.26 10.37C120.51 195.72 92 180.4 78 191.38c-8.13 6.42-3.5 27-3.5 27s-18.12 33.84-33.71 65.05S-.45 370.31 19 422.79" class="cls-7"/>
            <path d="M165 380.46l-18.22 5.71c-9.57 2.82-16-8.09-13.11-15.86 3.37-9.06-2.27-20.69-3.23-24.35s-9.65-16.86-18.08-39c-11-28.85-5.12-50.86-3.81-57.44 2.21-11.22-4.65-32.55-6.08-37.13l9.23-2.9 9.23-2.89c1.44 4.58 8 26 16.2 34 4.83 4.66 22.2 19.39 29.66 49.34 5.71 23 5.6 39 6.9 42.51s3.32 16.32 11.26 21.84c6.8 4.73 7.75 17.36-1.72 20.51z" class="cls-8"/>
            <path d="M133.66 370.31c3.37-9.06-2.27-20.69-3.23-24.35s-9.65-16.86-18.08-39c-11-28.85-5.12-50.86-3.81-57.44 2.21-11.22-4.65-32.55-6.08-37.13l9.23-2.9 53.3 171-18.22 5.71c-9.57 2.8-16-8.12-13.11-15.89z" class="cls-8"/>
            <rect width="22.53" height="5.1" x="99.77" y="204.84" class="cls-8" rx="1.27" transform="matrix(.95 -.3 .3 .95 -56.94 42.7)"/>
            <path d="M111.8 209.82l-8.06 2.53a2.7 2.7 0 0 1-3.45-1.59 2.7 2.7 0 0 1 1.92-3.28l8.06-2.53z" class="cls-8"/>
            <path d="M164.32 300.11s2 17.9 3 24.88 6.24 27.69 12.47 31.4c5.51 3.27 8.06 12 1.64 14.05L163.64 376l-21.34-69z" class="cls-9"/>
            <path d="M139.28 368.82c3-6.61-4.61-26.34-7.82-32.61s-11.26-22.28-11.26-22.28h.08l21.94-6.93h.08l21.34 69-17.74 5.56h-.08c-6.42 2.03-9.19-6.91-6.54-12.74z" class="cls-9"/>
            <g class="cls-10">
                <path d="M155.67 349.01l1.51 10.29v-10.29h-1.51z" class="cls-11"/>
                <path d="M155.08 349.01l1.83 12.48h.27v-2.19l-1.51-10.29h-.59zM154.49 349.01l1.82 12.48h.6l-1.83-12.48h-.59z" class="cls-11"/>
                <path d="M153.89 349.01l1.83 12.48h.59l-1.82-12.48h-.6z" class="cls-11"/>
                <path d="M153.3 349.01l1.82 12.48h.6l-1.83-12.48h-.59z" class="cls-11"/>
                <path d="M152.7 349.01l1.83 12.48h.59l-1.82-12.48h-.6z" class="cls-12"/>
                <path d="M152.11 349.01l1.83 12.48h.59l-1.83-12.48h-.59z" class="cls-13"/>
                <path d="M151.51 349.01l1.83 12.48h.6l-1.83-12.48h-.6z" class="cls-14"/>
                <path d="M150.92 349.01l1.83 12.48h.59l-1.83-12.48h-.59z" class="cls-15"/>
                <path d="M150.32 349.01l1.83 12.48h.6l-1.83-12.48h-.6z" class="cls-16"/>
                <path d="M149.73 349.01l1.83 12.48h.59l-1.83-12.48h-.59z" class="cls-17"/>
                <path d="M149.13 349.01l1.83 12.48h.6l-1.83-12.48h-.6z" class="cls-18"/>
                <path d="M148.54 349.01l1.83 12.48h.59l-1.83-12.48h-.59z" class="cls-19"/>
                <path d="M147.94 349.01l1.83 12.48h.6l-1.83-12.48h-.6z" class="cls-20"/>
                <path d="M147.35 349.01l1.83 12.48h.59l-1.83-12.48h-.59z" class="cls-21"/>
                <path d="M146.76 349.01l1.82 12.48h.6l-1.83-12.48h-.59z" class="cls-22"/>
                <path d="M146.61 349.01l1.83 12.48h.14l-1.82-12.48h-.15z" class="cls-22"/>
                <path d="M146.47 349.01l1.82 12.48h.15l-1.83-12.48h-.14z" class="cls-23"/>
                <path d="M146.32 349.01l1.83 12.48h.14l-1.82-12.48h-.15z" class="cls-24"/>
                <path d="M146.18 349.01l1.82 12.48h.15l-1.83-12.48h-.14z" class="cls-25"/>
                <path d="M146.03 349.01l1.83 12.48h.14l-1.82-12.48h-.15z" class="cls-26"/>
                <path d="M145.88 349.01l1.83 12.48h.15l-1.83-12.48h-.15z" class="cls-27"/>
                <path d="M145.74 349.01l1.83 12.48h.14l-1.83-12.48h-.14z" class="cls-28"/>
                <path d="M145.59 349.01l1.83 12.48h.15l-1.83-12.48h-.15z" class="cls-29"/>
                <path d="M145.45 349.01l1.83 12.48h.14l-1.83-12.48h-.14z" class="cls-30"/>
                <path d="M145.3 349.01l1.83 12.48h.15l-1.83-12.48h-.15z" class="cls-31"/>
                <path d="M145.16 349.01l1.83 12.48h.14l-1.83-12.48h-.14z" class="cls-32"/>
                <path d="M145.01 349.01l1.83 12.48h.15l-1.83-12.48h-.15z" class="cls-33"/>
                <path d="M144.87 349.01l1.82 12.48h.15l-1.83-12.48h-.14z" class="cls-34"/>
                <path d="M144.72 349.01l1.83 12.48h.14l-1.82-12.48h-.15z" class="cls-35"/>
                <path d="M144.58 349.01l1.82 12.48h.15l-1.83-12.48h-.14z" class="cls-36"/>
                <path d="M144.43 349.01l1.83 12.48h.14l-1.82-12.48h-.15zM144.32 349.21l1.79 12.28h.15l-1.83-12.48h-.11v.2z" class="cls-37"/>
                <path d="M144.32 350.2l1.65 11.29h.14l-1.79-12.28v.99z" class="cls-38"/>
                <path d="M144.32 351.19l1.5 10.3h.15l-1.65-11.29v.99z" class="cls-38"/>
                <path d="M145.82 361.49l-1.5-10.3v10.3h1.5z" class="cls-38"/>
            </g>
            <g class="cls-39">
                <path d="M147.73 311.92l1.2 8.15v-8.15h-1.2z" class="cls-11"/>
                <path d="M147.26 311.92l1.45 9.88h.22v-1.73l-1.2-8.15h-.47z" class="cls-11"/>
                <path d="M146.79 311.92l1.45 9.88h.47l-1.45-9.88h-.47z" class="cls-11"/>
                <path d="M146.32 311.92l1.45 9.88h.47l-1.45-9.88h-.47z" class="cls-11"/>
                <path d="M145.85 311.92l1.45 9.88h.47l-1.45-9.88h-.47z" class="cls-11"/>
                <path d="M145.38 311.92l1.45 9.88h.47l-1.45-9.88h-.47z" class="cls-12"/>
                <path d="M144.91 311.92l1.45 9.88h.47l-1.45-9.88h-.47z" class="cls-13"/>
                <path d="M144.44 311.92l1.44 9.88h.48l-1.45-9.88h-.47z" class="cls-14"/>
                <path d="M143.97 311.92l1.44 9.88h.47l-1.44-9.88h-.47z" class="cls-15"/>
                <path d="M143.5 311.92l1.44 9.88h.47l-1.44-9.88h-.47z" class="cls-16"/>
                <path d="M143.03 311.92l1.44 9.88h.47l-1.44-9.88h-.47z" class="cls-17"/>
                <path d="M142.56 311.92l1.44 9.88h.47l-1.44-9.88h-.47z" class="cls-18"/>
                <path d="M142.09 311.92l1.44 9.88h.47l-1.44-9.88h-.47z" class="cls-19"/>
                <path d="M141.61 311.92l1.45 9.88h.47l-1.44-9.88h-.48z" class="cls-20"/>
                <path d="M141.14 311.92l1.45 9.88h.47l-1.45-9.88h-.47z" class="cls-21"/>
                <path d="M140.67 311.92l1.45 9.88h.47l-1.45-9.88h-.47z" class="cls-22"/>
                <path d="M140.56 311.92l1.44 9.88h.12l-1.45-9.88h-.11z" class="cls-22"/>
                <path d="M140.44 311.92l1.45 9.88h.11l-1.44-9.88h-.12z" class="cls-23"/>
                <path d="M140.33 311.92l1.44 9.88h.12l-1.45-9.88h-.11z" class="cls-24"/>
                <path d="M140.21 311.92l1.45 9.88h.11l-1.44-9.88h-.12z" class="cls-25"/>
                <path d="M140.1 311.92l1.44 9.88h.12l-1.45-9.88h-.11z" class="cls-26"/>
                <path d="M139.98 311.92l1.45 9.88h.11l-1.44-9.88h-.12z" class="cls-27"/>
                <path d="M139.87 311.92l1.44 9.88h.12l-1.45-9.88h-.11z" class="cls-28"/>
                <path d="M139.75 311.92l1.45 9.88h.11l-1.44-9.88h-.12z" class="cls-29"/>
                <path d="M139.64 311.92l1.44 9.88h.12l-1.45-9.88h-.11z" class="cls-30"/>
                <path d="M139.52 311.92l1.45 9.88h.11l-1.44-9.88h-.12z" class="cls-31"/>
                <path d="M139.41 311.92l1.44 9.88h.12l-1.45-9.88h-.11z" class="cls-32"/>
                <path d="M139.29 311.92l1.45 9.88h.11l-1.44-9.88h-.12z" class="cls-33"/>
                <path d="M139.18 311.92l1.44 9.88h.12l-1.45-9.88h-.11z" class="cls-34"/>
                <path d="M139.06 311.92l1.45 9.88h.11l-1.44-9.88h-.12z" class="cls-35"/>
                <path d="M138.95 311.92l1.44 9.88h.12l-1.45-9.88h-.11z" class="cls-36"/>
                <path d="M138.83 311.92l1.45 9.88h.11l-1.44-9.88h-.12z" class="cls-37"/>
                <path d="M138.74 312.08l1.42 9.72h.12l-1.45-9.88h-.09v.16z" class="cls-37"/>
                <path d="M138.74 312.87l1.31 8.93h.11l-1.42-9.72v.79z" class="cls-38"/>
                <path d="M138.74 313.66l1.19 8.14h.12l-1.31-8.93v.79z" class="cls-38"/>
                <path d="M139.93 321.8l-1.19-8.14v8.14h1.19z" class="cls-38"/>
            </g>
            <g class="cls-40">
                <path d="M159.13 320.51l1.54 10.51v-10.51h-1.54z" class="cls-11"/>
                <path d="M158.53 320.51l1.86 12.74h.28v-2.23l-1.54-10.51h-.6zM157.92 320.51l1.87 12.74h.6l-1.86-12.74h-.61z" class="cls-11"/>
                <path d="M157.31 320.51l1.87 12.74h.61l-1.87-12.74h-.61z" class="cls-11"/>
                <path d="M156.71 320.51l1.86 12.74h.61l-1.87-12.74h-.6z" class="cls-11"/>
                <path d="M156.1 320.51l1.87 12.74h.6l-1.86-12.74h-.61z" class="cls-12"/>
                <path d="M155.49 320.51l1.87 12.74h.61l-1.87-12.74h-.61z" class="cls-13"/>
                <path d="M154.89 320.51l1.86 12.74h.61l-1.87-12.74h-.6z" class="cls-14"/>
                <path d="M154.28 320.51l1.87 12.74h.6l-1.86-12.74h-.61z" class="cls-15"/>
                <path d="M153.67 320.51l1.87 12.74h.61l-1.87-12.74h-.61z" class="cls-16"/>
                <path d="M153.06 320.51l1.87 12.74h.61l-1.87-12.74h-.61z" class="cls-17"/>
                <path d="M152.46 320.51l1.86 12.74h.61l-1.87-12.74h-.6z" class="cls-18"/>
                <path d="M151.85 320.51l1.87 12.74h.6l-1.86-12.74h-.61z" class="cls-19"/>
                <path d="M151.24 320.51l1.87 12.74h.61l-1.87-12.74h-.61z" class="cls-20"/>
                <path d="M150.64 320.51l1.86 12.74h.61l-1.87-12.74h-.6z" class="cls-21"/>
                <path d="M150.03 320.51l1.87 12.74h.6l-1.86-12.74h-.61z" class="cls-22"/>
                <path d="M149.88 320.51l1.87 12.74h.15l-1.87-12.74h-.15z" class="cls-22"/>
                <path d="M149.73 320.51l1.87 12.74h.15l-1.87-12.74h-.15z" class="cls-23"/>
                <path d="M149.59 320.51l1.86 12.74h.15l-1.87-12.74h-.14z" class="cls-24"/>
                <path d="M149.44 320.51l1.86 12.74h.15l-1.86-12.74h-.15z" class="cls-25"/>
                <path d="M149.29 320.51l1.87 12.74h.14l-1.86-12.74h-.15z" class="cls-26"/>
                <path d="M149.14 320.51l1.87 12.74h.15l-1.87-12.74h-.15z" class="cls-27"/>
                <path d="M148.99 320.51l1.87 12.74h.15l-1.87-12.74h-.15z" class="cls-28"/>
                <path d="M148.84 320.51l1.87 12.74h.15l-1.87-12.74h-.15z" class="cls-29"/>
                <path d="M148.7 320.51l1.86 12.74h.15l-1.87-12.74h-.14z" class="cls-30"/>
                <path d="M148.55 320.51l1.86 12.74h.15l-1.86-12.74h-.15z" class="cls-31"/>
                <path d="M148.4 320.51l1.86 12.74h.15l-1.86-12.74h-.15z" class="cls-32"/>
                <path d="M148.25 320.51l1.87 12.74h.14l-1.86-12.74h-.15z" class="cls-33"/>
                <path d="M148.1 320.51l1.87 12.74h.15l-1.87-12.74h-.15z" class="cls-34"/>
                <path d="M147.95 320.51l1.87 12.74h.15l-1.87-12.74h-.15z" class="cls-35"/>
                <path d="M147.81 320.51l1.86 12.74h.15l-1.87-12.74h-.14z" class="cls-36"/>
                <path d="M147.66 320.51l1.86 12.74h.15l-1.86-12.74h-.15zM147.54 320.72l1.84 12.53h.14l-1.86-12.74h-.12v.21z" class="cls-37"/>
                <path d="M147.54 321.73l1.69 11.52h.15l-1.84-12.53v1.01z" class="cls-38"/>
                <path d="M147.54 322.75l1.54 10.5h.15l-1.69-11.52v1.02z" class="cls-38"/>
                <path d="M149.08 333.25l-1.54-10.5v10.5h1.54z" class="cls-38"/>
            </g>
            <path d="M144.27 254.2s16.62 21.18 20.13 46.71l-44.12 13s-13.74-30.1-9.68-50z" class="cls-9"/>
            <path d="M63.2 328.16s13.68 13.51 34.92 2c9.67-5.22 10.92-3 12.09-1.73s2.37 4.54 2.75 7.09a86.51 86.51 0 0 0 4.34 17.6c2.93 7.52 9.33 13.48 13.15 18.36 5.61 6.05-7.71 20.85-7.71 20.85-33.63 41-61.92 49.72-79.07 47.31-35.54-5-40-40.15-41.53-58.44s9.23-57.73 29-85.41c22.36-31.33 43.86-80 43.86-80" class="cls-7"/>
            <path d="M211.42 369.55s-9-21.14-10.53-37.54a80 80 0 0 1 13.32-51.39s4-8.92 8.12-11 5.46-2.77 8.88-2.79 9.62-3.27 14.43 2.86c7.3 9.32 9.56 11.59 11.64 15.68s5 13.25 2.18 18.94c-2.44 4.94-6.65 18.45-11.39 26s-16.28 18.58-19 23.39-8.76 16.47-17.65 15.85z" class="cls-41"/>
            <path d="M221.69 275.09s0 3.17 3.47 6.82c5.39 5.62 10.33 10.18 9 14.29s3.4 9.07 4.86 9.54l10.28 3.35c3.25 1.06 8.07-2.68 8.15-7.58.14-8.23-.78-16.46-9.3-25.58-7.39-7.91-12.82-7.78-16.24-7.75s-9.58 1.43-10.22 6.91z" class="cls-42"/>
            <path d="M234.75 283.89s6.19 5.43 4.85 9.54-1.31 7.53 9 10.88c0 0 .69 1.36-1.36.69s-5.48-.64-8.23-2.67-2.77-5.46-2.1-7.51 0-6.84-2.8-8.87-.06-3.42.64-2.06zM235.34 271.57a15.81 15.81 0 0 0-6.14 1.43c-2.73 1.38-2 2.75-1.34 4.11s0 3.42-1.36.69-1.41-6.14 3.37-6.86 6.84-.06 5.47.63zM254 294.7s.7 1.36-2 2.75.7 1.36 0 3.42 1.38 2.72 2.05.66 1.95-6.17-.05-6.83z" class="cls-43"/>
            <path d="M220.75 299s-3.47-6.82-2.8-8.87l-1.36.69c-1.37.7 0 1.8.71 4.78a12.44 12.44 0 0 0 2.78 5.46 1.51 1.51 0 0 0 .67-2.06zM225.5 317.55a54 54 0 0 1-6.72 5.35s-.07 2.4 1.72 1.27 5.27-4 5.27-4 2.04-2.29-.27-2.62zM249.07 315a44.24 44.24 0 0 1 5.82-1.26c3-.35 5-.19 4.71.8s-1.31.35-2.6.88-3.63.23-5.25 1.19-2 1.19-3 .73.32-2.34.32-2.34zM204.48 319.67s-4.39-4-4.91-5.44-1.53 1.21-1.53 1.21 2.94 4.94 5.69 6.54l2.74 1.61 1-1.81zM209.69 348.88s-1.62 5.07-3.22 6.26-1 2.38-1 2.38a3.53 3.53 0 0 0 2.51-.91c1.24-1.06 3.35-5.9 3.35-5.9s2.29-1.63-1.64-1.83z" class="cls-44"/>
            <path d="M256 333.31s2.82 19.48-18.94 38.61c0 0-5.34-.06-13-5s-10.11-8.91-9-12.25c2.25-6.56 10.75-2.92 10.75-2.92s-7.36-3.74-6.55-8.49c.77-4.55 6.75-7.77 11.41-5.35l1.73.92s-7.56-2.37-6.83-8c.31-2.41 2.64-6.72 10.09-5.27s20.34 7.75 20.34 7.75z" class="cls-45"/>
            <path d="M62.66 128.42s4.13 9.48 9.77 9.83" class="cls-46"/>
            <path d="M67.41 140s-3.37.25-7.87-4.35" class="cls-47"/>
            <path d="M69.94 144.32s-10.15.53-13.28-4M68 126.79s3.13-2.58 1.7-7.56a8.24 8.24 0 0 0-3.56-4.94c-.91-.57-7.89-3.66-12.39 3.17M54.71 115.63s-1.17-6.67-9.17-7a13.53 13.53 0 0 0-8.75 2.46c-2.08 1.52-6.32 7.09-3.67 13.28.92 2.13 3.38 5.63 6.75 5.88M34.79 128.17s-9.47 4.44-4.85 13.85c0 0 5.1 9.69 15.25 5.31M44.66 143.23s-.3 4.91 5.71 5.81a7.58 7.58 0 0 0 8.11-5.84" class="cls-46"/>
            <path d="M163.83 123s19.1 5.73 29.39-10.5" class="cls-48"/>
            <path d="M110.73 333.31s-2.82 19.48 18.94 38.61c0 0 5.35-.06 13-5s10.1-8.91 9-12.25c-2.25-6.56-10.75-2.92-10.75-2.92s7.37-3.74 6.56-8.49c-.77-4.55-6.75-7.77-11.41-5.35l-1.73.92s7.56-2.37 6.83-8c-.32-2.41-2.65-6.72-10.09-5.27s-20.35 7.75-20.35 7.75z" class="cls-45"/>
        </g>
    </g>
</svg>
