<svg xmlns="http://www.w3.org/2000/svg" width="114.755" height="60.379" viewBox="0 0 114.755 60.379"><defs><style>.a{fill:#30e646;}.b{fill:#696969;}</style></defs><g transform="translate(46.47)"><g transform="translate(5.771 0.916)"><path class="a" d="M102.7,1.8s3.713,2.8.2,8.749h12.411s5.036-2.7.1-8.749Z" transform="translate(-102.7 -1.8)"/></g><path class="b" d="M109.894.254A2.181,2.181,0,0,0,109.131,0H95.346a.645.645,0,0,0-.305.051c-.1,0-.153.051-.254.051a4.386,4.386,0,0,0-2.8,2.238,4.446,4.446,0,0,0-.61,2.136,14.031,14.031,0,0,0,0,1.475V18.821a.817.817,0,0,0,.254.56.765.765,0,0,0,.56.2h0l16.532-.051a.782.782,0,0,0,.763-.763h0l-1.272-5.951a.782.782,0,0,0-.763-.763,1.067,1.067,0,0,0-.56.2.817.817,0,0,0-.254.56h0l1.272,5.188-14.9.051V4.578A3.6,3.6,0,0,1,93.413,3.1a2.74,2.74,0,0,1,1.831-1.475,2.147,2.147,0,0,1,1.577.2c1.119.712,1.831,1.373,1.831,3.51a6.093,6.093,0,0,1-1.933,4.12.78.78,0,0,0-.2.865.765.765,0,0,0,.712.509h11.038a6.305,6.305,0,0,0,1.119-.051,2.481,2.481,0,0,0,.356-.153,5.423,5.423,0,0,0,3.1-5.036C112.742,2.086,110.758.712,109.894.254Zm-.865,8.953h0a5.881,5.881,0,0,1-.865.051H98.8a7.158,7.158,0,0,0,1.272-3.917A5.2,5.2,0,0,0,98.8,1.577H109.08l.1.051a4.06,4.06,0,0,1,2.035,3.917A3.822,3.822,0,0,1,109.029,9.207Z" transform="translate(-91.356)"/></g><g transform="translate(0 35.098)"><g transform="translate(74.825 5.494)"><path class="b" d="M152.187,79.8a5.087,5.087,0,1,0,5.087,5.087A5.1,5.1,0,0,0,152.187,79.8Zm0,8.342a3.306,3.306,0,1,1,3.306-3.306A3.366,3.366,0,0,1,152.187,88.142Z" transform="translate(-147.1 -79.8)"/></g><g transform="translate(27.112 18.515)"><path class="b" d="M53.3,110.843a.912.912,0,0,0,.916.916H59.1a.87.87,0,0,0,.865-.916.9.9,0,0,0-.865-.916H55.131v-3.612a.916.916,0,1,0-1.831,0Z" transform="translate(-53.3 -105.4)"/></g><g transform="translate(46.289 4.934)"><path class="b" d="M91.916,78.7a.912.912,0,0,0-.916.916v8.546a.916.916,0,0,0,1.831,0V79.616A.912.912,0,0,0,91.916,78.7Z" transform="translate(-91 -78.7)"/></g><g transform="translate(27.112 4.934)"><path class="b" d="M54.216,78.7a.912.912,0,0,0-.916.916v8.546a.916.916,0,1,0,1.831,0V79.616A.946.946,0,0,0,54.216,78.7Z" transform="translate(-53.3 -78.7)"/></g><g transform="translate(87.236 4.934)"><path class="b" d="M172.416,78.7a.912.912,0,0,0-.916.916v8.546a.916.916,0,1,0,1.831,0V79.616A.983.983,0,0,0,172.416,78.7Z" transform="translate(-171.5 -78.7)"/></g><g transform="translate(51.488 5.799)"><path class="b" d="M116.369,88.233,109.6,80.705h0a.869.869,0,0,0-1.323,0l-6.816,7.63a.89.89,0,0,0,.051,1.272.842.842,0,0,0,.61.254.82.82,0,0,0,.661-.305l6.206-6.867.051.051,6.053,6.714a.8.8,0,0,0,.61.305.842.842,0,0,0,.661-.254A.939.939,0,0,0,116.369,88.233Z" transform="translate(-101.222 -80.4)"/></g><g transform="translate(92.933 5.901)"><path class="b" d="M191.754,80.6h-8.139a.912.912,0,0,0-.916.916v7.427a.912.912,0,0,0,.916.916h8.037a.87.87,0,0,0,.865-.916.9.9,0,0,0-.865-.916h-7.121V82.38h7.223a.87.87,0,0,0,.865-.916A.827.827,0,0,0,191.754,80.6Z" transform="translate(-182.7 -80.6)"/></g><g transform="translate(40.49 17.956)"><path class="b" d="M83.262,104.3a3.662,3.662,0,1,0,3.662,3.662A3.68,3.68,0,0,0,83.262,104.3Zm0,5.494a1.882,1.882,0,1,1,1.882-1.882A1.878,1.878,0,0,1,83.262,109.794Z" transform="translate(-79.6 -104.3)"/></g><g transform="translate(32.809 5.901)"><path class="b" d="M73.656,80.6h-8.24a.916.916,0,1,0,0,1.831h8.24a.916.916,0,1,0,0-1.831Z" transform="translate(-64.5 -80.6)"/></g><g transform="translate(32.809 9.614)"><path class="b" d="M73.656,87.9h-8.24a.916.916,0,1,0,0,1.831h8.24a.916.916,0,1,0,0-1.831Z" transform="translate(-64.5 -87.9)"/></g><g transform="translate(32.809 13.327)"><path class="b" d="M73.656,95.2h-8.24a.916.916,0,1,0,0,1.831h8.24a.916.916,0,0,0,0-1.831Z" transform="translate(-64.5 -95.2)"/></g><g transform="translate(13.628 5.799)"><path class="b" d="M27.661,89.709H35.9a.87.87,0,0,0,.865-.916.9.9,0,0,0-.865-.916H29.848L36.1,82.333a.28.28,0,0,0,.153-.254h0a.945.945,0,0,0,.458-.763.9.9,0,0,0-.865-.916h-8.19a.87.87,0,0,0-.865.916.9.9,0,0,0,.865.916h5.9l-6.257,5.6a1.064,1.064,0,0,0-.2.305v.051a.866.866,0,0,0,.56,1.526Z" transform="translate(-26.792 -80.4)"/></g><g transform="translate(0 18.465)"><path class="b" d="M.916,107.131h8.24a.916.916,0,0,0,0-1.831H.916a.916.916,0,0,0,0,1.831Z" transform="translate(0 -105.3)"/></g><path class="b" d="M.916,84.107h8.24a.916.916,0,0,0,0-1.831H8.393V70.831h.763a.916.916,0,1,0,0-1.831H.916a.916.916,0,1,0,0,1.831h.763v11.5H.916A.912.912,0,0,0,0,83.243.9.9,0,0,0,.916,84.107ZM3.459,70.831h3.1v11.5h-3.1Z" transform="translate(0 -69)"/><g transform="translate(68.871 4.375)"><path class="b" d="M138.958,77.6c-2.9.712-3.612,2.747-3.561,3.764v6.257a.916.916,0,1,0,1.831,0V81.313s0-1.526,2.34-2.035a1.58,1.58,0,0,0,.051-.865C139.416,78.109,139.263,77.753,138.958,77.6Z" transform="translate(-135.395 -77.6)"/></g><g transform="translate(104.986 4.375)"><path class="b" d="M209.958,77.6c-2.9.712-3.612,2.747-3.561,3.764v6.257a.916.916,0,0,0,1.831,0V81.313s0-1.526,2.34-2.035a1.58,1.58,0,0,0,.051-.865A1.747,1.747,0,0,0,209.958,77.6Z" transform="translate(-206.395 -77.6)"/></g><g transform="translate(111.296 2.442)"><circle class="a" cx="1.729" cy="1.729" r="1.729"/></g></g></svg>