<svg xmlns="http://www.w3.org/2000/svg" width="179.568" height="24" viewBox="0 0 179.568 24"><defs><style>.a{fill:#00367b;}.b{fill:#b2d234;}</style></defs><path class="a" d="M223.511,8.8,218.7,13.178l1.135,1.135s3.622-3.189,3.676-3.243c.054.054,3.676,3.243,3.676,3.243l1.135-1.135L223.511,8.8Z" transform="translate(-100.484 -4.043)"/><path class="a" d="M271.492,29.751a1.957,1.957,0,1,1,2.162-1.946,2.029,2.029,0,0,1-2.162,1.946Zm0-5.351a3.653,3.653,0,0,0-3.892,3.351,3.936,3.936,0,0,0,7.784,0,3.653,3.653,0,0,0-3.892-3.351Z" transform="translate(-122.951 -11.211)"/><path class="a" d="M275.4,9.2h-9.189v1.405h3.243c-.108.108-3.351,3.027-3.351,3.027l1.135,1.135s3.514-3.135,3.568-3.135c.054.054,3.568,3.135,3.568,3.135l1.135-1.135s-3.189-2.919-3.3-3.027h3.243L275.4,9.2Z" transform="translate(-122.262 -4.227)"/><path class="a" d="M275.63,20.5H263.9v1.459h11.784V20.5Z" transform="translate(-121.251 -9.419)"/><path class="a" d="M211.338,9.2H209.5V22.335h1.892V9.2Z" transform="translate(-96.257 -4.227)"/><path class="a" d="M192.454,9.6h0l-.054,1.405h5.622v6.757h1.838V10.411c0-.595-.27-.811-.865-.811Z" transform="translate(-88.4 -4.411)"/><path class="a" d="M305.384,9.2H303.6V22.335h1.838V9.2Z" transform="translate(-139.492 -4.227)"/><path class="a" d="M286.454,9.6h0l-.054,1.405h5.622v6.757h1.838V10.411c0-.595-.27-.811-.865-.811Z" transform="translate(-131.589 -4.411)"/><path class="a" d="M247.057,23.8h-1.784v2.486H240.3v1.459h11.784V26.286h-4.973c-.054-.054-.054-2.486-.054-2.486Z" transform="translate(-110.408 -10.935)"/><path class="a" d="M250.043,15.114h-5.405v-2h5.405v2ZM251.827,9.6h-1.784v2.054h-5.405V9.6H242.8v6.162c0,.541.324.757.919.757h7.243a.8.8,0,0,0,.919-.811L251.827,9.6Z" transform="translate(-111.557 -4.411)"/><path class="a" d="M322.184,20.5H310.4v1.459h11.784V20.5Z" transform="translate(-142.616 -9.419)"/><path class="a" d="M312.854,9.2h0l-.054,1.405h7.189v3.622h1.838V9.957c-.054-.541-.27-.757-.865-.757h-8.108Z" transform="translate(-143.719 -4.227)"/><path class="a" d="M320.043,29.946h-5.459V27.405h5.405c.054.054.054,2.486.054,2.541ZM321.124,26H313.5c-.487,0-.7.216-.7.649V30.7c0,.486.216.7.7.7h7.622c.486,0,.7-.216.7-.7V26.649c0-.432-.216-.649-.7-.649Z" transform="translate(-143.719 -11.946)"/><path class="a" d="M228.53,20.2H216.8v1.459h4.973v1.3h-3.568v1.459h7.081v.7h-6.378c-.486,0-.7.216-.7.649v2.27c0,.486.216.649.7.649h8.162V27.227h-7.081V26.47h6.378c.486,0,.7-.216.7-.649V23.605c0-.486-.216-.649-.7-.649H223.5v-1.3h4.973l.054-1.459Z" transform="translate(-99.611 -9.281)"/><path class="b" d="M0,0V24H24V0Z"/><path class="a" d="M80.538,23.749H76.7V9.1h3.838Z" transform="translate(-35.241 -4.181)"/><path class="a" d="M101.638,20.559V16.073h10.054v4.486Zm13.946.541V15.586a2.544,2.544,0,0,0-2.649-2.649h-11.3V9.1H97.8V20.83a3.018,3.018,0,0,0,.811,1.946,3.778,3.778,0,0,0,2.811.973h11.568a2.605,2.605,0,0,0,2.595-2.649Z" transform="translate(-44.935 -4.181)"/><path class="a" d="M155.946,12.289v8.27H145.892v-8.27Zm.27-3.189H145.622a3.778,3.778,0,0,0-2.811.973A2.924,2.924,0,0,0,142,11.965v8.811c0,.054.054,2.919,3.568,2.919h10.595c3.514,0,3.568-2.865,3.568-2.919V12.019a2.836,2.836,0,0,0-.811-1.892,3.213,3.213,0,0,0-2.7-1.027Z" transform="translate(-65.243 -4.181)"/><path class="a" d="M27.4,8.87v1.405h3.135V22.6h3.838V6.6Z" transform="translate(-12.589 -3.032)"/><path class="a" d="M49.1,16.281,56.616,9.2H51.7l-7.3,7.081,7.351,7.405H56.67Z" transform="translate(-20.4 -4.227)"/></svg>