<svg xmlns="http://www.w3.org/2000/svg" viewBox="0 0 307.05 258.45">
    <defs>
        <style>
            .cls-1{fill:#d2987e}.cls-2{font-size:27.9px;font-family:designhouseBold,designhouse}.cls-2,.cls-5{fill:#333}.cls-3{fill:#30e646}.cls-4,.cls-7,.cls-9{fill:#231815}.cls-6{fill:#fff}.cls-7{stroke:#333}.cls-10,.cls-13,.cls-7{stroke-linecap:round;stroke-linejoin:round;stroke-width:2px}.cls-8,.cls-9{fill-rule:evenodd}.cls-8{fill:url(#linear-gradient)}.cls-10{fill:none}.cls-10,.cls-13{stroke:#231815}.cls-11{fill:#84153e}.cls-12{fill:#720427}.cls-13{fill:#f7f7f7}
        </style>
        <linearGradient id="linear-gradient" x1="-330.11" x2="-317.96" y1="336.42" y2="336.42" gradientTransform="matrix(-.95 -.22 -.31 .82 33.19 -276.59)" gradientUnits="userSpaceOnUse">
            <stop offset="0" stop-color="#fff"/>
            <stop offset=".41" stop-color="#fdfdfc"/>
            <stop offset=".7" stop-color="#f5f7f3"/>
            <stop offset=".76" stop-color="#f2f5f0"/>
            <stop offset=".87" stop-color="#e7eae6"/>
            <stop offset="1" stop-color="#dfe3e0"/>
        </linearGradient>
    </defs>
    <g id="레이어_2" data-name="레이어 2">
        <g id="레이어_1-2" data-name="레이어 1">
            <path d="M33.2 205.39c-9.82.32-33.2 8.23-33.2 17.05s7.46 12 9.43 13.51 6.29 7.35 11 9.7 13.16 2.35 19.64 1.76 14.93 5.59 20 6.47 46 11.16 66.4-2.35c0 0 9.82-3.53 18.66-5.59s34-8.52 34.57-18.8-5.11-10.87-7.46-12.64-19.65-11.16-35.17-11.75-22.19-7.35-35.55-5.58-25.93-.3-31.43 0c.04 0-27.66 7.93-36.89 8.22z" class="cls-1"/>
            <text class="cls-2" transform="rotate(9.23 -160.937 1462.51)">
                h
            </text>
            <text class="cls-2" transform="rotate(17.51 -29.488 823.726)">
                e
            </text>
            <text class="cls-2" transform="rotate(23.83 8.044 640.69)">
                l
            </text>
            <text class="cls-2" transform="matrix(.85 .52 -.52 .85 265.58 53.68)">
                p
            </text>
            <text class="cls-2" transform="rotate(39.6 52.712 416.416)">
                !
            </text>
            <text class="cls-2" transform="matrix(.71 .7 -.7 .71 283.88 66.4)">
                !
            </text>
            <path d="M155.33 168.4s-7.74.94-7.21 4.33 14.12 18.67 26.76 18.59c7.1 0 13.37-.23 13.63-4.25s-9.53-13.59-15.23-17.39c-2.84-1.89-15.21-2.12-16.48-1.58" class="cls-3"/>
            <path d="M240.28 216.74a21.08 21.08 0 0 1-9.23-2.1c-10.5-5.07-16.46-5.39-22.22-5.69a46 46 0 0 1-19.32-4.54c-18.06-8.32-24-52.32-18.43-68.65.69-2 1.36-4 2-5.88 6.47-19.17 11.15-33 31.82-57 3.6-4.17 12.92-14.32 21.72-18.47 6-2.83 11.38-4.2 16.47-4.2 6.19 0 12.1 2 18.59 6.21 18.11 11.82 22 27.87 11.9 49.07a122.87 122.87 0 0 0-11.14 37.17 64.25 64.25 0 0 0 5.26 31.81c7.91 17.88-5.07 32.45-5.2 32.59-.47.45-10.36 9.65-22.22 9.65z" class="cls-4"/>
            <path d="M243.09 51.24c6.14 0 11.92 2 18 6 17.33 11.31 21.74 26.41 11.55 47.8-9.66 20.25-11.24 37.51-11.24 37.51a64.63 64.63 0 0 0 5.35 32.3c7.74 17.49-5 31.52-5 31.52s-9.88 9.32-21.48 9.32a20 20 0 0 1-8.8-2c-20.37-9.84-23.86-2.08-41.55-10.24s-23.27-51.72-17.92-67.36c7.85-22.85 11.09-36.41 33.64-62.53C211 67.4 219.37 59 227.05 55.34c5.84-2.75 11.06-4.1 16-4.1m0-2c-5.24 0-10.77 1.4-16.9 4.29-8.64 4.08-17.52 13.48-22.05 18.73-20.79 24.09-25.5 38-32 57.29-.64 1.9-1.3 3.86-2 5.89-2.85 8.31-2.76 23.41.25 37.58 2.07 9.8 7.26 27 18.71 32.3a46.91 46.91 0 0 0 19.72 4.68c5.66.3 11.52.61 21.83 5.59a22.05 22.05 0 0 0 9.67 2.2c12.25 0 22.42-9.47 22.85-9.87a1.14 1.14 0 0 0 .11-.11c.55-.61 13.55-15.2 5.38-33.67a63.06 63.06 0 0 1-5.2-31.21v-.1a121.66 121.66 0 0 1 11-36.82c10.36-21.74 6.35-38.21-12.26-50.35-6.66-4.35-12.74-6.37-19.13-6.37z" class="cls-5"/>
            <path d="M209.32 72.15c-12.19-13.81-12.22-19-12.1-19.84a.78.78 0 0 1 .17-.49c8.82 1.52 18.79 8.67 21 10.29a13.91 13.91 0 0 1-2.21 5.72c-1.73 2.54-5.44 3.88-6.86 4.32z" class="cls-6"/>
            <path d="M198.19 53c7.79 1.68 16.33 7.56 19.08 9.56a13.16 13.16 0 0 1-2 4.72c-1.23 1.86-3.92 3.12-5.66 3.73-9.07-10.38-11.27-16-11.45-18m-.78-2.17c-2.22 0-2.89 6.2 11.58 22.47 0 0 5.64-1.39 8-4.91a14.07 14.07 0 0 0 2.43-6.73s-11.55-9-21.78-10.81h-.21z" class="cls-4"/>
            <path d="M190.14 123.22s-11.59 7.72-24 7.46-1.92-12.1 7.23-21.2A58.39 58.39 0 0 1 187.82 99" class="cls-7"/>
            <path d="M204.8 212.79c-9.37 0-25.82-11-32-21.38-3.57-6-14.54-27.53-5.67-52.59 7.78-22 17.29-41 24.83-49.72a.53.53 0 0 1 .43-.2c.81 0 2.48 1.16 4.36 3.76 3.55 4.9 6.3 12.48 4.67 17.49-6 18.31-7.12 40.34-3.39 65.49 3 20.14 13.52 32.28 14 32.79a2.85 2.85 0 0 0 .78.65 31.49 31.49 0 0 1-4.48 2.92 6.91 6.91 0 0 1-3.47.79z" class="cls-6"/>
            <path d="M192.54 90c.62.23 2.14 1.39 3.94 4.1 2.94 4.43 5.44 11.26 4 15.79-6 18.46-7.17 40.65-3.42 65.94 2.94 19.87 13.17 32.11 14.11 33.17-.66.45-1.71 1.12-3.4 2.11a5.94 5.94 0 0 1-3 .65c-8.92 0-25.22-10.94-31.16-20.89-3.51-5.91-14.31-27.1-5.59-51.75 7.68-21.71 17-40.52 24.49-49.2m-.17-2a1.48 1.48 0 0 0-1.18.55c-7.63 8.78-17.19 27.9-25 50s-.55 42.86 5.75 53.44 23.31 21.87 32.88 21.87a7.83 7.83 0 0 0 4-.92c7.81-4.54 4.8-4 3.95-5.1 0 0-10.74-12.2-13.72-32.28s-3.63-43.64 3.35-65c2.74-8.42-5.86-22.56-10-22.56z" class="cls-4"/>
            <path d="M196.3 209.2s-6.64 4.09-4.74 7 20.63 11 32.08 5.69c6.43-3 12.05-5.8 10.6-9.56s-14.34-8.35-21.11-9.42c-3.37-.53-14.7 4.43-15.62 5.46" class="cls-3"/>
            <path d="M233.79 65c-2.68 1.15-3.61 4.43-2.07 7.33s4.94 4.32 7.62 3.17 3.61-4.43 2.08-7.33-4.95-4.28-7.63-3.17z" class="cls-8"/>
            <path d="M231.46 69.53a3.91 3.91 0 1 0 5.2 1.86 3.9 3.9 0 0 0-5.2-1.86z" class="cls-9"/>
            <path d="M203.89 134.27s-21.78-1.34-32.19-8.08 4.74-11.3 17.3-14.19a58.87 58.87 0 0 1 17.81-1.33" class="cls-7"/>
            <path d="M290.45 88.12a14.52 14.52 0 0 1-3.33 12.33M295.78 92.78s1 3.67-1.33 6.34M142.78 164.12s-9.33 7.66 1.34 15.66M133.71 168.71s-3 5.85 2.81 9.51" class="cls-10"/>
            <path d="M80.28 236.83a11.4 11.4 0 0 0-1.44-4.46l-.5-.55c-.18-.18-.32-.46-.55-.54-.53-.67-.48-4.55-1-5.78-.27-.68-.72-3.59-1-4.17a.68.68 0 0 0-.59-.27c-.44.47-.41.28-.83.77-.71.8-2.19 0-3.19-.38s-.71.47-.88-.56c-.11-.71-.84-1.15-.85-1.88h-.51c-3.75 1.49-10.76 3.34-12.45 4.74a11.32 11.32 0 0 1-3.27 2.25c-.71.61-1.85.47-2.39 1.38l-.09.08h-.05c-3.22 2.14-9.66 5.64-9.47 6.64s2.31 3.62 3.28 4.37c-1-.31 6.71 1.79 9.75 2.13 1 .1 3.85.59 3.89.17s.54-.42 1 .41c3.56-.81 13.76-1.44 13.76-1.44 1-.22 4.53 0 5.56-.27 2.32-.53 2.19-.09 1.82-2.64z" class="cls-11"/>
            <path d="M50.69 227.44a9.72 9.72 0 0 1-2.47-.46c-.35-1.35.29-1.66 1.7-1.5 1.1.12 2.2.32 3.3.49-.11 1.22-.38.9-1 1.42-.17.28-1.32.3-1.53.05zM58 239.51c0 .34-.33.87-.31 1.2s-.29.7-.18 1a.93.93 0 0 0 1.12.32c.41-.16.46-.52.51-.88.31-.81 1-2.46.52-2.68-.66-.35-1.16-.17-1.66 1.04zM57 233c-1.09-.59 1-2.58 2-3.84a1.19 1.19 0 0 1 1.52-.45c.82.45.42 1.09.15 1.69-1.01 1.4-2.57 3.14-3.67 2.6zM47.3 235.58a11.73 11.73 0 0 0-3.41 1.79 1.51 1.51 0 0 0-.56.33c-.6.55-.48 1.56.07 1.55a3.87 3.87 0 0 0 1.8-.58 5.74 5.74 0 0 1 1.14-.41l2.47-1c.77-1.75.02-2.16-1.51-1.68zM80.75 231.86s-2.94-3.05-4.38-3-1.4.24-1.26 1.05c.21 1.17 1.55.84 2.24 1.42a2.07 2.07 0 0 1 .59.46 3.61 3.61 0 0 0 .62.78 7.14 7.14 0 0 0 1.93 1.12c.34.01 1.19-1.17.26-1.83zM72.43 238c-.72-.68-.91-.83-2 .24.14.53.27 1.06.41 1.58 0 .07.06.13.08.2a5.92 5.92 0 0 0 .5 1.66c1 .51 1.41-.29 1.42-1.3v-.74a4.37 4.37 0 0 0-.41-1.64z" class="cls-12"/>
            <path d="M123 231.62a3.34 3.34 0 0 0-.91-1.37 3.85 3.85 0 0 1-.27-.3c-.15-.4-.54-.75-.64-1.17a31.37 31.37 0 0 1-2.92-5.33c-.69-2.73-2.63-4.76-4-7.11a14.24 14.24 0 0 0-3.18-4c-3.49-3.76-7.25-7.14-12.39-8.49h-.18a7.85 7.85 0 0 0-4.88 1.06 3.76 3.76 0 0 0-2.72 3.35 22.08 22.08 0 0 1-1.17 3 29.76 29.76 0 0 0 2 13.69 14 14 0 0 0 .54 1.32c1 2 1.46 4.3 3.07 5.94.06.11.12.23.17.34s.21 3.36.55 3.55a32.52 32.52 0 0 0 7.63 2.28 31.93 31.93 0 0 0 10.87.2 2.12 2.12 0 0 0 .69-.21l1.07-.15c.3-.52.3-.89-.28-.95.19-1.34-1.43-1.86-1.92-3 1.79.54 2.55 2.07 3.69 3.15a1.48 1.48 0 0 0 1 .38 6.64 6.64 0 0 0 4.41-3c.47-1.14-.23-2.15-.23-3.18z" class="cls-11"/>
            <path d="M125 231.86a5.82 5.82 0 0 0-3.86-3.08c-.37.82.57 1.32.52 2.06.33.29 2.24 2.06 2.38 2.08.82.65 1.02-.92.96-1.06zM96 232.85l-1 1.93c-.44 1.21-.71.87-.7 2.2 0 .51.26.58.85.69s.89-.32 1-.8c.3-1 .09-.05.36-1.05a3.42 3.42 0 0 1 1.43-2c.12-1.9-1.41-1.59-1.94-.97zM109.65 222.75c-1.17 0-2.6-1.75-3.38-.19s2.48 2.26 2.64 2.26c1.11 0 1.17 2.72 2.53 1.31s-1.71-3.38-1.79-3.38zM109.23 209c.08.64-.31.95-.68.91a29.92 29.92 0 0 1-4.72-.74c-.66-.18-.82-1.31 0-1.44 1.61-.26 3.38-.71 4.84.62a7.08 7.08 0 0 1 .56.65zM118.67 237.76l-.48-.52a9.35 9.35 0 0 0-3.88-3.9 1 1 0 0 0-1.51.22c-.52.68 0 1.08.46 1.38a6.82 6.82 0 0 1 2.47 2.3l.5 1a7.61 7.61 0 0 1 1 1c1.06.57 1.41-1.31 1.44-1.48zM96.5 218.68c0 .65 0 1.22-.11 1.78a.82.82 0 0 1-1 .74c-1.15-.25-.87-1.25-.82-2 .06-1.06-.51-2.36.76-3.07.48-.26.95.18 1 .7a17.91 17.91 0 0 1 .17 1.85z" class="cls-12"/>
            <path d="M170.12 120.78c-6.61 3.53-39.46 28.05-39.46 28.05-4.88 9.29-11.25 9.5-11.25 9.5s-15.17 16-18.52 19.36S69.43 219 69.43 219c1.79 4.94 6.34 2.32 6.34 2.32l.85-1.78c2.51-5.58 15.6-20.32 15.6-20.32s1.47 7.16 2.31 7.72c3 2 4.38-1.5 4.38-1.5l-1.65-12.13a171.68 171.68 0 0 1 19.19-23.2c22-22.34 47.33-38.34 57-44.67-1.8-1.21-2.27-2.76-3.33-4.66z" class="cls-13"/>
            <path d="M130.78 146.41c-5-6.08-11.73-9.2-19.25-10.85-2.32-.38-4.5-1.35-6.87-1.44.27.4.55.79.82 1.18a1.05 1.05 0 0 0-.06.24 1.77 1.77 0 0 1 0 .59.86.86 0 0 1-.47.29 7 7 0 0 1-.75-.28 3.09 3.09 0 0 0-.53-.09 2.13 2.13 0 0 0-1.35-1.86.54.54 0 0 0 0-.25c-.29-.37-.59-.68-1.11-.38-4.51-.15-9-.29-13.51-.47-2-.09-4.11.16-6.08-.6-.5 0-1-.4-1.52-.27a1.14 1.14 0 0 0-1-.1c-.68.94-1.66.49-2.47.41-4.12-.4-8.22-.9-12.33-1.37-1.53-.84-1.89 1.19-1.39 3.11a17.73 17.73 0 0 0 1.48 4.7 32.79 32.79 0 0 0 1.88 5c.8.72.67 2 1.49 2.67a1.24 1.24 0 0 0 .87 0 .58.58 0 0 0 .07.4c-.11.4.23.58.5.8 1.84 2 3.57 4.09 6 5.41a24.77 24.77 0 0 0 2.11 1.59 46.14 46.14 0 0 0 12.58 4.85c.63.36 2.43.8 2.56 1 .82 0 1.7.3 2.37-.47.85.09 1.81-.3 2.5.55l.47-.18h3.39a36.88 36.88 0 0 0 7.86 0l1.48-.07h.81a4.06 4.06 0 0 0 1.39 0 4.39 4.39 0 0 0 1.34-.38h2.28c1.62.44 3-.32 4.47-.85 4.51-1.7 8.62-3.94 10.52-8.78.59-1.43 1.2-2.95-.55-4.1z" class="cls-11"/>
            <path d="M102.16 134.08l-1-.55a6.89 6.89 0 0 0-.31-1.36 1 1 0 0 1 .39-1.41c.81-.5.82.32 1.17.67.84.83 1 2.25 2.24 2.69.73.18.74.88 1 1.4.39 1.66-.49 1.42-1.49 1h-.48c-.15-.16-.3-.31-.44-.47-.51-.59-.52-1.43-1.08-1.97zM81.58 132.46c-.64.64-1.33 0-2 0l-.49-.42a1.37 1.37 0 0 1-.18-.16c-.66-1-1.77-2.5-.86-3.11 1.69-1.14 1.55 1.12 2.23 1.89a20.22 20.22 0 0 1 1.3 1.8zM97.32 160.69c-1.07 1.18-2.69 1.21-4 1.91-1.56 0-1.76-.78-1-2l.27-.27c.83-.26 4.55-1.15 4.73.36zM68.75 146.84a3.73 3.73 0 0 1 0-.46l-1.06-.07h-1.22c-.63 0-1.45-.33-1.66.56-.32 1.43 3.31 1.06 4.43.9zM87.53 151.79c-.87-.17-2.29.33-2.26-1.1 0-1.2 1.34-.88 2.17-.89 1.45 0 2.58-.93 3.92-1.25.58-.14 1.2-.35 1.52.26s-.16 1.22-.74 1.55a9.74 9.74 0 0 1-4.61 1.43zM116.45 141a12.31 12.31 0 0 1 4.65 3.59c.12.14 0 .64-.2.85a1 1 0 0 1-1.33.22c-1.61-.69-2.67-2.12-4.08-3.07-.19-.12-.32-.71-.2-.83a5.4 5.4 0 0 1 1.16-.76zM102.24 148.88c-1.78 1.15-1.52-2.15-3-2.54-.31-.76-1.56-1.46-.69-2.29 1.07-1.05 5.08 3.95 3.69 4.83zM112.86 157.56c-.59.49-1.34.93-1.93.32-.84-.87.33-1.15.71-1.65a24.75 24.75 0 0 0 1.6-2.1c.63-1.07 1.37-.9 2.22-.39-.11 1.17-2.24 3.51-2.6 3.82zM81.19 142.66c-.26.8-.88.87-1.5.48-1-.66-2-1.41-2.94-2.16s-.43-1.13.31-1.39 4.14 2.2 4.13 3.07zM49.7 202.58a7.31 7.31 0 0 0 1.91-.56c.83 0 1.45.22 1.35 1.23-1.58.45-3.12 1.15-4.83.86-.37-1.03-.73-.89 1.57-1.53z" class="cls-12"/>
            <path d="M95.46 188l-.9-.77c-2.7-1.07-5-2.95-8-3.48a.73.73 0 0 0-.17.75c-1.5.46-2.15-.7-2.86-1.76a3 3 0 0 0-1.3-1.09.67.67 0 0 0-.62.16l-1.74.44c-2.39-1.66-5-1-7.61-.81-.17 0-5.41 1.54-7.86 2.36a23.29 23.29 0 0 0-4.63 1.41c-.47.61-1.17.42-1.78.55a15.43 15.43 0 0 1-3.36.31c-2.07 1.23-7.71 3.35-8 4.06-.42.22-.82.48-1.26.66-2.82 1.19-3.25 2.37-1.7 4.94a16.77 16.77 0 0 0 5.56 5.33 25.75 25.75 0 0 0 2.48 1.11c-.12.69.8.72 1.2 1.09a16 16 0 0 1 1.72 0 40 40 0 0 0 9.49 1.29h1.16c1.78 0 3.57-.09 5.35-.25a11.34 11.34 0 0 1 1.84.17 2.82 2.82 0 0 0 .73.33 3.6 3.6 0 0 0 3.21-.89l.2-.13a3.55 3.55 0 0 1 .47.08l7-2.91a13.23 13.23 0 0 0 2-.63c5.34-2.53 8.67-7.61 9.27-10.94.12-.49.43-.91.11-1.38z" class="cls-11"/>
            <path d="M76.22 203.47a8.43 8.43 0 0 1-3 1l-.55.43c-.12.34-.58.47-.27.93.82.64 1.51.36 2.29 0a6.41 6.41 0 0 0 2.46-2c.04-.78-.48-.51-.93-.36zM74.16 188.12c1.79.21 3.58 0 4.78.76a1 1 0 0 1 .56 1.22.86.86 0 0 1-1.21.48 11.67 11.67 0 0 0-3.37-.42c-.94 0-2.34.12-2.3-1.13.03-1.03.63-.68 1.54-.91zM64.25 199c-.78-.06-1.51-.11-1.56-1s.6-.82 1.16-1c1-.33 2-.76 2.94-1.15.54-.22 1.12-.47 1.43.29a1.13 1.13 0 0 1-.44 1.51 10.8 10.8 0 0 1-3.53 1.35zM85.58 183.27A5.75 5.75 0 0 0 83.3 181c-1.19-.76-1.67-.28-1.68.81h.48l.31.27c.33.32.35.38.68.7 1.38 3 3.17 2.19 3.47 2s.27-.66 0-1zM56 184.87l-1.78-.17h-1.19c-.83 0-.91.58-.74 1.11a1.16 1.16 0 0 0 .77.33c.49 0 .54.16 1 .15l.15.08h.17c.39.13 1.46.15 1.85.28.49.35 1.58-.37 1.77-.88-.13-.4-1.35-.61-2-.9z" class="cls-12"/>
        </g>
    </g>
</svg>
