<svg xmlns="http://www.w3.org/2000/svg" width="65.604" height="42.2" viewBox="0 0 65.604 42.2"><defs><style>.a{fill:#30e646;}.b{fill:#231815;}</style></defs><g transform="translate(21)"><g transform="translate(6.473 0.968)"><path class="a" d="M407.785,1483.955s4.112,3.1.209,9.694l13.77-.005s5.6-2.99.139-9.727Z" transform="translate(-407.785 -1483.917)"/></g><path class="b" d="M417.175,1482.538a2.137,2.137,0,0,0-.863-.278c-.2-.008-.305-.009-.587-.01l-1.595,0c-3.251-.007-10.862-.026-13.163,0a.873.873,0,0,0-.346.076c-.088.016-.177.033-.263.054a4.859,4.859,0,0,0-3.113,2.461,5.735,5.735,0,0,0-.694,2.392c-.03.414-.01,1.532-.008,1.655l-.016,14.286a.869.869,0,0,0,.255.616.878.878,0,0,0,.613.253h0l18.329-.052a.872.872,0,0,0,.865-.854v-.018l-1.438-6.606a.868.868,0,0,0-1.736-.007v.02l1.406,5.733-16.561.047.015-13.433c-.006-.3-.017-1.225,0-1.514a4,4,0,0,1,.471-1.659,3.169,3.169,0,0,1,2.009-1.633,2.363,2.363,0,0,1,1.738.2c1.232.811,2.04,1.52,2.041,3.886a7.062,7.062,0,0,1-2.129,4.568.871.871,0,0,0-.227.955.862.862,0,0,0,.81.556l12.254,0a6.171,6.171,0,0,0,1.265-.066,2.132,2.132,0,0,0,.407-.152,5.946,5.946,0,0,0,3.414-5.612C420.334,1484.54,418.115,1483.01,417.175,1482.538Zm-1,9.9-.053.023c-.228.011-.786.023-.881.025l-10.4,0a7.851,7.851,0,0,0,1.432-4.342,5.826,5.826,0,0,0-1.4-4.181c3,0,6.8.007,9.246.013l1.693,0h.338c.03,0,.094.025.095.021.021.014.092.052.113.062.672.34,2.235,1.441,2.236,4.325A4.2,4.2,0,0,1,416.174,1492.44Z" transform="translate(-396.528 -1482.233)"/></g><g transform="translate(0 28.299)"><path class="b" d="M349.726,1561.983a.468.468,0,0,0-.468.467v3.509l-.034-.039-3.038-3.656a.914.914,0,0,0-.518-.28h-.007a.471.471,0,0,0-.468.467v4.736a.467.467,0,0,0,.934,0v-3.579l.034.039,3.024,3.641c.036.041.382.348.54.348a.468.468,0,0,0,.467-.467v-4.717A.468.468,0,0,0,349.726,1561.983Z" transform="translate(-333.598 -1557.534)"/><path class="b" d="M397.9,1561.983a.468.468,0,0,0-.468.467v3.509l-.035-.039-3.038-3.656a.913.913,0,0,0-.518-.28h-.007a.471.471,0,0,0-.468.467v4.736a.467.467,0,0,0,.934,0v-3.579l.034.039,3.024,3.641c.036.041.382.348.54.348a.468.468,0,0,0,.467-.467v-4.717A.468.468,0,0,0,397.9,1561.983Z" transform="translate(-368.28 -1557.534)"/><path class="b" d="M309.35,1548.167a1.956,1.956,0,0,0-.635-1.46,2.148,2.148,0,0,0-1.535-.608h-2.872a.514.514,0,0,0-.364.14.448.448,0,0,0-.145.339v9.156a.465.465,0,0,0,.146.345.512.512,0,0,0,.362.139.505.505,0,0,0,.358-.14.464.464,0,0,0,.145-.344v-5.461h2.369a2.15,2.15,0,0,0,1.535-.608,1.963,1.963,0,0,0,.635-1.465Zm-1.011.033a1.043,1.043,0,0,1-.345.787,1.139,1.139,0,0,1-.814.323h-2.369v-2.247h2.369a1.14,1.14,0,0,1,.814.323,1.037,1.037,0,0,1,.345.781Z" transform="translate(-303.801 -1546.1)"/><path class="b" d="M336.29,1562.209a.519.519,0,0,0-.363.14.446.446,0,0,0-.145.339v4.643a.465.465,0,0,0,.145.344.519.519,0,0,0,.363.14.5.5,0,0,0,.358-.14.463.463,0,0,0,.145-.344v-4.643a.447.447,0,0,0-.145-.339A.506.506,0,0,0,336.29,1562.209Z" transform="translate(-326.823 -1557.696)"/><path class="b" d="M371.612,1563.5h-.006a1.361,1.361,0,0,1-.971-.384,1.248,1.248,0,0,1-.4-.931l-.014-2.329h1.355a.483.483,0,0,0,.357-.145.457.457,0,0,0,0-.678.493.493,0,0,0-.357-.14h-1.355l.014-.859a.459.459,0,0,0-.145-.34.506.506,0,0,0-.357-.139.514.514,0,0,0-.364.14.541.541,0,0,0-.158.3v4.151a2.241,2.241,0,0,0,.712,1.648,2.36,2.36,0,0,0,1.686.669.5.5,0,0,0,.363-.14.456.456,0,0,0,.151-.344.45.45,0,0,0-.151-.339A.493.493,0,0,0,371.612,1563.5Z" transform="translate(-350.886 -1554.347)"/><path class="b" d="M384.616,1562.209a.514.514,0,0,0-.364.14.447.447,0,0,0-.145.339v4.643a.464.464,0,0,0,.145.344.519.519,0,0,0,.363.14.5.5,0,0,0,.358-.14.464.464,0,0,0,.145-.344v-4.643a.446.446,0,0,0-.145-.339A.505.505,0,0,0,384.616,1562.209Z" transform="translate(-361.612 -1557.696)"/><path class="b" d="M464.91,1562.209a.52.52,0,0,0-.364.14.447.447,0,0,0-.145.339v4.643a.464.464,0,0,0,.145.344.518.518,0,0,0,.363.14.512.512,0,0,0,.358-.14.464.464,0,0,0,.145-.344v-4.643a.447.447,0,0,0-.145-.339A.511.511,0,0,0,464.91,1562.209Z" transform="translate(-419.414 -1557.696)"/><path class="b" d="M445.864,1566.053a.469.469,0,0,0-.348.142,1.755,1.755,0,1,1-.006-2.5.5.5,0,0,0,.845-.358.464.464,0,0,0-.147-.349,2.75,2.75,0,1,0,0,3.922.478.478,0,0,0,.147-.354.47.47,0,0,0-.142-.349A.5.5,0,0,0,445.864,1566.053Z" transform="translate(-402.95 -1557.69)"/><circle class="a" cx="0.923" cy="0.923" r="0.923" transform="translate(63.759 3.303)"/><path class="b" d="M500.3,1563.808h-4.372a.484.484,0,0,0,0,.968H500.3a.484.484,0,0,0,0-.968Z" transform="translate(-441.763 -1558.848)"/><path class="b" d="M500.3,1570.86h-4.372a.484.484,0,0,0,0,.968H500.3a.484.484,0,0,0,0-.968Z" transform="translate(-441.763 -1563.924)"/><path class="b" d="M500.3,1577.911h-4.372a.484.484,0,0,0,0,.968H500.3a.484.484,0,0,0,0-.968Z" transform="translate(-441.763 -1569)"/><path class="b" d="M323.878,1561.1l0,0h0a2.2,2.2,0,0,0-1.94,2.044v1.169a.047.047,0,0,1,0,.01v2.226a.478.478,0,1,0,.956,0v-2.226a.078.078,0,0,1,0-.014v-1.2c0-.008.017-.843,1.263-1.131h.006l0-.005a.755.755,0,0,0,.014-.462A.692.692,0,0,0,323.878,1561.1Z" transform="translate(-316.85 -1556.894)"/><path class="b" d="M521.424,1561.1l0,0h0a2.2,2.2,0,0,0-1.94,2.044v1.169a.025.025,0,0,1,0,.01v2.226a.478.478,0,1,0,.956,0v-2.223a.078.078,0,0,1,0-.016v-1.2c0-.008.01-.841,1.263-1.13h.005l0-.005a.756.756,0,0,0,.014-.462A.692.692,0,0,0,521.424,1561.1Z" transform="translate(-459.058 -1556.894)"/><path class="b" d="M422.554,1560.741l0,0h0a2.441,2.441,0,0,0-1.783,1.327,2.755,2.755,0,1,0,.778,2.247l.018.01v-.3c0-.008,0-.015,0-.023s0-.015,0-.023v-.015c0-.022,0-.043,0-.065v-1.15c0-.009.01-.842,1.263-1.131h.005l0-.005a.753.753,0,0,0,.014-.462A.691.691,0,0,0,422.554,1560.741Zm-3.749,5.056a1.795,1.795,0,1,1,1.8-1.8A1.8,1.8,0,0,1,418.805,1565.8Z" transform="translate(-384.606 -1556.638)"/><path class="b" d="M475.932,1562.177h-1.4a.477.477,0,0,0-.489.462v4.628a.48.48,0,0,0,.489.469h1.4a2.782,2.782,0,1,0,0-5.56Zm0,4.628h-.915v-3.7h.915a1.85,1.85,0,1,1,0,3.7Z" transform="translate(-426.357 -1557.673)"/><path class="b" d="M421.641,1584.827a.456.456,0,0,0-.464.464,1.578,1.578,0,0,1-.133.64,1.654,1.654,0,0,1-.369.528,1.832,1.832,0,0,1-.55.359,1.761,1.761,0,0,1-1.344,0,1.828,1.828,0,0,1-.549-.359,1.646,1.646,0,0,1-.369-.528,1.575,1.575,0,0,1-.133-.64.464.464,0,1,0-.928,0,2.492,2.492,0,0,0,.2,1,2.581,2.581,0,0,0,.577.834,2.533,2.533,0,0,0,.856.567,2.772,2.772,0,0,0,2.03,0,2.545,2.545,0,0,0,.856-.567,2.593,2.593,0,0,0,.577-.834,2.5,2.5,0,0,0,.2-1,.457.457,0,0,0-.464-.464Z" transform="translate(-385.148 -1573.979)"/></g></svg>