<svg xmlns="http://www.w3.org/2000/svg" width="207" height="44" viewBox="0 0 207 44"><defs><style>.a{fill:#231815;}.b{fill:#30e646;}</style></defs><path class="a" d="M55.731,15.9a1.492,1.492,0,0,0-1.505,1.505V28.471l-.089-.089-9.65-11.6a2.99,2.99,0,0,0-1.682-.885h0A1.551,1.551,0,0,0,41.3,17.405V32.367a1.492,1.492,0,0,0,1.505,1.505,1.441,1.441,0,0,0,1.505-1.505V21.035l.089.089L53.96,32.632c.089.089,1.239,1.062,1.682,1.062a1.492,1.492,0,0,0,1.505-1.505V17.316A1.4,1.4,0,0,0,55.731,15.9Z" transform="translate(-4.802 -1.824)"/><path class="a" d="M103.931,15.9a1.492,1.492,0,0,0-1.505,1.505V28.471l-.089-.089-9.65-11.6a2.99,2.99,0,0,0-1.682-.885h0A1.551,1.551,0,0,0,89.5,17.405V32.367a1.505,1.505,0,1,0,3.01,0V21.035l.089.089,9.561,11.509c.089.089,1.239,1.062,1.682,1.062a1.492,1.492,0,0,0,1.505-1.505V17.316A1.4,1.4,0,0,0,103.931,15.9Z" transform="translate(-10.405 -1.824)"/><path class="a" d="M17.529,6.551a6.177,6.177,0,0,0-2.036-4.6A6.479,6.479,0,0,0,10.712,0H1.594A1.865,1.865,0,0,0,.443.443,1.466,1.466,0,0,0,0,1.505v28.95a1.466,1.466,0,0,0,.443,1.062,1.865,1.865,0,0,0,1.151.443,1.865,1.865,0,0,0,1.151-.443,1.466,1.466,0,0,0,.443-1.062V13.191h7.525a6.678,6.678,0,0,0,4.869-1.948,6.177,6.177,0,0,0,2.036-4.6V6.551Zm-3.187.089A3.35,3.35,0,0,1,13.28,9.119a3.546,3.546,0,0,1-2.567,1.062H3.187V3.1h7.525A3.546,3.546,0,0,1,13.28,4.161,3.35,3.35,0,0,1,14.342,6.64Z"/><path class="a" d="M33.594,16.1a1.865,1.865,0,0,0-1.151.443A1.466,1.466,0,0,0,32,17.605V32.3a1.466,1.466,0,0,0,.443,1.062,1.718,1.718,0,0,0,2.3,0,1.466,1.466,0,0,0,.443-1.062v-14.7a1.466,1.466,0,0,0-.443-1.062A1.865,1.865,0,0,0,33.594,16.1Z" transform="translate(-3.67 -1.846)"/><path class="a" d="M73,30.269h0a4.424,4.424,0,0,1-3.1-1.239,3.7,3.7,0,0,1-1.239-2.922V18.76h4.249a1.865,1.865,0,0,0,1.151-.443,1.192,1.192,0,0,0,.443-1.062,1.466,1.466,0,0,0-.443-1.062,1.865,1.865,0,0,0-1.151-.443H68.576V13.005a1.466,1.466,0,0,0-.443-1.062,1.718,1.718,0,0,0-2.3,0,2.11,2.11,0,0,0-.531.974v13.1a7.082,7.082,0,0,0,2.213,5.223,7.5,7.5,0,0,0,5.312,2.125,1.865,1.865,0,0,0,1.151-.443,1.29,1.29,0,0,0,.443-1.062,1.466,1.466,0,0,0-.443-1.062C73.8,30.357,73.445,30.269,73,30.269Z" transform="translate(-7.588 -1.319)"/><path class="a" d="M81.894,16.1a1.865,1.865,0,0,0-1.151.443,1.466,1.466,0,0,0-.443,1.062V32.3a1.466,1.466,0,0,0,.443,1.062,1.718,1.718,0,0,0,2.3,0,1.466,1.466,0,0,0,.443-1.062v-14.7a1.466,1.466,0,0,0-.443-1.062A1.865,1.865,0,0,0,81.894,16.1Z" transform="translate(-9.328 -1.846)"/><path class="a" d="M162.194,16.1a1.865,1.865,0,0,0-1.151.443,1.466,1.466,0,0,0-.443,1.062V32.3a1.466,1.466,0,0,0,.443,1.062,1.718,1.718,0,0,0,2.3,0,1.466,1.466,0,0,0,.443-1.062v-14.7a1.466,1.466,0,0,0-.443-1.062A1.865,1.865,0,0,0,162.194,16.1Z" transform="translate(-18.656 -1.846)"/><path class="a" d="M151.434,28.34a1.466,1.466,0,0,0-1.062.443,5.509,5.509,0,0,1-7.791-7.791,5.558,5.558,0,0,1,7.791,0,1.565,1.565,0,0,0,2.213-2.213,8.657,8.657,0,0,0-12.217.089,8.551,8.551,0,0,0,0,12.217,8.361,8.361,0,0,0,6.109,2.567,8.638,8.638,0,0,0,6.109-2.479,1.6,1.6,0,0,0,0-2.213A1.2,1.2,0,0,0,151.434,28.34Z" transform="translate(-16.02 -1.869)"/><circle class="b" cx="2.922" cy="2.922" r="2.922" transform="translate(201.157 10.447)"/><path class="a" d="M207.016,17.7H193.205a1.505,1.505,0,0,0,0,3.01h13.811a1.492,1.492,0,0,0,1.505-1.505A1.551,1.551,0,0,0,207.016,17.7Z" transform="translate(-22.326 -2.03)"/><path class="a" d="M207.016,24.8H193.205a1.505,1.505,0,0,0,0,3.01h13.811a1.505,1.505,0,0,0,0-3.01Z" transform="translate(-22.326 -2.844)"/><path class="a" d="M207.016,31.8H193.205a1.505,1.505,0,0,0,0,3.01h13.811a1.492,1.492,0,0,0,1.505-1.505A1.551,1.551,0,0,0,207.016,31.8Z" transform="translate(-22.326 -3.647)"/><path class="a" d="M24.3,15h0c-5.046,1.151-6.2,4.781-6.2,6.463v3.718h0v6.994a1.505,1.505,0,0,0,3.01,0V25.181h0V21.374s.089-2.656,3.984-3.541h0a2.354,2.354,0,0,0,.089-1.505A2.234,2.234,0,0,0,24.3,15Z" transform="translate(-2.076 -1.72)"/><path class="a" d="M221.8,15h0c-5.046,1.151-6.2,4.781-6.2,6.463v3.718h0v6.994a1.505,1.505,0,1,0,3.01,0V25.181h0v-3.9s0-2.656,3.984-3.541h0a2.354,2.354,0,0,0,.089-1.505A1.941,1.941,0,0,0,221.8,15Z" transform="translate(-25.067 -1.72)"/><path class="a" d="M132.839,14.6h0c-3.276.8-4.958,2.567-5.666,4.161a8.664,8.664,0,1,0,2.479,7.082h.089V24.693h0V20.886s0-2.656,3.984-3.541h0a2.354,2.354,0,0,0,.089-1.505A3.981,3.981,0,0,0,132.839,14.6ZM120.976,30.624a5.666,5.666,0,1,1,5.666-5.666A5.706,5.706,0,0,1,120.976,30.624Z" transform="translate(-13.061 -1.674)"/><path class="a" d="M176.232,16.1h-4.427a1.441,1.441,0,0,0-1.505,1.505V32.213a1.551,1.551,0,0,0,1.505,1.505h4.427a9.058,9.058,0,0,0,9.207-8.765A9.072,9.072,0,0,0,176.232,16.1Zm0,14.608H173.31V19.022h2.922a6.012,6.012,0,0,1,6.109,5.843A6.012,6.012,0,0,1,176.232,30.708Z" transform="translate(-19.798 -1.846)"/><path class="a" d="M128.293,38.7a1.511,1.511,0,0,0-1.505,1.505,5.252,5.252,0,0,1-.443,2.036,7.1,7.1,0,0,1-1.151,1.682,6.113,6.113,0,0,1-1.771,1.151,5.349,5.349,0,0,1-2.125.443,5.7,5.7,0,0,1-2.125-.443,5.534,5.534,0,0,1-1.771-1.151,4.4,4.4,0,0,1-1.151-1.682,5.252,5.252,0,0,1-.443-2.036,1.505,1.505,0,0,0-3.01,0,8.165,8.165,0,0,0,.62,3.187,9.017,9.017,0,0,0,1.859,2.656,6.988,6.988,0,0,0,2.744,1.771,7.869,7.869,0,0,0,3.187.62,7.588,7.588,0,0,0,3.187-.62,8.459,8.459,0,0,0,4.6-4.427,7.588,7.588,0,0,0,.62-3.187,1.466,1.466,0,0,0-.443-1.062A1.09,1.09,0,0,0,128.293,38.7Z" transform="translate(-13.115 -4.438)"/></svg>