<svg xmlns="http://www.w3.org/2000/svg" viewBox="0 0 366.73 682.76">
    <defs>
        <style>
            .cls-1,.cls-9{fill:#f7f7f7}.cls-1,.cls-10,.cls-11,.cls-12{stroke:#231815}.cls-1,.cls-10,.cls-11,.cls-12,.cls-6,.cls-9{stroke-linecap:round;stroke-linejoin:round}.cls-1,.cls-12,.cls-5,.cls-6,.cls-9{stroke-width:4px}.cls-2,.cls-4,.cls-5,.cls-6{fill:#231815}.cls-2,.cls-3{fill-rule:evenodd}.cls-3{fill:#fff}.cls-5,.cls-6,.cls-7,.cls-9{stroke:#333}.cls-5{stroke-miterlimit:10}.cls-10,.cls-11,.cls-12,.cls-7{fill:none}.cls-7{stroke-width:10px}.cls-8{fill:#30e646}.cls-10{stroke-width:3px}
        </style>
    </defs>
    <g id="레이어_2" data-name="레이어 2">
        <g id="레이어_1-2" data-name="레이어 1">
            <path d="M56.72 566.85L77 635.38s7 21.34 4.47 24.82c0 0-19.58 13.9-6.22 17.95s54.75 3.54 56.75-2.54 12-76.44 44.74-78c0 0 30.71-7.09 44.07 21.26 0 0 10.58 21.43 22.5 55.19 2.45 6.94 40.94 7.08 58.3 1.51s-8-16.7-6.68-22.78 22-46.58 25.38-83" class="cls-1"/>
            <path d="M290.71 223.6c-15.71-26.22-29.51-63.12-28-93.71 2.2-45.17-7-70.41-7-70.41s-.53-.3 4.84-9c10-16.18-3.18-33.7-9.72-36S230 18.22 230 18.22 212.94 4.56 182.81 2.37c-40.7-3-60.5 12.57-69.86 22.27a24 24 0 0 0-15.48-2.59c-3 .44-15.08 12.08-14.53 25.31.29 6.89 6.4 10 12.7 16.23-10.48 24.64-5.69 62-.21 99.58 5.85 40.25-37.64 101.54-37.64 101.54C26 291.87 27.39 416 30 497.26A162.55 162.55 0 0 1 41.56 535l.24 6.56c.73-.17 1.46-.36 2.2-.52a120.3 120.3 0 0 1 62.57-7.77 159 159 0 0 1 78.14 29.47l29.77 28q3.3 4 6.3 8.21a121.75 121.75 0 0 1 9.74-18 119.62 119.62 0 0 1 37.82-48 119.86 119.86 0 0 1 47.28-26.13c7.41-24.86 5.36-35 5.36-35 21.26-99.82-14.56-222-30.27-248.22z" class="cls-1"/>
            <path d="M157.78 53.34c-3.71-.19-6.95 3.56-7.23 8.38s2.5 8.87 6.21 9.06 7-3.56 7.23-8.37-2.5-8.88-6.21-9.07z" class="cls-2"/>
            <path d="M154.07 58a2.26 2.26 0 1 0 2.13 2.38 2.25 2.25 0 0 0-2.13-2.38z" class="cls-3"/>
            <path d="M194.51 55.06c-3.71-.19-7 3.75-7.26 8.78s2.47 9.28 6.18 9.47 7-3.75 7.26-8.78-2.47-9.29-6.18-9.47z" class="cls-2"/>
            <path d="M190.77 60.15a2.26 2.26 0 1 0 2.12 2.38 2.25 2.25 0 0 0-2.12-2.38z" class="cls-3"/>
            <path d="M170.37 86.8c-.63.12-4.6-.32-6.35 5.12-.59 1.85 3 5.68 4.18 7.24s1.55 1.89 4.91 2.57 4.33-.13 5.8.17 7.65-6.06 8.12-9.46-2.15-4.09-4.72-5.46c-2.31-1.22-10.8-.39-11.94-.18z" class="cls-4"/>
            <path d="M172.86 100.8l-2-2.15s-2.2.94-1.15 2.24 4 4.66 4 4.66.53 4.17.82 6.66.06 12.26.69 12.39a5.17 5.17 0 0 0 2-.42s-.51-15.09-.55-17.07 1.09-2.39 2.86-4.29c1.34-1.45 3-3.49 3-3.49a9.1 9.1 0 0 0-2.09-1.33c-.63-.13-7.33 3.77-7.33 3.77M237.65 27.54c1.4-1.05 10.81-2.11 13.55 3.16 3.59 6.87-1.08 16.72-2.6 16.67-1.74 0-3.34-6.55-5.11-10-3.4-6.7-7.15-8.84-5.84-9.83zM107.65 35.17c-1.27-.8-9.39-1-11.36 3.68-2.56 6.15 2.14 14.21 3.43 14.06 1.49-.18 2.38-5.84 3.64-8.94 2.43-5.97 5.48-8.05 4.29-8.8z" class="cls-4"/>
            <path d="M27.06 381.64s-25.27 100 1.25 167.88c0 0 19.94 48.67 26.23 53.67 10.53 8.35 58.28 21.62 121.13 25.8 53.84 3.58 138.14-8.63 152.32-19.12a96.08 96.08 0 0 0 11-22c14.69-44.74 35.55-112.18 19.71-194.6l-60.39-93.06-243 77.31z" class="cls-5"/>
            <path d="M303.53 328.16s-13.69 13.51-34.92 2c-9.68-5.22-10.93-3-12.1-1.73s-2.36 4.54-2.74 7.09a87.86 87.86 0 0 1-4.34 17.6c-2.93 7.52-9.33 13.48-13.16 18.36-5.6 6.05 7.72 20.85 7.72 20.85 33.63 41 61.92 49.72 79.07 47.31 35.53-5 40-40.15 41.53-58.44s-9.24-57.73-29-85.41c-22.35-31.33-43.85-80-43.85-80 .31-10.95 2.34-21.48-5.21-28.48s-32.82-.22-32.82-.22c-20.2 5.75-54.31 11.3-81.26 10.37C120.51 195.72 92 180.4 78 191.38c-8.13 6.42-3.5 27-3.5 27s-18.12 33.84-33.71 65.05S-.45 370.31 19 422.79" class="cls-6"/>
            <path d="M63.2 328.16s13.68 13.51 34.92 2c9.67-5.22 10.92-3 12.09-1.73s2.37 4.54 2.75 7.09a86.51 86.51 0 0 0 4.34 17.6c2.93 7.52 9.33 13.48 13.15 18.36 5.61 6.05-7.71 20.85-7.71 20.85-33.63 41-61.92 49.72-79.07 47.31-35.54-5-40-40.15-41.53-58.44s9.23-57.73 29-85.41c22.36-31.33 43.86-80 43.86-80" class="cls-6"/>
            <path d="M66.4 207.05a84 84 0 0 1 24 3.27 50.62 50.62 0 0 1 19 10.14 47.08 47.08 0 0 1 12.51 17.66q4.56 10.78 4.56 25.83t-4.88 26.38a52.58 52.58 0 0 1-13.15 18.75A54.46 54.46 0 0 1 89 320.2a73.74 73.74 0 0 1-23.43 3.7 89.68 89.68 0 0 1-13.68-1.09A76.36 76.36 0 0 1 38 319.32a58.55 58.55 0 0 1-12.51-6.1 37.07 37.07 0 0 1-9.54-8.72 19.74 19.74 0 0 1-3.82-13.73 18.55 18.55 0 0 1 6.15-12.65 16.51 16.51 0 0 1 10.18-4.58 31.56 31.56 0 0 1 10.6.87 15.7 15.7 0 0 1 5.41 2.84 47.35 47.35 0 0 0 4.13 3.05 20.77 20.77 0 0 0 7.32 3.16 42.79 42.79 0 0 0 8.59.77 19.06 19.06 0 0 0 7.31-1.53 21.14 21.14 0 0 0 6.58-4.25A22.34 22.34 0 0 0 83 272a19.47 19.47 0 0 0-4.56-22.57q-6.36-5.55-16.54-5.56h-15a62.79 62.79 0 0 1-15.59-1.63 21 21 0 0 1-10-5.45 19.74 19.74 0 0 1-5-10.14 59.17 59.17 0 0 1-.64-15.48l1.91-33.13a110.31 110.31 0 0 1 2-15.48 22.52 22.52 0 0 1 4.66-10.14 18.13 18.13 0 0 1 9.18-5.42 57.66 57.66 0 0 1 15.16-1.64h55.77a15.27 15.27 0 0 1 12.83 6.22 18.92 18.92 0 0 1 3 6.1 24.3 24.3 0 0 1 1 6.65 26.21 26.21 0 0 1-.85 6.54 16.25 16.25 0 0 1-2.87 5.89 15.22 15.22 0 0 1-5.26 4.24 17 17 0 0 1-7.85 1.63H62.58c-2 0-3.33.26-4 .77s-1.13 1.78-1.27 3.81l-.85 15.26c-.14 2 .17 3.31 1 3.82a8.06 8.06 0 0 0 4.14.76z" class="cls-7"/>
            <path d="M179.9 354.77a72.47 72.47 0 0 1-23.44-3.7 52.37 52.37 0 0 1-18.87-11 50.87 50.87 0 0 1-12.51-18.31q-4.56-11-4.56-25.4v-63.89q0-14.39 4.56-25.29a52.2 52.2 0 0 1 12.51-18.31 51.61 51.61 0 0 1 18.87-11.12 75.87 75.87 0 0 1 46.87 0 51.61 51.61 0 0 1 18.87 11.12 52.2 52.2 0 0 1 12.51 18.31q4.56 10.9 4.56 25.29v63.88q0 14.38-4.56 25.4a50.87 50.87 0 0 1-12.51 18.31 52.37 52.37 0 0 1-18.87 11 72.45 72.45 0 0 1-23.43 3.71zm0-37.06a20.34 20.34 0 0 0 5.72-.87 14 14 0 0 0 5.41-3 16.84 16.84 0 0 0 4-5.67 21 21 0 0 0 1.59-8.72v-70a20.41 20.41 0 0 0-1.59-8.5 16.84 16.84 0 0 0-4-5.67 15.25 15.25 0 0 0-5.41-3.16 17 17 0 0 0-11.45 0 15.25 15.25 0 0 0-5.41 3.16 16.84 16.84 0 0 0-4 5.67 20.41 20.41 0 0 0-1.59 8.5v70a21 21 0 0 0 1.59 8.72 16.84 16.84 0 0 0 4 5.67 14 14 0 0 0 5.41 3 20.36 20.36 0 0 0 5.73.87z" class="cls-7"/>
            <path d="M298.47 324.77a72.45 72.45 0 0 1-23.43-3.7 52.37 52.37 0 0 1-18.87-11 50.82 50.82 0 0 1-12.51-18.32q-4.56-11-4.56-25.39v-63.89q0-14.39 4.56-25.29a52.2 52.2 0 0 1 12.51-18.31A51.61 51.61 0 0 1 275 147.75a75.87 75.87 0 0 1 46.87 0 51.61 51.61 0 0 1 18.87 11.12 52.2 52.2 0 0 1 12.51 18.31q4.56 10.9 4.56 25.29v63.88q0 14.38-4.56 25.39a50.82 50.82 0 0 1-12.51 18.32 52.37 52.37 0 0 1-18.87 11 72.56 72.56 0 0 1-23.4 3.71zm0-37.06a20.36 20.36 0 0 0 5.73-.87 14 14 0 0 0 5.41-3 16.84 16.84 0 0 0 4-5.67 21 21 0 0 0 1.59-8.72v-70a20.41 20.41 0 0 0-1.59-8.5 16.84 16.84 0 0 0-4-5.67 15.25 15.25 0 0 0-5.41-3.16 17 17 0 0 0-11.45 0 15.25 15.25 0 0 0-5.41 3.16 16.71 16.71 0 0 0-4 5.67 20.41 20.41 0 0 0-1.59 8.5v70a21 21 0 0 0 1.59 8.72 16.71 16.71 0 0 0 4 5.67 14 14 0 0 0 5.41 3 20.34 20.34 0 0 0 5.72.87z" class="cls-7"/>
            <path d="M66.4 207.05a84 84 0 0 1 24 3.27 50.62 50.62 0 0 1 19 10.14 47.08 47.08 0 0 1 12.51 17.66q4.56 10.78 4.56 25.83t-4.88 26.38a52.58 52.58 0 0 1-13.15 18.75A54.46 54.46 0 0 1 89 320.2a73.74 73.74 0 0 1-23.43 3.7 89.68 89.68 0 0 1-13.68-1.09A76.36 76.36 0 0 1 38 319.32a58.55 58.55 0 0 1-12.51-6.1 37.07 37.07 0 0 1-9.54-8.72 19.74 19.74 0 0 1-3.82-13.73 18.55 18.55 0 0 1 6.15-12.65 16.51 16.51 0 0 1 10.18-4.58 31.56 31.56 0 0 1 10.6.87 15.7 15.7 0 0 1 5.41 2.84 47.35 47.35 0 0 0 4.13 3.05 20.77 20.77 0 0 0 7.32 3.16 42.79 42.79 0 0 0 8.59.77 19.06 19.06 0 0 0 7.31-1.53 21.14 21.14 0 0 0 6.58-4.25A22.34 22.34 0 0 0 83 272a19.47 19.47 0 0 0-4.56-22.57q-6.36-5.55-16.54-5.56h-15a62.79 62.79 0 0 1-15.59-1.63 21 21 0 0 1-10-5.45 19.74 19.74 0 0 1-5-10.14 59.17 59.17 0 0 1-.64-15.48l1.91-33.13a110.31 110.31 0 0 1 2-15.48 22.52 22.52 0 0 1 4.66-10.14 18.13 18.13 0 0 1 9.18-5.42 57.66 57.66 0 0 1 15.16-1.64h55.77a15.27 15.27 0 0 1 12.83 6.22 18.92 18.92 0 0 1 3 6.1 24.3 24.3 0 0 1 1 6.65 26.21 26.21 0 0 1-.85 6.54 16.25 16.25 0 0 1-2.87 5.89 15.22 15.22 0 0 1-5.26 4.24 17 17 0 0 1-7.85 1.63H62.58c-2 0-3.33.26-4 .77s-1.13 1.78-1.27 3.81l-.85 15.26c-.14 2 .17 3.31 1 3.82a8.06 8.06 0 0 0 4.14.76z" class="cls-8"/>
            <path d="M179.9 354.77a72.47 72.47 0 0 1-23.44-3.7 52.37 52.37 0 0 1-18.87-11 50.87 50.87 0 0 1-12.51-18.31q-4.56-11-4.56-25.4v-63.89q0-14.39 4.56-25.29a52.2 52.2 0 0 1 12.51-18.31 51.61 51.61 0 0 1 18.87-11.12 75.87 75.87 0 0 1 46.87 0 51.61 51.61 0 0 1 18.87 11.12 52.2 52.2 0 0 1 12.51 18.31q4.56 10.9 4.56 25.29v63.88q0 14.38-4.56 25.4a50.87 50.87 0 0 1-12.51 18.31 52.37 52.37 0 0 1-18.87 11 72.45 72.45 0 0 1-23.43 3.71zm0-37.06a20.34 20.34 0 0 0 5.72-.87 14 14 0 0 0 5.41-3 16.84 16.84 0 0 0 4-5.67 21 21 0 0 0 1.59-8.72v-70a20.41 20.41 0 0 0-1.59-8.5 16.84 16.84 0 0 0-4-5.67 15.25 15.25 0 0 0-5.41-3.16 17 17 0 0 0-11.45 0 15.25 15.25 0 0 0-5.41 3.16 16.84 16.84 0 0 0-4 5.67 20.41 20.41 0 0 0-1.59 8.5v70a21 21 0 0 0 1.59 8.72 16.84 16.84 0 0 0 4 5.67 14 14 0 0 0 5.41 3 20.36 20.36 0 0 0 5.73.87z" class="cls-8"/>
            <path d="M298.47 324.77a72.45 72.45 0 0 1-23.43-3.7 52.37 52.37 0 0 1-18.87-11 50.82 50.82 0 0 1-12.51-18.32q-4.56-11-4.56-25.39v-63.89q0-14.39 4.56-25.29a52.2 52.2 0 0 1 12.51-18.31A51.61 51.61 0 0 1 275 147.75a75.87 75.87 0 0 1 46.87 0 51.61 51.61 0 0 1 18.87 11.12 52.2 52.2 0 0 1 12.51 18.31q4.56 10.9 4.56 25.29v63.88q0 14.38-4.56 25.39a50.82 50.82 0 0 1-12.51 18.32 52.37 52.37 0 0 1-18.87 11 72.56 72.56 0 0 1-23.4 3.71zm0-37.06a20.36 20.36 0 0 0 5.73-.87 14 14 0 0 0 5.41-3 16.84 16.84 0 0 0 4-5.67 21 21 0 0 0 1.59-8.72v-70a20.41 20.41 0 0 0-1.59-8.5 16.84 16.84 0 0 0-4-5.67 15.25 15.25 0 0 0-5.41-3.16 17 17 0 0 0-11.45 0 15.25 15.25 0 0 0-5.41 3.16 16.71 16.71 0 0 0-4 5.67 20.41 20.41 0 0 0-1.59 8.5v70a21 21 0 0 0 1.59 8.72 16.71 16.71 0 0 0 4 5.67 14 14 0 0 0 5.41 3 20.34 20.34 0 0 0 5.72.87z" class="cls-8"/>
            <path d="M303.53 328.16s-13.69 13.51-34.92 2c-9.68-5.22-10.93-3-12.1-1.73s-2.36 4.54-2.74 7.09a87.86 87.86 0 0 1-4.34 17.6c-2.93 7.52-9.33 13.48-13.16 18.36-5.6 6.05 7.72 20.85 7.72 20.85 33.63 41 61.92 49.72 79.07 47.31M63.2 328.16s13.68 13.51 34.92 2c9.67-5.22 10.92-3 12.09-1.73s2.37 4.54 2.75 7.09a86.51 86.51 0 0 0 4.34 17.6c2.93 7.52 9.33 13.48 13.15 18.36 5.61 6.05-7.71 20.85-7.71 20.85-33.63 41-61.92 49.72-79.07 47.31-35.54-5-40-40.15-41.53-58.44" class="cls-6"/>
            <path d="M256 333.31s2.82 19.48-18.94 38.61c0 0-5.34-.06-13-5s-10.11-8.91-9-12.25c2.25-6.56 10.75-2.92 10.75-2.92s-7.36-3.74-6.55-8.49c.77-4.55 6.75-7.77 11.41-5.35l1.73.92s-7.56-2.37-6.83-8c.31-2.41 2.64-6.72 10.09-5.27s20.34 7.75 20.34 7.75z" class="cls-9"/>
            <path d="M57.73 102.26s4.12 9.49 9.76 9.83" class="cls-10"/>
            <path d="M62.48 113.88s-3.38.25-7.88-4.35" class="cls-11"/>
            <path d="M65 118.16s-10.15.53-13.27-4M63 100.63s3.13-2.58 1.71-7.56a8.3 8.3 0 0 0-3.57-4.94c-.91-.56-7.89-3.66-12.39 3.17M49.77 89.47s-1.17-6.67-9.17-7A13.54 13.54 0 0 0 31.85 85c-2.08 1.52-6.32 7.09-3.66 13.28.91 2.13 3.37 5.63 6.74 5.88M29.85 102s-9.47 4.44-4.85 13.85c0 0 5.1 9.69 15.25 5.31M39.72 117.07s-.3 4.91 5.71 5.81a7.58 7.58 0 0 0 8.11-5.88" class="cls-10"/>
            <path d="M192.85 122s-19.09-5.73-29.39 10.51" class="cls-12"/>
            <path d="M110.73 333.31s-2.82 19.48 18.94 38.61c0 0 5.35-.06 13-5s10.1-8.91 9-12.25c-2.25-6.56-10.75-2.92-10.75-2.92s7.37-3.74 6.56-8.49c-.77-4.55-6.75-7.77-11.41-5.35l-1.73.92s7.56-2.37 6.83-8c-.32-2.41-2.65-6.72-10.09-5.27s-20.35 7.75-20.35 7.75z" class="cls-9"/>
        </g>
    </g>
</svg>
