<svg xmlns="http://www.w3.org/2000/svg" width="43" height="39" viewBox="0 0 43 39"><defs><style>.a{fill:#30e646;}.b{fill:#231815;}</style></defs><g transform="translate(0.044)"><g transform="translate(11.256 1.7)"><path class="a" d="M11.8,1.8s7.5,5.7.4,17.7H37.4s10.2-5.5.3-17.8Z" transform="translate(-11.8 -1.7)"/></g><path class="b" d="M37.228.588A4.631,4.631,0,0,0,35.648.1H31.7C25.872,0,12.146,0,8,0a1.411,1.411,0,0,0-.592.2.9.9,0,0,0-.494.1A8.663,8.663,0,0,0,1.283,4.7,10.1,10.1,0,0,0,0,8.917a28.534,28.534,0,0,0,0,2.94V37.432A1.568,1.568,0,0,0,.493,38.51,1.591,1.591,0,0,0,1.579,39h0l33.081-.1a1.554,1.554,0,0,0,1.58-1.568h0L33.574,25.575a1.554,1.554,0,0,0-1.58-1.568,1.591,1.591,0,0,0-1.086.49,1.568,1.568,0,0,0-.494,1.078h0l2.567,10.289-29.822.1V9.113a7.589,7.589,0,0,1,.889-2.94A5.747,5.747,0,0,1,7.7,3.234a4.474,4.474,0,0,1,3.16.392c2.271,1.47,3.654,2.744,3.654,6.957,0,4.606-3.851,8.133-3.851,8.133a1.353,1.353,0,0,0-.395,1.666,1.52,1.52,0,0,0,1.481.98h22.12a14.8,14.8,0,0,0,2.271-.1,4.834,4.834,0,0,0,.691-.294,10.574,10.574,0,0,0,6.122-10.093C42.956,4.116,39.006,1.372,37.228.588ZM35.451,18.324h0a11.5,11.5,0,0,1-1.679.1H15.009a13.657,13.657,0,0,0,2.567-7.741c0-3.234-.79-5.683-2.567-7.447h20.54l.2.1c1.185.588,4.049,2.548,4.049,7.741A7.478,7.478,0,0,1,35.451,18.324Z" transform="translate(0)"/></g></svg>