<svg xmlns="http://www.w3.org/2000/svg" viewBox="0 0 225.61 49.5"><defs><style>.cls-1{fill:#231815;}.cls-2{fill:#30e646;}</style></defs><title>자산 3</title><g id="레이어_2" data-name="레이어 2"><g id="레이어_1-2" data-name="레이어 1"><path class="cls-1" d="M157.06,10.65a10,10,0,1,0,10,10A10,10,0,0,0,157.06,10.65Zm0,16.44a6.49,6.49,0,1,1,6.49-6.49A6.49,6.49,0,0,1,157.06,27.09Z"/><path class="cls-1" d="M53.35,47a1.75,1.75,0,0,0,1.75,1.75h9.55a1.75,1.75,0,0,0,0-3.5h-7.8V38.1a1.75,1.75,0,0,0-3.5,0Z"/><path class="cls-1" d="M92.84,9.61a1.75,1.75,0,0,0-1.75,1.75V28.12a1.76,1.76,0,0,0,3.51,0V11.36A1.75,1.75,0,0,0,92.84,9.61Z"/><path class="cls-1" d="M55.1,9.61a1.75,1.75,0,0,0-1.75,1.75V28.12a1.75,1.75,0,0,0,3.5,0V11.36A1.75,1.75,0,0,0,55.1,9.61Z"/><path class="cls-1" d="M173.28,9.61a1.75,1.75,0,0,0-1.75,1.75V28.12a1.75,1.75,0,1,0,3.5,0V11.36A1.75,1.75,0,0,0,173.28,9.61Z"/><path class="cls-1" d="M131,26.67,117.7,11.86h0a1.72,1.72,0,0,0-2.58,0l-13.45,15a1.83,1.83,0,0,0,.11,2.54,1.72,1.72,0,0,0,2.47-.11l12.16-13.54.11.12,11.91,13.25a1.73,1.73,0,0,0,2.47.1A1.83,1.83,0,0,0,131,26.67Z"/><path class="cls-1" d="M200.53,11.5h-16a1.75,1.75,0,0,0-1.75,1.75V27.87a1.75,1.75,0,0,0,1.75,1.75h15.8a1.75,1.75,0,0,0,0-3.5h-14V15h14.23a1.75,1.75,0,0,0,0-3.5Z"/><path class="cls-1" d="M86.82,35.18A7.16,7.16,0,1,0,94,42.34,7.17,7.17,0,0,0,86.82,35.18Zm0,10.82a3.66,3.66,0,1,1,3.66-3.66A3.66,3.66,0,0,1,86.82,46Z"/><path class="cls-1" d="M82.52,11.5H66.34a1.75,1.75,0,0,0,0,3.5H82.52a1.75,1.75,0,0,0,0-3.5Z"/><path class="cls-1" d="M82.52,18.81H66.34a1.75,1.75,0,0,0,0,3.5H82.52a1.75,1.75,0,0,0,0-3.5Z"/><path class="cls-1" d="M82.52,26.12H66.34a1.75,1.75,0,0,0,0,3.5H82.52a1.75,1.75,0,0,0,0-3.5Z"/><path class="cls-1" d="M28.49,29.62H44.67a1.75,1.75,0,0,0,0-3.5H32.84L45.15,15.24a1.66,1.66,0,0,0,.34-.46l0,0,0,0a1.72,1.72,0,0,0,.87-1.47,1.75,1.75,0,0,0-1.75-1.75H28.49a1.75,1.75,0,1,0,0,3.5H40.14L27.77,25.92a1.74,1.74,0,0,0-.44.63l0,.05a1.74,1.74,0,0,0-.56,1.27A1.76,1.76,0,0,0,28.49,29.62Z"/><path class="cls-1" d="M1.75,39.79H17.93a1.75,1.75,0,0,0,0-3.5H1.75a1.75,1.75,0,0,0,0,3.5Z"/><path class="cls-1" d="M1.75,29.62H17.93a1.75,1.75,0,0,0,0-3.5H16.42V3.5h1.51a1.75,1.75,0,0,0,0-3.5H1.75a1.75,1.75,0,0,0,0,3.5H3.26V26.12H1.75a1.75,1.75,0,0,0,0,3.5Zm5-26.12h6.15V26.12H6.77Z"/><path class="cls-1" d="M142.4,8.49c-5.74,1.35-7.11,5.38-7,7.39v4.2s0,0,0,.06v8a1.75,1.75,0,1,0,3.5,0v-8s0-.05,0-.08V15.75s0-3,4.55-4a2.63,2.63,0,0,0,.07-1.72A2.5,2.5,0,0,0,142.4,8.49Z"/><path class="cls-1" d="M213.44,8.49c-5.74,1.35-7.11,5.38-7,7.39v4.2s0,0,0,.06v8a1.75,1.75,0,1,0,3.5,0v-8s0-.05,0-.08V15.75s0-3,4.55-4A2.68,2.68,0,0,0,214.5,10,2.46,2.46,0,0,0,213.44,8.49Z"/><circle class="cls-2" cx="222.19" cy="8.06" r="3.41"/></g></g></svg>