<svg xmlns="http://www.w3.org/2000/svg" viewBox="0 0 379.73 682.76">
    <defs>
        <style>
            .cls-1,.cls-10{fill:#f7f7f7}.cls-1,.cls-11,.cls-12,.cls-13{stroke:#231815}.cls-1,.cls-10,.cls-11,.cls-12,.cls-13,.cls-6{stroke-linecap:round;stroke-linejoin:round}.cls-1,.cls-10,.cls-13,.cls-5,.cls-6{stroke-width:4px}.cls-2,.cls-4,.cls-5,.cls-6{fill:#231815}.cls-2,.cls-3{fill-rule:evenodd}.cls-3{fill:#fff}.cls-10,.cls-5,.cls-6,.cls-7,.cls-8{stroke:#333}.cls-5,.cls-7{stroke-miterlimit:10}.cls-11,.cls-12,.cls-13,.cls-7,.cls-8{fill:none}.cls-7,.cls-8{stroke-width:10px}.cls-9{fill:#30e646}.cls-11{stroke-width:3px}
        </style>
    </defs>
    <g id="레이어_2" data-name="레이어 2">
        <g id="레이어_1-2" data-name="레이어 1">
            <path d="M69.73 566.85L90 635.38s7 21.34 4.48 24.82c0 0-19.58 13.9-6.23 17.95s54.75 3.54 56.75-2.54 12-76.44 44.74-78c0 0 30.72-7.09 44.08 21.26 0 0 10.58 21.43 22.5 55.19 2.45 6.94 40.93 7.08 58.3 1.51s-8-16.7-6.68-22.78 22-46.58 25.37-83" class="cls-1"/>
            <path d="M303.72 223.6c-15.71-26.22-29.51-63.12-28-93.71 2.21-45.17-7-70.41-7-70.41s-.54-.3 4.84-9c10-16.18-3.18-33.7-9.72-36S243 18.22 243 18.22 226 4.56 195.82 2.37c-40.71-3-60.51 12.57-69.86 22.27a24 24 0 0 0-15.49-2.59c-3 .44-15.07 12.08-14.52 25.31.29 6.89 6.4 10 12.7 16.23-10.48 24.64-5.69 62-.21 99.58 5.85 40.25-37.64 101.54-37.64 101.54C39 291.87 40.4 416 43 497.26A161.59 161.59 0 0 1 54.56 535c.09 2.19.17 4.37.25 6.56.73-.17 1.46-.36 2.19-.52a120.35 120.35 0 0 1 62.58-7.77 159.08 159.08 0 0 1 78.14 29.47l29.77 28q3.3 4 6.3 8.21a122.63 122.63 0 0 1 9.73-18 119.8 119.8 0 0 1 37.82-48 120 120 0 0 1 47.29-26.13c7.41-24.86 5.36-35 5.36-35 21.26-99.82-14.56-222-30.27-248.22z" class="cls-1"/>
            <path d="M170.79 53.34c-3.71-.19-6.95 3.56-7.23 8.38s2.5 8.87 6.21 9.06 6.95-3.56 7.23-8.37-2.5-8.88-6.21-9.07z" class="cls-2"/>
            <path d="M167.08 58a2.26 2.26 0 1 0 2.12 2.38 2.25 2.25 0 0 0-2.12-2.38z" class="cls-3"/>
            <path d="M207.52 55.06c-3.72-.19-7 3.75-7.26 8.78s2.47 9.28 6.18 9.47 7-3.75 7.25-8.78-2.47-9.29-6.17-9.47z" class="cls-2"/>
            <path d="M203.77 60.15a2.26 2.26 0 1 0 2.13 2.38 2.27 2.27 0 0 0-2.13-2.38z" class="cls-3"/>
            <path d="M183.38 86.8c-.63.12-4.6-.32-6.35 5.12-.59 1.85 3 5.68 4.18 7.24s1.55 1.89 4.9 2.57 4.34-.13 5.81.17 7.64-6.06 8.11-9.46-2.15-4.09-4.71-5.46c-2.32-1.22-10.8-.39-11.94-.18z" class="cls-4"/>
            <path d="M185.87 100.8l-2-2.15s-2.2.94-1.15 2.24 4 4.66 4 4.66.53 4.17.82 6.66.06 12.26.69 12.39a5.11 5.11 0 0 0 2-.42s-.5-15.09-.54-17.07 1.09-2.39 2.86-4.29c1.34-1.45 3-3.49 3-3.49a9.1 9.1 0 0 0-2.1-1.33c-.63-.13-7.34 3.77-7.34 3.77M250.66 27.54c1.39-1.05 10.8-2.11 13.55 3.16 3.58 6.87-1.08 16.72-2.6 16.67-1.75 0-3.34-6.55-5.11-10-3.4-6.7-7.15-8.84-5.84-9.83zM120.66 35.17c-1.27-.8-9.39-1-11.36 3.68-2.56 6.13 2.14 14.21 3.43 14.06 1.49-.18 2.38-5.84 3.64-8.94 2.43-5.97 5.48-8.05 4.29-8.8z" class="cls-4"/>
            <path d="M40.06 381.64s-25.26 100 1.26 167.88c0 0 19.94 48.67 26.23 53.67 10.53 8.35 58.27 21.62 121.13 25.8 53.83 3.58 138.14-8.63 152.32-19.12a96.54 96.54 0 0 0 11-22c14.69-44.74 35.54-112.18 19.71-194.6l-60.39-93.06-243 77.31z" class="cls-5"/>
            <path d="M316.53 328.16s-13.68 13.51-34.91 2c-9.68-5.22-10.93-3-12.1-1.73s-2.37 4.54-2.75 7.09a87.27 87.27 0 0 1-4.33 17.6c-2.93 7.52-9.33 13.48-13.16 18.36-5.6 6.05 7.72 20.85 7.72 20.85 33.63 41 61.92 49.72 79.07 47.31 35.53-5 40-40.15 41.53-58.44s-9.24-57.73-29-85.41c-22.36-31.33-43.85-80-43.85-80 .31-10.95 2.34-21.48-5.21-28.48s-32.82-.22-32.82-.22c-20.2 5.75-54.31 11.3-81.26 10.37-52-1.8-80.51-17.12-94.41-6.14-8.13 6.42-3.5 27-3.5 27s-18.12 33.84-33.71 65.05-41.28 86.94-21.79 139.42" class="cls-6"/>
            <path d="M76.21 328.16s13.68 13.51 34.91 2c9.68-5.22 10.93-3 12.1-1.73s2.37 4.54 2.75 7.09a87.27 87.27 0 0 0 4.33 17.6c2.93 7.52 9.34 13.48 13.16 18.36 5.6 6.05-7.72 20.85-7.72 20.85-33.63 41-61.92 49.72-79.07 47.31-35.53-5-40-40.15-41.52-58.44s9.23-57.73 29-85.41c22.36-31.33 43.86-80 43.86-80" class="cls-6"/>
            <path d="M80.82 255.89v-51a20.65 20.65 0 0 1 1.72-8.76 17.82 17.82 0 0 1 4.51-6.13 18.49 18.49 0 0 1 6.43-3.61 22.94 22.94 0 0 1 7.3-1.21 22 22 0 0 1 7.18 1.21 18.78 18.78 0 0 1 6.33 3.61 17.94 17.94 0 0 1 4.51 6.13 20.81 20.81 0 0 1 1.71 8.76v51h19.31v35.91h-19.31V322H80.82v-30.2h-44q-19.52 0-27.14-10.18t-2.87-27.26l27.24-91.75q2.79-10.08 9-14.57a19.3 19.3 0 0 1 14.38-3.39 21.11 21.11 0 0 1 7.94 2.41 20.5 20.5 0 0 1 6.22 5.14 17.83 17.83 0 0 1 3.54 7.45A21.56 21.56 0 0 1 75 169l-23.81 80.8c-.72 2.48-.58 4.13.43 4.93s2.93 1.2 5.79 1.2z" class="cls-7"/>
            <path d="M196.67 354.38a73.81 73.81 0 0 1-23.67-3.72 53.15 53.15 0 0 1-19.1-11.06 51 51 0 0 1-12.65-18.39q-4.62-11.06-4.62-25.52v-64.16q0-14.44 4.62-25.4A51 51 0 0 1 173 176.57a77.39 77.39 0 0 1 47.41 0 51.07 51.07 0 0 1 31.76 29.56q4.61 11 4.61 25.4v64.16q0 14.46-4.61 25.52a51.18 51.18 0 0 1-12.66 18.39 53.15 53.15 0 0 1-19.1 11.06 73.8 73.8 0 0 1-23.74 3.72zm0-37.22a20.89 20.89 0 0 0 5.79-.88 14.14 14.14 0 0 0 5.47-3.07 16.93 16.93 0 0 0 4.08-5.69 21 21 0 0 0 1.61-8.76v-70.29a20.43 20.43 0 0 0-1.61-8.54 17 17 0 0 0-4.08-5.69 15.54 15.54 0 0 0-5.47-3.18 17.46 17.46 0 0 0-11.59 0 15.54 15.54 0 0 0-5.47 3.18 16.88 16.88 0 0 0-4.07 5.69 20.28 20.28 0 0 0-1.61 8.54v70.29a20.87 20.87 0 0 0 1.61 8.76 16.78 16.78 0 0 0 4.07 5.69 14.14 14.14 0 0 0 5.47 3.07 20.91 20.91 0 0 0 5.8.88z" class="cls-7"/>
            <path d="M365.08 263.81a59.62 59.62 0 0 1-4.88 24.71 53.93 53.93 0 0 1-13.2 18.31 57.11 57.11 0 0 1-19.53 11.38 70.94 70.94 0 0 1-23.54 3.9 113.35 113.35 0 0 1-14.65-1 82.88 82.88 0 0 1-14.36-3.11 50.36 50.36 0 0 1-12.48-5.85 37.51 37.51 0 0 1-9.55-8.88 20.34 20.34 0 0 1-3.8-13.66 17.85 17.85 0 0 1 6.19-12.61 17.1 17.1 0 0 1 10.41-4.55 33 33 0 0 1 10.85.87 16.15 16.15 0 0 1 5.54 2.82 49.5 49.5 0 0 0 4.23 3 18.65 18.65 0 0 0 7.7 2.93 68.08 68.08 0 0 0 9 .54 18.91 18.91 0 0 0 13.9-5.61q5.64-5.62 5.64-14.52a16.45 16.45 0 0 0-2.06-8.34 18.87 18.87 0 0 0-5.65-6.07 27 27 0 0 0-8.24-3.79 37.37 37.37 0 0 0-10.09-1.3h-10.42a13.19 13.19 0 0 1-8.79-3.47 15.21 15.21 0 0 1-5.1-8 20.11 20.11 0 0 1 0-10.94q1.51-5.09 7.17-10.08l33.41-29.9H270a18.59 18.59 0 0 1-8.1-1.59 16.21 16.21 0 0 1-5.54-4.23 16.55 16.55 0 0 1-3.14-5.74 21.4 21.4 0 0 1-1-6.39 21.91 21.91 0 0 1 1-6.29 16.59 16.59 0 0 1 3.14-5.85 17.1 17.1 0 0 1 13.64-6.1h67.49a23.42 23.42 0 0 1 14.68 4.6 25 25 0 0 1 8.46 11 25.36 25.36 0 0 1 1.2 13.76 23.48 23.48 0 0 1-6.73 12.68l-30.38 30.12a43.8 43.8 0 0 1 14.65 4.55 47.66 47.66 0 0 1 13 9.75 47.14 47.14 0 0 1 9.22 14.41 47.9 47.9 0 0 1 3.49 18.54z" class="cls-8"/>
            <path d="M80.82 255.89v-51a20.65 20.65 0 0 1 1.72-8.76 17.82 17.82 0 0 1 4.51-6.13 18.49 18.49 0 0 1 6.43-3.61 22.94 22.94 0 0 1 7.3-1.21 22 22 0 0 1 7.18 1.21 18.78 18.78 0 0 1 6.33 3.61 17.94 17.94 0 0 1 4.51 6.13 20.81 20.81 0 0 1 1.71 8.76v51h19.31v35.91h-19.31V322H80.82v-30.2h-44q-19.52 0-27.14-10.18t-2.87-27.26l27.24-91.75q2.79-10.08 9-14.57a19.3 19.3 0 0 1 14.38-3.39 21.11 21.11 0 0 1 7.94 2.41 20.5 20.5 0 0 1 6.22 5.14 17.83 17.83 0 0 1 3.54 7.45A21.56 21.56 0 0 1 75 169l-23.81 80.8c-.72 2.48-.58 4.13.43 4.93s2.93 1.2 5.79 1.2z" class="cls-9"/>
            <path d="M196.67 354.38a73.81 73.81 0 0 1-23.67-3.72 53.15 53.15 0 0 1-19.1-11.06 51 51 0 0 1-12.65-18.39q-4.62-11.06-4.62-25.52v-64.16q0-14.44 4.62-25.4A51 51 0 0 1 173 176.57a77.39 77.39 0 0 1 47.41 0 51.07 51.07 0 0 1 31.76 29.56q4.61 11 4.61 25.4v64.16q0 14.46-4.61 25.52a51.18 51.18 0 0 1-12.66 18.39 53.15 53.15 0 0 1-19.1 11.06 73.8 73.8 0 0 1-23.74 3.72zm0-37.22a20.89 20.89 0 0 0 5.79-.88 14.14 14.14 0 0 0 5.47-3.07 16.93 16.93 0 0 0 4.08-5.69 21 21 0 0 0 1.61-8.76v-70.29a20.43 20.43 0 0 0-1.61-8.54 17 17 0 0 0-4.08-5.69 15.54 15.54 0 0 0-5.47-3.18 17.46 17.46 0 0 0-11.59 0 15.54 15.54 0 0 0-5.47 3.18 16.88 16.88 0 0 0-4.07 5.69 20.28 20.28 0 0 0-1.61 8.54v70.29a20.87 20.87 0 0 0 1.61 8.76 16.78 16.78 0 0 0 4.07 5.69 14.14 14.14 0 0 0 5.47 3.07 20.91 20.91 0 0 0 5.8.88z" class="cls-9"/>
            <path d="M365.08 263.81a59.62 59.62 0 0 1-4.88 24.71 53.93 53.93 0 0 1-13.2 18.31 57.11 57.11 0 0 1-19.53 11.38 70.94 70.94 0 0 1-23.54 3.9 113.35 113.35 0 0 1-14.65-1 82.88 82.88 0 0 1-14.36-3.11 50.36 50.36 0 0 1-12.48-5.85 37.51 37.51 0 0 1-9.55-8.88 20.34 20.34 0 0 1-3.8-13.66 17.85 17.85 0 0 1 6.19-12.61 17.1 17.1 0 0 1 10.41-4.55 33 33 0 0 1 10.85.87 16.15 16.15 0 0 1 5.54 2.82 49.5 49.5 0 0 0 4.23 3 18.65 18.65 0 0 0 7.7 2.93 68.08 68.08 0 0 0 9 .54 18.91 18.91 0 0 0 13.9-5.61q5.64-5.62 5.64-14.52a16.45 16.45 0 0 0-2.06-8.34 18.87 18.87 0 0 0-5.65-6.07 27 27 0 0 0-8.24-3.79 37.37 37.37 0 0 0-10.09-1.3h-10.42a13.19 13.19 0 0 1-8.79-3.47 15.21 15.21 0 0 1-5.1-8 20.11 20.11 0 0 1 0-10.94q1.51-5.09 7.17-10.08l33.41-29.9H270a18.59 18.59 0 0 1-8.1-1.59 16.21 16.21 0 0 1-5.54-4.23 16.55 16.55 0 0 1-3.14-5.74 21.4 21.4 0 0 1-1-6.39 21.91 21.91 0 0 1 1-6.29 16.59 16.59 0 0 1 3.14-5.85 17.1 17.1 0 0 1 13.64-6.1h67.49a23.42 23.42 0 0 1 14.68 4.6 25 25 0 0 1 8.46 11 25.36 25.36 0 0 1 1.2 13.76 23.48 23.48 0 0 1-6.73 12.68l-30.38 30.12a43.8 43.8 0 0 1 14.65 4.55 47.66 47.66 0 0 1 13 9.75 47.14 47.14 0 0 1 9.22 14.41 47.9 47.9 0 0 1 3.49 18.54z" class="cls-9"/>
            <path d="M316.53 328.16s-13.68 13.51-34.91 2c-9.68-5.22-10.93-3-12.1-1.73s-2.37 4.54-2.75 7.09a87.27 87.27 0 0 1-4.33 17.6c-2.93 7.52-9.33 13.48-13.16 18.36-5.6 6.05 7.72 20.85 7.72 20.85 33.63 41 61.92 49.72 79.07 47.31M76.21 328.16s13.68 13.51 34.91 2c9.68-5.22 10.93-3 12.1-1.73s2.37 4.54 2.75 7.09a87.27 87.27 0 0 0 4.33 17.6c2.93 7.52 9.34 13.48 13.16 18.36 5.6 6.05-7.72 20.85-7.72 20.85-33.63 41-61.92 49.72-79.07 47.31-35.53-5-40-40.15-41.52-58.44" class="cls-6"/>
            <path d="M269 333.31s2.82 19.48-18.94 38.61c0 0-5.34-.06-13-5s-10.11-8.91-9-12.25c2.25-6.56 10.75-2.92 10.75-2.92s-7.37-3.74-6.56-8.49c.78-4.55 6.76-7.77 11.42-5.35l1.72.92s-7.55-2.37-6.82-8c.31-2.41 2.64-6.72 10.09-5.27s20.34 7.75 20.34 7.75z" class="cls-10"/>
            <path d="M73.28 102.26s4.12 9.49 9.76 9.83" class="cls-11"/>
            <path d="M78 113.88s-3.38.25-7.88-4.35" class="cls-12"/>
            <path d="M80.55 118.16s-10.15.53-13.27-4M78.57 100.63s3.13-2.58 1.71-7.56a8.3 8.3 0 0 0-3.57-4.94c-.91-.56-7.89-3.66-12.39 3.17M65.32 89.47s-1.17-6.67-9.17-7A13.54 13.54 0 0 0 47.4 85c-2.08 1.52-6.32 7.09-3.66 13.28.91 2.13 3.37 5.63 6.74 5.88M45.4 102s-9.47 4.44-4.85 13.85c0 0 5.1 9.69 15.25 5.31M55.27 117.07S55 122 61 122.88a7.58 7.58 0 0 0 8.09-5.88" class="cls-11"/>
            <path d="M205.86 122s-19.09-5.73-29.39 10.51" class="cls-13"/>
            <path d="M123.74 333.31s-2.82 19.48 18.94 38.61c0 0 5.35-.06 13-5s10.11-8.91 9-12.25c-2.25-6.56-10.75-2.92-10.75-2.92s7.37-3.74 6.56-8.49c-.77-4.55-6.76-7.77-11.42-5.35l-1.72.92s7.55-2.37 6.82-8c-.31-2.41-2.64-6.72-10.09-5.27s-20.34 7.75-20.34 7.75z" class="cls-10"/>
        </g>
    </g>
</svg>
