<svg xmlns="http://www.w3.org/2000/svg" width="250" height="24" viewBox="0 0 250 24"><defs><style>.a{fill:#003894;}.b{fill:#e60020;}</style></defs><g transform="translate(0 0.045)"><path class="a" d="M380.012,16.4h-1.857v2.936H374.2v1.138h12.1V19.336h-6.291Z" transform="translate(-149.905 -6.572)"/><path class="a" d="M412.657,14.456V11.4H410.8v8.988h1.857V15.534h1.917V14.456Z" transform="translate(-164.575 -4.57)"/><path class="a" d="M289.36,12.838h4.014v.779A5.745,5.745,0,0,1,289.3,19.37v1.258c4.973-1.378,6.231-4.793,6.231-6.651V11.7H289.42v1.138Z" transform="translate(-115.899 -4.69)"/><path class="a" d="M403.131,18.351V17.212h-3.355a1.266,1.266,0,0,1-1.258-1.258V12.838h4.614V11.7H396.6v4.194a2.4,2.4,0,0,0,2.4,2.4h4.134Z" transform="translate(-158.883 -4.692)"/><path class="a" d="M383.69,15.275a2.85,2.85,0,0,1-.419,1.378h1.917a2.5,2.5,0,0,0,.419-1.378V11.8H376.2v1.138h7.49Z" transform="translate(-150.707 -4.733)"/><path class="a" d="M400.617,27.777V25.8H398.7v1.917a2.4,2.4,0,0,0,2.4,2.4h6.951V28.976h-6.172a1.215,1.215,0,0,1-1.258-1.2" transform="translate(-159.725 -10.329)"/><path class="a" d="M381.574,23.8c-2.217,0-4.074,1.378-4.074,3.056s1.8,3.056,4.074,3.056c2.217,0,4.015-1.378,4.015-3.056s-1.8-3.056-4.015-3.056m0,5.093a1.985,1.985,0,1,1,2.157-1.977,2.077,2.077,0,0,1-2.157,1.977" transform="translate(-151.228 -9.519)"/><path class="a" d="M230.81,23.4h-1.857v3.355H223.2v1.079h13.362V26.755H230.81Z" transform="translate(-89.417 -9.37)"/><path class="a" d="M201.56,21.938h5.453v.779c-1.8.3-3.116,1.558-3.116,3,0,1.678,1.8,3.056,4.015,3.056s4.015-1.378,4.015-3.056c0-1.438-1.318-2.7-3.116-3v-.779h5.453V20.8H201.5v1.138Zm8.568,3.775a2.165,2.165,0,1,1-2.157-1.977,2.077,2.077,0,0,1,2.157,1.977" transform="translate(-80.723 -8.317)"/><rect class="a" width="12.044" height="1.138" transform="translate(211.533 12.766)"/><path class="a" d="M360.274,23.8c-2.217,0-4.074,1.378-4.074,3.056s1.8,3.056,4.074,3.056c2.217,0,4.015-1.378,4.015-3.056s-1.8-3.056-4.015-3.056m0,5.093a1.985,1.985,0,1,1,2.157-1.977,2.077,2.077,0,0,1-2.157,1.977" transform="translate(-142.69 -9.519)"/><path class="a" d="M356.058,13.975c0,1.438,1.678,2.636,3.655,2.636,2.037,0,3.655-1.2,3.655-2.636a2.283,2.283,0,0,0-.659-1.558h1.558V11.279h-3.655V10.5h-1.917v.779H354.8v1.138h1.857a2.665,2.665,0,0,0-.6,1.558m3.655,1.558a1.7,1.7,0,0,1-1.8-1.618,1.7,1.7,0,0,1,1.8-1.618,1.733,1.733,0,0,1,1.8,1.618,1.733,1.733,0,0,1-1.8,1.618" transform="translate(-142.129 -4.213)"/><rect class="a" width="1.917" height="8.988" transform="translate(207.758 6.83)"/><path class="a" d="M318.887,13.657H316.73a3.639,3.639,0,0,0-3.475-2.457,3.558,3.558,0,0,0-3.655,3.475,3.662,3.662,0,0,0,7.31.06h1.977V18.39H320.8V11.32h-1.917Zm-5.632,3.355c-.959,0-1.738-1.079-1.738-2.337,0-1.318.779-2.337,1.738-2.337s1.738,1.079,1.738,2.337c0,1.318-.779,2.337-1.738,2.337" transform="translate(-124.03 -4.492)"/><path class="a" d="M336.417,27.777V25.8H334.5v1.917a2.4,2.4,0,0,0,2.4,2.4h6.951V28.976h-6.172a1.215,1.215,0,0,1-1.258-1.2" transform="translate(-133.992 -10.329)"/><path class="a" d="M251.117,27.777V25.8H249.2v1.917a2.4,2.4,0,0,0,2.4,2.4h6.951V28.976h-6.172a1.181,1.181,0,0,1-1.258-1.2" transform="translate(-99.833 -10.329)"/><path class="a" d="M320.451,25.9h-5.033V24.46H313.5v2.7a2.4,2.4,0,0,0,2.4,2.4h6.411V24.4h-1.917v1.5Zm-3.775,2.576a1.266,1.266,0,0,1-1.258-1.258v-.18h5.033v1.438Z" transform="translate(-125.593 -9.768)"/><path class="a" d="M335.235,15.774a6.388,6.388,0,0,0,3.895,3.056V17.572a4.663,4.663,0,0,1-2.876-4.434v-.3h2.577V11.7H331.7v1.138h2.576v.3a4.663,4.663,0,0,1-2.876,4.434V18.83a6.424,6.424,0,0,0,3.835-3.056" transform="translate(-132.764 -4.692)"/><path class="a" d="M209.053,14.1a8.113,8.113,0,0,0,4.913,2.457V15.295c-2.756-.539-3.655-1.977-3.955-2.756h3.775V11.4H204.38v1.138h3.775c-.3.779-1.258,2.217-3.955,2.756v1.258a8.444,8.444,0,0,0,4.853-2.457" transform="translate(-81.806 -4.573)"/><rect class="a" width="1.917" height="12.942" transform="translate(181.911 6.836)"/><path class="a" d="M251.393,18.47V15.115h1.378v5.273h1.678V11.4h-1.678v2.576h-1.378v-2.4h-1.678v2.4h-1.977v-2.4H246v5.273a1.547,1.547,0,0,0,1.558,1.558Zm-2.876-1.079a.819.819,0,0,1-.839-.839V15.115h1.977v2.277Z" transform="translate(-98.552 -4.57)"/><rect class="a" width="1.678" height="8.988" transform="translate(156.797 6.83)"/><path class="a" d="M281.5,14.516h-2.4v1.138h2.4v8.688h1.917V11.4H281.5Z" transform="translate(-111.813 -4.564)"/><path class="a" d="M272.373,14.555V13.477h2.577V12.338h-2.577V11.2H270.4v1.138h-2.636v1.138H270.4v1.079a5.1,5.1,0,0,1-3,4.674v1.2a6.69,6.69,0,0,0,3.955-2.936,6.882,6.882,0,0,0,3.955,2.936v-1.2a5.12,5.12,0,0,1-2.936-4.674" transform="translate(-107.125 -4.49)"/><path class="a" d="M230.913,15.515a8.371,8.371,0,0,0,5.213,3.715V17.852c-2.7-1.019-4.194-2.936-4.194-5.512V11.8h-2.037v.539c0,2.576-1.5,4.494-4.194,5.512V19.23a8.6,8.6,0,0,0,5.213-3.715" transform="translate(-90.419 -4.731)"/><path class="a" d="M135.292,22.8V12.946l-5.812,9.609h-4.015l-5.872-9.609V22.8H115.1V5.8h4.793l7.67,12.551L135.292,5.8h4.614v17Z" transform="translate(-46.109 -2.343)"/><path class="a" d="M91.859,12.106H82.812a1.4,1.4,0,0,1-1.019-.42,1.58,1.58,0,0,1-.419-.9A1.437,1.437,0,0,1,82.752,9.4H96.593V5.8H82.212a5.337,5.337,0,0,0-3.955,1.441,4.967,4.967,0,0,0-1.558,3.6,5.235,5.235,0,0,0,1.558,3.723,5.366,5.366,0,0,0,3.955,1.561h9.527a1.233,1.233,0,0,1,1.019.42,1.408,1.408,0,0,1,.419,1.021,1.438,1.438,0,0,1-1.5,1.5H77.659v3.663h14.2a5.364,5.364,0,0,0,4.074-1.621,5.17,5.17,0,0,0,1.558-3.843,5.235,5.235,0,0,0-1.558-3.723,5.63,5.63,0,0,0-4.074-1.441" transform="translate(-30.726 -2.343)"/><path class="a" d="M179.994,9.463V5.8H161.3v17h18.694V19.132H165.914v-3h14.081V12.466H165.914v-3Z" transform="translate(-64.618 -2.343)"/><path class="a" d="M36.357,21.52a12.846,12.846,0,0,0,9.887,5.752,11.54,11.54,0,0,0,7.49-2.037,11.1,11.1,0,0,0,4.973-9.767c-.24-3.835-3.6-7.19-6.951-7.07a5.491,5.491,0,0,0-4.674,2.7,4.575,4.575,0,0,1,3.955,3.176,4.5,4.5,0,0,1-2.876,5.093c-.06.06,0,.18.12.12,2.636-.36,5.692-2.157,5.093-7.01A8.8,8.8,0,0,1,51.637,20.5a7.226,7.226,0,0,1-6.052,2.277c-.18,0-.24.24-.06.24a9.077,9.077,0,0,0,7.13-1.5,8.18,8.18,0,0,0,3.355-6.232,8.956,8.956,0,0,1-5.333,9.167c-4.614,2.337-11.2.36-14.081-3.176-.18-.24-.419-.06-.24.24" transform="translate(-14.547 -3.344)"/><path class="b" d="M56.642,5.794A12.994,12.994,0,0,0,46.755-.018a11.54,11.54,0,0,0-7.49,2.037,11.1,11.1,0,0,0-4.973,9.767c.24,3.955,3.535,7.19,6.951,7.07a5.491,5.491,0,0,0,4.674-2.7,4.575,4.575,0,0,1-3.955-3.176,4.5,4.5,0,0,1,2.876-5.093c.06-.06,0-.18-.12-.12-2.636.36-5.692,2.157-5.093,7.01a8.8,8.8,0,0,1,1.738-8.029,7.226,7.226,0,0,1,6.052-2.277c.18,0,.24-.24.06-.24a9.077,9.077,0,0,0-7.13,1.5,8,8,0,0,0-3.355,6.231A8.956,8.956,0,0,1,42.321,2.8c4.614-2.337,11.2-.36,14.081,3.176.18.24.419.12.24-.18" transform="translate(-13.74 0)"/><path class="a" d="M10.486,13.787,21.63,22.8H15.039L4.674,14.688V22.8H0V5.8H4.674v7.206L14.2,5.8h6.411Z" transform="translate(0 -2.343)"/></g></svg>