<svg xmlns="http://www.w3.org/2000/svg" width="221" height="24" viewBox="0 0 221 24"><defs><style>.a{fill:#003894;}.b{fill:#e60020;}.c{fill:#023886;}</style></defs><g transform="translate(0 0.045)"><path class="a" d="M134.938,22.918V13l-5.71,9.678h-3.944L119.515,13v9.92H115.1V5.8h4.709l7.535,12.642L134.938,5.8h4.533V22.918Z" transform="translate(-47.197 -2.404)"/><path class="a" d="M91.594,12.152H82.7a1.36,1.36,0,0,1-1-.423,1.609,1.609,0,0,1-.412-.907,1.333,1.333,0,0,1,.412-.968,1.266,1.266,0,0,1,.942-.423h13.6V5.8H82.116a5.17,5.17,0,0,0-3.885,1.452,5.064,5.064,0,0,0-1.531,3.63,5.341,5.341,0,0,0,1.531,3.751A5.2,5.2,0,0,0,82.116,16.2h9.36a1.2,1.2,0,0,1,1,.423,1.437,1.437,0,0,1,.412,1.028,1.48,1.48,0,0,1-.412,1.089,1.4,1.4,0,0,1-1.06.423H77.642v3.69H91.594a5.2,5.2,0,0,0,4-1.633,5.277,5.277,0,0,0,1.531-3.872A5.341,5.341,0,0,0,95.6,13.6a5.451,5.451,0,0,0-4-1.452" transform="translate(-31.453 -2.404)"/><path class="a" d="M179.667,9.49V5.8H161.3V22.918h18.367v-3.69H165.833V16.2h13.834v-3.69H165.833V9.49Z" transform="translate(-66.148 -2.404)"/><path class="a" d="M36.356,21.29a12.62,12.62,0,0,0,9.713,5.651,11.337,11.337,0,0,0,7.358-2,10.9,10.9,0,0,0,4.886-9.6c-.235-3.768-3.532-7.064-6.829-6.946a5.4,5.4,0,0,0-4.592,2.649,4.5,4.5,0,0,1,3.885,3.12,4.425,4.425,0,0,1-2.826,5c-.059.059,0,.177.118.118,2.59-.353,5.592-2.119,5-6.888a8.648,8.648,0,0,1-1.707,7.888,7.1,7.1,0,0,1-5.946,2.237c-.177,0-.235.235-.059.235a8.918,8.918,0,0,0,7.005-1.472,8.036,8.036,0,0,0,3.3-6.122,8.8,8.8,0,0,1-5.239,9.007c-4.533,2.3-11.008.353-13.834-3.12-.177-.235-.412-.059-.235.235" transform="translate(-14.928 -3.013)"/><path class="b" d="M56.25,5.692a12.766,12.766,0,0,0-9.713-5.71,11.337,11.337,0,0,0-7.358,2,10.9,10.9,0,0,0-4.886,9.6c.235,3.885,3.473,7.064,6.829,6.946a5.4,5.4,0,0,0,4.592-2.649,4.5,4.5,0,0,1-3.885-3.12,4.425,4.425,0,0,1,2.826-5c.059-.059,0-.177-.118-.118-2.59.353-5.592,2.119-5,6.888a8.648,8.648,0,0,1,1.707-7.888A7.1,7.1,0,0,1,47.184,4.4c.177,0,.235-.235.059-.235a8.918,8.918,0,0,0-7.005,1.472,7.863,7.863,0,0,0-3.3,6.122A8.8,8.8,0,0,1,42.18,2.748c4.533-2.3,11.008-.353,13.834,3.12.177.235.412.118.235-.177" transform="translate(-14.1 0)"/><path class="a" d="M10.3,13.845l10.949,9.073H14.776L4.592,14.752v8.166H0V5.8H4.592v7.259L13.952,5.8h6.3Z" transform="translate(0 -2.404)"/><g transform="translate(119.041 6.79)"><path class="c" d="M206.5,13.955a4.677,4.677,0,0,0,.353,1.3,3.2,3.2,0,0,0,.648,1.06,3.935,3.935,0,0,0,2.119,1.3c-.059.059-.177.118-.235.177l-.177.177-.177.177a.812.812,0,0,1-.235.177,3.149,3.149,0,0,1-.942-.235,7.662,7.662,0,0,1-1-.471,5.083,5.083,0,0,1-.824-.765,2.985,2.985,0,0,1-.53-.942,2.986,2.986,0,0,1-.53.942,4.705,4.705,0,0,1-.765.765,5.219,5.219,0,0,1-1,.471,3.149,3.149,0,0,1-.942.235l-.765-.648a3.9,3.9,0,0,0,1.118-.53,6.3,6.3,0,0,0,.942-.824,4.618,4.618,0,0,0,.648-1.06,4.887,4.887,0,0,0,.353-1.236h-2.355v-.883h2.414V11.6h1.825v1.531h2.414v.883H206.5Zm5.71,8.006a1.989,1.989,0,0,1-.353,1.177,3.153,3.153,0,0,1-.883.883,3.9,3.9,0,0,1-1.118.53,4.415,4.415,0,0,1-2.472,0,4.249,4.249,0,0,1-1.177-.53,3.153,3.153,0,0,1-.883-.883,2.123,2.123,0,0,1-.353-1.177,2.176,2.176,0,0,1,.353-1.236,3.153,3.153,0,0,1,.883-.883,3.594,3.594,0,0,1,1.177-.53,4.814,4.814,0,0,1,1.236-.177,4.481,4.481,0,0,1,1.236.177,4.249,4.249,0,0,1,1.177.53,3.153,3.153,0,0,1,.883.883A2.145,2.145,0,0,1,212.214,21.961Zm-1.825,0a2.955,2.955,0,0,0-.118-.706,5.175,5.175,0,0,0-.353-.589,2.114,2.114,0,0,0-.589-.412,1.5,1.5,0,0,0-1.413,0,2.114,2.114,0,0,0-.589.412,1.221,1.221,0,0,0-.353.589,1.493,1.493,0,0,0-.118.706,2.955,2.955,0,0,0,.118.706,5.175,5.175,0,0,0,.353.589,2.114,2.114,0,0,0,.589.412,1.5,1.5,0,0,0,1.413,0,2.114,2.114,0,0,0,.589-.412,1.221,1.221,0,0,0,.353-.589A2.955,2.955,0,0,0,210.389,21.961Zm.412-10.243h1.825v7.3H210.8V16.074h-2.355v-.942H210.8Z" transform="translate(-201.5 -11.482)"/><path class="c" d="M226.425,17.628h5.18v.883H225.9a1.337,1.337,0,0,1-.942-.353,1.2,1.2,0,0,1-.353-.883V11.918h1.825Zm1.766,5.769h6.888v.883H227.72a1.337,1.337,0,0,1-.942-.353,1.2,1.2,0,0,1-.353-.883V20.159h1.825V23.4Zm6.534-11.6v9.183H232.9V16.274h-3.473v-.883H232.9V13.978h-3.473V13.1H232.9V11.8Z" transform="translate(-211.002 -11.565)"/><path class="c" d="M249.663,13.955a4.677,4.677,0,0,0,.353,1.3,4.617,4.617,0,0,0,.648,1.06,3.659,3.659,0,0,0,2.06,1.3c-.059.059-.177.118-.235.177l-.177.177-.177.177a.813.813,0,0,1-.235.177,3.149,3.149,0,0,1-.942-.235,4.693,4.693,0,0,1-.942-.471,5.083,5.083,0,0,1-.824-.765,2.986,2.986,0,0,1-.53-.942,2.986,2.986,0,0,1-.53.942,5.084,5.084,0,0,1-.824.765,5.219,5.219,0,0,1-1,.471,3.149,3.149,0,0,1-.942.235l-.765-.648a3.9,3.9,0,0,0,1.118-.53,6.3,6.3,0,0,0,.942-.824,4.618,4.618,0,0,0,.648-1.06,4.887,4.887,0,0,0,.353-1.236h-2.355v-.883h2.414V11.6h1.825v1.531h2.414v.883h-2.3Zm5.534,8.006a2.176,2.176,0,0,1-.353,1.236,3.153,3.153,0,0,1-.883.883,4.249,4.249,0,0,1-1.177.53,4.415,4.415,0,0,1-2.472,0,4.249,4.249,0,0,1-1.177-.53,3.153,3.153,0,0,1-.883-.883,2.34,2.34,0,0,1,0-2.472,3.153,3.153,0,0,1,.883-.883,4.249,4.249,0,0,1,1.177-.53,4.415,4.415,0,0,1,2.472,0,4.249,4.249,0,0,1,1.177.53,3.153,3.153,0,0,1,.883.883A2.176,2.176,0,0,1,255.2,21.961Zm-1.825,0a2.955,2.955,0,0,0-.118-.706,2.431,2.431,0,0,0-.412-.648,2.114,2.114,0,0,0-.589-.412,1.567,1.567,0,0,0-.706-.177,1.255,1.255,0,0,0-.706.177,1.282,1.282,0,0,0-.53.412,2.431,2.431,0,0,0-.412.648,1.493,1.493,0,0,0-.118.706,1.567,1.567,0,0,0,.177.706,2.115,2.115,0,0,0,.412.589,3.236,3.236,0,0,0,.53.412,1.5,1.5,0,0,0,1.413,0,2.067,2.067,0,0,0,1-1A1.449,1.449,0,0,0,253.371,21.961Zm2.119-10.243V14.19h2.119v.942h-2.119v3.885h-1.825v-7.3Z" transform="translate(-219.228 -11.482)"/><path class="c" d="M276.589,14.231V11.759h1.825v6.358h-1.825V15.173h-2a3.286,3.286,0,0,1-1.177,2,3.087,3.087,0,0,1-1.06.589,4.079,4.079,0,0,1-1.177.177,3.168,3.168,0,0,1-1.3-.235,4.262,4.262,0,0,1-1.118-.648,3.236,3.236,0,0,1-.765-1,3.164,3.164,0,0,1-.294-1.236,2.736,2.736,0,0,1,.294-1.236,4.115,4.115,0,0,1,.765-1,4.263,4.263,0,0,1,1.118-.648,3.168,3.168,0,0,1,1.3-.235,3.333,3.333,0,0,1,1.06.177,3.273,3.273,0,0,1,1,.53,4.7,4.7,0,0,1,.765.765,2.18,2.18,0,0,1,.471,1.06h2.119Zm-5.416-1.589a.938.938,0,0,0-.706.235,2.031,2.031,0,0,0-.471.53,3.6,3.6,0,0,0-.294.706,2.955,2.955,0,0,0-.118.706,1.493,1.493,0,0,0,.118.706,3.6,3.6,0,0,0,.294.706,1.67,1.67,0,0,0,.53.589,1.262,1.262,0,0,0,.706.235.938.938,0,0,0,.706-.235,1.6,1.6,0,0,0,.471-.589,3.6,3.6,0,0,0,.294-.706,2.955,2.955,0,0,0,.118-.706,1.493,1.493,0,0,0-.118-.706,3.6,3.6,0,0,0-.294-.706,1.39,1.39,0,0,0-.471-.53A1.67,1.67,0,0,0,271.173,12.642Zm.235,11.6a1.337,1.337,0,0,1-.942-.353,1.252,1.252,0,0,1-.412-.883V19.176h1.825v1.531h4.592V19.176H278.3v5.063Zm5.063-.883V21.649H271.88v1.707Z" transform="translate(-228.729 -11.523)"/><path class="c" d="M296.023,19.806a4.105,4.105,0,0,1-1-.353,3.868,3.868,0,0,1-1-.706,4.122,4.122,0,0,1-.824-.942,2.58,2.58,0,0,1-.412-1.118,3.762,3.762,0,0,1-.471,1.118,5.945,5.945,0,0,1-.765.942,9.823,9.823,0,0,1-.942.706,3.764,3.764,0,0,1-.942.353L288.9,19.1a3.014,3.014,0,0,0,1.236-.589,3.068,3.068,0,0,0,.824-.942,3.6,3.6,0,0,0,.53-1.177,9.146,9.146,0,0,0,.294-1.354,10.515,10.515,0,0,0,.118-1.354V11.977h1.884V13.8a10.5,10.5,0,0,0,.118,1.354,8.35,8.35,0,0,0,.294,1.3,4.248,4.248,0,0,0,.53,1.177,4.425,4.425,0,0,0,.883.942,3.013,3.013,0,0,0,1.236.589Zm3.532-4.945h2.119v.883h-2.119V24.28H297.73V11.8h1.825Z" transform="translate(-237.449 -11.565)"/><path class="c" d="M321.7,11.8v2.767h2.119v.883H321.7v5.534h-1.825V18.511a5.086,5.086,0,0,1-1.236.412,9.628,9.628,0,0,1-1.3.118H311.4v-.883h1.943V15.214h1.707v2.943H317.4a8.694,8.694,0,0,0,1.236-.059,9.41,9.41,0,0,0,1.236-.294v-6Zm-9.772.412h5.357a1.337,1.337,0,0,1,.942.353,1.243,1.243,0,0,1,.353.942V15.1a1.462,1.462,0,0,1-.059.471,2.589,2.589,0,0,1-.118.589c-.059.177-.059.353-.118.53a.949.949,0,0,1-.235.412h-1.531a1.88,1.88,0,0,0,.177-.824,3.884,3.884,0,0,0,.059-.824V13.1h-4.886v-.883ZM315.462,23.4h6.711v.883h-7.241a1.243,1.243,0,0,1-.942-.353,1.2,1.2,0,0,1-.353-.883V20.395h1.825Z" transform="translate(-246.704 -11.565)"/><path class="c" d="M340.441,12.7v.883h-1.707a2.123,2.123,0,0,1,.883.883,2.68,2.68,0,0,1,.294,1.177,2.033,2.033,0,0,1-.294,1.06,3.1,3.1,0,0,1-.706.824,2.713,2.713,0,0,1-1,.53,3.334,3.334,0,0,1-1.06.177,4,4,0,0,1-1.119-.177,3.273,3.273,0,0,1-1-.53,2.4,2.4,0,0,1-.706-.824,2.2,2.2,0,0,1-.294-1.06,2,2,0,0,1,.059-.589,1.763,1.763,0,0,1,.235-.589l.353-.53a1.39,1.39,0,0,1,.53-.353H333.2V12.7h2.649V11.4h1.825v1.3Zm1.413,11.42V20.407h-7.005v-.883h7.476a1.337,1.337,0,0,1,.942.353,1.2,1.2,0,0,1,.353.883v3.355Zm-4.945-10.184a.994.994,0,0,0-.589.177,1.375,1.375,0,0,0-.412.412,2.385,2.385,0,0,0-.294.53,2.591,2.591,0,0,0-.118.589.968.968,0,0,0,.118.589,2.385,2.385,0,0,0,.294.53,1.375,1.375,0,0,0,.412.412,1.069,1.069,0,0,0,1.177,0,1.375,1.375,0,0,0,.412-.412,1.786,1.786,0,0,0,.235-1.707,1.109,1.109,0,0,0-.235-.53,1.375,1.375,0,0,0-.412-.412A.994.994,0,0,0,336.909,13.931Zm8.83.942H343.62v3.473h-1.825V11.753h1.825V13.99h2.119Z" transform="translate(-255.671 -11.4)"/><path class="c" d="M366.926,23.014H355.8v-.942h2.06V16.951h1.707v5.122h1.354V16.951h1.707v5.122h4.3ZM356.742,12.3h7.653a1.337,1.337,0,0,1,.942.353,1.243,1.243,0,0,1,.353.942v3.414c0,.648-.059,1.236-.118,1.884a4.557,4.557,0,0,1-.648,1.766h-1.531a3.916,3.916,0,0,0,.412-1.413,12.8,12.8,0,0,0,.059-1.472V13.183h-7.182V12.3Z" transform="translate(-264.967 -11.77)"/></g></g></svg>