<svg xmlns="http://www.w3.org/2000/svg" width="17.001" height="19" viewBox="0 0 17.001 19"><path d="M4.853,12.521h10.08a2.121,2.121,0,0,0,2.075-2.156V5.914a.051.051,0,0,0,0-.023c0-.008,0-.02,0-.027s0-.016,0-.023a.258.258,0,0,1-.008-.027c0-.008,0-.016-.008-.023s0-.016-.008-.023a.2.2,0,0,1-.011-.027.086.086,0,0,0-.011-.02L16.941,5.7c0-.008-.008-.012-.011-.02s-.011-.016-.015-.023a.068.068,0,0,0-.015-.02c0-.008-.011-.012-.015-.02s-.011-.012-.015-.02-.011-.012-.015-.016l-.019-.02c-.008,0-.011-.012-.019-.016s-.015-.012-.023-.016l-.019-.012a.079.079,0,0,1-.023-.016l-.023-.012-.023-.012-.023-.012c-.008,0-.015,0-.023-.008a.068.068,0,0,0-.026-.008.157.157,0,0,1-.019,0,.08.08,0,0,0-.03,0s-.008,0-.015,0L3.8,3.606V1.755a.25.25,0,0,0,0-.055.03.03,0,0,0,0-.016c0-.012,0-.023,0-.035s0-.02-.008-.031,0-.012,0-.02l-.011-.035s0-.012,0-.016a.119.119,0,0,0-.015-.031s0-.012-.008-.016a.082.082,0,0,0-.015-.023c0-.008-.008-.012-.011-.02S3.7,1.447,3.7,1.439s-.011-.016-.015-.023L3.673,1.4,3.65,1.38l-.011-.012a.166.166,0,0,0-.026-.023L3.6,1.333c-.008-.008-.015-.012-.023-.02l-.03-.02s-.008,0-.011-.008l-.049-.023L.714.053A.5.5,0,0,0,.049.334a.534.534,0,0,0,.271.691L2.778,2.1V13.653a2.132,2.132,0,0,0,1.808,2.136,2.192,2.192,0,0,0-.293,1.093,2.092,2.092,0,0,0,2.049,2.128,2.1,2.1,0,0,0,2.049-2.128,2.149,2.149,0,0,0-.282-1.074h4.564a2.16,2.16,0,0,0-.282,1.074,2.05,2.05,0,1,0,2.049-2.128H4.853a1.083,1.083,0,0,1-1.06-1.1V12.224A2.04,2.04,0,0,0,4.853,12.521ZM7.38,16.879A1.035,1.035,0,1,1,6.346,15.8,1.056,1.056,0,0,1,7.38,16.879Zm8.1,0A1.035,1.035,0,1,1,14.444,15.8,1.056,1.056,0,0,1,15.478,16.879Zm-.545-5.412H4.853a1.083,1.083,0,0,1-1.06-1.1v-5.7l12.2,1.745v3.948A1.083,1.083,0,0,1,14.933,11.467Z" transform="translate(-0.008 -0.011)"/></svg>