<svg xmlns="http://www.w3.org/2000/svg" width="811.12" height="409.12" viewBox="0 0 811.12 409.12"><defs><style>.a,.b{fill:none;stroke:#231815;stroke-miterlimit:10;stroke-width:3px;}.a{stroke-linecap:round;stroke-linejoin:round;}.c{fill:#30e646;}</style></defs><g transform="translate(35.773 132.679)"><line class="a" y2="17.798" transform="translate(28.778)"/><line class="a" y2="17.798" transform="translate(28.778 39.669)"/><g transform="translate(7.615 9.209)"><line class="a" x1="13.105" y2="12.042" transform="translate(29.132)"/><line class="a" x1="13.105" y2="12.042" transform="translate(0 26.918)"/></g><line class="a" x2="17.798" transform="translate(0 28.689)"/><line class="a" x2="17.798" transform="translate(39.669 28.689)"/><path class="b" d="M71.8,201.3" transform="translate(-43.996 -155.786)"/><g transform="translate(7.615 9.209)"><line class="a" x2="13.105" y2="12.042"/><line class="a" x2="13.105" y2="12.042" transform="translate(29.132 26.918)"/></g></g><g transform="translate(107.231 221.977)"><line class="a" y2="28.601" transform="translate(46.222)"/><line class="a" y2="28.689" transform="translate(46.222 63.843)"/><g transform="translate(12.22 14.876)"><line class="a" x1="21.074" y2="19.48" transform="translate(47.019)"/><line class="a" x1="21.074" y2="19.392" transform="translate(0 43.3)"/></g><line class="a" x2="28.601" transform="translate(0 46.222)"/><line class="a" x2="28.601" transform="translate(63.931 46.222)"/><path class="b" d="M171.6,333.6" transform="translate(-126.883 -260.283)"/><g transform="translate(12.22 14.876)"><line class="a" x2="21.074" y2="19.48"/><line class="a" x2="21.074" y2="19.392" transform="translate(47.019 43.3)"/></g></g><g transform="translate(488.226 75.493)"><line class="a" y2="39.581" transform="translate(63.931)"/><line class="a" y2="39.581" transform="translate(63.931 88.282)"/><g transform="translate(16.913 20.543)"><line class="a" x1="29.132" y2="26.83" transform="translate(64.994)"/><line class="a" x1="29.132" y2="26.83" transform="translate(0 59.858)"/></g><line class="a" x2="39.581" transform="translate(0 63.931)"/><line class="a" x2="39.669" transform="translate(88.282 63.931)"/><path class="b" d="M623.9,199.7" transform="translate(-562.005 -98.401)"/><g transform="translate(16.913 20.543)"><line class="a" x2="29.132" y2="26.83"/><line class="a" x2="29.132" y2="26.83" transform="translate(64.994 59.858)"/></g></g><g transform="translate(643.139 40.024)"><line class="a" y2="13.371" transform="translate(21.694)"/><line class="a" y2="13.459" transform="translate(21.694 29.841)"/><g transform="translate(5.756 6.995)"><line class="a" x1="9.917" y2="9.032" transform="translate(21.96)"/><line class="a" x1="9.829" y2="9.12" transform="translate(0 20.189)"/></g><line class="a" x2="13.459" transform="translate(0 21.606)"/><line class="a" x2="13.371" transform="translate(29.929 21.606)"/><path class="b" d="M753.1,83.9" transform="translate(-732.114 -49.632)"/><g transform="translate(5.756 6.995)"><line class="a" x2="9.829" y2="9.032"/><line class="a" x2="9.917" y2="9.12" transform="translate(21.96 20.189)"/></g></g><g transform="translate(770.305 212.433)"><line class="a" x1="12.042" y2="10.98" transform="translate(26.653)"/><line class="a" x1="11.954" y2="11.068" transform="translate(0 24.528)"/><path class="b" d="M894.5,277.4" transform="translate(-875.994 -244.283)"/><line class="a" x2="11.954" y2="10.98"/><line class="a" x2="12.042" y2="11.068" transform="translate(26.653 24.528)"/></g><g transform="translate(47.727 383.712)"><line class="a" x1="7.881" y2="7.172" transform="translate(17.444)"/><line class="a" x1="7.792" y2="7.172" transform="translate(0 16.116)"/><path class="b" d="M67.5,458" transform="translate(-55.458 -436.306)"/><line class="a" x2="7.792" y2="7.172"/><line class="a" x2="7.881" y2="7.172" transform="translate(17.444 16.116)"/></g><circle class="c" cx="15.496" cy="15.496" r="15.496" transform="translate(0 332.531)"/><circle class="c" cx="6.641" cy="6.641" r="6.641" transform="translate(74.38 264.396)"/><circle class="c" cx="14.433" cy="14.433" r="14.433" transform="translate(112.19 93.471)"/><circle class="c" cx="10.449" cy="10.449" r="10.449" transform="translate(594.803 0)"/><circle class="c" cx="21.251" cy="21.251" r="21.251" transform="translate(717.796 158.084)"/><circle class="c" cx="13.8" cy="13.8" r="13.8" transform="translate(581 359)"/></svg>