<svg xmlns="http://www.w3.org/2000/svg" width="338.016" height="116.102" viewBox="0 0 338.016 116.102"><defs><style>.a{fill:#231815;}.b,.e{fill:#fff;}.c{font-size:28px;font-family:designhouseBold, designhouse Bold;}.d,.e{stroke:#000;stroke-miterlimit:10;stroke-width:2px;}</style></defs><g transform="translate(-0.031 1.994)"><g transform="translate(3.683 44.984)"><path class="a" d="M10.093,103.026A6.19,6.19,0,0,1,5.1,101.079a6.292,6.292,0,0,1-.974-5.234,8.3,8.3,0,0,1,8.4-6.7h13.39l4.261-20.207c1.217-5.478,5.843-7.426,9.739-7.426a7.353,7.353,0,0,1,5.965,2.435c.852.974,1.583,2.8,1.1,5.6l-4.139,19.6H66.576A6.19,6.19,0,0,1,71.567,91.1a6.292,6.292,0,0,1,.974,5.234,8.274,8.274,0,0,1-8.278,6.7ZM58.42,88.053a8.732,8.732,0,0,1-3.53-.73,5.341,5.341,0,0,1-2.8-3.287c-.609-1.948,0-4.382,1.339-6.573,3.165-4.869,5.478-11.321,7.426-20.329l.974-4.382v-.243H23.484a6.014,6.014,0,0,1-4.991-2.069,6.439,6.439,0,0,1-1.1-5.478A8.851,8.851,0,0,1,26.04,37.9H69.133c4.5,0,7.3.974,8.886,2.922s1.826,4.5.974,8.643l-1.826,8.278c-2.435,11.321-5.6,19.842-9.617,25.442A11.383,11.383,0,0,1,58.42,88.053Z" transform="translate(-2.827 -36.683)"/><path class="a" d="M69.215,39.335c8.278,0,10.225,3.165,8.765,10.1l-1.826,8.278c-2.435,11.321-5.6,19.6-9.373,24.955a10.3,10.3,0,0,1-8.156,4.382,7.355,7.355,0,0,1-2.922-.609c-2.8-1.339-2.922-4.869-.852-8.156,3.165-4.869,5.6-11.321,7.547-20.694l.974-4.382a1.256,1.256,0,0,0-1.339-1.7H23.688c-4.261,0-5.478-3.165-4.869-6.087a7.7,7.7,0,0,1,7.547-6.087H69.215M40.243,62.95c3.652,0,6.817,1.948,5.843,6.452l-4.5,21.181H66.9c4.261,0,5.356,2.922,4.748,5.721a6.985,6.985,0,0,1-7.182,5.721H10.3c-4.261,0-5.356-2.8-4.748-5.721a7.092,7.092,0,0,1,7.182-5.721H27.218l4.5-21.181c.852-4.5,4.748-6.452,8.521-6.452M69.215,36.9H26.244a10.052,10.052,0,0,0-9.86,8.034,7.827,7.827,0,0,0,1.339,6.452,7.254,7.254,0,0,0,5.965,2.556H60.694l-.73,3.287c-1.826,8.886-4.139,15.216-7.182,19.842A9.817,9.817,0,0,0,51.2,84.619a6.051,6.051,0,0,0,2.435,3.53H44.5l3.9-18.26a7.363,7.363,0,0,0-1.339-6.573,8.615,8.615,0,0,0-6.939-2.922c-5.6,0-9.86,3.287-10.956,8.4L25.148,88.149H12.732a9.376,9.376,0,0,0-9.5,7.669,7.168,7.168,0,0,0,1.217,6.208,7.122,7.122,0,0,0,5.843,2.435H64.346a9.376,9.376,0,0,0,9.5-7.669,6.708,6.708,0,0,0-7.06-8.643H64.1a13.341,13.341,0,0,0,4.626-4.017c4.017-5.721,7.3-14.486,9.86-25.929l1.826-8.278c.609-2.8,1.1-6.817-1.217-9.738C77.249,38,74.206,36.9,69.215,36.9Z" transform="translate(-3.031 -36.9)"/></g><g transform="translate(79.196 42.915)"><path class="a" d="M75.612,104.713c-4.261,0-6.817-.852-8.278-2.556-1.461-1.826-1.7-4.626-.73-9.13l2.435-11.2c.974-4.869,4.626-7.669,9.739-7.669a7.347,7.347,0,0,1,5.6,2.069,5.3,5.3,0,0,1,1.339,3.53h27.633a8.673,8.673,0,0,1,6.7-5.356h-4.382a1.107,1.107,0,0,1-.974-.487.947.947,0,0,1-.243-.974l6.087-28.729a9.779,9.779,0,0,1,9.617-7.913,7.094,7.094,0,0,1,5.6,2.435,6.821,6.821,0,0,1,1.1,6.087l-.73,3.408h.73a5.368,5.368,0,0,1,4.5,1.826,6.79,6.79,0,0,1,.974,5.721c-.73,3.408-3.165,7.06-8.034,7.06H133.07l-2.313,10.834a1.185,1.185,0,0,1-1.217.974h-4.626a6.331,6.331,0,0,1,3.408,1.948,6.545,6.545,0,0,1,.974,5.965l-4.626,21.425a1.185,1.185,0,0,1-1.217.974H75.612Zm8.034-11.808h26.659l.365-1.826H83.525L83.16,92.54v.243C83.281,92.905,83.4,92.905,83.647,92.905ZM79.63,72.819c-4.382,0-6.939-.73-8.4-2.556-1.461-1.7-1.583-4.382-.73-8.643l2.678-12.66c1.7-8.034,4.991-10.712,13.147-10.712h23.859a4.981,4.981,0,0,1,4.017,1.7,6.2,6.2,0,0,1,.852,5.234,7.388,7.388,0,0,1-7.3,6.208H89.977c-.974,0-.974.122-1.1.609L87.3,59.429v.243h21.06a5.076,5.076,0,0,1,4.139,1.7,6.175,6.175,0,0,1,.974,4.991c-.609,2.922-2.922,6.33-7.3,6.33H79.63Z" transform="translate(-64.771 -34.961)"/><path class="a" d="M130.249,37.635c3.652,0,6.452,2.435,5.478,6.939l-.974,4.869h2.191c4.261,0,4.869,3.287,4.261,6.087-.609,2.922-2.678,6.087-6.817,6.087H132.2l-2.556,11.808h-14L121.728,44.7a8.711,8.711,0,0,1,8.521-7.06M110.407,39.7c3.652,0,4.261,2.922,3.774,5.478a6.2,6.2,0,0,1-6.087,5.234H90.2c-1.339,0-1.948.365-2.191,1.583l-1.583,7.426c-.243,1.339.243,1.7,1.583,1.7H108.7c3.652,0,4.382,2.8,3.9,5.234a6.331,6.331,0,0,1-6.208,5.478H79.853c-7.791,0-9.373-2.435-7.913-9.738l2.678-12.66C76.2,42.139,78.757,39.7,86.67,39.7h23.738M122.58,75.493c3.9,0,6.573,2.069,5.478,6.817l-4.626,21.425h-47.6c-7.913,0-9.373-2.8-7.791-10.225l2.435-11.2c.974-4.748,4.626-6.817,8.521-6.817,3.652,0,6.087,1.7,5.721,5.6h29.7c1.217-3.9,4.5-5.6,8.156-5.6M112.355,90.223H82.774l-.487,2.435c-.365,1.583,0,1.7,1.583,1.7H111.5l.852-4.139M130.249,35.2a10.965,10.965,0,0,0-10.834,8.886l-4.382,20.694a5.984,5.984,0,0,0-6.452-6.087H89.1l1.217-5.843h17.895a8.667,8.667,0,0,0,8.4-7.182,7.853,7.853,0,0,0-1.1-6.33,6.226,6.226,0,0,0-4.991-2.191H86.67c-8.765,0-12.538,3.043-14.364,11.686l-2.678,12.66c-.73,3.287-1.1,7.06.974,9.738a8.078,8.078,0,0,0,4.261,2.556,10.319,10.319,0,0,0-6.817,8.034l-2.435,11.2c-.73,3.53-1.217,7.426.974,10.225,2.191,2.678,6.087,3.043,9.252,3.043h47.719a2.6,2.6,0,0,0,2.435-1.948l4.626-21.425c.73-3.53-.243-5.843-1.217-6.939h.365a2.6,2.6,0,0,0,2.435-1.948l2.069-9.86h.243c5.6,0,8.4-4.139,9.252-8.034a7.661,7.661,0,0,0-1.217-6.7,6.39,6.39,0,0,0-4.626-2.313l.365-1.948a8.263,8.263,0,0,0-1.339-7.06,8.586,8.586,0,0,0-6.7-2.922Zm-46.5,39.076h22.52a8.39,8.39,0,0,0,7.791-5.234l-.852,3.774a2.545,2.545,0,0,0,.487,2.069,3.152,3.152,0,0,0,1.339.852A9.958,9.958,0,0,0,112.6,78.78H87.035a6.445,6.445,0,0,0-1.583-3.165,4.381,4.381,0,0,0-1.7-1.339Z" transform="translate(-64.994 -35.2)"/></g><g transform="translate(155.208 42.793)"><path class="a" d="M177.252,104.735a1.107,1.107,0,0,1-.974-.487.947.947,0,0,1-.243-.974l5.843-27.633h-.852l-5.965,28.12a1.185,1.185,0,0,1-1.217.974H161.67a1.107,1.107,0,0,1-.974-.487.947.947,0,0,1-.243-.974l10.469-49.423a7.834,7.834,0,0,1-3.287,2.678,16.3,16.3,0,0,1-.487,5.356l-4.991,23.981C159.844,96.822,152.3,103.4,141.95,103.4c-4.869,0-8.643-1.583-11.078-4.5-2.556-3.165-3.287-7.791-2.069-13.634l5.113-23.981a19.4,19.4,0,0,1,1.7-5.113c-1.826-1.1-2.556-3.287-1.948-6.087.852-3.9,3.53-6.208,7.3-6.208h5.6c1.1-4.869,4.382-7.669,9.13-7.669a6.8,6.8,0,0,1,5.478,2.191,6.771,6.771,0,0,1,1.1,5.478h4.991a5.076,5.076,0,0,1,4.139,1.7,4.235,4.235,0,0,1,.852,1.826l.852-4.261a8.566,8.566,0,0,1,8.521-6.939,5.761,5.761,0,0,1,5.965,7.426l-3.9,18.016h.852l3.9-18.5a8.783,8.783,0,0,1,8.643-6.939,6.677,6.677,0,0,1,5.113,2.191,6.383,6.383,0,0,1,1.1,5.234L190.52,103.761a1.185,1.185,0,0,1-1.217.974H177.252Zm-25.2-48.206a2.883,2.883,0,0,0-2.556,2.678l-6.208,29.216c-.122.852-.122,1.461.122,1.7a1.111,1.111,0,0,0,.974.365c.974,0,2.191-.73,2.556-2.678L153.149,58.6a2.421,2.421,0,0,0-.122-1.7A2.431,2.431,0,0,0,152.053,56.529Z" transform="translate(-127.183 -34.861)"/><path class="a" d="M197.767,37.656c3.165,0,5.843,2.069,4.991,5.965l-12.782,60.135H177.56l6.208-29.094H180.36l-6.208,29.094H161.978L174.76,43.621a7.442,7.442,0,0,1,7.3-5.965c3.165,0,5.721,2.069,4.869,5.965L182.794,63.1H186.2l4.139-19.477a7.384,7.384,0,0,1,7.426-5.965m-41.754,0c4.382,0,6.087,2.556,5.234,6.817l-.243.974h6.452c3.408,0,4.382,2.313,3.774,5.234a6.391,6.391,0,0,1-4.748,5.234,17.08,17.08,0,0,1-.365,5.965L161,85.862c-2.435,11.443-10.347,16.677-18.99,16.677s-14.364-5.113-11.93-16.677L135.2,61.881a20.262,20.262,0,0,1,2.191-5.965c-2.313-.609-3.043-2.678-2.435-5.234.609-2.922,2.556-5.234,6.087-5.234h6.574l.243-.974c1.1-4.261,3.9-6.817,8.156-6.817M144.449,91.948c1.339,0,3.165-.974,3.774-3.652l6.208-29.216c.609-2.556-.974-3.652-2.313-3.652a4.035,4.035,0,0,0-3.774,3.652L142.136,88.3c-.487,2.678.974,3.652,2.313,3.652m53.318-56.727a10.066,10.066,0,0,0-8.643,4.748,9.218,9.218,0,0,0-1.1-2.191,7.481,7.481,0,0,0-5.965-2.678,9.791,9.791,0,0,0-9.739,7.913l-.243,1.339a6.779,6.779,0,0,0-4.5-1.461h-3.652a7.752,7.752,0,0,0-1.461-5.113c-.974-1.217-2.8-2.556-6.452-2.556a9.953,9.953,0,0,0-10.1,7.669h-4.748a8.379,8.379,0,0,0-8.4,7.182c-.609,2.8,0,5.234,1.7,6.7a21.83,21.83,0,0,0-1.339,4.5l-5.113,23.981c-1.339,6.208-.609,11.2,2.313,14.729,2.556,3.165,6.7,4.869,12.051,4.869,9.13,0,16.312-4.991,19.842-13.512l-2.556,11.808a2.545,2.545,0,0,0,.487,2.069,2.422,2.422,0,0,0,1.948.852h12.173a2.4,2.4,0,0,0,1.7-.73,2.4,2.4,0,0,0,1.7.73H190.1a2.6,2.6,0,0,0,2.435-1.948l12.782-60.135a7.2,7.2,0,0,0-1.339-6.208,8.528,8.528,0,0,0-6.208-2.556ZM169.16,57.5h0v0Zm-24.59,32.015a1.324,1.324,0,0,1,.122-.609L150.9,59.69c.365-1.461,1.1-1.583,1.339-1.7a1.324,1.324,0,0,1-.122.609L145.91,87.81c-.365,1.461-1.1,1.7-1.339,1.7Z" transform="translate(-127.37 -35.1)"/></g><g transform="translate(226.757 42.915)"><path class="a" d="M196.575,104.691c-4.139,0-6.452-1.7-7.547-3.165a9.27,9.27,0,0,1-1.583-7.913l.122-.852c1.217-5.843,6.087-9.252,12.9-9.252h34.45l.122-.487H195.723a3.925,3.925,0,0,1-3.408-1.461,4.739,4.739,0,0,1-.73-4.139,6.286,6.286,0,0,1,4.626-4.869h-.243a6.09,6.09,0,0,1-4.5-2.556c-.73-.974-1.339-2.8-.487-5.478a7.5,7.5,0,0,1,7.547-5.356h1.1c1.339.122,2.678.243,3.9.243,8.278,0,13.634-2.8,14.73-7.791l.122-.243H202.3a6.087,6.087,0,0,1-4.869-1.948,6.175,6.175,0,0,1-.974-4.991,7.862,7.862,0,0,1,8.156-6.33H225.79c3.287,0,7.547.487,9.13,4.261h9.5a9.448,9.448,0,0,1,9.008-5.965,6.924,6.924,0,0,1,5.6,2.435,6.758,6.758,0,0,1,1.1,5.843L254.4,71.824a1.185,1.185,0,0,1-1.217.974h-6.087a6.55,6.55,0,0,1,4.5,2.069c1.217,1.461,1.461,3.53.73,6.573l-2.435,11.321a1.185,1.185,0,0,1-1.217.974H205.339c-.365,0-.609.122-.609.365v.122h41.145a4.569,4.569,0,0,1,3.53,1.461,5.006,5.006,0,0,1,.73,4.261,6.1,6.1,0,0,1-6.087,4.991H196.575Zm42-32.381c-.122-.122-.243-.122-.365-.243a.947.947,0,0,1-.243-.974l.609-2.922h-8.4c-2.313,0-4.017-.73-4.991-2.069a34.5,34.5,0,0,1-15.7,6.33h29.094Zm2.556-16.19.365-1.826h-7.913l-.73,1.826Z" transform="translate(-185.807 -34.939)"/><path class="a" d="M253.549,37.635c3.652,0,6.573,2.435,5.6,6.817L253.427,71.6h-14l.974-4.382h-9.86c-2.556,0-4.139-1.1-4.5-2.8-5.721,5.113-14.121,7.547-23.129,7.547a58.961,58.961,0,0,1-6.452-.365c-3.043-.365-5.113-2.678-3.9-6.452a6.25,6.25,0,0,1,6.33-4.5h.852c1.339.122,2.8.243,4.017.243,8.4,0,14.73-2.922,15.947-8.765l.122-.365c.243-1.1-.122-1.461-1.339-1.461H202.544c-4.139,0-5.234-2.8-4.626-5.478a6.638,6.638,0,0,1,6.939-5.356h21.181c5.113,0,7.547,1.461,8.156,4.261h11.2a8.354,8.354,0,0,1,8.156-6.087M243.324,53.216H232.976a36.545,36.545,0,0,1-1.7,4.382c.365,0,.73-.122,1.339-.122h9.86l.852-4.261m.974,20.573c6.33,0,8.156,1.826,7.06,7.426l-2.435,11.321H205.587a1.671,1.671,0,0,0-1.826,1.339v.243c-.122.73.243,1.339,1.217,1.339h41.145c2.8,0,3.53,2.191,3.043,4.261a4.9,4.9,0,0,1-4.869,4.139H196.7c-6.452,0-9.008-4.5-7.913-9.617l.122-.852c1.1-5.113,5.356-8.278,11.808-8.278h35.424l.365-1.826c.122-.852,0-1.1-.852-1.1H195.97c-2.8,0-3.408-2.069-3.043-4.139a4.975,4.975,0,0,1,4.747-4.139H244.3M253.549,35.2a10.733,10.733,0,0,0-9.738,5.965H235.9c-2.313-4.261-7.913-4.261-9.86-4.261H204.856c-4.748,0-8.4,2.8-9.252,7.3a6.653,6.653,0,0,0,1.217,5.965,7.122,7.122,0,0,0,5.843,2.435H217.03c-2.069,5.113-9.86,5.721-13.147,5.721-1.217,0-2.556-.122-3.774-.243-.365,0-.73-.122-1.217-.122a9.066,9.066,0,0,0-8.765,6.208c-.974,3.165-.243,5.234.609,6.452a6.012,6.012,0,0,0,2.435,2.191,8.556,8.556,0,0,0-2.556,4.382,5.892,5.892,0,0,0,.974,5.234,5.1,5.1,0,0,0,1.948,1.461,12.308,12.308,0,0,0-7.06,8.765l-.122.852a10.163,10.163,0,0,0,1.826,8.886c1.339,1.7,3.9,3.652,8.521,3.652h47.6a7.516,7.516,0,0,0,7.3-5.965,6.263,6.263,0,0,0-1.1-5.356l-.365-.365a3.091,3.091,0,0,0,1.1-1.583l2.435-11.321c.487-2.191.852-5.356-.974-7.547l-.122-.122h.73a2.6,2.6,0,0,0,2.435-1.948L261.461,44.7a8.206,8.206,0,0,0-1.339-6.939,8.985,8.985,0,0,0-6.573-2.556ZM218.977,71.354a34.912,34.912,0,0,0,6.33-3.408,7.614,7.614,0,0,0,5.113,1.7h6.817l-.243,1.461v.365H218.977Z" transform="translate(-186.055 -35.2)"/></g><g transform="translate(0.031 40.115)"><path class="b" d="M7.093,99.026A6.19,6.19,0,0,1,2.1,97.079a6.292,6.292,0,0,1-.974-5.234,8.3,8.3,0,0,1,8.4-6.7h13.39l4.261-20.207c1.217-5.478,5.843-7.426,9.739-7.426a7.353,7.353,0,0,1,5.965,2.435c.852.974,1.583,2.8,1.1,5.6l-4.139,19.6H63.576A6.19,6.19,0,0,1,68.567,87.1a6.292,6.292,0,0,1,.974,5.234,8.274,8.274,0,0,1-8.278,6.7ZM55.42,84.053a8.732,8.732,0,0,1-3.53-.73,5.341,5.341,0,0,1-2.8-3.287c-.609-1.948,0-4.382,1.339-6.573,3.165-4.869,5.478-11.321,7.426-20.329l.974-4.382v-.243H20.484a6.014,6.014,0,0,1-4.991-2.069,6.439,6.439,0,0,1-1.1-5.478A8.851,8.851,0,0,1,23.04,33.9H66.133c4.5,0,7.3.974,8.886,2.922s1.826,4.5.974,8.643l-1.826,8.278c-2.435,11.321-5.6,19.842-9.617,25.442A11.383,11.383,0,0,1,55.42,84.053Z" transform="translate(0.173 -32.683)"/><path d="M66.215,35.335c8.278,0,10.225,3.165,8.765,10.1l-1.826,8.278c-2.435,11.321-5.6,19.6-9.373,24.955a10.3,10.3,0,0,1-8.156,4.382,7.355,7.355,0,0,1-2.922-.609c-2.8-1.339-2.922-4.869-.852-8.156,3.165-4.869,5.6-11.321,7.547-20.694l.974-4.382a1.256,1.256,0,0,0-1.339-1.7H20.688c-4.261,0-5.478-3.165-4.869-6.087a7.7,7.7,0,0,1,7.547-6.087H66.215M37.243,58.95c3.652,0,6.817,1.948,5.843,6.452l-4.5,21.181H63.9c4.261,0,5.356,2.922,4.748,5.721a6.985,6.985,0,0,1-7.182,5.721H7.3c-4.261,0-5.356-2.8-4.748-5.721a7.092,7.092,0,0,1,7.182-5.721H24.218l4.5-21.181c.852-4.5,4.748-6.452,8.521-6.452M66.215,32.9H23.244a10.052,10.052,0,0,0-9.86,8.034,7.827,7.827,0,0,0,1.339,6.452,7.254,7.254,0,0,0,5.965,2.556H57.694l-.73,3.287c-1.826,8.886-4.139,15.216-7.182,19.842A9.817,9.817,0,0,0,48.2,80.619a6.051,6.051,0,0,0,2.435,3.53H41.5l3.9-18.26a7.363,7.363,0,0,0-1.339-6.573,8.615,8.615,0,0,0-6.939-2.922c-5.6,0-9.86,3.287-10.956,8.4L22.148,84.149H9.732a9.376,9.376,0,0,0-9.5,7.669,7.168,7.168,0,0,0,1.217,6.208A7.122,7.122,0,0,0,7.3,100.461H61.346a9.376,9.376,0,0,0,9.5-7.669,6.708,6.708,0,0,0-7.06-8.643H61.1a13.341,13.341,0,0,0,4.626-4.017c4.017-5.721,7.3-14.486,9.86-25.929l1.826-8.278c.609-2.8,1.1-6.817-1.217-9.738C74.249,34,71.206,32.9,66.215,32.9Z" transform="translate(-0.031 -32.9)"/></g><g transform="translate(75.54 38.046)"><path class="b" d="M72.612,100.713c-4.261,0-6.817-.852-8.278-2.556-1.461-1.826-1.7-4.626-.73-9.13l2.435-11.2c.974-4.869,4.626-7.669,9.739-7.669a7.347,7.347,0,0,1,5.6,2.069,5.3,5.3,0,0,1,1.339,3.53h27.633a8.673,8.673,0,0,1,6.7-5.356h-4.382a1.107,1.107,0,0,1-.974-.487.947.947,0,0,1-.243-.974l6.087-28.729a9.779,9.779,0,0,1,9.617-7.913,7.094,7.094,0,0,1,5.6,2.435,6.822,6.822,0,0,1,1.1,6.087l-.73,3.408h.73a5.368,5.368,0,0,1,4.5,1.826,6.79,6.79,0,0,1,.974,5.721c-.73,3.408-3.165,7.06-8.034,7.06H130.07l-2.313,10.834a1.185,1.185,0,0,1-1.217.974h-4.626a6.331,6.331,0,0,1,3.408,1.948,6.545,6.545,0,0,1,.974,5.965L121.67,99.983a1.185,1.185,0,0,1-1.217.974H72.612Zm8.034-11.808h26.659l.365-1.826H80.525L80.16,88.54v.243C80.281,88.905,80.4,88.905,80.647,88.905ZM76.63,68.819c-4.382,0-6.939-.73-8.4-2.556-1.461-1.7-1.583-4.382-.73-8.643l2.678-12.66c1.7-8.034,4.991-10.712,13.147-10.712h23.859a4.981,4.981,0,0,1,4.017,1.7,6.2,6.2,0,0,1,.852,5.234,7.388,7.388,0,0,1-7.3,6.208H86.977c-.974,0-.974.122-1.1.609L84.3,55.429v.243h21.06a5.076,5.076,0,0,1,4.139,1.7,6.175,6.175,0,0,1,.974,4.991c-.609,2.922-2.922,6.33-7.3,6.33H76.63Z" transform="translate(-61.771 -30.961)"/><path d="M127.249,33.635c3.652,0,6.452,2.435,5.478,6.939l-.974,4.869h2.191c4.261,0,4.869,3.287,4.261,6.087-.609,2.922-2.678,6.087-6.817,6.087H129.2l-2.556,11.808h-14L118.728,40.7a8.711,8.711,0,0,1,8.521-7.06M107.407,35.7c3.652,0,4.261,2.922,3.774,5.478a6.2,6.2,0,0,1-6.087,5.234H87.2c-1.339,0-1.948.365-2.191,1.583l-1.583,7.426c-.243,1.339.243,1.7,1.583,1.7H105.7c3.652,0,4.382,2.8,3.9,5.234a6.331,6.331,0,0,1-6.208,5.478H76.853c-7.791,0-9.373-2.435-7.913-9.739l2.678-12.66C73.2,38.139,75.757,35.7,83.67,35.7h23.738M119.58,71.493c3.9,0,6.573,2.069,5.478,6.817l-4.626,21.425h-47.6c-7.913,0-9.373-2.8-7.791-10.225l2.435-11.2c.974-4.748,4.626-6.817,8.521-6.817,3.652,0,6.087,1.7,5.721,5.6h29.7c1.217-3.9,4.5-5.6,8.156-5.6M109.355,86.223H79.774l-.487,2.435c-.365,1.582,0,1.7,1.583,1.7H108.5l.852-4.139M127.249,31.2a10.965,10.965,0,0,0-10.834,8.886l-4.382,20.694a5.984,5.984,0,0,0-6.452-6.087H86.1l1.217-5.843h17.894a8.667,8.667,0,0,0,8.4-7.182,7.853,7.853,0,0,0-1.1-6.33,6.226,6.226,0,0,0-4.991-2.191H83.67c-8.765,0-12.538,3.043-14.364,11.686l-2.678,12.66c-.73,3.287-1.1,7.06.974,9.739a8.078,8.078,0,0,0,4.261,2.556,10.319,10.319,0,0,0-6.817,8.034l-2.435,11.2c-.73,3.53-1.217,7.426.974,10.225,2.191,2.678,6.087,3.043,9.252,3.043h47.719a2.6,2.6,0,0,0,2.435-1.948l4.626-21.425c.73-3.53-.243-5.843-1.217-6.939h.365a2.6,2.6,0,0,0,2.435-1.948l2.069-9.86h.243c5.6,0,8.4-4.139,9.252-8.034a7.661,7.661,0,0,0-1.217-6.7,6.39,6.39,0,0,0-4.626-2.313l.365-1.948a8.263,8.263,0,0,0-1.339-7.06,8.586,8.586,0,0,0-6.7-2.922Zm-46.5,39.076h22.52a8.39,8.39,0,0,0,7.791-5.234l-.852,3.774a2.545,2.545,0,0,0,.487,2.069,3.151,3.151,0,0,0,1.339.852A9.959,9.959,0,0,0,109.6,74.78H84.035a6.445,6.445,0,0,0-1.583-3.165,4.381,4.381,0,0,0-1.7-1.339Z" transform="translate(-61.994 -31.2)"/></g><g transform="translate(151.552 37.924)"><path class="b" d="M174.252,100.735a1.107,1.107,0,0,1-.974-.487.947.947,0,0,1-.243-.974l5.843-27.633h-.852l-5.965,28.12a1.185,1.185,0,0,1-1.217.974H158.67a1.107,1.107,0,0,1-.974-.487.947.947,0,0,1-.243-.974l10.469-49.423a7.833,7.833,0,0,1-3.287,2.678,16.3,16.3,0,0,1-.487,5.356l-4.991,23.981C156.844,92.822,149.3,99.4,138.95,99.4c-4.869,0-8.643-1.583-11.078-4.5-2.556-3.165-3.287-7.791-2.069-13.634l5.113-23.981a19.4,19.4,0,0,1,1.7-5.113c-1.826-1.1-2.556-3.287-1.948-6.087.852-3.9,3.53-6.208,7.3-6.208h5.6c1.1-4.869,4.382-7.669,9.13-7.669a6.8,6.8,0,0,1,5.478,2.191,6.771,6.771,0,0,1,1.1,5.478h4.991a5.076,5.076,0,0,1,4.139,1.7,4.235,4.235,0,0,1,.852,1.826l.852-4.261a8.566,8.566,0,0,1,8.521-6.939,5.761,5.761,0,0,1,5.965,7.426l-3.9,18.016h.852l3.9-18.5a8.783,8.783,0,0,1,8.643-6.939,6.677,6.677,0,0,1,5.113,2.191,6.384,6.384,0,0,1,1.1,5.234L187.52,99.761a1.185,1.185,0,0,1-1.217.974H174.252Zm-25.2-48.206a2.883,2.883,0,0,0-2.556,2.678l-6.208,29.216c-.122.852-.122,1.461.122,1.7a1.111,1.111,0,0,0,.974.365c.974,0,2.191-.73,2.556-2.678L150.149,54.6a2.42,2.42,0,0,0-.122-1.7A2.431,2.431,0,0,0,149.053,52.529Z" transform="translate(-124.183 -30.861)"/><path d="M194.767,33.656c3.165,0,5.843,2.069,4.991,5.965L186.976,99.756H174.56l6.208-29.094H177.36l-6.208,29.094H158.978L171.76,39.621a7.442,7.442,0,0,1,7.3-5.965c3.165,0,5.721,2.069,4.869,5.965L179.794,59.1H183.2l4.139-19.477a7.384,7.384,0,0,1,7.426-5.965m-41.754,0c4.382,0,6.087,2.556,5.234,6.817l-.243.974h6.452c3.408,0,4.382,2.313,3.774,5.234a6.391,6.391,0,0,1-4.748,5.234,17.08,17.08,0,0,1-.365,5.965L158,81.862c-2.435,11.443-10.347,16.677-18.99,16.677s-14.364-5.113-11.93-16.677L132.2,57.881a20.262,20.262,0,0,1,2.191-5.965c-2.313-.609-3.043-2.678-2.435-5.234.609-2.922,2.556-5.234,6.087-5.234h6.573l.243-.974c1.1-4.261,3.9-6.817,8.156-6.817M141.449,87.948c1.339,0,3.165-.974,3.774-3.652l6.208-29.216c.609-2.556-.974-3.652-2.313-3.652a4.035,4.035,0,0,0-3.774,3.652L139.136,84.3c-.487,2.678.974,3.652,2.313,3.652m53.318-56.727a10.066,10.066,0,0,0-8.643,4.748,9.217,9.217,0,0,0-1.1-2.191,7.481,7.481,0,0,0-5.965-2.678,9.791,9.791,0,0,0-9.738,7.913l-.243,1.339a6.779,6.779,0,0,0-4.5-1.461h-3.652a7.752,7.752,0,0,0-1.461-5.113c-.974-1.217-2.8-2.556-6.452-2.556a9.953,9.953,0,0,0-10.1,7.669h-4.748a8.379,8.379,0,0,0-8.4,7.182c-.609,2.8,0,5.234,1.7,6.7a21.829,21.829,0,0,0-1.339,4.5l-5.113,23.981c-1.339,6.208-.609,11.2,2.313,14.729,2.556,3.165,6.7,4.869,12.051,4.869,9.13,0,16.312-4.991,19.842-13.512l-2.556,11.808a2.545,2.545,0,0,0,.487,2.069,2.422,2.422,0,0,0,1.948.852h12.173a2.4,2.4,0,0,0,1.7-.73,2.4,2.4,0,0,0,1.7.73H187.1a2.6,2.6,0,0,0,2.435-1.948l12.782-60.135a7.2,7.2,0,0,0-1.339-6.208,8.528,8.528,0,0,0-6.208-2.556ZM166.16,53.5h0v0Zm-24.59,32.015a1.324,1.324,0,0,1,.122-.609L147.9,55.69c.365-1.461,1.1-1.583,1.339-1.7a1.324,1.324,0,0,1-.122.609L142.91,83.81c-.365,1.461-1.1,1.7-1.339,1.7Z" transform="translate(-124.37 -31.1)"/></g><g transform="translate(223.105 38.046)"><path class="b" d="M193.575,100.691c-4.139,0-6.452-1.7-7.547-3.165a9.27,9.27,0,0,1-1.583-7.913l.122-.852c1.217-5.843,6.087-9.252,12.9-9.252h34.45l.122-.487H192.723a3.925,3.925,0,0,1-3.408-1.461,4.738,4.738,0,0,1-.73-4.139,6.286,6.286,0,0,1,4.626-4.869h-.243a6.09,6.09,0,0,1-4.5-2.556c-.73-.974-1.339-2.8-.487-5.478a7.5,7.5,0,0,1,7.547-5.356h1.1c1.339.122,2.678.243,3.9.243,8.278,0,13.634-2.8,14.73-7.791l.122-.243H199.3a6.087,6.087,0,0,1-4.869-1.948,6.175,6.175,0,0,1-.974-4.991,7.862,7.862,0,0,1,8.156-6.33H222.79c3.287,0,7.547.487,9.13,4.261h9.5a9.448,9.448,0,0,1,9.008-5.965,6.924,6.924,0,0,1,5.6,2.435,6.757,6.757,0,0,1,1.1,5.843L251.4,67.824a1.185,1.185,0,0,1-1.217.974h-6.087a6.55,6.55,0,0,1,4.5,2.069c1.217,1.461,1.461,3.53.73,6.573l-2.435,11.321a1.185,1.185,0,0,1-1.217.974H202.339c-.365,0-.609.122-.609.365v.122h41.145a4.569,4.569,0,0,1,3.53,1.461,5.006,5.006,0,0,1,.73,4.261,6.1,6.1,0,0,1-6.087,4.991H193.575Zm42-32.381c-.122-.122-.243-.122-.365-.243a.947.947,0,0,1-.243-.974l.609-2.922h-8.4c-2.313,0-4.017-.73-4.991-2.069a34.5,34.5,0,0,1-15.7,6.33h29.094Zm2.556-16.19.365-1.826h-7.913l-.73,1.826Z" transform="translate(-182.807 -30.939)"/><path d="M250.549,33.635c3.652,0,6.574,2.435,5.6,6.817L250.427,67.6h-14l.974-4.382h-9.86c-2.556,0-4.139-1.1-4.5-2.8-5.721,5.113-14.121,7.547-23.129,7.547a58.965,58.965,0,0,1-6.452-.365c-3.043-.365-5.113-2.678-3.9-6.452a6.25,6.25,0,0,1,6.33-4.5h.852c1.339.122,2.8.243,4.017.243,8.4,0,14.729-2.922,15.947-8.765l.122-.365c.243-1.1-.122-1.461-1.339-1.461H199.544c-4.139,0-5.234-2.8-4.626-5.478a6.638,6.638,0,0,1,6.939-5.356h21.181c5.113,0,7.547,1.461,8.156,4.261h11.2a8.354,8.354,0,0,1,8.156-6.087M240.324,49.216H229.976a36.548,36.548,0,0,1-1.7,4.382c.365,0,.73-.122,1.339-.122h9.86l.852-4.261m.974,20.573c6.33,0,8.156,1.826,7.06,7.426l-2.435,11.321H202.587a1.671,1.671,0,0,0-1.826,1.339v.243c-.122.73.243,1.339,1.217,1.339h41.145c2.8,0,3.53,2.191,3.043,4.261a4.9,4.9,0,0,1-4.869,4.139H193.7c-6.452,0-9.008-4.5-7.912-9.617l.122-.852c1.1-5.113,5.356-8.278,11.808-8.278h35.424l.365-1.826c.122-.852,0-1.1-.852-1.1H192.97c-2.8,0-3.408-2.069-3.043-4.139a4.975,4.975,0,0,1,4.748-4.139H241.3M250.549,31.2a10.733,10.733,0,0,0-9.738,5.965H232.9c-2.313-4.261-7.913-4.261-9.86-4.261H201.856c-4.747,0-8.4,2.8-9.252,7.3a6.653,6.653,0,0,0,1.217,5.965,7.122,7.122,0,0,0,5.843,2.435H214.03c-2.069,5.113-9.86,5.721-13.147,5.721-1.217,0-2.556-.122-3.774-.243-.365,0-.73-.122-1.217-.122a9.066,9.066,0,0,0-8.765,6.208c-.974,3.165-.243,5.234.609,6.452a6.012,6.012,0,0,0,2.435,2.191,8.556,8.556,0,0,0-2.556,4.382,5.892,5.892,0,0,0,.974,5.234,5.1,5.1,0,0,0,1.948,1.461,12.308,12.308,0,0,0-7.06,8.765l-.122.852a10.163,10.163,0,0,0,1.826,8.886c1.339,1.7,3.9,3.652,8.521,3.652h47.6a7.516,7.516,0,0,0,7.3-5.965,6.263,6.263,0,0,0-1.1-5.356l-.365-.365a3.092,3.092,0,0,0,1.1-1.583l2.435-11.321c.487-2.191.852-5.356-.974-7.547l-.122-.122h.73a2.6,2.6,0,0,0,2.435-1.948L258.462,40.7a8.206,8.206,0,0,0-1.339-6.939,8.985,8.985,0,0,0-6.574-2.556ZM215.977,67.354a34.912,34.912,0,0,0,6.33-3.408,7.614,7.614,0,0,0,5.113,1.7h6.817l-.243,1.461v.365H215.977Z" transform="translate(-183.055 -31.2)"/></g><text class="c" transform="translate(38.405 25.006)"><tspan x="0" y="0">프린팅사이다의</tspan></text><g transform="translate(306.483 40.96)"><path class="d" d="M262.445,88.867c5.478,1.339,7.913,5.356,6.817,10.347-1.217,4.991-5.234,7.426-10.712,6.208-5.478-1.339-7.913-5.234-6.7-10.347S256.968,87.528,262.445,88.867Zm-7.426-5.843,10.225-43.093c1.217-5.234,5.965-7.06,10.225-6.087s7.669,4.869,6.33,9.982L271.575,86.92Z" transform="translate(-251.548 -33.594)"/></g><g transform="translate(302.222 39.134)"><path class="e" d="M258.945,87.367c5.478,1.339,7.913,5.356,6.817,10.347-1.217,4.991-5.234,7.426-10.712,6.208-5.478-1.339-7.913-5.234-6.7-10.347S253.468,86.028,258.945,87.367Zm-7.426-5.843,10.225-43.093c1.217-5.234,5.965-7.06,10.225-6.087s7.669,4.869,6.33,9.982L268.2,85.541Z" transform="translate(-248.048 -32.094)"/></g></g></svg>