<svg xmlns="http://www.w3.org/2000/svg" xmlns:xlink="http://www.w3.org/1999/xlink" width="158.39" height="24" viewBox="0 0 158.39 24"><defs><style>.a{fill:none;}.b{fill:url(#a);}.c{fill:url(#b);}.d{fill:url(#c);}.e{fill:url(#d);}.f{fill:url(#e);}.g{fill:url(#f);}.h{fill:url(#g);}.i{fill:url(#h);}.j{fill:url(#i);}.k{fill:url(#j);}.l{fill:url(#k);}.m{fill:url(#l);}.n{fill:url(#m);}.o{fill:url(#n);}.p{fill:#727171;}</style><linearGradient id="a" x1="0.82" y1="0.895" x2="0.016" y2="0.047" gradientUnits="objectBoundingBox"><stop offset="0" stop-color="#00478b"/><stop offset="0.7" stop-color="#0075c2"/><stop offset="1" stop-color="#0075c2"/></linearGradient><linearGradient id="b" x1="0.24" y1="0.779" x2="0.966" y2="0.027" gradientUnits="objectBoundingBox"><stop offset="0" stop-color="#fdd000"/><stop offset="0.7" stop-color="#f08300"/><stop offset="1" stop-color="#f08300"/></linearGradient><linearGradient id="c" x1="-286.057" y1="7136.399" x2="-282.723" y2="7136.399" xlink:href="#a"/><linearGradient id="d" x1="-286.057" y1="7136.799" x2="-282.723" y2="7136.799" xlink:href="#b"/><linearGradient id="e" x1="-1959.102" y1="16067.98" x2="-1936.602" y2="16067.98" xlink:href="#a"/><linearGradient id="f" x1="-1959.102" y1="16068.7" x2="-1936.602" y2="16068.7" xlink:href="#b"/><linearGradient id="g" x1="-396.082" y1="9488.703" x2="-391.083" y2="9488.703" xlink:href="#a"/><linearGradient id="h" x1="-396.082" y1="9489.557" x2="-391.083" y2="9489.557" xlink:href="#b"/><linearGradient id="i" x1="-407.082" y1="16019.358" x2="-402.082" y2="16019.358" xlink:href="#a"/><linearGradient id="j" x1="-407.082" y1="16020.709" x2="-402.082" y2="16020.709" xlink:href="#b"/><linearGradient id="k" x1="-1909.603" y1="Infinity" x2="-1887.103" y2="Infinity" xlink:href="#a"/><linearGradient id="l" x1="-1909.603" y1="Infinity" x2="-1887.103" y2="Infinity" xlink:href="#b"/><linearGradient id="m" x1="-278.39" y1="7126.139" x2="-275.057" y2="7126.139" xlink:href="#a"/><linearGradient id="n" x1="-278.39" y1="7126.679" x2="-275.057" y2="7126.679" xlink:href="#b"/></defs><g transform="translate(-0.258 -0.2)"><g transform="translate(0.258 0.2)"><path class="a" d="M47.4,59.1a.907.907,0,0,1-.3.121A3.141,3.141,0,0,0,47.4,59.1Z" transform="translate(-32.918 -41.267)"/><path class="a" d="M48.672,58.5c-.091.061-.182.091-.272.151A1.227,1.227,0,0,1,48.672,58.5Z" transform="translate(-33.824 -40.849)"/><path class="a" d="M44.506,60a5.889,5.889,0,0,1-.606.151A5.889,5.889,0,0,0,44.506,60Z" transform="translate(-30.687 -41.895)"/><path class="a" d="M46.4,59.5c-.091.03-.212.091-.3.121A.907.907,0,0,0,46.4,59.5Z" transform="translate(-32.221 -41.546)"/><path class="a" d="M42.275,60.6c-.212.03-.394.061-.575.091C41.882,60.661,42.094,60.63,42.275,60.6Z" transform="translate(-29.153 -42.313)"/><path class="a" d="M40.872,60.9h0Z" transform="translate(-28.386 -42.522)"/><path class="a" d="M40.5,32.193a5.4,5.4,0,0,0,2.695,4.663,5.22,5.22,0,0,0,2.725-4.663A5.445,5.445,0,0,0,43.225,27.5,5.408,5.408,0,0,0,40.5,32.193Z" transform="translate(-28.316 -19.235)"/><g transform="translate(0 0)"><path class="b" d="M18.022,7.741a5.564,5.564,0,0,1,5.509,5.525A11.02,11.02,0,0,1,15.3,23.859a11.394,11.394,0,0,1-3.03.336C4.158,23.982-2.453,16.136,1.373.475A36.41,36.41,0,0,1,5.688.2a26.885,26.885,0,0,1,9.641,1.618C9.606,4.108,7.1,8.412,7.1,13.113A5.436,5.436,0,0,0,12.574,18.7h.337a1.926,1.926,0,0,0,.582-.092h.061a4.658,4.658,0,0,0,.612-.183c.031,0,.061-.031.092-.031a1.281,1.281,0,0,0,.306-.122h0a3.18,3.18,0,0,1,.306-.122c.031,0,.061-.031.092-.031.092-.061.184-.092.275-.153h.031a5.225,5.225,0,0,0,2.754-4.7,5.578,5.578,0,0,0-2.785-4.793A5.921,5.921,0,0,1,18.022,7.741Z" transform="translate(-0.258 -0.2)"/></g><g transform="translate(6.795 0)"><path class="c" d="M30.45,18.3a3.161,3.161,0,0,1-.305.122h0c-.092.031-.214.092-.305.122-.031,0-.061.031-.092.031-.214.061-.4.122-.61.184h-.061c-.214.031-.4.061-.58.092h-.336a5.435,5.435,0,0,1-5.461-5.6c0-4.683,2.5-9,8.207-11.324A24.878,24.878,0,0,1,40.365.3c1.4,0,2.868.092,4.454.245l.031.031c3.844,15.7-2.776,23.536-10.892,23.72a11.161,11.161,0,0,1-3.02-.337,10.981,10.981,0,0,0,8.207-10.62A5.484,5.484,0,0,0,33.684,7.86a5.578,5.578,0,0,0-2.746.735,5.46,5.46,0,0,0-.031,9.457h-.031c-.092.061-.183.092-.275.153S30.48,18.266,30.45,18.3Z" transform="translate(-22.7 -0.3)"/></g><path class="d" d="M48.191,58.9c-.03,0-.061.03-.091.03A.111.111,0,0,0,48.191,58.9Z" transform="translate(-33.615 -41.128)"/><path class="e" d="M48.191,58.9c-.03,0-.061.03-.091.03A.111.111,0,0,0,48.191,58.9Z" transform="translate(-33.615 -41.128)"/><path class="f" d="M49.369,58.4Z" transform="translate(-34.491 -40.779)"/><path class="g" d="M49.369,58.4Z" transform="translate(-34.491 -40.779)"/><path class="h" d="M41.561,60.8H41.5C41.5,60.83,41.53,60.83,41.561,60.8Z" transform="translate(-29.013 -42.452)"/><path class="i" d="M41.561,60.8H41.5C41.5,60.83,41.53,60.83,41.561,60.8Z" transform="translate(-29.013 -42.452)"/><path class="j" d="M43.761,60.5H43.7C43.7,60.53,43.73,60.5,43.761,60.5Z" transform="translate(-30.547 -42.243)"/><path class="k" d="M43.761,60.5H43.7C43.7,60.53,43.73,60.5,43.761,60.5Z" transform="translate(-30.547 -42.243)"/><path class="l" d="M47.169,59.5Z" transform="translate(-32.957 -41.546)"/><path class="m" d="M47.169,59.5Z" transform="translate(-32.957 -41.546)"/><path class="n" d="M45.891,59.9c-.03,0-.061.03-.091.03A.234.234,0,0,1,45.891,59.9Z" transform="translate(-32.012 -41.825)"/><path class="o" d="M45.891,59.9c-.03,0-.061.03-.091.03A.234.234,0,0,1,45.891,59.9Z" transform="translate(-32.012 -41.825)"/></g><g transform="translate(37.208 4.984)"><rect class="p" width="1.726" height="12.656" transform="translate(57.859 0.454)"/><path class="p" d="M288.886,18.424V18h-1.877v.424c0,3.179-.757,5.026-3.209,6.631v1.423a6.742,6.742,0,0,0,4.148-3.845,6.742,6.742,0,0,0,4.148,3.845V25.054c-2.422-1.6-3.209-3.452-3.209-6.631" transform="translate(-234.903 -17.394)"/><path class="p" d="M128.931,40.7H127.2v3.452h-4.9v1.362h11.505V44.152h-4.875Z" transform="translate(-122.3 -33.222)"/><path class="p" d="M129.726,21.936a7.909,7.909,0,0,0,5.026,3.936V24.449a6.4,6.4,0,0,1-4.087-6.025V18h-1.877v.424a6.431,6.431,0,0,1-4.087,6.025v1.423a7.988,7.988,0,0,0,5.026-3.936" transform="translate(-123.973 -17.394)"/><path class="p" d="M179.145,17.5H177.42v7.63A3.386,3.386,0,0,0,175.3,24.4a3.1,3.1,0,1,0,3.3,3.088,3.009,3.009,0,0,0-.787-2h1.332V20.618h1.211V19.256h-1.211ZM175.3,29.157a1.648,1.648,0,0,1-1.6-1.665,1.629,1.629,0,0,1,1.6-1.665,1.666,1.666,0,0,1,0,3.33" transform="translate(-156.953 -17.046)"/><path class="p" d="M169.851,24.57V23.147a4.557,4.557,0,0,1-2.937-4.693V18h-1.877v.424a4.533,4.533,0,0,1-2.937,4.693V24.54a6.111,6.111,0,0,0,3.875-2.967,6.134,6.134,0,0,0,3.875,3" transform="translate(-150.05 -17.394)"/><path class="p" d="M342.545,17.5h-1.726v7.63A3.386,3.386,0,0,0,338.7,24.4a3.1,3.1,0,1,0,3.3,3.088,3.009,3.009,0,0,0-.787-2h1.332V20.618h1.211V19.256h-1.211ZM338.7,29.157a1.648,1.648,0,0,1-1.6-1.665,1.629,1.629,0,0,1,1.6-1.665,1.666,1.666,0,0,1,0,3.33" transform="translate(-270.88 -17.046)"/><path class="p" d="M329.954,21.6a6,6,0,0,0,3.815,2.967V23.147a4.291,4.291,0,0,1-2.816-3.785h2.452V18h-6.842v1.362h2.452a4.326,4.326,0,0,1-2.816,3.785V24.57a6.044,6.044,0,0,0,3.754-2.967" transform="translate(-264.466 -17.394)"/><path class="p" d="M214,40.3a3.1,3.1,0,1,0,3.3,3.088A3.21,3.21,0,0,0,214,40.3m0,4.753a1.648,1.648,0,0,1-1.6-1.665,1.629,1.629,0,0,1,1.6-1.665,1.666,1.666,0,0,1,0,3.33" transform="translate(-183.935 -32.943)"/><path class="p" d="M212.885,19.332A1.344,1.344,0,0,0,211.553,18H203.62v1.362h7.539V23h-2.816V20.725h-1.726v2.3H202.5v1.332h11.505V23h-1.15V19.332Z" transform="translate(-178.218 -17.394)"/><rect class="p" width="1.726" height="9.174" transform="translate(45.597 0.454)"/><path class="p" d="M251.915,20.821a3.56,3.56,0,1,0-3.573,3.421,3.511,3.511,0,0,0,3.573-3.421m-5.389,0a1.9,1.9,0,0,1,1.847-1.968,1.922,1.922,0,0,1,1.847,1.968,1.851,1.851,0,1,1-3.694,0" transform="translate(-207.711 -16.976)"/><path class="p" d="M253.226,43.8H251.5v3.33a1.344,1.344,0,0,0,1.332,1.332h6.994V47.1h-6.6Z" transform="translate(-212.383 -35.383)"/><rect class="p" width="1.726" height="9.174" transform="translate(82.474 0.454)"/><path class="p" d="M371.115,21.906a6,6,0,0,0,3.815,2.967V23.45a4.347,4.347,0,0,1-2.846-4.087h2.452V18h-6.843v1.362h2.452A4.347,4.347,0,0,1,367.3,23.45v1.423a5.927,5.927,0,0,0,3.815-2.967" transform="translate(-293.122 -17.394)"/><path class="p" d="M374.526,43.8H372.8v3.33a1.324,1.324,0,0,0,1.332,1.332h7.145V47.1h-6.752Z" transform="translate(-296.957 -35.383)"/><rect class="p" width="11.596" height="1.272" transform="translate(85.865 6.6)"/><path class="p" d="M419.025,16.908H415.3V16h-1.877v.908H409.7V18.18h1.726a2.437,2.437,0,0,0-.394,1.3c0,1.514,1.514,2.755,3.361,2.755s3.361-1.241,3.361-2.755a2.437,2.437,0,0,0-.394-1.3h1.726V16.908Zm-4.693,3.906a1.519,1.519,0,0,1-1.665-1.3,1.716,1.716,0,0,1,3.33,0,1.5,1.5,0,0,1-1.665,1.3" transform="translate(-322.685 -16)"/><path class="p" d="M416.912,43.2c-1.938,0-3.512,1.181-3.512,2.634s1.574,2.634,3.512,2.634,3.512-1.181,3.512-2.634S418.85,43.2,416.912,43.2m0,3.875c-.969,0-1.726-.545-1.726-1.211s.787-1.241,1.726-1.241c.969,0,1.726.545,1.726,1.241.03.666-.757,1.211-1.726,1.211" transform="translate(-325.265 -34.965)"/><path class="p" d="M497.925,19.256V17.5H496.2v5.722h-5.874V19.014h4.451V17.651H488.6v5.6a1.324,1.324,0,0,0,1.332,1.332H496.2v1.968h1.726V20.618h1.211V19.256Z" transform="translate(-377.697 -17.046)"/><path class="p" d="M494.2,43.8h-1.7v3.33a1.324,1.324,0,0,0,1.332,1.332h6.994V47.1h-6.6V43.8Z" transform="translate(-380.416 -35.383)"/><path class="p" d="M457.7,40.3a3.1,3.1,0,1,0,3.3,3.088,3.21,3.21,0,0,0-3.3-3.088m0,4.753a1.648,1.648,0,0,1-1.6-1.665,1.629,1.629,0,0,1,1.6-1.665,1.648,1.648,0,0,1,1.6,1.665,1.669,1.669,0,0,1-1.6,1.665" transform="translate(-353.851 -32.943)"/><path class="p" d="M456.585,19.332A1.344,1.344,0,0,0,455.253,18H447.32v1.362h7.539V23h-2.816V20.725h-1.726v2.3H446.2v1.332h11.505V23h-1.151V19.332Z" transform="translate(-348.134 -17.394)"/></g></g></svg>