<svg xmlns="http://www.w3.org/2000/svg" width="108.826" height="100" viewBox="0 0 108.826 100"><defs><style>.a{fill:#c3c3c3;opacity:0.67;}.b{fill:#84153e;}.c{fill:#e36820;}.d{fill:#da5b02;}.e{fill:#720427;}</style></defs><g transform="translate(-0.071 0.411)"><ellipse class="a" cx="28.543" cy="5.533" rx="28.543" ry="5.533" transform="translate(7.953 82.727)"/><ellipse class="a" cx="23.868" cy="4.216" rx="23.868" ry="4.216" transform="translate(38.911 91.158)"/><g transform="translate(0.071 -0.411)"><path class="b" d="M60.216,81.442s-19.532-6.53-31.269-15.265S6.727,43.5,2.7,27.086c0,0-3.494-7.942-2.419-11.824s1.434-5.206,3.494-7.5S7.354-.444,14.343,0C24.915.7,27.782.615,31.725,1.585s11.737,4.588,13.8,9.795c1.792,4.5,8.333,15.265,10.483,22.854s2.6,21.619,4.211,26.3S65.951,75.971,60.216,81.442Z" transform="translate(-0.071 0.027)"/><path class="c" d="M3.694,19.085s2.02,1.844,6.5,1.756c6.85-.176,12.734-.79,14.579,2.547s7.9,3.074,9.046,2.459c3.249-1.932,4.918-2.81,8.255-4.742,2.635-1.493,2.986-6.85-.176-9.748C36.628,6.438,30.743,2.135,19.766,2.4,10.281,2.574,7.119,6.175,5.187,8.37S.444,15.484,3.694,19.085Z" transform="translate(-0.331 -0.267)"/><path class="d" d="M18.951,17.586s7.2-.878,9.046,2.459,4.128,5.269,12.383.527c0,0,1.317.351-.351,1.317s-3.6,3.162-6.587,3.776a5.866,5.866,0,0,1-6.148-3.074c-.966-1.669-4.479-3.952-7.465-3.425C17.019,19.869,17.721,17.234,18.951,17.586Z" transform="translate(-1.736 -2.024)"/><path class="d" d="M9.76,8.827a14.272,14.272,0,0,0-2.723,4.83c-.7,2.547.615,2.986,1.932,3.249s2.283,2.02-.351,1.317S3.788,15.5,6.16,11.989,10.112,7.6,9.76,8.827Z" transform="translate(-0.689 -0.988)"/><path class="d" d="M40,10.576s1.317.351.615,2.986,1.317.351,2.283,2.02,2.635.7,1.669-.966S41.669,9.61,40,10.576Z" transform="translate(-4.164 -1.244)"/><path class="e" d="M19.909,37.625s-6.5-1.756-7.465-3.425l-.351,1.317c-.351,1.317,1.23,1.054,3.513,2.371a10.836,10.836,0,0,0,5.182,1.405A1.339,1.339,0,0,0,19.909,37.625Z" transform="translate(-1.281 -3.989)"/><path class="e" d="M37.939,46.95A47.655,47.655,0,0,1,37.5,54.5s1.493,1.493,1.844-.351.527-5.8.527-5.8S39.432,45.633,37.939,46.95Z" transform="translate(-3.938 -5.433)"/><path class="e" d="M51.8,26.773a31.864,31.864,0,0,1,2.635-4.567c1.581-2.2,2.81-3.337,3.249-2.635.527.79-.527,1.054-.966,2.2s-2.02,2.547-2.283,4.128c-.351,1.581-.351,2.02-1.317,2.371C52.239,28.7,51.8,26.773,51.8,26.773Z" transform="translate(-5.353 -2.244)"/><path class="e" d="M24.523,63.99s-5.182.527-6.411,0c-1.317-.527-.176,1.669-.176,1.669s4.918.966,7.641.176,2.635-.878,2.635-.878L27.6,63.2Z" transform="translate(-1.817 -7.399)"/><path class="e" d="M50.7,79.648s2.371,4.04,2.2,5.8.966,2.02.966,2.02a2.863,2.863,0,0,0,.878-2.2c0-1.405-1.844-5.621-1.844-5.621S53.071,77.189,50.7,79.648Z" transform="translate(-5.275 -9.158)"/></g><g transform="translate(45.112 25.832) rotate(-3)"><path class="b" d="M50.895.527c-9.3,2.435-16.1,8-21.647,15.3-1.61,2.261-3.757,4.174-5.009,6.608.537-.087,1.163-.174,1.7-.261.089.087.179.174.268.174.358.087.537.174.626.348a1.442,1.442,0,0,1,.089.609,5.323,5.323,0,0,1-.716.7,1.816,1.816,0,0,0-.358.522h0a2.669,2.669,0,0,0-2.773.522c-.179-.174-.268-.174-.358-.174-.537.087-1.073.261-.984,1.043-2.415,4.7-4.83,9.478-7.246,14.173-1.073,2.174-1.878,4.434-3.667,6.173-.268.522-.984.869-1.073,1.478a1.422,1.422,0,0,0-.626.956c.716,1.217-.268,2-.805,2.869-2.5,4.174-5.1,8.347-7.693,12.521h0C-1.076,65.3.981,66.7,3.4,67.131c2.684.435,3.22.783,5.993.7a41.5,41.5,0,0,0,6.44.435c1.163-.522,2.5.261,3.757-.261a1.232,1.232,0,0,0,.447-.956c.179.087.268.174.447.087.358.348.805.087,1.163-.174C24.775,66,28,65.131,30.679,63.218a29.264,29.264,0,0,0,2.862-1.478A58.064,58.064,0,0,0,45.26,50.7c.716-.522,2.147-2.174,2.326-2.261.358-.869,1.163-1.652.626-2.782h0c.537-.869.537-2.087,1.878-2.435v-.609c.447-.87.805-1.652,1.252-2.522h0l.537-1.043a42.733,42.733,0,0,0,3.936-8.434h0c.179-.522.447-1.043.626-1.652.179-.261.268-.609.447-.869a4.557,4.557,0,0,0,.716-1.478,9.143,9.143,0,0,0,.268-1.652h0c.358-.783.716-1.652,1.073-2.435,1.252-1.565,1.163-3.391,1.252-5.217.358-5.652-.089-11.13-4.562-15.564C54.384.614,53.042-.777,50.895.527Z" transform="translate(0 0)"/><g transform="translate(4.864 10.006)"><path class="e" d="M4.061,3.162l-1.054.79A9.328,9.328,0,0,0,1.338,3.6,1.156,1.156,0,0,1,.021,2.459c-.176-1.142.79-.7,1.317-.966,1.317-.527,2.9.088,4.04-1.054C5.905-.263,6.7.088,7.4.088h0c2.02.439,1.317,1.23.351,2.108l-.263.527a6.051,6.051,0,0,0-.7.263C5.817,3.249,4.851,2.81,4.061,3.162Z" transform="translate(13.927 11.988)"/><path class="e" d="M5.76,0c.351,1.054-.7,1.405-.878,2.2a2.629,2.629,0,0,0-.7.351c-.088,0-.176.088-.263.088-1.405.263-3.6.7-3.864-.615C-.387-.351,2.072.878,3.214.527A21.734,21.734,0,0,1,5.76,0Z" transform="translate(0 36.297)"/><path class="e" d="M2.723.058c.79,1.756,0,3.513.176,5.269C2.108,7,1.23,6.82.176,5.5.088,5.327.088,5.239,0,5.064.176,3.922,1.054-.557,2.723.058Z" transform="translate(42.689 33.264)"/><path class="e" d="M2.268.176C2.093.088,1.917.088,1.741,0c-.176.351-.351.7-.615,1.142L.6,2.459c-.351.7-1.054,1.405-.176,2.108,1.405,1.054,2.81-3.074,3.162-4.3A7.1,7.1,0,0,0,2.268.176Z" transform="translate(13.292 56.85)"/><path class="e" d="M2.95,7.208C2.336,8.086,2.16,9.842.667,9.14-.65,8.525.316,7.208.755,6.329c.7-1.581.263-3.249.527-4.83C1.369.8,1.457.006,2.336.006,3.3-.082,3.565.8,3.653,1.587A11.334,11.334,0,0,1,2.95,7.208Z" transform="translate(27.529 32.253)"/><path class="e" d="M0,3.261A14.7,14.7,0,0,1,6.235.011c.176-.088.7.351.79.615a1.261,1.261,0,0,1-.439,1.581c-1.581,1.405-3.6,1.844-5.357,2.9A1.078,1.078,0,0,1,.176,4.93C.088,4.4.088,3.788,0,3.261Z" transform="translate(32.955)"/><path class="e" d="M7.073.807C7.424,3.266,4,1.422,2.857,2.827c-.966-.088-2.371.966-2.81-.351C-.655.807,6.722-1.125,7.073.807Z" transform="translate(27.497 21.436)"/><path class="e" d="M4.044,4.742c.263.878.351,1.932-.615,2.283-1.317.439-1.054-.966-1.493-1.581A28.445,28.445,0,0,0,.443,2.635C-.435,1.405.092.7,1.146,0,2.376.7,3.868,4.216,4.044,4.742Z" transform="translate(45.583 10.506)"/><path class="e" d="M5.37.054A1.069,1.069,0,0,1,5.194,1.9c-1.23.79-2.547,1.405-3.776,2.108C.276,4.533-.075,3.918.013,2.952.013,1.986,4.4-.385,5.37.054Z" transform="translate(11.659 41.616)"/></g></g></g></svg>