<svg xmlns="http://www.w3.org/2000/svg" width="19" height="19" viewBox="0 0 19 19"><defs><style>.a{fill:#fff;stroke:#231815;}.b{fill:#231815;}.c{stroke:none;}.d{fill:none;}</style></defs><g class="a"><circle class="c" cx="9.5" cy="9.5" r="9.5"/><circle class="d" cx="9.5" cy="9.5" r="9"/></g><path class="b" d="M11.1,7.757a6.574,6.574,0,0,0-2.47-1.43,3.4,3.4,0,0,0,1.632-2.858A3.626,3.626,0,0,0,6.5,0,3.626,3.626,0,0,0,2.742,3.469,3.4,3.4,0,0,0,4.374,6.327,6.574,6.574,0,0,0,1.9,7.757,5.738,5.738,0,0,0,0,12H1.016A5.292,5.292,0,0,1,6.5,6.938,5.292,5.292,0,0,1,11.984,12H13A5.738,5.738,0,0,0,11.1,7.757ZM6.5,6A2.646,2.646,0,0,1,3.758,3.469,2.646,2.646,0,0,1,6.5.938,2.646,2.646,0,0,1,9.242,3.469,2.646,2.646,0,0,1,6.5,6Z" transform="translate(3 4)"/></svg>