<svg xmlns="http://www.w3.org/2000/svg" width="394" height="373" viewBox="0 0 394 373"><defs><style>.a{opacity:0.02;}</style></defs><path class="a" d="M433.6,4487.273a155.894,155.894,0,0,1-23.526,51.778,305.672,305.672,0,0,1-38.846,45.971,261.823,261.823,0,0,1-47.6,36.778,258.528,258.528,0,0,1-51.976,24.193q-48.164,15.493-95.747,10.163-47.6-5.307-84.805-38.229a155.669,155.669,0,0,1-35.562-60.972,221.946,221.946,0,0,1-9.849-69.2,236.9,236.9,0,0,1,10.943-68.23,254.561,254.561,0,0,1,26.809-59.038q19.7-30.962,47.052-51.292A123.714,123.714,0,0,1,190.678,4285q8.746-1.93,14.226,3.87a19.17,19.17,0,0,1,5.471,13.55q10.927-9.663,33.922-14.518,22.98-4.831,51.43-.967,52.522,5.807,83.163,28.066,30.622,22.273,45.411,51.777a142.334,142.334,0,0,1,15.32,61.938Q440.158,4461.159,433.6,4487.273ZM195.056,4353.718a93.859,93.859,0,0,0-36.659,25.646,147.669,147.669,0,0,0-24.073,38.229,157.029,157.029,0,0,0-12.036,45.971,233.23,233.23,0,0,0-.547,47.907q3.283,33.888,22.979,55.648,19.7,21.776,61.278,21.776a143.3,143.3,0,0,0,47.6-8.226,180.95,180.95,0,0,0,43.224-21.776,192,192,0,0,0,36.111-32.421,178.441,178.441,0,0,0,26.262-39.2q5.464-10.637,8.755-26.613a123.763,123.763,0,0,0,2.188-32.906,85.174,85.174,0,0,0-8.755-32.421q-7.668-15.472-24.073-26.131-22.98-14.517-54.713-17.42-31.75-2.9-66.749,12.582-6.567,3.879-14.773,1.452Q192.867,4363.409,195.056,4353.718Z" transform="translate(-45.661 -4284.521)"/></svg>