<svg xmlns="http://www.w3.org/2000/svg" width="110" height="111" viewBox="0 0 110 111"><defs><style>.a{opacity:0.03;}</style></defs><path class="a" d="M184.195,4746.2a232.373,232.373,0,0,0-20.649,16.006q-11.476,9.822-23.078,21.116,8.1,13.72,14.711,25.689t10.392,18.7q1.348,2.692.27,6.994t-4.319,5.111a8.967,8.967,0,0,1-6.343-.807,9.361,9.361,0,0,1-4.723-4.573q-5.4-9.684-10.8-19.5t-11.606-19.5q-10.8,10.762-19.434,20.175t-13.226,15.6q-3.783,4.843-7.153,4.708a9.639,9.639,0,0,1-5.533-1.749,5.344,5.344,0,0,1-2.294-3.362,8.706,8.706,0,0,1,.135-4.035,24.019,24.019,0,0,1,1.485-4.036,27.3,27.3,0,0,1,2.025-3.632q5.4-7.262,14.305-17.215t20.244-21.252a478.774,478.774,0,0,0-29.961-41.694q-1.62-2.956-1.215-4.841a5.374,5.374,0,0,1,1.215-2.69q3.776-2.957,7.423-2.152a23.341,23.341,0,0,1,7.152,2.958,130.709,130.709,0,0,1,13.9,16.006q7.148,9.552,14.171,20.31,11.337-10.22,23.347-20.041a262.161,262.161,0,0,1,24.158-17.62,7.079,7.079,0,0,1,6.343-.269,7.346,7.346,0,0,1,4.724,4.3,7,7,0,0,1-.945,6.322A17.922,17.922,0,0,1,184.195,4746.2Z" transform="translate(-80.237 -4729.078)"/></svg>