<svg xmlns="http://www.w3.org/2000/svg" width="281.436" height="409.168" viewBox="0 0 281.436 409.168"><defs><style>.a,.j{fill:#f7f7f7;}.a,.k{stroke:#231815;}.a,.f,.j,.k{stroke-linecap:round;stroke-linejoin:round;}.a,.e,.f,.g,.i,.j,.k{stroke-miterlimit:10;}.a,.e,.f,.i,.j,.k{stroke-width:4px;}.b,.d,.e,.f{fill:#231815;}.b,.c{fill-rule:evenodd;}.c{fill:#fff;}.e,.f,.g,.i,.j{stroke:#333;}.g{stroke-width:11.339px;}.h{fill:#63b84a;}.i{fill:#00e676;}.k{fill:none;}</style></defs><g transform="translate(5.667 2.003)"><path class="a" d="M94.3,566.9l12.117,40.888s4.178,12.714,2.686,14.8c0,0-11.7,8.3-3.7,10.685,8,2.447,32.711,2.089,33.9-1.492,1.194-3.641,7.163-45.6,26.682-46.559,0,0,18.325-4.238,26.324,12.714a324.538,324.538,0,0,1,13.43,32.949c1.433,4.119,24.414,4.238,34.8.9s-4.775-9.968-4-13.609,13.132-27.816,15.161-49.543" transform="translate(-41.411 -229.699)"/><path class="a" d="M222.721,134.292c-9.371-15.64-17.609-37.667-16.713-55.934,1.313-26.982-4.178-42.025-4.178-42.025s-.3-.179,2.865-5.372c5.969-9.67-1.91-20.117-5.79-21.49s-12.416,2.268-12.416,2.268-10.147-8.178-28.174-9.491C134.02.457,122.2,9.77,116.59,15.56a14.363,14.363,0,0,0-9.252-1.552c-1.791.239-9.013,7.223-8.655,15.1.179,4.119,3.82,5.969,7.581,9.67-6.268,14.685-3.4,37.01-.119,59.456,3.522,24-22.444,60.59-22.444,60.59-18.982,16.237-18.146,90.317-16.594,138.849a98.505,98.505,0,0,1,6.924,22.5c.06,1.313.119,2.627.119,3.94a10.4,10.4,0,0,1,1.313-.3,72.253,72.253,0,0,1,37.367-4.656,94.885,94.885,0,0,1,46.619,17.61c5.909,5.552,11.819,11.1,17.788,16.714,1.313,1.612,2.567,3.224,3.761,4.895a71.962,71.962,0,0,1,5.79-10.745,71.306,71.306,0,0,1,22.563-28.653,70.513,70.513,0,0,1,28.234-15.58c4.417-14.864,3.223-20.893,3.223-20.893C253.521,222.878,232.152,149.932,222.721,134.292Z" transform="translate(-30.131 -2.023)"/><g transform="translate(108.927 30.603)"><path class="b" d="M192.489,53.3c-2.209-.119-4.119,2.149-4.3,5.014s1.492,5.312,3.7,5.432,4.119-2.149,4.3-5.014S194.7,53.416,192.489,53.3Z" transform="translate(-188.178 -53.292)"/><path class="c" d="M190.73,58a1.346,1.346,0,1,0,1.254,1.433A1.379,1.379,0,0,0,190.73,58Z" transform="translate(-188.627 -55.187)"/><path class="b" d="M229.149,55.1c-2.209-.119-4.178,2.268-4.357,5.253s1.492,5.551,3.7,5.671,4.178-2.209,4.357-5.253S231.357,55.157,229.149,55.1Z" transform="translate(-202.931 -54.018)"/><path class="c" d="M227.43,60.2a1.346,1.346,0,1,0,1.254,1.433A1.308,1.308,0,0,0,227.43,60.2Z" transform="translate(-203.421 -56.074)"/></g><path class="d" d="M205.393,86.611c-.358.06-2.746-.179-3.82,3.044-.358,1.134,1.791,3.4,2.507,4.3.716.955.9,1.134,2.925,1.552s2.567-.06,3.462.119S215,91.983,215.3,89.954s-1.313-2.447-2.806-3.283C211.124,86.014,206.05,86.492,205.393,86.611Z" transform="translate(-84.635 -36.007)"/><path class="d" d="M209.105,99.63l-1.194-1.313s-1.313.537-.716,1.313,2.388,2.805,2.388,2.805.3,2.507.478,4,.06,7.342.418,7.4a3.7,3.7,0,0,0,1.194-.239s-.3-9.013-.3-10.207.657-1.433,1.731-2.567c.776-.836,1.791-2.089,1.791-2.089a7.386,7.386,0,0,0-1.254-.836,36.816,36.816,0,0,0-4.357,2.268" transform="translate(-86.854 -40.669)"/><path class="d" d="M275.193,27.147c.836-.657,6.447-1.254,8.118,1.91,2.149,4.119-.657,9.968-1.552,9.968-1.015-.06-1.97-3.94-3.044-5.969C276.625,29.057,274.417,27.744,275.193,27.147Z" transform="translate(-114.27 -11.94)"/><path class="d" d="M140.394,35.021c-.776-.478-5.611-.6-6.8,2.209-1.552,3.641,1.254,8.476,2.029,8.416.9-.119,1.433-3.462,2.149-5.312C139.26,36.693,141.11,35.439,140.394,35.021Z" transform="translate(-57.053 -15.218)"/><path class="e" d="M60.317,348.788s-15.1,59.691.776,100.221c0,0,11.876,29.069,15.635,32.054,6.266,4.954,34.791,12.893,72.268,15.4,32.106,2.149,82.413-5.133,90.887-11.4a58.1,58.1,0,0,0,6.564-13.132c8.772-26.682,21.185-66.973,11.756-116.159L222.219,300.2,77.206,346.341Z" transform="translate(-25.074 -122.195)"/><path class="f" d="M223.65,270.25s-8.176,8.058-20.827,1.254c-5.789-3.1-6.5-1.791-7.221-1.015a8.889,8.889,0,0,0-1.611,4.238,54.961,54.961,0,0,1-2.566,10.506c-1.731,4.477-5.55,8.058-7.877,10.983-3.342,3.581,4.6,12.475,4.6,12.475,20.051,24.473,36.94,29.666,47.2,28.234,21.185-2.985,23.871-24,24.766-34.859.9-10.923-5.49-34.442-17.306-50.976-13.368-18.683-26.2-47.753-26.2-47.753.179-6.506,1.373-12.834-3.1-17.012-4.535-4.178-19.574-.119-19.574-.119-12.055,3.4-32.4,6.745-48.517,6.208-30.972-1.074-48.04-10.207-56.335-3.641-4.834,3.82-2.089,16.117-2.089,16.117s-10.8,20.176-20.111,38.8S42.234,295.559,53.87,326.9" transform="translate(-23.402 -75.543)"/><path class="f" d="M76.115,283.014s8.178,8.058,20.832,1.254c5.79-3.1,6.506-1.791,7.223-1.015a8.888,8.888,0,0,1,1.612,4.238A54.95,54.95,0,0,0,108.348,298c1.731,4.477,5.551,8.058,7.879,10.983,3.343,3.581-4.6,12.475-4.6,12.475-20.056,24.473-36.949,29.666-47.216,28.234-21.19-2.985-23.876-24-24.772-34.859-.9-10.923,5.492-34.442,17.31-50.976,13.371-18.683,26.2-47.753,26.2-47.753" transform="translate(-19.322 -88.306)"/><g transform="translate(0 88.671)"><g transform="translate(0 10.641)"><path class="g" d="M36.184,230.235a17.359,17.359,0,0,0,3.283,6.268,14.177,14.177,0,0,0,4.775,3.761,15.284,15.284,0,0,0,5.671,1.433,16.741,16.741,0,0,0,5.909-.716,38.764,38.764,0,0,0,6.327-2.507,21.124,21.124,0,0,0,4.417-2.985c.657-.6,1.433-1.313,2.268-2.089a9.017,9.017,0,0,1,2.686-1.85,9.445,9.445,0,0,1,5.372-1.134,8.969,8.969,0,0,1,5.074,2.447,8.371,8.371,0,0,1,3.044,6.387,12.18,12.18,0,0,1-2.089,6.8,30.059,30.059,0,0,1-9.252,8.655,51.514,51.514,0,0,1-26.264,7.76,34.882,34.882,0,0,1-13.669-2.328,31.567,31.567,0,0,1-11.52-7.879c-3.4-3.581-5.969-8.357-7.82-14.385L7.532,215.432c-1.791-5.969-2.328-11.4-1.492-16.3a31.129,31.129,0,0,1,5.253-12.953,34.886,34.886,0,0,1,10.088-9.491,54.036,54.036,0,0,1,13.072-5.969A51.749,51.749,0,0,1,47.525,168.4a28.1,28.1,0,0,1,9.67,1.194,12.751,12.751,0,0,1,6.387,4.477,8.434,8.434,0,0,1,1.492,7.163,9.4,9.4,0,0,1-3.1,5.312,9.758,9.758,0,0,1-5.312,2.328,11.851,11.851,0,0,1-3.581-.06c-1.134-.179-2.089-.3-2.985-.418a21.288,21.288,0,0,0-4.357.119,37.481,37.481,0,0,0-5.551,1.313,17.826,17.826,0,0,0-5.312,2.686,15,15,0,0,0-3.94,4.3,14.134,14.134,0,0,0-1.91,5.79,17.406,17.406,0,0,0,.776,7.044Z" transform="translate(-5.655 -168.389)"/></g><g transform="translate(65.608 34.226)"><path class="g" d="M164.666,297.556a17.311,17.311,0,0,1-3.522,0,19.037,19.037,0,0,1-3.761-.657,11.4,11.4,0,0,1-3.223-1.373,4.951,4.951,0,0,1-1.97-2.328l-15.4-39.993-.06,51.155L115.6,306.45l1.433-80.523a11.379,11.379,0,0,1,.955-4.775,12.639,12.639,0,0,1,2.507-3.7,12.772,12.772,0,0,1,3.4-2.567,13.676,13.676,0,0,1,3.761-1.373,20.044,20.044,0,0,1,4.3-.179,14.291,14.291,0,0,1,4.477.955,14.081,14.081,0,0,1,4.059,2.567,11.681,11.681,0,0,1,2.925,4.417l18.683,50.2,8.357-52.886a12.021,12.021,0,0,1,1.91-4.895,11.328,11.328,0,0,1,3.462-3.283,14.422,14.422,0,0,1,4.3-1.85,22.779,22.779,0,0,1,4.3-.657,13.283,13.283,0,0,1,3.94.657,14.451,14.451,0,0,1,3.88,1.85,12.257,12.257,0,0,1,3.164,3.164,10.782,10.782,0,0,1,1.85,4.477l17.31,78.673-21.131,2.089-10.147-50.5-7.163,42.56a4.689,4.689,0,0,1-1.492,2.626,9.668,9.668,0,0,1-2.925,1.97,18.505,18.505,0,0,1-3.581,1.373A13.271,13.271,0,0,1,164.666,297.556Z" transform="translate(-115.6 -207.9)"/></g><g transform="translate(126.508)"><path class="g" d="M273.61,210.395l4.119,33.128-22.742,2.865L250.749,212.6l-30.323-36.889a11.293,11.293,0,0,1-2.507-4.895,10.474,10.474,0,0,1,0-4.716,10.942,10.942,0,0,1,1.85-4.059,11.056,11.056,0,0,1,3.164-2.865,12.162,12.162,0,0,1,9.909-1.433,17.2,17.2,0,0,1,8.357,5.969l18.862,24.115L271.879,159.9a28.03,28.03,0,0,1,2.328-4.119,12.258,12.258,0,0,1,3.164-3.164,11.572,11.572,0,0,1,9.312-1.731,10.742,10.742,0,0,1,4,1.731,10.023,10.023,0,0,1,3.1,3.4,11.118,11.118,0,0,1,1.313,4.775,11.633,11.633,0,0,1-1.253,5.73Z" transform="translate(-217.65 -150.562)"/></g><g transform="translate(170.573 22.303)"><path class="g" d="M326.6,194.477a12.516,12.516,0,0,1,2.985-4,11.441,11.441,0,0,1,3.82-2.089,10.976,10.976,0,0,1,4.178-.418,11.908,11.908,0,0,1,4.178,1.194,12.562,12.562,0,0,1,3.522,2.507,10.178,10.178,0,0,1,2.268,3.581,10.35,10.35,0,0,1,.716,4.3,11.769,11.769,0,0,1-1.313,4.835l-11.341,23.4L373.575,210a12.791,12.791,0,0,1,4.775-1.194,13.966,13.966,0,0,1,4.477.537,12.071,12.071,0,0,1,3.88,2.029,11.433,11.433,0,0,1,2.805,3.1,10.513,10.513,0,0,1,1.433,4.238,10.077,10.077,0,0,1-.418,4.417,10.633,10.633,0,0,1-2.149,3.94,9.266,9.266,0,0,1-3.82,2.686l-29.547,12.237,6.387,58.557-23.459-11.4-3.4-38.739-12.475,5.133-10.147,20.952L291.5,266.583Z" transform="translate(-291.5 -187.926)"/></g><g transform="translate(0 10.641)"><path class="h" d="M36.184,230.235a17.359,17.359,0,0,0,3.283,6.268,14.177,14.177,0,0,0,4.775,3.761,15.284,15.284,0,0,0,5.671,1.433,16.741,16.741,0,0,0,5.909-.716,38.764,38.764,0,0,0,6.327-2.507,21.124,21.124,0,0,0,4.417-2.985c.657-.6,1.433-1.313,2.268-2.089a9.017,9.017,0,0,1,2.686-1.85,9.445,9.445,0,0,1,5.372-1.134,8.969,8.969,0,0,1,5.074,2.447,8.371,8.371,0,0,1,3.044,6.387,12.18,12.18,0,0,1-2.089,6.8,30.059,30.059,0,0,1-9.252,8.655,51.514,51.514,0,0,1-26.264,7.76,34.882,34.882,0,0,1-13.669-2.328,31.567,31.567,0,0,1-11.52-7.879c-3.4-3.581-5.969-8.357-7.82-14.385L7.532,215.432c-1.791-5.969-2.328-11.4-1.492-16.3a31.129,31.129,0,0,1,5.253-12.953,34.886,34.886,0,0,1,10.088-9.491,54.036,54.036,0,0,1,13.072-5.969A51.749,51.749,0,0,1,47.525,168.4a28.1,28.1,0,0,1,9.67,1.194,12.751,12.751,0,0,1,6.387,4.477,8.434,8.434,0,0,1,1.492,7.163,9.4,9.4,0,0,1-3.1,5.312,9.758,9.758,0,0,1-5.312,2.328,11.851,11.851,0,0,1-3.581-.06c-1.134-.179-2.089-.3-2.985-.418a21.288,21.288,0,0,0-4.357.119,37.481,37.481,0,0,0-5.551,1.313,17.826,17.826,0,0,0-5.312,2.686,15,15,0,0,0-3.94,4.3,14.134,14.134,0,0,0-1.91,5.79,17.406,17.406,0,0,0,.776,7.044Z" transform="translate(-5.655 -168.389)"/></g><g transform="translate(65.608 34.226)"><path class="h" d="M164.666,297.556a17.311,17.311,0,0,1-3.522,0,19.037,19.037,0,0,1-3.761-.657,11.4,11.4,0,0,1-3.223-1.373,4.951,4.951,0,0,1-1.97-2.328l-15.4-39.993-.06,51.155L115.6,306.45l1.433-80.523a11.379,11.379,0,0,1,.955-4.775,12.639,12.639,0,0,1,2.507-3.7,12.772,12.772,0,0,1,3.4-2.567,13.676,13.676,0,0,1,3.761-1.373,20.044,20.044,0,0,1,4.3-.179,14.291,14.291,0,0,1,4.477.955,14.081,14.081,0,0,1,4.059,2.567,11.681,11.681,0,0,1,2.925,4.417l18.683,50.2,8.357-52.886a12.021,12.021,0,0,1,1.91-4.895,11.328,11.328,0,0,1,3.462-3.283,14.422,14.422,0,0,1,4.3-1.85,22.779,22.779,0,0,1,4.3-.657,13.283,13.283,0,0,1,3.94.657,14.451,14.451,0,0,1,3.88,1.85,12.257,12.257,0,0,1,3.164,3.164,10.782,10.782,0,0,1,1.85,4.477l17.31,78.673-21.131,2.089-10.147-50.5-7.163,42.56a4.689,4.689,0,0,1-1.492,2.626,9.668,9.668,0,0,1-2.925,1.97,18.505,18.505,0,0,1-3.581,1.373A13.271,13.271,0,0,1,164.666,297.556Z" transform="translate(-115.6 -207.9)"/></g><g transform="translate(126.508)"><path class="h" d="M273.61,210.395l4.119,33.128-22.742,2.865L250.749,212.6l-30.323-36.889a11.293,11.293,0,0,1-2.507-4.895,10.474,10.474,0,0,1,0-4.716,10.942,10.942,0,0,1,1.85-4.059,11.056,11.056,0,0,1,3.164-2.865,12.162,12.162,0,0,1,9.909-1.433,17.2,17.2,0,0,1,8.357,5.969l18.862,24.115L271.879,159.9a28.03,28.03,0,0,1,2.328-4.119,12.258,12.258,0,0,1,3.164-3.164,11.572,11.572,0,0,1,9.312-1.731,10.742,10.742,0,0,1,4,1.731,10.023,10.023,0,0,1,3.1,3.4,11.118,11.118,0,0,1,1.313,4.775,11.633,11.633,0,0,1-1.253,5.73Z" transform="translate(-217.65 -150.562)"/></g><g transform="translate(170.573 22.303)"><path class="h" d="M326.6,194.477a12.516,12.516,0,0,1,2.985-4,11.441,11.441,0,0,1,3.82-2.089,10.976,10.976,0,0,1,4.178-.418,11.908,11.908,0,0,1,4.178,1.194,12.562,12.562,0,0,1,3.522,2.507,10.178,10.178,0,0,1,2.268,3.581,10.35,10.35,0,0,1,.716,4.3,11.769,11.769,0,0,1-1.313,4.835l-11.341,23.4L373.575,210a12.791,12.791,0,0,1,4.775-1.194,13.966,13.966,0,0,1,4.477.537,12.071,12.071,0,0,1,3.88,2.029,11.433,11.433,0,0,1,2.805,3.1,10.513,10.513,0,0,1,1.433,4.238,10.077,10.077,0,0,1-.418,4.417,10.633,10.633,0,0,1-2.149,3.94,9.266,9.266,0,0,1-3.82,2.686l-29.547,12.237,6.387,58.557-23.459-11.4-3.4-38.739-12.475,5.133-10.147,20.952L291.5,266.583Z" transform="translate(-291.5 -187.926)"/></g></g><path class="f" d="M313.558,327.72s-8.178,8.058-20.832,1.253c-5.79-3.1-6.506-1.791-7.223-1.015a8.888,8.888,0,0,0-1.612,4.238,54.948,54.948,0,0,1-2.567,10.506c-1.731,4.477-5.551,8.058-7.879,10.983-3.343,3.581,4.6,12.475,4.6,12.475,20.056,24.473,36.949,29.666,47.216,28.234" transform="translate(-113.305 -133.01)"/><path class="f" d="M76.171,327.72s8.178,8.058,20.832,1.253c5.79-3.1,6.506-1.791,7.223-1.015a8.888,8.888,0,0,1,1.612,4.238A54.949,54.949,0,0,0,108.4,342.7c1.731,4.477,5.551,8.058,7.879,10.983,3.343,3.581-4.6,12.475-4.6,12.475-20.056,24.473-36.949,29.666-47.216,28.234-21.19-2.984-23.876-24-24.772-34.859" transform="translate(-19.378 -133.01)"/><path class="i" d="M204.5,466.6" transform="translate(-85.83 -189.276)"/><path class="j" d="M277.012,330.045s1.671,11.64-11.282,23.041c0,0-3.164-.06-7.76-2.985-4.6-2.985-6.029-5.312-5.372-7.342,1.313-3.94,6.387-1.731,6.387-1.731s-4.417-2.209-3.94-5.074a4.843,4.843,0,0,1,6.8-3.164l1.015.537s-4.537-1.433-4.059-4.775c.179-1.433,1.552-4,6.029-3.164C269.371,326.345,277.012,330.045,277.012,330.045Z" transform="translate(-105.165 -132.293)"/><path class="k" d="M201.1,121.268s11.4,3.4,17.549-6.268" transform="translate(-84.461 -47.563)"/><path class="j" d="M148.352,330.045s-1.671,11.64,11.282,23.041c0,0,3.164-.06,7.76-2.985,4.6-2.985,6.029-5.312,5.372-7.342-1.313-3.94-6.387-1.731-6.387-1.731s4.417-2.209,3.94-5.074a4.843,4.843,0,0,0-6.8-3.164l-1.015.537s4.537-1.433,4.059-4.775c-.179-1.433-1.552-4-6.029-3.164C155.993,326.345,148.352,330.045,148.352,330.045Z" transform="translate(-63.164 -132.293)"/></g></svg>