<svg xmlns="http://www.w3.org/2000/svg" width="281.437" height="409.168" viewBox="0 0 281.437 409.168"><defs><style>.a,.j{fill:#f7f7f7;}.a,.k{stroke:#231815;}.a,.f,.j,.k{stroke-linecap:round;stroke-linejoin:round;}.a,.e,.f,.g,.i,.j,.k{stroke-miterlimit:10;}.a,.e,.f,.i,.j,.k{stroke-width:4px;}.b,.d,.e,.f{fill:#231815;}.b,.c{fill-rule:evenodd;}.c{fill:#fff;}.e,.f,.g,.i,.j{stroke:#333;}.g{stroke-width:11.339px;}.h{fill:#58b530;}.i{fill:#00e676;}.k{fill:none;}</style></defs><g transform="translate(5.667 2.003)"><path class="a" d="M94.3,566.9l12.251,41.34s4.225,12.855,2.716,14.967c0,0-11.829,8.389-3.742,10.8,8.087,2.474,33.072,2.112,34.279-1.509,1.207-3.681,7.242-46.108,26.977-47.074,0,0,18.528-4.285,26.615,12.855A328.119,328.119,0,0,1,206.975,631.6c1.448,4.164,24.684,4.285,35.185.905s-4.828-10.079-4.044-13.76,13.277-28.123,15.329-50.091" transform="translate(-42.228 -230.451)"/><path class="a" d="M224.449,134.092c-9.475-15.616-17.8-37.61-16.9-55.849,1.328-26.941-4.225-41.961-4.225-41.961s-.3-.179,2.9-5.364c6.035-9.656-1.931-20.087-5.854-21.457s-12.553,2.265-12.553,2.265-10.26-8.166-28.486-9.477C134.768.46,122.818,9.758,117.145,15.539a14.68,14.68,0,0,0-9.354-1.55c-1.811.238-9.113,7.212-8.751,15.08.181,4.113,3.862,5.96,7.665,9.656-6.337,14.663-3.44,36.954-.121,59.366,3.561,23.961-22.692,60.5-22.692,60.5C64.7,174.8,65.545,248.77,67.114,297.228a97.462,97.462,0,0,1,7,22.471c.06,1.311.121,2.623.121,3.934a10.619,10.619,0,0,1,1.328-.3,73.9,73.9,0,0,1,37.78-4.649,96.661,96.661,0,0,1,47.134,17.583c5.975,5.543,11.949,11.086,17.985,16.689,1.328,1.609,2.6,3.219,3.8,4.888a71.567,71.567,0,0,1,5.854-10.729,71.344,71.344,0,0,1,22.813-28.61,71.554,71.554,0,0,1,28.546-15.557c4.466-14.841,3.259-20.861,3.259-20.861C255.59,222.544,233.985,149.708,224.449,134.092Z" transform="translate(-29.73 -2.023)"/><g transform="translate(108.776 30.941)"><path class="b" d="M192.537,53.3c-2.233-.121-4.164,2.173-4.345,5.069s1.509,5.371,3.742,5.492,4.164-2.173,4.345-5.069S194.77,53.418,192.537,53.3Z" transform="translate(-188.178 -53.292)"/><path class="c" d="M190.746,58a1.361,1.361,0,1,0,1.267,1.448A1.394,1.394,0,0,0,190.746,58Z" transform="translate(-188.62 -55.156)"/><path class="b" d="M229.2,55.1c-2.233-.121-4.225,2.293-4.406,5.311s1.509,5.613,3.742,5.733,4.225-2.233,4.406-5.311S231.43,55.158,229.2,55.1Z" transform="translate(-202.69 -54.006)"/><path class="c" d="M227.446,60.2a1.361,1.361,0,1,0,1.267,1.448A1.322,1.322,0,0,0,227.446,60.2Z" transform="translate(-203.171 -56.028)"/></g><path class="d" d="M205.436,86.614c-.362.06-2.776-.181-3.862,3.078-.362,1.147,1.811,3.44,2.535,4.345.724.966.905,1.147,2.957,1.569s2.6-.06,3.5.121,4.587-3.681,4.888-5.733-1.328-2.474-2.836-3.319C211.23,86.011,206.1,86.494,205.436,86.614Z" transform="translate(-84.704 -35.451)"/><path class="d" d="M209.128,99.649l-1.207-1.328s-1.328.543-.724,1.328,2.414,2.836,2.414,2.836.3,2.535.483,4.044.06,7.423.422,7.484a3.736,3.736,0,0,0,1.207-.241s-.3-9.113-.3-10.32.664-1.448,1.75-2.6c.785-.845,1.811-2.112,1.811-2.112a7.468,7.468,0,0,0-1.267-.845,37.223,37.223,0,0,0-4.406,2.293" transform="translate(-86.894 -40.037)"/><path class="d" d="M275.194,27.153c.845-.664,6.518-1.267,8.208,1.931,2.173,4.164-.664,10.079-1.569,10.079-1.026-.06-1.992-3.983-3.078-6.035C276.643,29.084,274.41,27.756,275.194,27.153Z" transform="translate(-114.332 -11.777)"/><path class="d" d="M140.474,35.024c-.785-.483-5.673-.6-6.88,2.233-1.569,3.681,1.267,8.57,2.052,8.509.905-.121,1.448-3.5,2.173-5.371C139.328,36.714,141.2,35.447,140.474,35.024Z" transform="translate(-57.077 -15.002)"/><path class="e" d="M60.3,349.326s-15.048,60.351.773,101.329c0,0,11.836,29.391,15.583,32.408,6.245,5.009,34.676,13.036,72.028,15.571,32,2.173,82.14-5.19,90.585-11.527a59.05,59.05,0,0,0,6.543-13.277c8.743-26.977,21.115-67.714,11.717-117.443L221.66,300.2,77.128,346.851Z" transform="translate(-24.756 -124.706)"/><path class="f" d="M223.106,271.2s-8.15,8.147-20.762,1.267c-5.771-3.138-6.484-1.81-7.2-1.026a9.062,9.062,0,0,0-1.606,4.285,56.217,56.217,0,0,1-2.558,10.622c-1.725,4.526-5.533,8.147-7.853,11.1-3.331,3.621,4.581,12.613,4.581,12.613,19.989,24.744,36.824,29.994,47.056,28.546,21.119-3.018,23.8-24.261,24.688-35.245.892-11.044-5.473-34.822-17.252-51.54-13.326-18.89-26.116-48.281-26.116-48.281.178-6.578,1.368-12.975-3.093-17.2-4.521-4.225-19.513-.121-19.513-.121-12.017,3.44-32.3,6.82-48.365,6.277-30.875-1.086-47.889-10.32-56.158-3.681-4.819,3.862-2.082,16.295-2.082,16.295s-10.768,20.4-20.048,39.228-24.569,52.445-12.969,84.129" transform="translate(-23.112 -76.272)"/><path class="f" d="M76.519,283.753s8.268,8.147,21.062,1.267c5.854-3.138,6.578-1.811,7.3-1.026a8.986,8.986,0,0,1,1.629,4.285,55.557,55.557,0,0,0,2.6,10.622c1.75,4.526,5.613,8.147,7.966,11.1,3.38,3.621-4.647,12.613-4.647,12.613-20.278,24.744-37.357,29.994-47.738,28.546C43.266,348.148,40.55,326.9,39.645,315.92c-.905-11.044,5.552-34.822,17.5-51.54C70.665,245.491,83.641,216.1,83.641,216.1" transform="translate(-19.099 -89.003)"/><g transform="translate(0 88.181)"><g transform="translate(0 10.759)"><path class="g" d="M36.522,230.919a17.551,17.551,0,0,0,3.319,6.337,14.334,14.334,0,0,0,4.828,3.8,15.454,15.454,0,0,0,5.733,1.448,16.928,16.928,0,0,0,5.975-.724,39.192,39.192,0,0,0,6.4-2.535,21.36,21.36,0,0,0,4.466-3.018c.664-.6,1.448-1.328,2.293-2.112a9.117,9.117,0,0,1,2.716-1.871,9.549,9.549,0,0,1,5.432-1.147,9.069,9.069,0,0,1,5.13,2.474,8.464,8.464,0,0,1,3.078,6.458,12.315,12.315,0,0,1-2.112,6.88,30.392,30.392,0,0,1-9.354,8.751,52.084,52.084,0,0,1-26.554,7.846,35.268,35.268,0,0,1-13.82-2.354A31.917,31.917,0,0,1,22.4,253.189c-3.44-3.621-6.035-8.449-7.906-14.545l-6.94-22.692c-1.811-6.035-2.354-11.527-1.509-16.476a31.473,31.473,0,0,1,5.311-13.1,35.272,35.272,0,0,1,10.2-9.6,54.635,54.635,0,0,1,13.217-6.035A52.32,52.32,0,0,1,47.988,168.4a28.41,28.41,0,0,1,9.777,1.207,12.892,12.892,0,0,1,6.458,4.526,8.527,8.527,0,0,1,1.509,7.242,9.5,9.5,0,0,1-3.138,5.371,9.866,9.866,0,0,1-5.371,2.354,11.982,11.982,0,0,1-3.621-.06c-1.147-.181-2.112-.3-3.018-.422a21.521,21.521,0,0,0-4.406.121,37.9,37.9,0,0,0-5.613,1.328,18.022,18.022,0,0,0-5.371,2.716,15.164,15.164,0,0,0-3.983,4.345,14.291,14.291,0,0,0-1.931,5.854,17.6,17.6,0,0,0,.785,7.121Z" transform="translate(-5.655 -168.389)"/></g><g transform="translate(65.188 34.604)"><path class="g" d="M165.208,298.547a17.5,17.5,0,0,1-3.561,0,19.245,19.245,0,0,1-3.8-.664,11.529,11.529,0,0,1-3.259-1.388,5.006,5.006,0,0,1-1.992-2.354l-15.571-40.435-.06,51.721L115.6,307.539l1.448-81.413a11.505,11.505,0,0,1,.966-4.828,12.779,12.779,0,0,1,2.535-3.742,12.913,12.913,0,0,1,3.44-2.6,13.826,13.826,0,0,1,3.8-1.388,20.264,20.264,0,0,1,4.345-.181,14.448,14.448,0,0,1,4.526.966,14.236,14.236,0,0,1,4.1,2.6,11.81,11.81,0,0,1,2.957,4.466l18.89,50.755,8.449-53.471a12.154,12.154,0,0,1,1.931-4.949,11.454,11.454,0,0,1,3.5-3.319,14.582,14.582,0,0,1,4.345-1.871,23.03,23.03,0,0,1,4.345-.664,13.431,13.431,0,0,1,3.983.664,14.611,14.611,0,0,1,3.923,1.871,12.393,12.393,0,0,1,3.2,3.2,10.9,10.9,0,0,1,1.871,4.526l17.5,79.542L194.3,299.814l-10.26-51.057-7.242,43.03a4.741,4.741,0,0,1-1.509,2.655,9.776,9.776,0,0,1-2.957,1.992,18.71,18.71,0,0,1-3.621,1.388A13.418,13.418,0,0,1,165.208,298.547Z" transform="translate(-115.6 -207.9)"/></g><g transform="translate(125.946)"><path class="g" d="M274.229,211.056l4.164,33.495-22.994,2.9-4.285-34.159-30.658-37.3a11.418,11.418,0,0,1-2.535-4.949,10.59,10.59,0,0,1,0-4.768,11.063,11.063,0,0,1,1.871-4.1,11.178,11.178,0,0,1,3.2-2.9,12.3,12.3,0,0,1,10.018-1.448,17.4,17.4,0,0,1,8.449,6.035l19.071,24.382L272.479,160a28.347,28.347,0,0,1,2.354-4.164,12.394,12.394,0,0,1,3.2-3.2,11.7,11.7,0,0,1,9.415-1.75,10.861,10.861,0,0,1,4.044,1.75,10.134,10.134,0,0,1,3.138,3.44,11.24,11.24,0,0,1,1.328,4.828,11.763,11.763,0,0,1-1.267,5.794Z" transform="translate(-217.65 -150.562)"/></g><g transform="translate(169.472 22.55)"><path class="g" d="M326.986,194.549A12.654,12.654,0,0,1,330,190.506a11.568,11.568,0,0,1,3.863-2.112,11.1,11.1,0,0,1,4.225-.422,12.04,12.04,0,0,1,4.225,1.207,12.7,12.7,0,0,1,3.561,2.535,10.29,10.29,0,0,1,2.293,3.621,10.465,10.465,0,0,1,.724,4.345,11.9,11.9,0,0,1-1.328,4.888L336.1,228.225l38.383-17.985a12.932,12.932,0,0,1,4.828-1.207,14.121,14.121,0,0,1,4.526.543,12.206,12.206,0,0,1,3.923,2.052,11.559,11.559,0,0,1,2.836,3.138,10.628,10.628,0,0,1,1.448,4.285,10.188,10.188,0,0,1-.422,4.466,10.752,10.752,0,0,1-2.173,3.983,9.368,9.368,0,0,1-3.862,2.716l-29.874,12.372,6.458,59.2-23.718-11.527-3.44-39.168-12.613,5.19-10.26,21.183L291.5,267.453Z" transform="translate(-291.5 -187.926)"/></g><g transform="translate(0 10.759)"><path class="h" d="M36.522,230.919a17.551,17.551,0,0,0,3.319,6.337,14.334,14.334,0,0,0,4.828,3.8,15.454,15.454,0,0,0,5.733,1.448,16.928,16.928,0,0,0,5.975-.724,39.192,39.192,0,0,0,6.4-2.535,21.36,21.36,0,0,0,4.466-3.018c.664-.6,1.448-1.328,2.293-2.112a9.117,9.117,0,0,1,2.716-1.871,9.549,9.549,0,0,1,5.432-1.147,9.069,9.069,0,0,1,5.13,2.474,8.464,8.464,0,0,1,3.078,6.458,12.315,12.315,0,0,1-2.112,6.88,30.392,30.392,0,0,1-9.354,8.751,52.084,52.084,0,0,1-26.554,7.846,35.268,35.268,0,0,1-13.82-2.354A31.917,31.917,0,0,1,22.4,253.189c-3.44-3.621-6.035-8.449-7.906-14.545l-6.94-22.692c-1.811-6.035-2.354-11.527-1.509-16.476a31.473,31.473,0,0,1,5.311-13.1,35.272,35.272,0,0,1,10.2-9.6,54.635,54.635,0,0,1,13.217-6.035A52.32,52.32,0,0,1,47.988,168.4a28.41,28.41,0,0,1,9.777,1.207,12.892,12.892,0,0,1,6.458,4.526,8.527,8.527,0,0,1,1.509,7.242,9.5,9.5,0,0,1-3.138,5.371,9.866,9.866,0,0,1-5.371,2.354,11.982,11.982,0,0,1-3.621-.06c-1.147-.181-2.112-.3-3.018-.422a21.521,21.521,0,0,0-4.406.121,37.9,37.9,0,0,0-5.613,1.328,18.022,18.022,0,0,0-5.371,2.716,15.164,15.164,0,0,0-3.983,4.345,14.291,14.291,0,0,0-1.931,5.854,17.6,17.6,0,0,0,.785,7.121Z" transform="translate(-5.655 -168.389)"/></g><g transform="translate(65.188 34.604)"><path class="h" d="M165.208,298.547a17.5,17.5,0,0,1-3.561,0,19.245,19.245,0,0,1-3.8-.664,11.529,11.529,0,0,1-3.259-1.388,5.006,5.006,0,0,1-1.992-2.354l-15.571-40.435-.06,51.721L115.6,307.539l1.448-81.413a11.505,11.505,0,0,1,.966-4.828,12.779,12.779,0,0,1,2.535-3.742,12.913,12.913,0,0,1,3.44-2.6,13.826,13.826,0,0,1,3.8-1.388,20.264,20.264,0,0,1,4.345-.181,14.448,14.448,0,0,1,4.526.966,14.236,14.236,0,0,1,4.1,2.6,11.81,11.81,0,0,1,2.957,4.466l18.89,50.755,8.449-53.471a12.154,12.154,0,0,1,1.931-4.949,11.454,11.454,0,0,1,3.5-3.319,14.582,14.582,0,0,1,4.345-1.871,23.03,23.03,0,0,1,4.345-.664,13.431,13.431,0,0,1,3.983.664,14.611,14.611,0,0,1,3.923,1.871,12.393,12.393,0,0,1,3.2,3.2,10.9,10.9,0,0,1,1.871,4.526l17.5,79.542L194.3,299.814l-10.26-51.057-7.242,43.03a4.741,4.741,0,0,1-1.509,2.655,9.776,9.776,0,0,1-2.957,1.992,18.71,18.71,0,0,1-3.621,1.388A13.418,13.418,0,0,1,165.208,298.547Z" transform="translate(-115.6 -207.9)"/></g><g transform="translate(125.946)"><path class="h" d="M274.229,211.056l4.164,33.495-22.994,2.9-4.285-34.159-30.658-37.3a11.418,11.418,0,0,1-2.535-4.949,10.59,10.59,0,0,1,0-4.768,11.063,11.063,0,0,1,1.871-4.1,11.178,11.178,0,0,1,3.2-2.9,12.3,12.3,0,0,1,10.018-1.448,17.4,17.4,0,0,1,8.449,6.035l19.071,24.382L272.479,160a28.347,28.347,0,0,1,2.354-4.164,12.394,12.394,0,0,1,3.2-3.2,11.7,11.7,0,0,1,9.415-1.75,10.861,10.861,0,0,1,4.044,1.75,10.134,10.134,0,0,1,3.138,3.44,11.24,11.24,0,0,1,1.328,4.828,11.763,11.763,0,0,1-1.267,5.794Z" transform="translate(-217.65 -150.562)"/></g><g transform="translate(169.472 22.55)"><path class="h" d="M326.986,194.549A12.654,12.654,0,0,1,330,190.506a11.568,11.568,0,0,1,3.863-2.112,11.1,11.1,0,0,1,4.225-.422,12.04,12.04,0,0,1,4.225,1.207,12.7,12.7,0,0,1,3.561,2.535,10.29,10.29,0,0,1,2.293,3.621,10.465,10.465,0,0,1,.724,4.345,11.9,11.9,0,0,1-1.328,4.888L336.1,228.225l38.383-17.985a12.932,12.932,0,0,1,4.828-1.207,14.121,14.121,0,0,1,4.526.543,12.206,12.206,0,0,1,3.923,2.052,11.559,11.559,0,0,1,2.836,3.138,10.628,10.628,0,0,1,1.448,4.285,10.188,10.188,0,0,1-.422,4.466,10.752,10.752,0,0,1-2.173,3.983,9.368,9.368,0,0,1-3.862,2.716l-29.874,12.372,6.458,59.2-23.718-11.527-3.44-39.168-12.613,5.19-10.26,21.183L291.5,267.453Z" transform="translate(-291.5 -187.926)"/></g></g><path class="f" d="M314.01,327.728s-8.268,8.147-21.062,1.267c-5.854-3.138-6.578-1.811-7.3-1.026a8.987,8.987,0,0,0-1.629,4.285,55.556,55.556,0,0,1-2.6,10.622c-1.75,4.526-5.613,8.147-7.966,11.1-3.38,3.621,4.647,12.613,4.647,12.613,20.278,24.744,37.357,29.994,47.738,28.546" transform="translate(-113.731 -133.44)"/><path class="f" d="M76.574,327.728s8.268,8.147,21.062,1.267c5.854-3.138,6.578-1.811,7.3-1.026a8.986,8.986,0,0,1,1.629,4.285,55.555,55.555,0,0,0,2.6,10.622c1.75,4.526,5.613,8.147,7.966,11.1,3.38,3.621-4.647,12.613-4.647,12.613-20.278,24.744-37.357,29.994-47.738,28.546-21.425-3.018-24.14-24.261-25.046-35.245" transform="translate(-19.154 -133.44)"/><path class="i" d="M204.5,466.6" transform="translate(-85.83 -189.276)"/><path class="j" d="M277.283,330.1s1.69,11.768-11.406,23.3c0,0-3.2-.06-7.846-3.018-4.647-3.018-6.1-5.371-5.432-7.423,1.328-3.983,6.458-1.75,6.458-1.75s-4.466-2.233-3.983-5.13a4.9,4.9,0,0,1,6.88-3.2l1.026.543s-4.587-1.448-4.1-4.828c.181-1.448,1.569-4.043,6.1-3.2C269.558,326.357,277.283,330.1,277.283,330.1Z" transform="translate(-105.329 -132.45)"/><path class="k" d="M201.1,121.337s11.527,3.44,17.743-6.337" transform="translate(-84.55 -46.817)"/><path class="j" d="M148.353,330.1s-1.69,11.768,11.406,23.3c0,0,3.2-.06,7.846-3.018,4.647-3.018,6.1-5.371,5.432-7.423-1.328-3.983-6.458-1.75-6.458-1.75s4.466-2.233,3.983-5.13a4.9,4.9,0,0,0-6.88-3.2l-1.026.543s4.587-1.448,4.1-4.828c-.181-1.448-1.569-4.043-6.1-3.2C156.078,326.357,148.353,330.1,148.353,330.1Z" transform="translate(-63.259 -132.45)"/></g></svg>