<svg xmlns="http://www.w3.org/2000/svg" width="238.98" height="409.168" viewBox="0 0 238.98 409.168"><defs><style>.a,.j{fill:#f7f7f7;}.a,.k{stroke:#231815;}.a,.f,.j,.k{stroke-linecap:round;stroke-linejoin:round;}.a,.e,.f,.g,.i,.j,.k{stroke-miterlimit:10;}.a,.e,.f,.i,.j,.k{stroke-width:4px;}.b,.d,.e,.f{fill:#231815;}.b,.c{fill-rule:evenodd;}.c{fill:#fff;}.e,.f,.g,.i,.j{stroke:#333;}.g{fill:#333;stroke-width:14.173px;}.h{fill:#30e646;}.i{fill:#00e676;}.k{fill:none;}</style></defs><g transform="translate(7.086 2.003)"><path class="a" d="M76.7,566.9l12.117,40.888S93,620.5,91.5,622.592c0,0-11.7,8.3-3.7,10.685,8,2.447,32.711,2.089,33.9-1.492,1.194-3.641,7.163-45.6,26.682-46.559,0,0,18.325-4.238,26.324,12.714a324.535,324.535,0,0,1,13.43,32.949c1.433,4.119,24.414,4.238,34.8.9s-4.775-9.968-4-13.609,13.132-27.816,15.161-49.543" transform="translate(-35.209 -229.699)"/><path class="a" d="M205.011,134.292c-9.367-15.64-17.6-37.667-16.706-55.934,1.313-26.982-4.176-42.025-4.176-42.025s-.3-.179,2.864-5.372c5.966-9.67-1.909-20.117-5.787-21.49s-12.41,2.268-12.41,2.268-10.2-8.178-28.161-9.491C116.35.457,104.536,9.77,98.928,15.56a14.351,14.351,0,0,0-9.248-1.552c-1.79.239-9.009,7.223-8.651,15.1.179,4.119,3.819,5.969,7.577,9.67-6.265,14.685-3.4,37.01-.119,59.456,3.52,24-22.434,60.59-22.434,60.59-19.033,16.237-18.2,90.317-16.646,138.849a98.538,98.538,0,0,1,6.921,22.5c.06,1.313.119,2.627.119,3.94a10.393,10.393,0,0,1,1.313-.3,72.191,72.191,0,0,1,37.35-4.656,94.817,94.817,0,0,1,46.6,17.61c5.907,5.552,11.814,11.1,17.78,16.714,1.313,1.612,2.566,3.224,3.759,4.895a71.972,71.972,0,0,1,5.787-10.745,71.3,71.3,0,0,1,22.553-28.653,70.471,70.471,0,0,1,28.221-15.58c4.415-14.864,3.222-20.893,3.222-20.893C235.738,222.878,214.378,149.932,205.011,134.292Z" transform="translate(-23.833 -2.023)"/><g transform="translate(97.508 30.603)"><path class="b" d="M174.789,53.3c-2.209-.119-4.119,2.149-4.3,5.014s1.492,5.312,3.7,5.432,4.119-2.149,4.3-5.014S177,53.416,174.789,53.3Z" transform="translate(-170.478 -53.292)"/><path class="c" d="M173.03,58a1.346,1.346,0,1,0,1.254,1.433A1.337,1.337,0,0,0,173.03,58Z" transform="translate(-170.927 -55.187)"/><path class="b" d="M211.549,55.1c-2.209-.119-4.178,2.268-4.357,5.253s1.492,5.551,3.7,5.671,4.178-2.209,4.357-5.253C215.369,57.724,213.757,55.157,211.549,55.1Z" transform="translate(-185.271 -54.018)"/><path class="c" d="M209.73,60.2a1.346,1.346,0,1,0,1.254,1.433A1.273,1.273,0,0,0,209.73,60.2Z" transform="translate(-185.721 -56.074)"/></g><path class="d" d="M187.693,86.611c-.358.06-2.746-.179-3.82,3.044-.358,1.134,1.791,3.4,2.507,4.3.716.955.9,1.134,2.925,1.552s2.567-.06,3.462.119,4.537-3.641,4.835-5.671-1.313-2.447-2.805-3.283C193.483,86.014,188.41,86.492,187.693,86.611Z" transform="translate(-78.354 -36.007)"/><path class="d" d="M191.405,99.63l-1.194-1.313s-1.313.537-.716,1.313,2.388,2.805,2.388,2.805.3,2.507.478,4,.06,7.342.418,7.4a3.7,3.7,0,0,0,1.194-.239s-.3-9.013-.3-10.207.657-1.433,1.731-2.567c.776-.836,1.791-2.089,1.791-2.089a7.386,7.386,0,0,0-1.254-.836,36.815,36.815,0,0,0-4.357,2.268" transform="translate(-80.573 -40.669)"/><path class="d" d="M257.493,27.147c.836-.657,6.447-1.254,8.118,1.91,2.149,4.119-.657,9.968-1.552,9.968-1.015-.06-1.97-3.94-3.044-5.969C258.925,29.057,256.717,27.744,257.493,27.147Z" transform="translate(-107.996 -11.94)"/><path class="d" d="M122.694,35.021c-.776-.478-5.611-.6-6.8,2.209-1.552,3.641,1.254,8.476,2.029,8.416.9-.119,1.433-3.462,2.149-5.312C121.56,36.693,123.41,35.439,122.694,35.021Z" transform="translate(-50.764 -15.218)"/><path class="e" d="M42.616,348.788s-15.1,59.691.776,100.221c0,0,11.874,29.069,15.633,32.054,6.265,4.954,34.786,12.893,72.258,15.4,32.1,2.149,82.4-5.133,90.874-11.4a58.1,58.1,0,0,0,6.563-13.132c8.771-26.682,21.182-66.973,11.755-116.158L204.436,300.2,59.443,346.341Z" transform="translate(-18.776 -122.195)"/><path class="f" d="M205.926,270.25s-8.175,8.058-20.824,1.254c-5.788-3.1-6.5-1.791-7.22-1.015a8.89,8.89,0,0,0-1.611,4.238,54.971,54.971,0,0,1-2.566,10.506c-1.73,4.477-5.549,8.058-7.876,10.983-3.341,3.581,4.594,12.475,4.594,12.475,20.049,24.473,36.935,29.666,47.2,28.234,21.182-2.985,23.867-24,24.762-34.859s-5.489-34.442-17.3-50.976c-13.366-18.683-26.194-47.753-26.194-47.753.179-6.506,1.372-12.834-3.1-17.012-4.535-4.178-19.571-.119-19.571-.119-12.053,3.4-32.4,6.745-48.51,6.208-30.968-1.074-48.033-10.207-56.327-3.641-4.833,3.82-2.088,16.117-2.088,16.117s-10.8,20.176-20.108,38.8S24.535,295.38,36.17,326.718" transform="translate(-17.104 -75.543)"/><path class="f" d="M58.415,283.013s8.178,8.058,20.832,1.254c5.79-3.1,6.506-1.791,7.223-1.015a8.888,8.888,0,0,1,1.612,4.238A54.948,54.948,0,0,0,90.648,298c1.731,4.477,5.551,8.058,7.879,10.983,3.343,3.581-4.6,12.475-4.6,12.475-20.056,24.473-36.949,29.666-47.216,28.234-21.19-2.985-23.876-24-24.772-34.859s5.492-34.442,17.31-50.976c13.371-18.683,26.2-47.753,26.2-47.753" transform="translate(-13.024 -88.306)"/><path class="f" d="M295.858,327.72s-8.178,8.058-20.832,1.254c-5.79-3.1-6.506-1.791-7.223-1.015a8.889,8.889,0,0,0-1.612,4.238,54.945,54.945,0,0,1-2.567,10.506c-1.731,4.477-5.551,8.058-7.879,10.983-3.343,3.581,4.6,12.475,4.6,12.475,20.056,24.473,36.949,29.666,47.216,28.234" transform="translate(-107.05 -133.01)"/><g transform="translate(0 101.485)"><g transform="translate(0 0.597)"><g transform="translate(0 1.484)"><path class="g" d="M81.04,199.562a25.476,25.476,0,0,1-.836,14.445,29.774,29.774,0,0,1-7.64,11.52l28.234,30.5-24.891,5.133L53.224,235.2l-14.087,2.925,6.148,29.368-22.563,4.656-14.8-70.555a32.249,32.249,0,0,1-.836-8.118,12.254,12.254,0,0,1,1.671-5.909,11.3,11.3,0,0,1,4.656-4.119,31.108,31.108,0,0,1,8.058-2.626L41.7,176.64a48.661,48.661,0,0,1,13.55-1.015,29.192,29.192,0,0,1,11.58,3.1,25.514,25.514,0,0,1,8.775,7.461,30.766,30.766,0,0,1,5.133,12.117ZM35.316,219.737l14.326-2.985c3.761-.776,6.327-2.388,7.76-4.775a10.738,10.738,0,0,0,1.313-7.76l-.179-.776a10.836,10.836,0,0,0-4.3-6.626c-2.328-1.671-5.312-2.089-9.073-1.313l-11.1,2.268a3.848,3.848,0,0,0-2.388,1.134,3.445,3.445,0,0,0-.119,2.686Z" transform="translate(-7.057 -175.516)"/></g><g transform="translate(78 23.859)"><path class="g" d="M212.115,273.407a34.348,34.348,0,0,1-2.805,14.5,26.061,26.061,0,0,1-7.64,9.789,32.407,32.407,0,0,1-11.222,5.551,50.632,50.632,0,0,1-13.61,1.791,54.842,54.842,0,0,1-14.326-1.85,36.517,36.517,0,0,1-12.475-5.909,30.459,30.459,0,0,1-8.834-10.506,33,33,0,0,1-3.4-15.579V246.9c0-6.148,1.134-11.4,3.4-15.7A29.978,29.978,0,0,1,150.1,220.7a37.541,37.541,0,0,1,12.595-5.85A56.2,56.2,0,0,1,177.2,213a60.757,60.757,0,0,1,14.147,1.552,27.649,27.649,0,0,1,9.67,3.88,12.576,12.576,0,0,1,4.835,6.088,8.234,8.234,0,0,1-.657,7.163,9.9,9.9,0,0,1-4.477,4.119,9.469,9.469,0,0,1-5.73.657,13.4,13.4,0,0,1-3.4-1.074c-1.015-.478-1.91-.9-2.746-1.254-2.626-.955-6.506-1.433-11.58-1.433a18.189,18.189,0,0,0-5.85.955,17.439,17.439,0,0,0-5.312,2.805,14.157,14.157,0,0,0-3.82,4.716,14.888,14.888,0,0,0-1.433,6.685v22.265a15.623,15.623,0,0,0,1.373,6.745,12.324,12.324,0,0,0,3.641,4.656,16.828,16.828,0,0,0,5.193,2.805,18.026,18.026,0,0,0,5.909.955,21.334,21.334,0,0,0,5.492-.716,15.5,15.5,0,0,0,4.716-2.089,10.508,10.508,0,0,0,3.283-3.581,10.139,10.139,0,0,0,1.254-5.193v-1.313a3.091,3.091,0,0,0-.478-2.089,3.4,3.4,0,0,0-2.089-.418h-3.7a9.641,9.641,0,0,1-4.178-.836,7.607,7.607,0,0,1-2.746-2.149,8.4,8.4,0,0,1-1.552-2.985,10.785,10.785,0,0,1-.478-3.343,13.368,13.368,0,0,1,.478-3.4,9.477,9.477,0,0,1,1.552-3.1,8.115,8.115,0,0,1,2.805-2.268,8.746,8.746,0,0,1,4.119-.9h10.207a35.365,35.365,0,0,1,8.237.836,9.695,9.695,0,0,1,7.7,7.939,36.188,36.188,0,0,1,.716,7.879v5.85Z" transform="translate(-137.8 -213)"/></g><g transform="translate(147.861)"><path class="g" d="M331.305,209.005a18.424,18.424,0,0,1-4.357,9.073,20.68,20.68,0,0,1-9.252,5.909c4.477,2.746,7.461,6.029,9.073,9.849a21.046,21.046,0,0,1,1.194,12.177v.119a25.727,25.727,0,0,1-4.775,11.461,22.021,22.021,0,0,1-8.655,6.626,32.051,32.051,0,0,1-11.64,2.447,63.37,63.37,0,0,1-13.908-1.074L269.7,262.13a31.313,31.313,0,0,1-8.118-2.447,11.729,11.729,0,0,1-4.775-3.94,12.133,12.133,0,0,1-1.85-5.909,31.858,31.858,0,0,1,.657-8.178l9.789-53.662a34.8,34.8,0,0,1,2.268-7.879,12.212,12.212,0,0,1,3.82-4.895,11.825,11.825,0,0,1,5.85-2.089,31.106,31.106,0,0,1,8.476.537L302,176.593a53.889,53.889,0,0,1,13.55,4.178,34.831,34.831,0,0,1,9.849,6.864,22.628,22.628,0,0,1,5.969,20.593Zm-49.961,18.8L278.9,241.178a3.663,3.663,0,0,0,.179,2.686,4.064,4.064,0,0,0,2.447,1.074l12.177,2.209c3.7.657,6.506.3,8.476-1.015a7.615,7.615,0,0,0,3.462-4.954l.119-.776a7.483,7.483,0,0,0-1.492-5.85c-1.373-1.97-3.88-3.223-7.581-3.88Zm9.491-33.9a3.961,3.961,0,0,0-2.626.119c-.537.3-.9,1.134-1.134,2.447l-2.447,13.371,12.058,2.149a13.675,13.675,0,0,0,4.895.119,9.732,9.732,0,0,0,3.581-1.254,6.391,6.391,0,0,0,2.328-2.209,6.649,6.649,0,0,0,1.134-2.686l.119-.776a7.483,7.483,0,0,0-1.492-5.85c-1.373-1.97-3.88-3.223-7.581-3.88Z" transform="translate(-254.903 -173.029)"/></g></g><g transform="translate(0 1.254)"><path class="h" d="M81.04,198.525A26.138,26.138,0,0,1,80.2,213.15a29.758,29.758,0,0,1-7.64,11.64l28.234,30.8-24.891,5.193-22.683-26.2L39.137,237.5l6.148,29.666-22.5,4.775L7.918,200.555a33.134,33.134,0,0,1-.836-8.237,12.492,12.492,0,0,1,1.671-5.969,11.3,11.3,0,0,1,4.656-4.119,33.393,33.393,0,0,1,8.058-2.686L41.7,175.306a48.8,48.8,0,0,1,13.55-1.074,29.192,29.192,0,0,1,11.58,3.1,25.882,25.882,0,0,1,8.775,7.581,31.233,31.233,0,0,1,5.133,12.3ZM35.316,218.88,49.642,215.9c3.761-.776,6.327-2.388,7.76-4.835a11,11,0,0,0,1.313-7.879l-.179-.776a10.806,10.806,0,0,0-4.3-6.685c-2.328-1.671-5.312-2.089-9.073-1.313L34,196.735a3.848,3.848,0,0,0-2.388,1.134,3.6,3.6,0,0,0-.119,2.746Z" transform="translate(-7.057 -174.13)"/></g><g transform="translate(78 23.979)"><path class="h" d="M212.115,273.2a34.922,34.922,0,0,1-2.805,14.624,26.477,26.477,0,0,1-7.64,9.909,31.506,31.506,0,0,1-11.222,5.611,50.631,50.631,0,0,1-13.61,1.791,54.841,54.841,0,0,1-14.326-1.85,35.556,35.556,0,0,1-12.475-5.969,30.89,30.89,0,0,1-8.834-10.625,33.757,33.757,0,0,1-3.4-15.758V246.4c0-6.208,1.134-11.52,3.4-15.878A29.663,29.663,0,0,1,150.1,219.96a37.65,37.65,0,0,1,12.595-5.909,56.2,56.2,0,0,1,14.5-1.85,60.758,60.758,0,0,1,14.147,1.552q6.447,1.612,9.67,3.94a12.992,12.992,0,0,1,4.835,6.148,8.511,8.511,0,0,1-.657,7.282,9.724,9.724,0,0,1-4.477,4.178,9.044,9.044,0,0,1-5.73.657,13.4,13.4,0,0,1-3.4-1.074c-1.015-.478-1.91-.9-2.746-1.313-2.626-.955-6.506-1.492-11.58-1.492a18.189,18.189,0,0,0-5.85.955,17.439,17.439,0,0,0-5.312,2.805,14.386,14.386,0,0,0-3.82,4.775,15.15,15.15,0,0,0-1.433,6.745v22.623a15.9,15.9,0,0,0,1.373,6.8,12.531,12.531,0,0,0,3.641,4.716,15.666,15.666,0,0,0,5.193,2.805,18.025,18.025,0,0,0,5.909.955,21.332,21.332,0,0,0,5.492-.716,14.253,14.253,0,0,0,4.716-2.149,11.083,11.083,0,0,0,3.283-3.581,10.524,10.524,0,0,0,1.254-5.253v-1.373a2.033,2.033,0,0,0-2.567-2.626h-3.7a9.641,9.641,0,0,1-4.178-.836,7.75,7.75,0,0,1-2.746-2.209,8.187,8.187,0,0,1-1.552-3.044,11.159,11.159,0,0,1-.478-3.4,14.209,14.209,0,0,1,.478-3.462,10.412,10.412,0,0,1,1.552-3.164,8.266,8.266,0,0,1,2.805-2.328,8.746,8.746,0,0,1,4.119-.9h10.207a35.364,35.364,0,0,1,8.237.836,10.454,10.454,0,0,1,5.133,2.805,10.665,10.665,0,0,1,2.567,5.193,37.167,37.167,0,0,1,.716,7.939V273.2Z" transform="translate(-137.8 -212.2)"/></g><g transform="translate(147.861)"><path class="h" d="M331.305,208.184a19.066,19.066,0,0,1-4.357,9.192,20.771,20.771,0,0,1-9.252,5.969c4.477,2.805,7.461,6.089,9.073,9.968a21.4,21.4,0,0,1,1.194,12.3v.119a25.931,25.931,0,0,1-4.775,11.58A21.624,21.624,0,0,1,314.532,264a30.86,30.86,0,0,1-11.64,2.447,63.376,63.376,0,0,1-13.908-1.074l-19.28-3.462a31.312,31.312,0,0,1-8.118-2.447,11.842,11.842,0,0,1-4.775-4,12.577,12.577,0,0,1-1.85-5.969,32.112,32.112,0,0,1,.657-8.237l9.789-54.2a35.4,35.4,0,0,1,2.268-7.939,11.139,11.139,0,0,1,9.67-6.984,31.1,31.1,0,0,1,8.476.537L302,175.593a51.563,51.563,0,0,1,13.55,4.238,34.966,34.966,0,0,1,9.849,6.924,23.092,23.092,0,0,1,5.969,20.832Zm-49.961,19.041-2.447,13.55a3.834,3.834,0,0,0,.179,2.746,4.064,4.064,0,0,0,2.447,1.074L293.7,246.8c3.7.657,6.506.3,8.476-1.015a7.724,7.724,0,0,0,3.462-5.014l.119-.776a7.618,7.618,0,0,0-1.492-5.909c-1.373-1.97-3.88-3.283-7.581-3.94Zm9.491-34.263a3.961,3.961,0,0,0-2.626.119c-.537.3-.9,1.134-1.134,2.507l-2.447,13.55,12.058,2.209a13.674,13.674,0,0,0,4.895.119,8.787,8.787,0,0,0,3.581-1.313,6.921,6.921,0,0,0,2.328-2.209,6.557,6.557,0,0,0,1.134-2.746l.119-.776a7.618,7.618,0,0,0-1.492-5.909c-1.373-1.97-3.88-3.283-7.581-3.94Z" transform="translate(-254.903 -172.029)"/></g></g><path class="f" d="M58.471,327.72s8.178,8.058,20.832,1.254c5.79-3.1,6.506-1.791,7.223-1.015a8.888,8.888,0,0,1,1.612,4.238A54.948,54.948,0,0,0,90.7,342.7c1.731,4.477,5.551,8.058,7.879,10.983,3.343,3.581-4.6,12.475-4.6,12.475-20.056,24.473-36.949,29.666-47.216,28.234C25.581,391.41,22.9,370.4,22,359.535" transform="translate(-13.08 -133.01)"/><path class="i" d="M186.8,466.6" transform="translate(-79.548 -189.276)"/><path class="j" d="M259.312,330.045s1.671,11.64-11.282,23.041c0,0-3.164-.06-7.76-2.985-4.6-2.985-6.029-5.312-5.372-7.342,1.313-3.94,6.387-1.731,6.387-1.731s-4.417-2.209-3.94-5.074a4.843,4.843,0,0,1,6.8-3.164l1.015.537s-4.537-1.433-4.059-4.775c.179-1.433,1.552-4,6.029-3.164C251.671,326.345,259.312,330.045,259.312,330.045Z" transform="translate(-98.891 -132.293)"/><path class="k" d="M183.4,121.268s11.4,3.4,17.549-6.268" transform="translate(-78.18 -47.563)"/><path class="j" d="M130.652,330.045s-1.671,11.64,11.282,23.041c0,0,3.164-.06,7.76-2.985,4.6-2.985,6.029-5.312,5.372-7.342-1.313-3.94-6.387-1.731-6.387-1.731s4.417-2.209,3.94-5.074a4.843,4.843,0,0,0-6.8-3.164l-1.015.537s4.537-1.433,4.059-4.775c-.179-1.433-1.552-4-6.029-3.164C138.293,326.345,130.652,330.045,130.652,330.045Z" transform="translate(-56.878 -132.293)"/></g></svg>