<svg xmlns="http://www.w3.org/2000/svg" xmlns:xlink="http://www.w3.org/1999/xlink" width="624.766" height="516.523" viewBox="0 0 624.766 516.523"><defs><style>.a,.be,.c,.e,.f{fill:#231815;}.as,.b,.bg{fill:#f7f7f7;}.at,.au,.av,.aw,.ax,.b,.bg{stroke:#231815;}.as,.at,.au,.av,.aw,.b,.be,.bg,.f{stroke-linecap:round;stroke-linejoin:round;}.an,.as,.at,.au,.av,.aw,.ax,.az,.b,.ba,.be,.bg,.e,.f{stroke-miterlimit:10;}.as,.at,.b,.e,.f{stroke-width:3px;}.bf,.c,.d{fill-rule:evenodd;}.ba,.d,.j{fill:#fff;}.an,.as,.be,.e,.f{stroke:#333;}.g{fill:#f4f4f4;}.h{fill:#30e646;}.i{clip-path:url(#a);}.k{fill:#fffffe;}.l{fill:#fefefe;}.m{fill:#fefefd;}.n{fill:#fdfdfd;}.o{fill:#fcfdfc;}.p{fill:#fbfcfa;}.q{fill:#fafbf9;}.r{fill:#f8faf7;}.s{fill:#f6f8f5;}.t{fill:#f4f7f3;}.u{fill:#f2f5f0;}.v{fill:#f1f4ef;}.w{fill:#eff2ee;}.x{fill:#eef1ec;}.y{fill:#ecf0eb;}.z{fill:#ebeeea;}.aa{fill:#eaede9;}.ab{fill:#e8ece8;}.ac{fill:#e7ebe7;}.ad{fill:#e6eae6;}.ae{fill:#e5e9e5;}.af{fill:#e4e8e4;}.ag{fill:#e3e7e3;}.ah{fill:#e2e6e3;}.ai{fill:#e1e5e2;}.aj{fill:#e0e4e1;}.ak{fill:#dfe3e0;}.al{clip-path:url(#ak);}.am{clip-path:url(#bu);}.an{fill:#00e676;stroke-width:4px;}.ao{fill:#84153e;}.ap{fill:#e36820;}.aq{fill:#da5b02;}.ar{fill:#720427;}.at,.au,.av,.aw,.ax,.bc{fill:none;}.av,.az,.ba,.be,.bg{stroke-width:2px;}.aw,.ax{stroke-width:2.5px;}.ay{font-size:15px;font-family:designhouseBold, designhouse Bold;}.az,.ba{stroke:#000;}.bb{fill:#d2987e;}.bd{fill:#333;}.bf{fill:url(#de);}</style><clipPath id="a"><path d="M363.411,432.574a3.946,3.946,0,1,0,2.649-4.755A3.744,3.744,0,0,0,363.411,432.574Z" transform="translate(-363.223 -427.65)"/></clipPath><clipPath id="ak"><ellipse cx="3.124" cy="2.989" rx="3.124" ry="2.989" transform="translate(0 1.869) rotate(-17.404)"/></clipPath><clipPath id="bu"><ellipse cx="4.007" cy="3.872" rx="4.007" ry="3.872" transform="translate(0 2.397) rotate(-17.404)"/></clipPath><linearGradient id="de" x1="-50.346" y1="24.045" x2="-49.256" y2="24.045" gradientUnits="objectBoundingBox"><stop offset="0" stop-color="#fff"/><stop offset="0.413" stop-color="#fdfdfc"/><stop offset="0.702" stop-color="#f5f7f3"/><stop offset="0.764" stop-color="#f2f5f0"/><stop offset="0.875" stop-color="#e7eae6"/><stop offset="1" stop-color="#dfe3e0"/></linearGradient></defs><g transform="translate(388.502 210.263)"><path class="a" d="M576.587,346.971a3.454,3.454,0,0,1-2.785-1.087,3.512,3.512,0,0,1-.543-2.921,4.617,4.617,0,0,1,4.619-3.736h7.539l2.377-11.275a5.271,5.271,0,0,1,5.434-4.143,4.1,4.1,0,0,1,3.328,1.358,3.677,3.677,0,0,1,.611,3.124l-2.309,11H608.1a3.454,3.454,0,0,1,2.785,1.087,3.511,3.511,0,0,1,.543,2.921,4.617,4.617,0,0,1-4.619,3.736H576.587Zm26.965-8.286a4.873,4.873,0,0,1-1.97-.408,2.98,2.98,0,0,1-1.562-1.834,4.675,4.675,0,0,1,.747-3.668c1.766-2.717,3.056-6.317,4.143-11.343l.543-2.445v-.136H583.99a3.355,3.355,0,0,1-2.785-1.155,3.592,3.592,0,0,1-.611-3.056,4.939,4.939,0,0,1,4.823-3.94h24.044c2.513,0,4.075.543,4.958,1.63s1.019,2.513.543,4.823l-1.019,4.619c-1.359,6.317-3.124,11.071-5.366,14.2A6.314,6.314,0,0,1,603.552,338.684Z" transform="translate(-572.396 -310.021)"/><path class="a" d="M609.1,311.058c4.619,0,5.705,1.766,4.89,5.638l-1.019,4.619c-1.359,6.317-3.124,10.935-5.23,13.924a5.746,5.746,0,0,1-4.551,2.445,4.1,4.1,0,0,1-1.63-.34c-1.562-.747-1.63-2.717-.475-4.551,1.766-2.717,3.124-6.317,4.211-11.547l.543-2.445a.7.7,0,0,0-.747-.951H583.76c-2.377,0-3.057-1.766-2.717-3.4a4.3,4.3,0,0,1,4.211-3.4H609.1M592.93,324.235c2.038,0,3.8,1.087,3.26,3.6l-2.513,11.818H607.8c2.377,0,2.989,1.63,2.649,3.192a3.9,3.9,0,0,1-4.007,3.192H576.289c-2.377,0-2.989-1.562-2.649-3.192a3.9,3.9,0,0,1,4.008-3.192h8.083l2.513-11.818c.408-2.581,2.581-3.6,4.687-3.6M609.1,309.7H585.051a5.609,5.609,0,0,0-5.5,4.483,4.367,4.367,0,0,0,.747,3.6,4.048,4.048,0,0,0,3.328,1.426h20.648l-.407,1.834c-1.019,4.958-2.309,8.49-4.007,11.071a5.477,5.477,0,0,0-.883,4.211,3.376,3.376,0,0,0,1.358,1.97h-5.094l2.174-10.12a4.109,4.109,0,0,0-.747-3.668,4.807,4.807,0,0,0-3.872-1.63,5.923,5.923,0,0,0-6.113,4.687L584.372,338.3h-6.928a5.232,5.232,0,0,0-5.3,4.279,3.743,3.743,0,0,0,3.94,4.822h30.158a5.232,5.232,0,0,0,5.3-4.279,3.743,3.743,0,0,0-3.94-4.822h-1.494a7.444,7.444,0,0,0,2.581-2.241c2.241-3.192,4.075-8.083,5.5-14.467l1.019-4.619c.34-1.562.611-3.8-.679-5.434-.883-1.291-2.649-1.834-5.434-1.834Z" transform="translate(-572.031 -309.7)"/></g><g transform="translate(430.721 209.041)"><path class="a" d="M640.572,347.272c-2.377,0-3.8-.475-4.619-1.426-.815-1.019-.951-2.581-.408-5.094L636.9,334.5a5.142,5.142,0,0,1,5.434-4.279,4.1,4.1,0,0,1,3.124,1.155,2.959,2.959,0,0,1,.747,1.97h15.35a4.839,4.839,0,0,1,3.736-2.989h-2.445a.617.617,0,0,1-.543-.272.528.528,0,0,1-.136-.543l3.4-16.03a5.456,5.456,0,0,1,5.366-4.415,3.958,3.958,0,0,1,3.124,1.358,3.807,3.807,0,0,1,.611,3.4l-.408,1.9h.408a3,3,0,0,1,2.513,1.019,3.789,3.789,0,0,1,.543,3.192,4.563,4.563,0,0,1-4.483,3.939h-.679l-1.291,6.045a.661.661,0,0,1-.679.543h-2.581a3.532,3.532,0,0,1,1.9,1.087,3.652,3.652,0,0,1,.543,3.328l-2.581,11.954a.661.661,0,0,1-.679.543H640.572Zm4.483-6.588H659.93l.2-1.019H644.987l-.2.815v.136C644.852,340.684,644.919,340.684,645.055,340.684Zm-2.242-11.275c-2.445,0-3.872-.408-4.687-1.426-.815-.951-.883-2.445-.408-4.822l1.494-7.064c.951-4.483,2.785-5.977,7.336-5.977h13.313a2.779,2.779,0,0,1,2.241.951,3.457,3.457,0,0,1,.475,2.921,4.123,4.123,0,0,1-4.075,3.464H648.451c-.543,0-.543.068-.611.34l-.883,4.143v.136h11.751a2.832,2.832,0,0,1,2.309.951,3.446,3.446,0,0,1,.543,2.785,4.187,4.187,0,0,1-4.075,3.532H642.814Z" transform="translate(-634.523 -308.285)"/><path class="a" d="M670.6,309.258a2.931,2.931,0,0,1,3.057,3.872l-.543,2.717h1.223c2.377,0,2.717,1.834,2.377,3.4a3.894,3.894,0,0,1-3.8,3.4h-1.223l-1.426,6.588h-7.811l3.4-16.03a4.914,4.914,0,0,1,4.754-3.94m-11,1.155c2.038,0,2.377,1.63,2.106,3.057a3.462,3.462,0,0,1-3.4,2.921H648.258c-.747,0-1.087.2-1.223.883l-.883,4.143c-.136.747.136.951.883.951h11.547c2.038,0,2.445,1.562,2.174,2.921a3.533,3.533,0,0,1-3.464,3.057H642.484c-4.347,0-5.23-1.358-4.415-5.434l1.494-7.064c.883-4.075,2.309-5.434,6.724-5.434H659.6m6.792,20.037c2.174,0,3.668,1.155,3.057,3.8l-2.581,11.954H640.243c-4.415,0-5.23-1.562-4.347-5.705l1.358-6.249a4.576,4.576,0,0,1,4.755-3.8c2.038,0,3.4.951,3.192,3.124h16.573a4.475,4.475,0,0,1,4.619-3.124m-5.705,8.151H644.182l-.272,1.358c-.2.883,0,.951.883.951h15.418l.475-2.309m9.917-30.7a6.118,6.118,0,0,0-6.045,4.958l-2.445,11.547a3.339,3.339,0,0,0-3.6-3.4H647.647l.679-3.26h9.985A4.836,4.836,0,0,0,663,313.741a4.382,4.382,0,0,0-.611-3.532,3.474,3.474,0,0,0-2.785-1.223H646.288c-4.89,0-7,1.7-8.015,6.521l-1.494,7.064c-.408,1.834-.611,3.939.543,5.434a4.508,4.508,0,0,0,2.377,1.426,5.758,5.758,0,0,0-3.8,4.483l-1.358,6.249c-.408,1.97-.679,4.143.543,5.705,1.223,1.494,3.4,1.7,5.162,1.7h26.626a1.448,1.448,0,0,0,1.358-1.087l2.581-11.954a4.418,4.418,0,0,0-.679-3.872h.2a1.448,1.448,0,0,0,1.358-1.087l1.155-5.5h.136c3.124,0,4.687-2.309,5.162-4.483a4.274,4.274,0,0,0-.679-3.736,3.565,3.565,0,0,0-2.581-1.291l.2-1.087a4.611,4.611,0,0,0-.747-3.939,5.025,5.025,0,0,0-3.736-1.63Zm-25.946,21.8h12.566a4.682,4.682,0,0,0,4.347-2.921l-.475,2.106a1.42,1.42,0,0,0,.272,1.155,1.759,1.759,0,0,0,.747.475,5.557,5.557,0,0,0-1.358,1.7H646.424a3.6,3.6,0,0,0-.883-1.766,3.216,3.216,0,0,0-.883-.747Z" transform="translate(-634.194 -307.9)"/></g><g transform="translate(473.152 208.973)"><path class="a" d="M724.75,347.24a.618.618,0,0,1-.543-.272.528.528,0,0,1-.136-.543l3.26-15.418h-.475l-3.328,15.69a.661.661,0,0,1-.679.543h-6.792a.618.618,0,0,1-.543-.272.528.528,0,0,1-.136-.543l5.841-27.577a4.371,4.371,0,0,1-1.834,1.494,9.1,9.1,0,0,1-.272,2.989l-2.853,13.381c-1.291,6.113-5.5,9.781-11.275,9.781a7.685,7.685,0,0,1-6.181-2.513c-1.426-1.766-1.834-4.347-1.155-7.607l2.853-13.381a10.821,10.821,0,0,1,.951-2.853c-1.019-.611-1.426-1.834-1.087-3.4a4.024,4.024,0,0,1,4.075-3.464h3.124A4.985,4.985,0,0,1,712.659,309a3.364,3.364,0,0,1,3.668,4.279h2.785a2.832,2.832,0,0,1,2.309.951,2.363,2.363,0,0,1,.475,1.019l.475-2.377A4.78,4.78,0,0,1,727.127,309a3.214,3.214,0,0,1,3.328,4.143L728.282,323.2h.475l2.174-10.324A4.9,4.9,0,0,1,735.753,309a3.726,3.726,0,0,1,2.853,1.223,3.562,3.562,0,0,1,.611,2.921L732.425,346.7a.662.662,0,0,1-.679.543Zm-14.06-26.9a1.608,1.608,0,0,0-1.426,1.494l-3.464,16.3c-.068.475-.068.815.068.951a.62.62,0,0,0,.543.2c.543,0,1.223-.408,1.426-1.494l3.464-16.3a1.35,1.35,0,0,0-.068-.951A.763.763,0,0,0,710.69,320.343Z" transform="translate(-696.881 -308.185)"/><path class="a" d="M735.881,309.226c1.766,0,3.26,1.155,2.785,3.328l-7.132,33.622h-6.928l3.464-16.233H726.1l-3.464,16.233h-6.792l7.132-33.554a4.152,4.152,0,0,1,4.075-3.328,2.559,2.559,0,0,1,2.717,3.328l-2.309,10.868h1.9l2.309-10.868a4.236,4.236,0,0,1,4.211-3.4m-23.3.068c2.445,0,3.4,1.426,2.921,3.8l-.136.543h3.6c1.9,0,2.445,1.291,2.105,2.921a3.566,3.566,0,0,1-2.649,2.921,9.531,9.531,0,0,1-.2,3.328l-2.853,13.381c-1.358,6.385-5.773,9.305-10.6,9.305s-8.015-2.853-6.656-9.305l2.853-13.381a11.3,11.3,0,0,1,1.223-3.328c-1.29-.34-1.7-1.494-1.358-2.921a3.339,3.339,0,0,1,3.4-2.921H707.9l.136-.543c.611-2.377,2.174-3.8,4.551-3.8m-6.453,30.293a2.3,2.3,0,0,0,2.105-2.038l3.464-16.3c.34-1.426-.543-2.038-1.291-2.038a2.251,2.251,0,0,0-2.106,2.038l-3.464,16.3c-.272,1.494.544,2.038,1.291,2.038m29.75-31.72a5.617,5.617,0,0,0-4.822,2.649,5.142,5.142,0,0,0-.611-1.223,4.174,4.174,0,0,0-3.328-1.494,5.463,5.463,0,0,0-5.434,4.415l-.136.747a3.783,3.783,0,0,0-2.513-.815H717a4.325,4.325,0,0,0-.815-2.853,4.266,4.266,0,0,0-3.6-1.426,5.554,5.554,0,0,0-5.638,4.279h-2.581a4.675,4.675,0,0,0-4.687,4.007,3.7,3.7,0,0,0,.951,3.736,12.18,12.18,0,0,0-.747,2.513l-2.853,13.381c-.747,3.464-.34,6.249,1.291,8.219,1.426,1.766,3.736,2.717,6.724,2.717a11.58,11.58,0,0,0,11.071-7.539l-1.426,6.588a1.42,1.42,0,0,0,.272,1.155,1.352,1.352,0,0,0,1.087.475h6.792a1.313,1.313,0,0,1,1.9,0h6.792a1.448,1.448,0,0,0,1.358-1.087l7.132-33.554a4.015,4.015,0,0,0-.747-3.464,4.493,4.493,0,0,0-3.4-1.426Zm-15.962,12.5h0v0ZM706.2,338.229a.738.738,0,0,1,.068-.34l3.464-16.3c.2-.815.611-.883.747-.951a.739.739,0,0,1-.068.34l-3.464,16.3c-.2.815-.611.883-.747.951Z" transform="translate(-696.67 -307.8)"/></g><g transform="translate(512.935 209.041)"><path class="a" d="M761.628,347.3a5.013,5.013,0,0,1-4.211-1.766,5.172,5.172,0,0,1-.883-4.415l.068-.475c.679-3.26,3.4-5.162,7.2-5.162h19.222l.068-.272H761.153a2.19,2.19,0,0,1-1.9-.815,2.644,2.644,0,0,1-.407-2.309,3.507,3.507,0,0,1,2.581-2.717h-.136a3.4,3.4,0,0,1-2.513-1.426,3.307,3.307,0,0,1-.272-3.057,4.186,4.186,0,0,1,4.211-2.989h.611c.747.068,1.494.136,2.174.136,4.619,0,7.607-1.562,8.219-4.347l.068-.136H764.82a3.4,3.4,0,0,1-2.717-1.087,3.446,3.446,0,0,1-.543-2.785,4.387,4.387,0,0,1,4.551-3.532h11.819c1.834,0,4.211.272,5.094,2.377h5.3a5.272,5.272,0,0,1,5.026-3.328,3.863,3.863,0,0,1,3.124,1.358,3.77,3.77,0,0,1,.611,3.26l-3.192,15.147a.661.661,0,0,1-.679.543h-3.4a3.654,3.654,0,0,1,2.513,1.155c.679.815.815,1.97.407,3.668l-1.358,6.317a.661.661,0,0,1-.679.543h-24.18c-.2,0-.34.068-.34.2v.068h22.958a2.55,2.55,0,0,1,1.97.815,2.794,2.794,0,0,1,.407,2.377,3.4,3.4,0,0,1-3.4,2.785h-26.49Zm23.433-18.067c-.068-.068-.136-.068-.2-.136a.528.528,0,0,1-.136-.543l.34-1.63h-4.687a3.258,3.258,0,0,1-2.785-1.155,19.251,19.251,0,0,1-8.762,3.532h16.234Zm1.426-9.1.2-1.019h-4.415l-.407,1.019Z" transform="translate(-755.62 -308.317)"/><path class="a" d="M792.914,309.258c2.038,0,3.668,1.358,3.124,3.8l-3.192,15.147h-7.811l.543-2.445h-5.5c-1.426,0-2.309-.611-2.513-1.562-3.192,2.853-7.879,4.211-12.905,4.211a32.892,32.892,0,0,1-3.6-.2c-1.7-.2-2.853-1.494-2.174-3.6a3.488,3.488,0,0,1,3.532-2.513h.476c.747.068,1.562.136,2.241.136,4.687,0,8.219-1.63,8.9-4.89l.068-.2c.136-.611-.068-.815-.747-.815h-8.9c-2.309,0-2.921-1.562-2.581-3.056a3.7,3.7,0,0,1,3.872-2.989h11.819c2.853,0,4.211.815,4.551,2.377h6.249a4.718,4.718,0,0,1,4.551-3.4m-5.706,8.762h-5.773a20.394,20.394,0,0,1-.951,2.445c.2,0,.408-.068.747-.068h5.5l.475-2.377m.543,11.479c3.532,0,4.551,1.019,3.94,4.143l-1.358,6.317h-24.18a.932.932,0,0,0-1.019.747v.136c-.068.408.136.747.679.747h22.958c1.562,0,1.97,1.223,1.7,2.377a2.736,2.736,0,0,1-2.717,2.309H761.195c-3.6,0-5.026-2.513-4.415-5.366l.068-.475c.611-2.853,2.989-4.619,6.588-4.619H783.2l.2-1.019c.068-.475,0-.611-.475-.611H760.787c-1.562,0-1.9-1.155-1.7-2.309a2.776,2.776,0,0,1,2.649-2.309h26.014m5.162-21.667a5.989,5.989,0,0,0-5.434,3.328h-4.415c-1.291-2.377-4.415-2.377-5.5-2.377H765.746a4.965,4.965,0,0,0-5.162,4.075,3.712,3.712,0,0,0,.679,3.328,3.974,3.974,0,0,0,3.26,1.358h8.015c-1.155,2.853-5.5,3.192-7.336,3.192-.679,0-1.426-.068-2.106-.136-.2,0-.407-.068-.679-.068a5.059,5.059,0,0,0-4.89,3.464,3.967,3.967,0,0,0,.34,3.6,3.354,3.354,0,0,0,1.359,1.223,4.773,4.773,0,0,0-1.426,2.445,3.288,3.288,0,0,0,.543,2.921,2.845,2.845,0,0,0,1.087.815,6.868,6.868,0,0,0-3.939,4.89l-.068.475a5.524,5.524,0,0,0,5.773,7h26.558a4.194,4.194,0,0,0,4.075-3.328,3.494,3.494,0,0,0-.611-2.989l-.2-.2a1.725,1.725,0,0,0,.611-.883l1.358-6.317c.272-1.223.476-2.989-.543-4.211l-.068-.068h.408a1.448,1.448,0,0,0,1.358-1.087l3.192-15.147a4.579,4.579,0,0,0-.747-3.872,5.3,5.3,0,0,0-3.668-1.426Zm-19.29,20.241a19.48,19.48,0,0,0,3.532-1.9,4.248,4.248,0,0,0,2.853.951h3.8l-.136.815v.2H773.625Z" transform="translate(-755.255 -307.9)"/></g><path class="b" d="M274.9,644.7l13.788,46.527s4.755,14.467,3.056,16.845c0,0-13.313,9.441-4.211,12.158,9.1,2.785,37.221,2.377,38.58-1.7s8.151-51.893,30.361-52.979c0,0,20.852-4.822,29.954,14.467a369.282,369.282,0,0,1,15.283,37.493c1.63,4.687,27.78,4.823,39.6,1.019s-5.434-11.343-4.551-15.486,14.943-31.652,17.252-56.376" transform="translate(-88.203 -207.014)"/><path class="b" d="M424.881,230.346c-10.664-17.787-20.037-42.837-19.018-63.61,1.494-30.685-4.755-47.793-4.755-47.793s-.34-.2,3.26-6.11c6.792-11-2.174-22.878-6.588-24.439s-14.128,2.58-14.128,2.58-11.547-9.3-32.059-10.794c-27.644-2.037-41.093,8.554-47.478,15.139a16.351,16.351,0,0,0-10.528-1.765c-2.038.272-10.256,8.214-9.849,17.175.2,4.684,4.347,6.789,8.626,11-7.132,16.7-3.872,42.09-.136,67.616,4.007,27.291-25.539,68.906-25.539,68.906-21.6,18.465-20.648,102.714-18.882,157.906a111.978,111.978,0,0,1,7.879,25.594c.068,1.494.136,2.987.136,4.481a11.844,11.844,0,0,1,1.494-.339,82.261,82.261,0,0,1,42.519-5.3,108.007,108.007,0,0,1,53.047,20.027c6.724,6.313,13.449,12.627,20.241,19.008,1.494,1.833,2.921,3.666,4.279,5.567a81.826,81.826,0,0,1,6.588-12.22,81.1,81.1,0,0,1,25.675-32.586,80.25,80.25,0,0,1,32.127-17.719c5.026-16.9,3.668-23.761,3.668-23.761C459.929,331.09,435.544,248.132,424.881,230.346Z" transform="translate(-79.244 -25.637)"/><g transform="translate(250.461 89.109)"><path class="c" d="M373.683,131.2c-2.513-.136-4.687,2.445-4.89,5.705s1.7,6.045,4.211,6.181,4.687-2.445,4.89-5.705S376.2,131.333,373.683,131.2Z" transform="translate(-368.778 -131.192)"/><path class="d" d="M371.528,135.9a1.532,1.532,0,1,0,1.426,1.63A1.569,1.569,0,0,0,371.528,135.9Z" transform="translate(-369.136 -132.7)"/><path class="c" d="M410.351,132.9c-2.513-.136-4.755,2.581-4.958,5.977s1.7,6.317,4.211,6.453,4.755-2.513,4.958-5.977C414.766,135.954,412.864,133.034,410.351,132.9Z" transform="translate(-380.518 -131.738)"/><path class="d" d="M408.228,138a1.532,1.532,0,1,0,1.426,1.63A1.569,1.569,0,0,0,408.228,138Z" transform="translate(-380.908 -133.374)"/></g><path class="a" d="M386.526,164.536c-.407.068-3.124-.2-4.347,3.464-.408,1.291,2.038,3.872,2.853,4.89.815,1.087,1.019,1.291,3.328,1.766s2.921-.068,3.939.136,5.162-4.143,5.5-6.453-1.494-2.785-3.192-3.736C393.046,163.789,387.273,164.4,386.526,164.536Z" transform="translate(-122.601 -52.714)"/><path class="a" d="M389.99,177.769l-1.358-1.494s-1.494.611-.815,1.494,2.717,3.192,2.717,3.192.34,2.853.543,4.551.068,8.354.475,8.422a4.2,4.2,0,0,0,1.358-.272s-.272-10.256-.34-11.615c0-1.358.747-1.63,1.97-2.921.883-.951,2.038-2.377,2.038-2.377a8.4,8.4,0,0,0-1.426-.951c-.408-.068-4.958,2.581-4.958,2.581" transform="translate(-124.368 -56.442)"/><path class="a" d="M455.815,105.119c.951-.747,7.336-1.426,9.237,2.174,2.445,4.687-.747,11.343-1.766,11.343-1.155-.068-2.241-4.483-3.464-6.792C457.445,107.293,454.932,105.8,455.815,105.119Z" transform="translate(-146.183 -33.529)"/><path class="a" d="M322,112.958c-.883-.543-6.385-.679-7.743,2.513-1.766,4.143,1.426,9.645,2.309,9.577,1.019-.136,1.63-3.94,2.445-6.045C320.705,114.86,322.811,113.433,322,112.958Z" transform="translate(-100.655 -36.138)"/><path class="e" d="M241.814,433.389s-17.184,67.922.883,114.042c0,0,13.517,33.078,17.8,36.474,7.132,5.705,39.6,14.671,82.254,17.524,36.542,2.445,93.8-5.841,103.446-12.973a66.109,66.109,0,0,0,7.471-14.943c9.985-30.361,24.112-76.209,13.381-132.177L426.019,378.1,260.968,430.6Z" transform="translate(-75.221 -121.495)"/><path class="f" d="M428.188,359.884s-9.305,9.169-23.7,1.426c-6.588-3.532-7.4-2.038-8.219-1.155a10.114,10.114,0,0,0-1.834,4.822,62.528,62.528,0,0,1-2.921,11.954c-1.97,5.094-6.317,9.17-8.966,12.5-3.8,4.075,5.23,14.2,5.23,14.2,22.822,27.848,42.044,33.757,53.727,32.127,24.112-3.4,27.169-27.3,28.188-39.667,1.019-12.43-6.249-39.191-19.7-58.006-15.215-21.26-29.818-54.338-29.818-54.338.2-7.4,1.562-14.6-3.532-19.358-5.162-4.755-22.279-.136-22.279-.136-13.72,3.872-36.882,7.675-55.221,7.064-35.252-1.223-54.678-11.615-64.119-4.143-5.5,4.347-2.377,18.339-2.377,18.339s-12.294,22.958-22.89,44.15-28.052,59.025-14.807,94.684" transform="translate(-73.858 -84.228)"/><g transform="translate(216 189.971)"><g transform="translate(1.807 3.098)"><path class="g" d="M363.151,402.517l-12.362,3.872c-6.521,1.9-10.868-5.5-8.9-10.8,2.309-6.181-1.562-14.06-2.174-16.573-.679-2.513-6.588-11.479-12.294-26.49a64.743,64.743,0,0,1-2.581-38.987c1.494-7.607-3.124-22.075-4.143-25.2l6.249-1.97,6.249-1.97c.951,3.124,5.434,17.66,11,23.094a65.484,65.484,0,0,1,20.173,33.486c3.872,15.622,3.8,26.49,4.687,28.867s2.241,11.071,7.675,14.807c4.619,3.192,5.3,11.818-1.155,13.924Z" transform="translate(-320.7 -284.4)"/></g><g transform="translate(1.807 5.135)"><path class="g" d="M341.892,396.619c2.309-6.181-1.562-14.06-2.174-16.573-.679-2.513-6.588-11.479-12.294-26.49a64.743,64.743,0,0,1-2.581-38.987c1.494-7.607-3.124-22.075-4.143-25.2l6.249-1.97,36.2,116.147-12.362,3.872C344.269,409.321,339.922,401.917,341.892,396.619Z" transform="translate(-320.7 -287.4)"/></g><path class="g" d="M319.711,287.216l12.973-4.075a.835.835,0,0,0,.543-1.087l-.543-1.63a.835.835,0,0,0-1.087-.543l-12.973,4.075a.835.835,0,0,0-.543,1.087l.543,1.63A.89.89,0,0,0,319.711,287.216Z" transform="translate(-318.039 -279.839)"/><g transform="translate(0.175 2.011)"><path class="g" d="M326.246,286.128l-5.5,1.7a1.894,1.894,0,0,1-2.377-1.087h0a1.862,1.862,0,0,1,1.29-2.241l5.5-1.7Z" transform="translate(-318.298 -282.8)"/></g><g transform="translate(13.83 66.673)"><g transform="translate(15.079)"><path class="h" d="M375.475,378s1.358,12.158,2.038,16.913c.611,4.755,4.211,18.814,8.49,21.328,3.736,2.241,5.5,8.151,1.087,9.577-4.347,1.358-12.022,3.8-12.022,3.8L360.6,382.755Z" transform="translate(-360.6 -378)"/></g><g transform="translate(0 4.687)"><path class="h" d="M351.373,426.876c2.038-4.483-3.124-17.864-5.3-22.143s-7.675-15.147-7.675-15.147h.068l14.875-4.687h.068l14.467,46.866s-7.675,2.377-12.022,3.8h-.068C351.441,436.929,349.539,430.815,351.373,426.876Z" transform="translate(-338.4 -384.9)"/></g></g><g transform="translate(30.69 100.396)"><g class="i"><path class="j" d="M373.9,426.9l1.019,7v-7Z" transform="translate(-366.648 -427.409)"/></g><g class="i"><path class="j" d="M373.3,426.9l1.223,8.49h.2V433.9l-1.019-7Z" transform="translate(-366.455 -427.409)"/></g><g class="i"><path class="j" d="M372.7,426.9l1.223,8.49h.408l-1.223-8.49Z" transform="translate(-366.263 -427.409)"/></g><g class="i"><path class="j" d="M372.1,426.9l1.223,8.49h.408l-1.223-8.49Z" transform="translate(-366.071 -427.409)"/></g><g class="i"><path class="j" d="M371.5,426.9l1.223,8.49h.407l-1.223-8.49Z" transform="translate(-365.878 -427.409)"/></g><g class="i"><path class="k" d="M370.9,426.9l1.223,8.49h.408l-1.223-8.49Z" transform="translate(-365.685 -427.409)"/></g><g class="i"><path class="l" d="M370.3,426.9l1.291,8.49h.34l-1.223-8.49Z" transform="translate(-365.493 -427.409)"/></g><g class="i"><path class="m" d="M369.7,426.9l1.29,8.49h.408l-1.291-8.49Z" transform="translate(-365.301 -427.409)"/></g><g class="i"><path class="n" d="M369.1,426.9l1.291,8.49h.408l-1.291-8.49Z" transform="translate(-365.108 -427.409)"/></g><g class="i"><path class="o" d="M368.5,426.9l1.291,8.49h.408l-1.291-8.49Z" transform="translate(-364.916 -427.409)"/></g><g class="i"><path class="p" d="M367.9,426.9l1.291,8.49h.408l-1.29-8.49Z" transform="translate(-364.723 -427.409)"/></g><g class="i"><path class="q" d="M367.4,426.9l1.223,8.49h.408l-1.291-8.49Z" transform="translate(-364.563 -427.409)"/></g><g class="i"><path class="r" d="M366.8,426.9l1.223,8.49h.408l-1.223-8.49Z" transform="translate(-364.37 -427.409)"/></g><g class="i"><path class="s" d="M366.2,426.9l1.223,8.49h.408l-1.223-8.49Z" transform="translate(-364.178 -427.409)"/></g><g class="i"><path class="t" d="M365.6,426.9l1.223,8.49h.408l-1.223-8.49Z" transform="translate(-363.985 -427.409)"/></g><g class="i"><path class="u" d="M365,426.9l1.223,8.49h.408l-1.223-8.49Z" transform="translate(-363.793 -427.409)"/></g><g class="i"><path class="u" d="M364.8,426.9l1.291,8.49h.068l-1.223-8.49Z" transform="translate(-363.729 -427.409)"/></g><g class="i"><path class="v" d="M364.7,426.9l1.223,8.49h.136l-1.291-8.49Z" transform="translate(-363.697 -427.409)"/></g><g class="i"><path class="w" d="M364.5,426.9l1.29,8.49h.068l-1.223-8.49Z" transform="translate(-363.633 -427.409)"/></g><g class="i"><path class="x" d="M364.4,426.9l1.223,8.49h.136l-1.29-8.49Z" transform="translate(-363.6 -427.409)"/></g><g class="i"><path class="y" d="M364.2,426.9l1.291,8.49h.068l-1.223-8.49Z" transform="translate(-363.536 -427.409)"/></g><g class="i"><path class="z" d="M364.1,426.9l1.223,8.49h.136l-1.291-8.49Z" transform="translate(-363.504 -427.409)"/></g><g class="i"><path class="aa" d="M364,426.9l1.223,8.49h.068l-1.223-8.49Z" transform="translate(-363.472 -427.409)"/></g><g class="i"><path class="ab" d="M363.8,426.9l1.223,8.49h.136l-1.223-8.49Z" transform="translate(-363.408 -427.409)"/></g><g class="i"><path class="ac" d="M363.7,426.9l1.223,8.49h.068l-1.223-8.49Z" transform="translate(-363.376 -427.409)"/></g><g class="i"><path class="ad" d="M363.5,426.9l1.291,8.49h.068l-1.223-8.49Z" transform="translate(-363.312 -427.409)"/></g><g class="i"><path class="ae" d="M363.4,426.9l1.223,8.49h.136l-1.291-8.49Z" transform="translate(-363.28 -427.409)"/></g><g class="i"><path class="af" d="M363.2,426.9l1.29,8.49h.068l-1.223-8.49Z" transform="translate(-363.216 -427.409)"/></g><g class="i"><path class="ag" d="M363.1,426.9l1.223,8.49h.136l-1.291-8.49Z" transform="translate(-363.184 -427.409)"/></g><g class="i"><path class="ah" d="M362.9,426.9l1.291,8.49h.068l-1.223-8.49Z" transform="translate(-363.119 -427.409)"/></g><g class="i"><path class="ai" d="M362.8,426.9l1.223,8.49h.136l-1.291-8.49Z" transform="translate(-363.087 -427.409)"/></g><g class="i"><path class="aj" d="M362.7,426.9l1.223,8.49h.068l-1.223-8.49Z" transform="translate(-363.055 -427.409)"/></g><g class="i"><path class="aj" d="M362.5,427.036l1.223,8.354h.136l-1.223-8.49H362.5Z" transform="translate(-362.991 -427.409)"/></g><g class="i"><path class="ak" d="M362.5,427.779l1.155,7.675h.068L362.5,427.1Z" transform="translate(-362.991 -427.473)"/></g><g class="i"><path class="ak" d="M362.5,428.779l1.019,7h.136L362.5,428.1Z" transform="translate(-362.991 -427.794)"/></g><g class="i"><path class="ak" d="M363.519,436.1l-1.019-7v7Z" transform="translate(-362.991 -428.115)"/></g></g><g transform="translate(26.062 74.269)"><g transform="translate(0 0)"><g class="al" transform="translate(0)"><path class="j" d="M366,389.8l.747,5.57V389.8Z" transform="translate(-359.486 -389.381)"/></g><g class="al" transform="translate(0)"><path class="j" d="M365.5,389.8l.951,6.724h.136V395.37l-.747-5.57Z" transform="translate(-359.325 -389.381)"/></g><g class="al" transform="translate(0)"><path class="j" d="M365,389.8l1.019,6.724h.272l-.951-6.724Z" transform="translate(-359.165 -389.381)"/></g><g class="al" transform="translate(0)"><path class="j" d="M364.5,389.8l1.019,6.724h.34L364.84,389.8Z" transform="translate(-359.004 -389.381)"/></g><g class="al" transform="translate(0)"><path class="j" d="M364.1,389.8l.951,6.724h.34l-1.019-6.724Z" transform="translate(-358.876 -389.381)"/></g><g class="al" transform="translate(0)"><path class="k" d="M363.6,389.8l.951,6.724h.34l-.951-6.724Z" transform="translate(-358.716 -389.381)"/></g><g class="al" transform="translate(0)"><path class="l" d="M363.1,389.8l1.019,6.724h.272l-.951-6.724Z" transform="translate(-358.555 -389.381)"/></g><g class="al" transform="translate(0)"><path class="m" d="M362.7,389.8l.951,6.724h.34l-1.019-6.724Z" transform="translate(-358.427 -389.381)"/></g><g class="al" transform="translate(0)"><path class="n" d="M362.2,389.8l.951,6.724h.34l-.951-6.724Z" transform="translate(-358.267 -389.381)"/></g><g class="al" transform="translate(0)"><path class="o" d="M361.7,389.8l1.019,6.724h.272l-.951-6.724Z" transform="translate(-358.106 -389.381)"/></g><g class="al" transform="translate(0)"><path class="p" d="M361.2,389.8l1.019,6.724h.34L361.54,389.8Z" transform="translate(-357.946 -389.381)"/></g><g class="al" transform="translate(0)"><path class="q" d="M360.8,389.8l.951,6.724h.34l-1.019-6.724Z" transform="translate(-357.818 -389.381)"/></g><g class="al" transform="translate(0)"><path class="r" d="M360.3,389.8l1.019,6.724h.272l-.951-6.724Z" transform="translate(-357.657 -389.381)"/></g><g class="al" transform="translate(0)"><path class="s" d="M359.8,389.8l1.019,6.724h.34L360.14,389.8Z" transform="translate(-357.497 -389.381)"/></g><g class="al" transform="translate(0)"><path class="t" d="M359.4,389.8l.951,6.724h.34l-1.019-6.724Z" transform="translate(-357.368 -389.381)"/></g><g class="al" transform="translate(0)"><path class="u" d="M358.9,389.8l.951,6.724h.34l-.951-6.724Z" transform="translate(-357.208 -389.381)"/></g><g class="al" transform="translate(0)"><path class="u" d="M358.8,389.8l.951,6.724h.068l-.951-6.724Z" transform="translate(-357.176 -389.381)"/></g><g class="al" transform="translate(0)"><path class="v" d="M358.7,389.8l.951,6.724h.068l-.951-6.724Z" transform="translate(-357.144 -389.381)"/></g><g class="al" transform="translate(0)"><path class="w" d="M358.5,389.8l1.019,6.724h.068l-.951-6.724Z" transform="translate(-357.08 -389.381)"/></g><g class="al" transform="translate(0)"><path class="x" d="M358.4,389.8l1.019,6.724h.068l-1.019-6.724Z" transform="translate(-357.048 -389.381)"/></g><g class="al" transform="translate(0)"><path class="y" d="M358.3,389.8l1.019,6.724h.068l-1.019-6.724Z" transform="translate(-357.016 -389.381)"/></g><g class="al" transform="translate(0)"><path class="z" d="M358.2,389.8l.951,6.724h.136l-1.019-6.724Z" transform="translate(-356.984 -389.381)"/></g><g class="al" transform="translate(0)"><path class="aa" d="M358.1,389.8l.951,6.724h.068l-.951-6.724Z" transform="translate(-356.951 -389.381)"/></g><g class="al" transform="translate(0)"><path class="ab" d="M358,389.8l.951,6.724h.068l-.951-6.724Z" transform="translate(-356.919 -389.381)"/></g><g class="al" transform="translate(0)"><path class="ac" d="M357.9,389.8l.951,6.724h.068l-.951-6.724Z" transform="translate(-356.887 -389.381)"/></g><g class="al" transform="translate(0)"><path class="ad" d="M357.7,389.8l1.019,6.724h.068l-.951-6.724Z" transform="translate(-356.823 -389.381)"/></g><g class="al" transform="translate(0)"><path class="ae" d="M357.6,389.8l1.019,6.724h.068l-1.019-6.724Z" transform="translate(-356.791 -389.381)"/></g><g class="al" transform="translate(0)"><path class="af" d="M357.5,389.8l1.019,6.724h.068l-1.019-6.724Z" transform="translate(-356.759 -389.381)"/></g><g class="al" transform="translate(0)"><path class="ag" d="M357.4,389.8l.951,6.724h.136l-1.019-6.724Z" transform="translate(-356.727 -389.381)"/></g><g class="al" transform="translate(0)"><path class="ah" d="M357.3,389.8l.951,6.724h.068l-.951-6.724Z" transform="translate(-356.695 -389.381)"/></g><g class="al" transform="translate(0)"><path class="ai" d="M357.2,389.8l.951,6.724h.068l-.951-6.724Z" transform="translate(-356.663 -389.381)"/></g><g class="al" transform="translate(0)"><path class="aj" d="M357.1,389.8l.951,6.724h.068l-.951-6.724Z" transform="translate(-356.631 -389.381)"/></g><g class="al" transform="translate(0)"><path class="aj" d="M357,389.936l.951,6.588h.068l-.951-6.724H357Z" transform="translate(-356.599 -389.381)"/></g><g class="al" transform="translate(0)"><path class="ak" d="M357,390.543l.883,6.045h.068L357,390Z" transform="translate(-356.599 -389.445)"/></g><g class="al" transform="translate(0)"><path class="ak" d="M357,391.275l.815,5.57h.068L357,390.8Z" transform="translate(-356.599 -389.701)"/></g><g class="al" transform="translate(0)"><path class="ak" d="M357.815,397.07,357,391.5v5.57Z" transform="translate(-356.599 -389.926)"/></g></g></g><g transform="translate(31.882 79.969)"><g transform="translate(0 0)"><g class="am"><path class="j" d="M377.4,398.4l1.019,7.132V398.4Z" transform="translate(-368.962 -397.84)"/></g><g class="am"><path class="j" d="M376.7,398.4l1.29,8.626h.2v-1.494l-1.019-7.132Z" transform="translate(-368.738 -397.84)"/></g><g class="am"><path class="j" d="M376.1,398.4l1.29,8.626h.408l-1.291-8.626Z" transform="translate(-368.545 -397.84)"/></g><g class="am"><path class="j" d="M375.5,398.4l1.291,8.626h.408l-1.29-8.626Z" transform="translate(-368.353 -397.84)"/></g><g class="am"><path class="j" d="M374.9,398.4l1.291,8.626h.408l-1.29-8.626Z" transform="translate(-368.16 -397.84)"/></g><g class="am"><path class="k" d="M374.3,398.4l1.291,8.626H376l-1.291-8.626Z" transform="translate(-367.968 -397.84)"/></g><g class="am"><path class="l" d="M373.7,398.4l1.29,8.626h.408l-1.291-8.626Z" transform="translate(-367.775 -397.84)"/></g><g class="am"><path class="m" d="M373.1,398.4l1.291,8.626h.408l-1.291-8.626Z" transform="translate(-367.583 -397.84)"/></g><g class="am"><path class="n" d="M372.5,398.4l1.29,8.626h.408l-1.29-8.626Z" transform="translate(-367.391 -397.84)"/></g><g class="am"><path class="o" d="M371.9,398.4l1.29,8.626h.408l-1.291-8.626Z" transform="translate(-367.198 -397.84)"/></g><g class="am"><path class="p" d="M371.3,398.4l1.291,8.626H373l-1.29-8.626Z" transform="translate(-367.006 -397.84)"/></g><g class="am"><path class="q" d="M370.7,398.4l1.223,8.626h.475l-1.291-8.626Z" transform="translate(-366.813 -397.84)"/></g><g class="am"><path class="r" d="M370.1,398.4l1.223,8.626h.408l-1.223-8.626Z" transform="translate(-366.621 -397.84)"/></g><g class="am"><path class="s" d="M369.5,398.4l1.223,8.626h.408l-1.223-8.626Z" transform="translate(-366.428 -397.84)"/></g><g class="am"><path class="t" d="M368.9,398.4l1.223,8.626h.408l-1.223-8.626Z" transform="translate(-366.236 -397.84)"/></g><g class="am"><path class="u" d="M368.3,398.4l1.223,8.626h.408l-1.223-8.626Z" transform="translate(-366.043 -397.84)"/></g><g class="am"><path class="u" d="M368.1,398.4l1.291,8.626h.068l-1.223-8.626Z" transform="translate(-365.979 -397.84)"/></g><g class="am"><path class="v" d="M368,398.4l1.223,8.626h.136l-1.291-8.626Z" transform="translate(-365.947 -397.84)"/></g><g class="am"><path class="w" d="M367.8,398.4l1.291,8.626h.068l-1.223-8.626Z" transform="translate(-365.883 -397.84)"/></g><g class="am"><path class="x" d="M367.7,398.4l1.223,8.626h.136l-1.291-8.626Z" transform="translate(-365.851 -397.84)"/></g><g class="am"><path class="y" d="M367.5,398.4l1.29,8.626h.068l-1.223-8.626Z" transform="translate(-365.787 -397.84)"/></g><g class="am"><path class="z" d="M367.4,398.4l1.223,8.626h.136l-1.291-8.626Z" transform="translate(-365.755 -397.84)"/></g><g class="am"><path class="aa" d="M367.2,398.4l1.29,8.626h.068l-1.223-8.626Z" transform="translate(-365.69 -397.84)"/></g><g class="am"><path class="ab" d="M367.1,398.4l1.223,8.626h.136l-1.291-8.626Z" transform="translate(-365.658 -397.84)"/></g><g class="am"><path class="ac" d="M366.9,398.4l1.29,8.626h.068l-1.223-8.626Z" transform="translate(-365.594 -397.84)"/></g><g class="am"><path class="ad" d="M366.8,398.4l1.223,8.626h.136l-1.29-8.626Z" transform="translate(-365.562 -397.84)"/></g><g class="am"><path class="ae" d="M366.6,398.4l1.291,8.626h.068l-1.223-8.626Z" transform="translate(-365.498 -397.84)"/></g><g class="am"><path class="af" d="M366.5,398.4l1.223,8.626h.136l-1.291-8.626Z" transform="translate(-365.466 -397.84)"/></g><g class="am"><path class="ag" d="M366.3,398.4l1.291,8.626h.068l-1.223-8.626Z" transform="translate(-365.402 -397.84)"/></g><g class="am"><path class="ah" d="M366.2,398.4l1.223,8.626h.136l-1.291-8.626Z" transform="translate(-365.37 -397.84)"/></g><g class="am"><path class="ai" d="M366,398.4l1.29,8.626h.068l-1.223-8.626Z" transform="translate(-365.305 -397.84)"/></g><g class="am"><path class="aj" d="M365.9,398.4l1.223,8.626h.136l-1.29-8.626Z" transform="translate(-365.273 -397.84)"/></g><g class="am"><path class="aj" d="M365.8,398.536l1.223,8.49h.068l-1.223-8.626H365.8Z" transform="translate(-365.241 -397.84)"/></g><g class="am"><path class="ak" d="M365.8,399.279l1.087,7.811h.136L365.8,398.6Z" transform="translate(-365.241 -397.904)"/></g><g class="am"><path class="ak" d="M365.8,400.279l1.019,7.132h.068L365.8,399.6Z" transform="translate(-365.241 -398.225)"/></g><g class="am"><path class="ak" d="M366.819,407.732,365.8,400.6v7.132Z" transform="translate(-365.241 -398.545)"/></g></g></g><g transform="translate(6.812 35.497)"><path class="h" d="M351.455,332.1s11.275,14.4,13.652,31.72l-29.954,8.83s-9.305-20.445-6.588-33.961Z" transform="translate(-328.068 -332.1)"/></g></g><path class="f" d="M261.756,370.041s9.305,9.17,23.7,1.426c6.588-3.532,7.4-2.038,8.219-1.155a10.114,10.114,0,0,1,1.834,4.822,62.526,62.526,0,0,0,2.921,11.954c1.97,5.094,6.317,9.17,8.966,12.5,3.8,4.075-5.23,14.2-5.23,14.2-22.822,27.848-42.044,33.757-53.727,32.127-24.112-3.4-27.169-27.3-28.188-39.667-1.019-12.43,6.249-39.191,19.7-58.006,15.215-21.26,29.818-54.338,29.818-54.338" transform="translate(-70.637 -94.391)"/><path class="an" d="M385.1,544.5" transform="translate(-123.553 -174.813)"/><g transform="translate(282.736 233.422)"><path class="ao" d="M426.134,414.175S420.021,399.843,419,388.7a54.4,54.4,0,0,1,9.034-34.912s2.717-6.045,5.5-7.471,3.736-1.9,6.045-1.9,6.521-2.241,9.781,1.97c4.958,6.317,6.521,7.879,7.879,10.664,1.426,2.785,3.4,9.034,1.494,12.837-1.63,3.328-4.551,12.5-7.743,17.66s-11.071,12.634-12.905,15.894S432.18,414.65,426.134,414.175Z" transform="translate(-417.101 -343.823)"/><path class="ap" d="M439.9,350.722a7.326,7.326,0,0,0,2.377,4.619c3.668,3.8,7,6.928,6.113,9.713s2.309,6.181,3.328,6.453c2.785.883,4.211,1.358,7,2.241,2.241.747,5.5-1.834,5.57-5.162.068-5.57-.543-11.207-6.317-17.388-5.026-5.366-8.694-5.3-11-5.3C444.519,346.036,440.375,346.987,439.9,350.722Z" transform="translate(-423.87 -344.489)"/><path class="aq" d="M452.408,361.613s4.211,3.668,3.328,6.453-.883,5.094,6.113,7.4c0,0,.475.951-.951.475s-3.736-.408-5.57-1.834a4.61,4.61,0,0,1-1.426-5.094,6.292,6.292,0,0,0-1.9-6.045C450.1,361.545,451.933,360.662,452.408,361.613Z" transform="translate(-427.481 -349.402)"/><path class="aq" d="M450.517,349.182a10.332,10.332,0,0,0-4.143.951c-1.834.951-1.358,1.9-.883,2.785.475.951,0,2.309-.951.475s-.951-4.143,2.309-4.687C450.042,348.232,451.4,348.707,450.517,349.182Z" transform="translate(-425.182 -345.326)"/><path class="aq" d="M471.219,372.6s.475.951-1.358,1.9.475.951,0,2.309.951,1.834,1.426.475C471.694,375.86,472.645,373.075,471.219,372.6Z" transform="translate(-433.25 -353.054)"/><path class="ar" d="M437.467,373.945s-2.377-4.619-1.9-6.045l-.951.475c-.951.476.068,1.223.475,3.26a8.479,8.479,0,0,0,1.9,3.736A1.041,1.041,0,0,0,437.467,373.945Z" transform="translate(-422.048 -351.546)"/><path class="ar" d="M441.551,395.4A35.335,35.335,0,0,1,437,399s-.068,1.63,1.155.883,3.6-2.717,3.6-2.717S443.113,395.672,441.551,395.4Z" transform="translate(-422.94 -360.367)"/><path class="ar" d="M467.07,392.321a31.307,31.307,0,0,1,3.94-.883c2.038-.272,3.4-.136,3.192.543s-.883.2-1.766.611c-.883.34-2.445.136-3.6.815-1.087.679-1.358.815-2.038.475C466.187,393.612,467.07,392.321,467.07,392.321Z" transform="translate(-432.429 -359.054)"/><path class="ar" d="M420.647,395.735s-2.989-2.717-3.328-3.668-1.019.815-1.019.815,1.97,3.328,3.872,4.415a17.8,17.8,0,0,1,1.834,1.087l.679-1.223Z" transform="translate(-416.3 -359.208)"/><path class="ar" d="M426.517,426.8s-1.087,3.464-2.174,4.279-.679,1.63-.679,1.63a2.573,2.573,0,0,0,1.7-.611,19.749,19.749,0,0,0,2.241-4.007S429.166,426.936,426.517,426.8Z" transform="translate(-418.638 -370.44)"/></g><path class="as" d="M461,408.61s1.9,13.245-12.837,26.218c0,0-3.6-.068-8.83-3.4-5.23-3.4-6.86-6.045-6.113-8.354,1.494-4.483,7.268-1.97,7.268-1.97s-5.026-2.513-4.483-5.773a5.511,5.511,0,0,1,7.743-3.6l1.155.611s-5.162-1.63-4.619-5.434c.2-1.63,1.766-4.551,6.86-3.6C452.305,404.331,461,408.61,461,408.61Z" transform="translate(-138.937 -129.432)"/><g transform="translate(167.647 126.61)"><path class="at" d="M280.9,206.3s2.785,6.453,6.656,6.656" transform="translate(-257.767 -192.84)"/><path class="au" d="M283.066,216.489s-2.309.2-5.366-2.989" transform="translate(-256.741 -195.15)"/><path class="at" d="M283.934,220.917s-6.86.34-9.034-2.717" transform="translate(-255.843 -196.657)"/><path class="at" d="M281.613,200.3a4.955,4.955,0,0,0,1.155-5.162,5.385,5.385,0,0,0-2.445-3.328,6.223,6.223,0,0,0-8.422,2.174" transform="translate(-254.88 -187.928)"/><path class="at" d="M265.707,191.249s-.815-4.551-6.249-4.755a8.852,8.852,0,0,0-5.909,1.7c-1.426,1.019-4.279,4.822-2.513,9.034.611,1.426,2.309,3.8,4.551,4.007" transform="translate(-248.008 -186.484)"/><path class="at" d="M251.025,206.1s-6.453,2.989-3.328,9.441c0,0,3.464,6.588,10.392,3.6" transform="translate(-246.842 -192.776)"/><path class="at" d="M262.9,221.1s-.2,3.328,3.872,3.939a5.177,5.177,0,0,0,5.5-3.939" transform="translate(-251.993 -197.588)"/></g><path class="av" d="M382.1,197.532s12.973,3.872,19.969-7.132" transform="translate(-122.591 -61.129)"/><path class="as" d="M328.962,408.61s-1.9,13.245,12.837,26.218c0,0,3.6-.068,8.83-3.4,5.23-3.4,6.86-6.045,6.113-8.354-1.494-4.483-7.268-1.97-7.268-1.97s5.026-2.513,4.483-5.773a5.511,5.511,0,0,0-7.743-3.6l-1.155.611s5.162-1.63,4.619-5.434c-.2-1.63-1.766-4.551-6.86-3.6C337.656,404.331,328.962,408.61,328.962,408.61Z" transform="translate(-105.517 -129.432)"/><g transform="translate(27.441 101.77)"><line class="aw" y2="13.652" transform="translate(22.075)"/><line class="aw" y2="13.652" transform="translate(22.075 30.429)"/><g transform="translate(5.841 7.064)"><line class="aw" x1="10.053" y2="9.237" transform="translate(22.346)"/><line class="aw" x1="10.053" y2="9.237" transform="translate(0 20.648)"/></g><line class="aw" x2="13.652" transform="translate(0 22.007)"/><line class="aw" x2="13.652" transform="translate(30.429 22.007)"/><path class="ax" d="M71.8,201.3" transform="translate(-50.472 -166.388)"/><g transform="translate(5.841 7.064)"><line class="aw" x2="10.053" y2="9.237"/><line class="aw" x2="10.053" y2="9.237" transform="translate(22.346 20.648)"/></g></g><g transform="translate(82.254 170.269)"><line class="aw" y2="21.939" transform="translate(35.455)"/><line class="aw" y2="22.007" transform="translate(35.455 48.972)"/><g transform="translate(9.373 11.411)"><line class="aw" x1="16.166" y2="14.943" transform="translate(36.067)"/><line class="aw" x1="16.166" y2="14.875" transform="translate(0 33.214)"/></g><line class="aw" x2="21.939" transform="translate(0 35.455)"/><line class="aw" x2="21.939" transform="translate(49.04 35.455)"/><path class="ax" d="M171.6,333.6" transform="translate(-137.299 -277.36)"/><g transform="translate(9.373 11.411)"><line class="aw" x2="16.166" y2="14.943"/><line class="aw" x2="16.166" y2="14.875" transform="translate(36.067 33.214)"/></g></g><g transform="translate(376.253 57.938)"><line class="aw" y2="30.361" transform="translate(49.04)"/><line class="aw" y2="30.361" transform="translate(49.04 67.719)"/><g transform="translate(12.973 15.758)"><line class="aw" x1="22.346" y2="20.58" transform="translate(49.855)"/><line class="aw" x1="22.346" y2="20.58" transform="translate(0 45.916)"/></g><line class="aw" x2="30.361" transform="translate(0 49.04)"/><line class="aw" x2="30.429" transform="translate(67.719 49.04)"/><path class="ax" d="M623.9,199.7" transform="translate(-576.422 -121.997)"/><g transform="translate(12.973 15.758)"><line class="aw" x2="22.346" y2="20.58"/><line class="aw" x2="22.346" y2="20.58" transform="translate(49.855 45.916)"/></g></g><g transform="translate(495.382 30.701)"><line class="aw" y2="10.256" transform="translate(16.641)"/><line class="aw" y2="10.324" transform="translate(16.641 22.89)"/><g transform="translate(4.415 5.366)"><line class="aw" x1="7.607" y2="6.928" transform="translate(16.845)"/><line class="aw" x1="7.539" y2="6.996" transform="translate(0 15.486)"/></g><line class="aw" x2="10.324" transform="translate(0 16.573)"/><line class="aw" x2="10.256" transform="translate(22.958 16.573)"/><path class="ax" d="M753.1,83.9" transform="translate(-737.002 -57.614)"/><g transform="translate(4.415 5.366)"><line class="aw" x2="7.539" y2="6.928"/><line class="aw" x2="7.607" y2="6.996" transform="translate(16.845 15.486)"/></g></g><g transform="translate(593.318 162.944)"><line class="aw" x1="9.237" y2="8.422" transform="translate(20.445)"/><line class="aw" x1="9.17" y2="8.49" transform="translate(0 18.815)"/><path class="ax" d="M894.5,277.4" transform="translate(-880.304 -251.997)"/><line class="aw" x2="9.17" y2="8.422"/><line class="aw" x2="9.237" y2="8.49" transform="translate(20.445 18.815)"/></g><g transform="translate(36.61 294.319)"><line class="aw" x1="6.045" y2="5.502" transform="translate(13.381)"/><line class="aw" x1="5.977" y2="5.502" transform="translate(0 12.362)"/><path class="ax" d="M67.5,458" transform="translate(-58.263 -441.359)"/><line class="aw" x2="5.977" y2="5.502"/><line class="aw" x2="6.045" y2="5.502" transform="translate(13.381 12.362)"/></g><circle class="h" cx="11.886" cy="11.886" r="11.886" transform="translate(0 255.076)"/><circle class="h" cx="5.094" cy="5.094" r="5.094" transform="translate(57.055 202.8)"/><circle class="h" cx="11.071" cy="11.071" r="11.071" transform="translate(86.058 71.726)"/><circle class="h" cx="8.015" cy="8.015" r="8.015" transform="translate(458.097)"/><circle class="h" cx="16.301" cy="16.301" r="16.301" transform="translate(553.04 121.257)"/><circle class="h" cx="9.373" cy="9.373" r="9.373" transform="translate(451.781 295.406)"/><g transform="translate(386.465 207.548)"><path class="j" d="M573.587,342.971a3.454,3.454,0,0,1-2.785-1.087,3.511,3.511,0,0,1-.543-2.921,4.617,4.617,0,0,1,4.619-3.736h7.539l2.377-11.275a5.271,5.271,0,0,1,5.434-4.143,4.1,4.1,0,0,1,3.328,1.358,3.677,3.677,0,0,1,.611,3.124l-2.309,11H605.1a3.454,3.454,0,0,1,2.785,1.087,3.511,3.511,0,0,1,.543,2.921,4.617,4.617,0,0,1-4.619,3.736H573.587Zm26.965-8.287a4.873,4.873,0,0,1-1.97-.408,2.98,2.98,0,0,1-1.562-1.834,4.675,4.675,0,0,1,.747-3.668c1.766-2.717,3.057-6.317,4.143-11.343l.543-2.445v-.136H580.99a3.355,3.355,0,0,1-2.785-1.155,3.593,3.593,0,0,1-.611-3.057,4.939,4.939,0,0,1,4.823-3.939h24.045c2.513,0,4.075.543,4.958,1.63s1.019,2.513.543,4.823l-1.019,4.619c-1.358,6.317-3.124,11.071-5.366,14.2A6.315,6.315,0,0,1,600.552,334.684Z" transform="translate(-569.396 -306.021)"/><path d="M606.1,307.058c4.619,0,5.705,1.766,4.89,5.638l-1.019,4.619c-1.358,6.317-3.124,10.936-5.23,13.924a5.746,5.746,0,0,1-4.551,2.445,4.1,4.1,0,0,1-1.63-.34c-1.562-.747-1.63-2.717-.476-4.551,1.766-2.717,3.125-6.317,4.211-11.547l.543-2.445a.7.7,0,0,0-.747-.951H580.76c-2.377,0-3.057-1.766-2.717-3.4a4.3,4.3,0,0,1,4.211-3.4H606.1M589.93,320.235c2.038,0,3.8,1.087,3.26,3.6l-2.513,11.819H604.8c2.377,0,2.989,1.63,2.649,3.192a3.9,3.9,0,0,1-4.007,3.192H573.289c-2.377,0-2.989-1.562-2.649-3.192a3.9,3.9,0,0,1,4.008-3.192h8.083l2.513-11.819c.408-2.581,2.581-3.6,4.687-3.6M606.1,305.7H582.051a5.609,5.609,0,0,0-5.5,4.483,4.367,4.367,0,0,0,.747,3.6,4.048,4.048,0,0,0,3.328,1.426h20.648l-.408,1.834c-1.019,4.958-2.309,8.49-4.007,11.071a5.478,5.478,0,0,0-.883,4.211,3.376,3.376,0,0,0,1.358,1.97h-5.094l2.174-10.12a4.108,4.108,0,0,0-.747-3.668,4.807,4.807,0,0,0-3.872-1.63,5.923,5.923,0,0,0-6.113,4.687L581.372,334.3h-6.928a5.232,5.232,0,0,0-5.3,4.279,3.743,3.743,0,0,0,3.939,4.823h30.158a5.232,5.232,0,0,0,5.3-4.279,3.743,3.743,0,0,0-3.94-4.823h-1.494a7.444,7.444,0,0,0,2.581-2.241c2.241-3.192,4.075-8.083,5.5-14.467l1.019-4.619c.34-1.562.611-3.8-.679-5.434-.883-1.291-2.649-1.834-5.434-1.834Z" transform="translate(-569.031 -305.7)"/></g><g transform="translate(428.683 206.325)"><path class="j" d="M637.572,343.272c-2.377,0-3.8-.475-4.619-1.426-.815-1.019-.951-2.581-.408-5.094L633.9,330.5a5.142,5.142,0,0,1,5.434-4.279,4.1,4.1,0,0,1,3.124,1.155,2.959,2.959,0,0,1,.747,1.97h15.35a4.839,4.839,0,0,1,3.736-2.989h-2.445a.618.618,0,0,1-.543-.272.528.528,0,0,1-.136-.543l3.4-16.03a5.456,5.456,0,0,1,5.366-4.415,3.958,3.958,0,0,1,3.124,1.358,3.806,3.806,0,0,1,.611,3.4l-.407,1.9h.407a3,3,0,0,1,2.513,1.019,3.788,3.788,0,0,1,.543,3.192,4.563,4.563,0,0,1-4.483,3.939h-.679l-1.291,6.045a.661.661,0,0,1-.679.543h-2.581a3.532,3.532,0,0,1,1.9,1.087,3.652,3.652,0,0,1,.543,3.328l-2.581,11.954a.661.661,0,0,1-.679.543H637.572Zm4.483-6.589H656.93l.2-1.019H641.987l-.2.815v.136C641.851,336.684,641.919,336.684,642.055,336.684Zm-2.241-11.275c-2.445,0-3.872-.408-4.687-1.426-.815-.951-.883-2.445-.407-4.822l1.494-7.064c.951-4.483,2.785-5.977,7.336-5.977h13.313a2.779,2.779,0,0,1,2.241.951,3.457,3.457,0,0,1,.475,2.921,4.123,4.123,0,0,1-4.075,3.464H645.451c-.544,0-.544.068-.611.34l-.883,4.143v.136h11.751a2.833,2.833,0,0,1,2.309.951,3.446,3.446,0,0,1,.543,2.785,4.188,4.188,0,0,1-4.075,3.532H639.814Z" transform="translate(-631.523 -304.285)"/><path d="M667.6,305.258a2.931,2.931,0,0,1,3.057,3.872l-.543,2.717h1.223c2.377,0,2.717,1.834,2.377,3.4a3.894,3.894,0,0,1-3.8,3.4h-1.223l-1.426,6.588h-7.811l3.4-16.03a4.914,4.914,0,0,1,4.755-3.939m-11,1.155c2.038,0,2.377,1.63,2.106,3.056a3.461,3.461,0,0,1-3.4,2.921H645.258c-.747,0-1.087.2-1.223.883l-.883,4.143c-.136.747.136.951.883.951h11.547c2.038,0,2.445,1.562,2.173,2.921a3.533,3.533,0,0,1-3.464,3.057H639.484c-4.347,0-5.23-1.358-4.415-5.434l1.494-7.064c.883-4.075,2.309-5.434,6.724-5.434H656.6m6.792,20.037c2.174,0,3.668,1.155,3.057,3.8l-2.581,11.954H637.243c-4.415,0-5.23-1.562-4.347-5.705l1.358-6.249a4.576,4.576,0,0,1,4.755-3.8c2.038,0,3.4.951,3.192,3.124h16.573a4.475,4.475,0,0,1,4.619-3.124m-5.705,8.151H641.182l-.272,1.358c-.2.883,0,.951.883.951h15.418l.475-2.309m9.917-30.7a6.118,6.118,0,0,0-6.045,4.958l-2.445,11.547a3.339,3.339,0,0,0-3.6-3.4H644.647l.679-3.26h9.985A4.836,4.836,0,0,0,660,309.741a4.382,4.382,0,0,0-.611-3.532,3.474,3.474,0,0,0-2.785-1.223H643.288c-4.89,0-7,1.7-8.015,6.521l-1.494,7.064c-.408,1.834-.611,3.94.543,5.434a4.507,4.507,0,0,0,2.377,1.426,5.758,5.758,0,0,0-3.8,4.483l-1.358,6.249c-.408,1.97-.679,4.143.543,5.705,1.223,1.494,3.4,1.7,5.162,1.7h26.626a1.448,1.448,0,0,0,1.358-1.087l2.581-11.954a4.418,4.418,0,0,0-.679-3.872h.2a1.448,1.448,0,0,0,1.359-1.087l1.155-5.5h.136c3.124,0,4.687-2.309,5.162-4.483a4.275,4.275,0,0,0-.679-3.736,3.565,3.565,0,0,0-2.581-1.291l.2-1.087a4.611,4.611,0,0,0-.747-3.939,5.025,5.025,0,0,0-3.736-1.63Zm-25.946,21.8h12.566a4.681,4.681,0,0,0,4.347-2.921l-.475,2.106a1.42,1.42,0,0,0,.272,1.155,1.759,1.759,0,0,0,.747.475,5.557,5.557,0,0,0-1.359,1.7H643.424a3.6,3.6,0,0,0-.883-1.766,3.213,3.213,0,0,0-.883-.747Z" transform="translate(-631.194 -303.9)"/></g><g transform="translate(471.115 206.257)"><path class="j" d="M721.75,343.24a.618.618,0,0,1-.543-.272.528.528,0,0,1-.136-.543l3.26-15.418h-.475l-3.328,15.69a.661.661,0,0,1-.679.543h-6.792a.618.618,0,0,1-.543-.272.528.528,0,0,1-.136-.543l5.841-27.576a4.371,4.371,0,0,1-1.834,1.494,9.1,9.1,0,0,1-.272,2.989l-2.853,13.381c-1.291,6.113-5.5,9.781-11.275,9.781a7.684,7.684,0,0,1-6.181-2.513c-1.426-1.766-1.834-4.347-1.155-7.607l2.853-13.381a10.822,10.822,0,0,1,.951-2.853c-1.019-.611-1.426-1.834-1.087-3.4a4.023,4.023,0,0,1,4.075-3.464h3.124A4.985,4.985,0,0,1,709.659,305a3.364,3.364,0,0,1,3.668,4.279h2.785a2.832,2.832,0,0,1,2.309.951,2.363,2.363,0,0,1,.475,1.019l.475-2.377A4.78,4.78,0,0,1,724.127,305a3.214,3.214,0,0,1,3.328,4.143L725.282,319.2h.475l2.174-10.324A4.9,4.9,0,0,1,732.753,305a3.726,3.726,0,0,1,2.853,1.223,3.562,3.562,0,0,1,.611,2.921L729.425,342.7a.661.661,0,0,1-.679.543Zm-14.06-26.9a1.608,1.608,0,0,0-1.426,1.494l-3.464,16.3c-.068.475-.068.815.068.951a.62.62,0,0,0,.543.2c.543,0,1.223-.408,1.426-1.494l3.464-16.3a1.35,1.35,0,0,0-.068-.951A.763.763,0,0,0,707.69,316.343Z" transform="translate(-693.881 -304.185)"/><path d="M732.881,305.226c1.766,0,3.26,1.155,2.785,3.328l-7.132,33.622h-6.928l3.464-16.233H723.1l-3.464,16.233h-6.792l7.132-33.554a4.152,4.152,0,0,1,4.075-3.328,2.559,2.559,0,0,1,2.717,3.328l-2.309,10.868h1.9l2.309-10.868a4.236,4.236,0,0,1,4.211-3.4m-23.3.068c2.445,0,3.4,1.426,2.921,3.8l-.136.543h3.6c1.9,0,2.445,1.29,2.106,2.921a3.566,3.566,0,0,1-2.649,2.921,9.531,9.531,0,0,1-.2,3.328l-2.853,13.381c-1.358,6.385-5.773,9.305-10.6,9.305s-8.015-2.853-6.656-9.305l2.853-13.381a11.305,11.305,0,0,1,1.223-3.328c-1.291-.34-1.7-1.494-1.358-2.921a3.339,3.339,0,0,1,3.4-2.921H704.9l.136-.543c.611-2.377,2.174-3.8,4.551-3.8m-6.453,30.293a2.3,2.3,0,0,0,2.106-2.038l3.464-16.3c.34-1.426-.543-2.038-1.29-2.038a2.251,2.251,0,0,0-2.105,2.038l-3.464,16.3c-.271,1.494.544,2.038,1.291,2.038m29.75-31.72a5.617,5.617,0,0,0-4.822,2.649,5.141,5.141,0,0,0-.611-1.223,4.174,4.174,0,0,0-3.328-1.494,5.463,5.463,0,0,0-5.434,4.415l-.136.747a3.782,3.782,0,0,0-2.513-.815H714a4.324,4.324,0,0,0-.815-2.853,4.266,4.266,0,0,0-3.6-1.426,5.554,5.554,0,0,0-5.638,4.279h-2.581a4.675,4.675,0,0,0-4.687,4.007,3.7,3.7,0,0,0,.951,3.736,12.183,12.183,0,0,0-.747,2.513l-2.853,13.381c-.747,3.464-.34,6.249,1.291,8.219,1.426,1.766,3.736,2.717,6.724,2.717a11.58,11.58,0,0,0,11.071-7.539l-1.426,6.588a1.42,1.42,0,0,0,.272,1.155,1.351,1.351,0,0,0,1.087.475h6.792a1.313,1.313,0,0,1,1.9,0h6.792a1.448,1.448,0,0,0,1.358-1.087l7.132-33.554a4.015,4.015,0,0,0-.747-3.464,4.493,4.493,0,0,0-3.4-1.426Zm-15.962,12.5h0v0ZM703.2,334.229a.738.738,0,0,1,.068-.34l3.464-16.3c.2-.815.611-.883.747-.951a.739.739,0,0,1-.068.34l-3.464,16.3c-.2.815-.611.883-.747.951Z" transform="translate(-693.669 -303.8)"/></g><g transform="translate(510.897 206.325)"><path class="j" d="M758.628,343.3a5.013,5.013,0,0,1-4.211-1.766,5.173,5.173,0,0,1-.883-4.415l.068-.475c.679-3.26,3.4-5.162,7.2-5.162h19.222l.068-.272H758.153a2.19,2.19,0,0,1-1.9-.815,2.644,2.644,0,0,1-.407-2.309,3.507,3.507,0,0,1,2.581-2.717h-.136a3.4,3.4,0,0,1-2.513-1.426,3.307,3.307,0,0,1-.272-3.056,4.186,4.186,0,0,1,4.211-2.989h.611c.747.068,1.494.136,2.173.136,4.619,0,7.607-1.562,8.219-4.347l.068-.136H761.82a3.4,3.4,0,0,1-2.717-1.087,3.446,3.446,0,0,1-.543-2.785,4.387,4.387,0,0,1,4.551-3.532h11.819c1.834,0,4.211.272,5.094,2.377h5.3a5.272,5.272,0,0,1,5.026-3.328,3.864,3.864,0,0,1,3.125,1.358,3.771,3.771,0,0,1,.611,3.26l-3.192,15.147a.661.661,0,0,1-.679.543h-3.4a3.655,3.655,0,0,1,2.513,1.155c.679.815.815,1.97.408,3.668l-1.358,6.317a.661.661,0,0,1-.679.543h-24.18c-.2,0-.34.068-.34.2v.068h22.958a2.55,2.55,0,0,1,1.97.815,2.793,2.793,0,0,1,.408,2.377,3.4,3.4,0,0,1-3.4,2.785h-26.49Zm23.433-18.067c-.068-.068-.136-.068-.2-.136a.528.528,0,0,1-.136-.543l.34-1.63h-4.687a3.258,3.258,0,0,1-2.785-1.155,19.251,19.251,0,0,1-8.762,3.532h16.234Zm1.426-9.1.2-1.019h-4.415l-.408,1.019Z" transform="translate(-752.62 -304.317)"/><path d="M789.914,305.258c2.038,0,3.668,1.358,3.124,3.8l-3.192,15.147h-7.811l.543-2.445h-5.5c-1.426,0-2.309-.611-2.513-1.562-3.192,2.853-7.879,4.211-12.905,4.211a32.886,32.886,0,0,1-3.6-.2c-1.7-.2-2.853-1.494-2.174-3.6a3.487,3.487,0,0,1,3.532-2.513h.475c.747.068,1.562.136,2.241.136,4.687,0,8.219-1.63,8.9-4.89l.068-.2c.136-.611-.068-.815-.747-.815h-8.9c-2.309,0-2.921-1.562-2.581-3.057a3.7,3.7,0,0,1,3.872-2.989h11.818c2.853,0,4.211.815,4.551,2.377h6.249a4.718,4.718,0,0,1,4.551-3.4m-5.706,8.762h-5.773a20.412,20.412,0,0,1-.951,2.445c.2,0,.408-.068.747-.068h5.5l.475-2.377m.543,11.479c3.532,0,4.551,1.019,3.939,4.143l-1.358,6.317h-24.18a.932.932,0,0,0-1.019.747v.136c-.068.408.136.747.679.747h22.958c1.562,0,1.97,1.223,1.7,2.377a2.736,2.736,0,0,1-2.717,2.309H758.195c-3.6,0-5.026-2.513-4.415-5.366l.068-.475c.611-2.853,2.989-4.619,6.588-4.619H780.2l.2-1.019c.068-.475,0-.611-.476-.611H757.787c-1.562,0-1.9-1.155-1.7-2.309a2.776,2.776,0,0,1,2.649-2.309h26.014m5.162-21.667a5.989,5.989,0,0,0-5.434,3.328h-4.415c-1.291-2.377-4.415-2.377-5.5-2.377H762.746a4.965,4.965,0,0,0-5.162,4.075,3.712,3.712,0,0,0,.679,3.328,3.974,3.974,0,0,0,3.26,1.358h8.015c-1.155,2.853-5.5,3.192-7.336,3.192-.679,0-1.426-.068-2.106-.136-.2,0-.408-.068-.679-.068a5.058,5.058,0,0,0-4.89,3.464,3.967,3.967,0,0,0,.34,3.6,3.355,3.355,0,0,0,1.358,1.223,4.774,4.774,0,0,0-1.426,2.445,3.288,3.288,0,0,0,.543,2.921,2.845,2.845,0,0,0,1.087.815,6.867,6.867,0,0,0-3.94,4.89l-.068.475a5.524,5.524,0,0,0,5.773,7h26.558a4.194,4.194,0,0,0,4.075-3.328,3.494,3.494,0,0,0-.611-2.989l-.2-.2a1.725,1.725,0,0,0,.611-.883l1.358-6.317c.272-1.223.476-2.989-.543-4.211l-.068-.068h.407a1.448,1.448,0,0,0,1.358-1.087l3.192-15.147a4.579,4.579,0,0,0-.747-3.872,5.3,5.3,0,0,0-3.668-1.426Zm-19.29,20.241a19.482,19.482,0,0,0,3.532-1.9,4.248,4.248,0,0,0,2.853.951h3.8l-.136.815v.2H770.624Z" transform="translate(-752.255 -303.9)"/></g><text class="ay" transform="translate(408.013 197.829)"><tspan x="0" y="0"></tspan></text><g transform="translate(557.419 208.018)"><path class="az" d="M826.828,337.167c3.057.747,4.415,2.989,3.8,5.773-.679,2.785-2.921,4.143-5.977,3.464-3.056-.747-4.415-2.921-3.736-5.773S823.772,336.488,826.828,337.167Zm-4.143-3.192,5.706-24.044a4.54,4.54,0,0,1,5.705-3.4,4.465,4.465,0,0,1,3.532,5.57l-5.706,24.044Z" transform="translate(-820.748 -306.394)"/></g><g transform="translate(555.042 207)"><path class="ba" d="M823.328,335.667c3.057.747,4.415,2.989,3.8,5.773-.679,2.785-2.921,4.143-5.977,3.464-3.057-.747-4.415-2.921-3.736-5.773S820.272,334.988,823.328,335.667Zm-4.143-3.192,5.706-24.044a4.54,4.54,0,0,1,5.705-3.4,4.465,4.465,0,0,1,3.532,5.57l-5.705,24.044Z" transform="translate(-817.248 -304.894)"/></g><path class="bb" d="M581.55,699.849c-6.656.2-22.55,5.57-22.55,11.547s5.094,8.151,6.385,9.17c1.358,1.019,4.279,4.958,7.471,6.588s8.966,1.63,13.313,1.223c4.415-.408,10.12,3.8,13.584,4.415s31.244,7.607,45.1-1.63c0,0,6.656-2.377,12.7-3.8,5.977-1.426,23.094-5.773,23.5-12.769s-3.464-7.4-5.094-8.558c-1.63-1.223-13.313-7.607-23.909-8.015-10.528-.408-15.079-4.958-24.18-3.8-9.1,1.223-17.592-.2-21.328,0C606.614,694.28,587.8,699.645,581.55,699.849Z" transform="translate(-179.353 -222.836)"/><path class="bc" d="M791.9,542.3s16.437.747,30.429,11.139c16.709,12.43,29.75,36.95,5.3,68.4" transform="translate(-254.075 -174.167)"/><g transform="translate(480.211 370.986)"><path class="h" d="M711.983,665.4s-5.23.611-4.89,2.921,9.577,12.7,18.2,12.634c4.822,0,9.1-.136,9.237-2.921.2-2.717-6.453-9.237-10.324-11.818-1.9-1.291-10.324-1.426-11.207-1.087" transform="translate(-707.077 -584.501)"/><g transform="translate(13.523)"><path class="a" d="M776.482,660.591a14.052,14.052,0,0,1-6.249-1.426,33.634,33.634,0,0,0-15.079-3.872,31.875,31.875,0,0,1-13.109-3.057c-12.294-5.638-16.3-35.523-12.5-46.595.476-1.359.951-2.717,1.359-4.008,4.415-13.041,7.607-22.414,21.6-38.716,2.445-2.853,8.762-9.713,14.739-12.566a26.538,26.538,0,0,1,11.207-2.853c4.211,0,8.219,1.358,12.634,4.211,12.294,8.015,14.943,18.95,8.083,33.35a81.319,81.319,0,0,0-7.539,25.267,43.561,43.561,0,0,0,3.6,21.6c5.366,12.158-3.464,22.007-3.532,22.143-.475.272-7.2,6.521-15.215,6.521Z" transform="translate(-727.364 -546.821)"/><path class="bd" d="M778.005,547.858c4.143,0,8.083,1.426,12.226,4.075,11.75,7.675,14.739,17.932,7.811,32.467a81.589,81.589,0,0,0-7.607,25.471,44.2,44.2,0,0,0,3.6,21.939c5.23,11.886-3.4,21.4-3.4,21.4s-6.724,6.317-14.6,6.317a13.886,13.886,0,0,1-5.977-1.358c-13.856-6.656-16.233-1.426-28.256-6.928s-15.826-35.184-12.158-45.78c5.366-15.554,7.539-24.724,22.822-42.452,3.6-4.211,9.305-9.917,14.535-12.362a25.784,25.784,0,0,1,11-2.785m0-1.358a26.809,26.809,0,0,0-11.479,2.921c-5.841,2.785-11.886,9.17-15.011,12.7-14.128,16.369-17.32,25.811-21.735,38.919-.407,1.291-.883,2.649-1.358,4.008-1.97,5.637-1.9,15.894.136,25.539,1.426,6.656,4.958,18.339,12.7,21.939a32.344,32.344,0,0,0,13.381,3.124,32.94,32.94,0,0,1,14.807,3.8,14.636,14.636,0,0,0,6.588,1.494c8.287,0,15.215-6.453,15.486-6.724l.068-.068c.408-.408,9.237-10.324,3.668-22.89a43.366,43.366,0,0,1-3.532-21.192v-.068a83.031,83.031,0,0,1,7.471-25c7.064-14.739,4.279-25.946-8.354-34.165-4.415-2.989-8.49-4.347-12.837-4.347Z" transform="translate(-726.986 -546.5)"/></g><g transform="translate(32.683 1.087)"><path class="j" d="M764.413,562.888c-8.286-9.373-8.286-12.905-8.219-13.449,0-.2.068-.34.136-.34,5.977,1.019,12.769,5.909,14.264,7a9.083,9.083,0,0,1-1.494,3.872C767.878,561.666,765.364,562.549,764.413,562.888Z" transform="translate(-755.512 -548.421)"/><path class="a" d="M756.557,549.526c5.3,1.155,11.071,5.162,12.973,6.521a8.3,8.3,0,0,1-1.359,3.192,7.555,7.555,0,0,1-3.872,2.513c-6.113-7-7.675-10.868-7.743-12.226m-.543-1.426c-1.494,0-1.97,4.211,7.879,15.282,0,0,3.8-.951,5.434-3.328a9.681,9.681,0,0,0,1.63-4.551s-7.811-6.113-14.807-7.336c-.068-.068-.068-.068-.136-.068Z" transform="translate(-755.194 -548.1)"/></g><path class="be" d="M739.583,612.737s-7.879,5.23-16.3,5.094c-8.422-.2-1.291-8.219,4.89-14.4a40.592,40.592,0,0,1,9.781-7.132" transform="translate(-711.04 -562.475)"/><g transform="translate(10.014 26.218)"><path class="j" d="M750.631,670.256c-6.385,0-17.524-7.471-21.735-14.535-2.445-4.075-9.849-18.679-3.872-35.727,5.3-14.943,11.751-27.848,16.845-33.757a.353.353,0,0,1,.272-.136c.543,0,1.7.815,2.989,2.581,2.445,3.328,4.279,8.49,3.192,11.886-4.075,12.43-4.822,27.373-2.309,44.489,2.038,13.652,9.17,21.939,9.509,22.279a1.83,1.83,0,0,0,.543.475,19.2,19.2,0,0,1-3.057,1.97,4.943,4.943,0,0,1-2.377.476Z" transform="translate(-722.117 -585.421)"/><path class="a" d="M741.979,586.526a7.593,7.593,0,0,1,2.649,2.785c1.97,2.989,3.668,7.675,2.717,10.732-4.075,12.566-4.89,27.576-2.309,44.761,2.038,13.517,8.966,21.871,9.645,22.55-.475.34-1.155.747-2.309,1.426a4.157,4.157,0,0,1-2.038.407c-6.045,0-17.117-7.4-21.192-14.2-2.377-4.007-9.713-18.407-3.8-35.116,5.23-14.671,11.615-27.441,16.641-33.35m-.068-1.426a1.124,1.124,0,0,0-.815.34c-5.162,5.977-11.683,18.95-16.981,33.961s-.34,29.139,3.94,36.27c4.347,7.268,15.826,14.875,22.346,14.875a5.726,5.726,0,0,0,2.717-.611c5.3-3.057,3.26-2.717,2.717-3.464a46.021,46.021,0,0,1-9.305-21.939c-2.038-13.652-2.445-29.614,2.241-44.15,1.766-5.638-4.075-15.283-6.86-15.283Z" transform="translate(-721.82 -585.1)"/></g><path class="h" d="M753.682,704.368s-4.483,2.785-3.192,4.755,13.992,7.471,21.8,3.872c4.347-2.038,8.219-3.94,7.2-6.521-.951-2.581-9.713-5.706-14.332-6.385-2.309-.34-9.985,2.989-10.6,3.736" transform="translate(-720.928 -595.76)"/><path class="bf" d="M791.895,562.163c-1.834.747-2.445,2.989-1.426,4.958a4.232,4.232,0,0,0,5.162,2.174c1.834-.747,2.445-2.989,1.426-4.958A4.1,4.1,0,0,0,791.895,562.163Z" transform="translate(-733.669 -551.431)"/><path class="c" d="M789.678,566.668a2.659,2.659,0,1,0,3.532,1.29A2.578,2.578,0,0,0,789.678,566.668Z" transform="translate(-733.083 -552.88)"/></g><path class="be" d="M751.458,623.86s-14.807-.883-21.871-5.5c-7.064-4.551,3.192-7.675,11.751-9.645a38.121,38.121,0,0,1,12.09-.883" transform="translate(-233.321 -195.139)"/><g transform="translate(469.92 397.408)"><path class="av" d="M848.341,585.4a9.756,9.756,0,0,1-2.241,8.354" transform="translate(-741.38 -585.4)"/><path class="av" d="M854.383,590a5.035,5.035,0,0,1-.883,4.279" transform="translate(-743.754 -586.876)"/><path class="av" d="M700.59,661.4s-6.317,5.23.883,10.664" transform="translate(-693.882 -609.779)"/><path class="av" d="M692.451,665.9a4.914,4.914,0,0,0,1.9,6.453" transform="translate(-691.924 -611.223)"/></g><g transform="translate(407.699 486.25)"><path class="ao" d="M626.788,728.358a8.422,8.422,0,0,0-.951-3.056c-.136-.136-.2-.272-.34-.34-.136-.136-.2-.34-.34-.34-.34-.475-.34-3.124-.679-3.939-.2-.476-.476-2.445-.679-2.853a.411.411,0,0,0-.408-.2c-.272.34-.272.2-.543.543-.475.543-1.494,0-2.174-.272-.611-.2-.475.34-.611-.407-.068-.476-.543-.747-.611-1.291h-.34c-2.513,1.019-7.336,2.241-8.422,3.192a6.19,6.19,0,0,1-2.242,1.494c-.476.407-1.223.34-1.63.951l-.068.068h0c-2.174,1.426-6.589,3.8-6.453,4.483a9.094,9.094,0,0,0,2.242,2.989c-.679-.2,4.551,1.223,6.656,1.426.679.068,2.581.408,2.649.136,0-.272.34-.272.679.272,2.445-.543,9.373-.951,9.373-.951.679-.136,3.057,0,3.8-.2C627.128,729.784,626.992,730.056,626.788,728.358Z" transform="translate(-600.295 -716.2)"/><path class="ar" d="M608.874,724.043a5.037,5.037,0,0,1-1.7-.34c-.2-.883.2-1.155,1.155-1.019.747.068,1.494.2,2.241.34-.068.815-.272.611-.679.951C609.757,724.179,609.01,724.179,608.874,724.043Z" transform="translate(-602.486 -718.269)"/><path class="ar" d="M616.831,736.321c0,.2-.2.611-.2.815-.068.2-.2.475-.136.679a.592.592,0,0,0,.747.2h0a.594.594,0,0,0,.34-.611c.2-.543.679-1.7.34-1.834C617.442,735.438,617.17,735.506,616.831,736.321Z" transform="translate(-605.485 -722.397)"/><path class="ar" d="M615.9,728.787c-.747-.408.679-1.766,1.291-2.581a.842.842,0,0,1,1.019-.34c.543.34.272.747.068,1.155C617.666,727.972,616.647,729.195,615.9,728.787Z" transform="translate(-605.233 -719.278)"/><path class="ar" d="M604.888,732.736a9.534,9.534,0,0,0-2.309,1.223h0l-.407.2c-.408.34-.34,1.087.068,1.019a3.247,3.247,0,0,0,1.223-.408s.679-.272.747-.272c.543-.2,1.155-.475,1.7-.679C606.45,732.668,605.906,732.4,604.888,732.736Z" transform="translate(-600.809 -721.461)"/><path class="ar" d="M637.86,728.137s-1.97-2.105-2.989-2.038c-.951.068-.951.136-.883.747.136.815,1.087.543,1.494.951.136.068.407.272.407.339.136.2.272.34.408.543a4.224,4.224,0,0,0,1.291.747C637.927,729.359,638.539,728.612,637.86,728.137Z" transform="translate(-611.095 -719.375)"/><path class="ar" d="M630.758,735.027c-.475-.475-.611-.543-1.358.136.068.34.2.747.272,1.087,0,.068.068.068.068.136a2.756,2.756,0,0,0,.34,1.155c.679.34.951-.2.951-.883v-.475A4.611,4.611,0,0,0,630.758,735.027Z" transform="translate(-609.631 -722.122)"/></g><g transform="translate(440.406 475.96)"><path class="ao" d="M671.171,719.966a2.849,2.849,0,0,0-.611-.951l-.2-.2a4.564,4.564,0,0,1-.407-.815,18.544,18.544,0,0,1-1.97-3.6c-.476-1.834-1.766-3.26-2.717-4.823a9.357,9.357,0,0,0-2.174-2.717c-2.377-2.581-4.958-4.823-8.422-5.773h-.136a5.254,5.254,0,0,0-3.328.747,2.539,2.539,0,0,0-1.834,2.241,12.743,12.743,0,0,1-.815,2.038,19.829,19.829,0,0,0,1.359,9.305c.136.272.2.611.34.883.679,1.358,1.019,2.921,2.106,4.007.068.068.068.136.136.2.136.136.136,2.309.34,2.377a20.508,20.508,0,0,0,5.162,1.562,22.509,22.509,0,0,0,7.4.136,1.258,1.258,0,0,0,.475-.136c.272,0,.475-.068.747-.068.2-.34.2-.611-.2-.679.136-.883-.951-1.291-1.291-2.038,1.223.34,1.766,1.426,2.513,2.174a1.207,1.207,0,0,0,.679.272,4.476,4.476,0,0,0,2.989-2.038C671.714,721.325,671.239,720.645,671.171,719.966Z" transform="translate(-648.453 -701.05)"/><path class="ar" d="M682.719,728.106h0A3.939,3.939,0,0,0,680.07,726c-.272.543.408.883.34,1.426a14.35,14.35,0,0,0,1.63,1.426C682.583,729.26,682.719,728.173,682.719,728.106Z" transform="translate(-658.574 -709.053)"/><path class="ar" d="M654.455,729.94c-.2.408-.476.883-.679,1.291-.272.815-.476.611-.476,1.494,0,.34.2.408.543.476.408.068.611-.2.679-.543.2-.679.068-.068.272-.747.068-.611.543-.951.951-1.359C655.813,729.261,654.794,729.533,654.455,729.94Z" transform="translate(-650.008 -710.209)"/><path class="ar" d="M667.469,719.737c-.815,0-1.766-1.155-2.309-.136-.543,1.155,1.7,1.562,1.766,1.562.747,0,.815,1.834,1.7.883C669.575,721.164,667.537,719.737,667.469,719.737Z" transform="translate(-653.785 -706.866)"/><path class="ar" d="M666.287,705.718a.48.48,0,0,1-.475.611,24.073,24.073,0,0,1-3.192-.475c-.475-.136-.543-.883,0-.951,1.087-.2,2.309-.475,3.26.408A2.227,2.227,0,0,1,666.287,705.718Z" transform="translate(-652.874 -702.22)"/><path class="ar" d="M675.741,733.523c-.136-.136-.2-.272-.34-.34h0a6.232,6.232,0,0,0-2.649-2.649.736.736,0,0,0-1.019.136c-.34.475,0,.747.34.951a4.694,4.694,0,0,1,1.7,1.562,6.306,6.306,0,0,1,.34.679c.136,0,.679.679.679.679C675.469,734.881,675.673,733.659,675.741,733.523Z" transform="translate(-655.875 -710.463)"/><path class="ar" d="M654.864,715.037a6.988,6.988,0,0,1-.068,1.222c-.068.408-.34.611-.679.475-.747-.2-.611-.815-.543-1.358.068-.747-.34-1.63.543-2.106.34-.2.611.136.679.475A7.4,7.4,0,0,0,654.864,715.037Z" transform="translate(-650.078 -704.95)"/></g><path class="bg" d="M696.766,618c-4.483,2.377-26.829,19.018-26.829,19.018-3.328,6.317-7.675,6.453-7.675,6.453s-10.324,10.868-12.566,13.177S628.3,684.7,628.3,684.7c1.223,3.328,4.279,1.562,4.279,1.562l.611-1.223c1.7-3.8,10.6-13.788,10.6-13.788s1.019,4.89,1.562,5.23c2.038,1.358,2.989-1.019,2.989-1.019l-1.087-8.219a117.988,117.988,0,0,1,13.041-15.758c14.943-15.147,32.127-26.014,38.716-30.361C697.784,620.377,697.513,619.291,696.766,618Z" transform="translate(-201.584 -198.449)"/><g transform="translate(422.097 424.847)"><path class="ao" d="M667.89,638.634c-3.4-4.143-7.947-6.249-13.109-7.336a35.8,35.8,0,0,0-4.687-.951,5.66,5.66,0,0,1,.543.815.237.237,0,0,1-.068.136v.408a1.487,1.487,0,0,1-.34.2,4.657,4.657,0,0,0-.543-.2.612.612,0,0,0-.34-.068h0a1.46,1.46,0,0,0-.951-1.291v-.136c-.2-.272-.408-.476-.747-.272-3.056-.136-6.113-.2-9.169-.34a12.3,12.3,0,0,1-4.143-.408c-.34,0-.679-.272-1.019-.2a.779.779,0,0,0-.679-.068c-.475.611-1.155.34-1.7.272-2.785-.272-5.57-.611-8.354-.951h0c-1.019-.543-1.291.815-.951,2.106a13.444,13.444,0,0,0,1.019,3.192,16.781,16.781,0,0,0,1.291,3.4c.543.475.475,1.358,1.019,1.834a.942.942,0,0,0,.611,0,.408.408,0,0,0,.068.272c-.068.272.136.408.34.543a16.125,16.125,0,0,0,4.075,3.668c.475.34.951.747,1.426,1.087a32.009,32.009,0,0,0,8.558,3.328c.408.272,1.63.543,1.766.679.543,0,1.155.2,1.63-.34h0c.611.068,1.223-.2,1.7.34.136-.068.2-.068.34-.136h2.309a23.621,23.621,0,0,0,5.366,0h0a5.135,5.135,0,0,0,1.019-.068h.543a2.242,2.242,0,0,0,.951,0,4.391,4.391,0,0,0,.883-.272h1.562a4.805,4.805,0,0,0,3.057-.611c3.057-1.155,5.841-2.649,7.132-5.977C668.637,640.468,669.044,639.449,667.89,638.634Z" transform="translate(-621.496 -626.543)"/><g transform="translate(1.485)"><path class="ar" d="M660.63,630.19a3.171,3.171,0,0,0-.679-.34,4.754,4.754,0,0,0-.2-.951.627.627,0,0,1,.272-.951c.543-.34.543.2.815.475.543.543.611,1.562,1.494,1.834.475.136.475.611.679.951h0c.272,1.155-.34.951-1.019.679h-.34a1.191,1.191,0,0,1-.272-.34C661.038,631.141,661.038,630.6,660.63,630.19Z" transform="translate(-635.215 -626.453)"/><path class="ar" d="M639.336,628.448c-.408.408-.883,0-1.358.068-.136-.068-.2-.2-.34-.272l-.136-.136c-.475-.679-1.223-1.7-.611-2.105,1.155-.747,1.019.747,1.494,1.291C638.725,627.633,639,628.041,639.336,628.448Z" transform="translate(-627.846 -625.798)"/><path class="ar" d="M654.55,657.627c-.747.815-1.834.815-2.717,1.291-1.087,0-1.222-.543-.679-1.358l.2-.2C651.9,657.22,654.414,656.609,654.55,657.627Z" transform="translate(-632.395 -635.823)"/><path class="ar" d="M626.411,643.892v-.34a2.787,2.787,0,0,1-.747-.068h-.815c-.408,0-1.019-.2-1.155.407-.2.951,2.241.747,2.989.611A2.413,2.413,0,0,0,626.411,643.892Z" transform="translate(-623.682 -631.461)"/><path class="ar" d="M645.762,647.925c-.611-.136-1.562.2-1.562-.747,0-.815.883-.611,1.494-.611a11.968,11.968,0,0,0,2.649-.815c.408-.068.815-.272,1.019.2.272.475-.136.815-.475,1.087A6.944,6.944,0,0,1,645.762,647.925Z" transform="translate(-630.264 -632.166)"/><path class="ar" d="M675.035,638.2a8.736,8.736,0,0,1,3.192,2.445c.068.068,0,.408-.136.543a.721.721,0,0,1-.883.136,16.663,16.663,0,0,1-2.785-2.106.564.564,0,0,1-.136-.543C674.491,638.54,674.763,638.4,675.035,638.2Z" transform="translate(-639.907 -629.776)"/><path class="ar" d="M659.913,644.517c-1.223.747-1.019-1.494-2.038-1.7-.2-.543-1.087-1.019-.475-1.562C658.147,640.578,660.864,643.906,659.913,644.517Z" transform="translate(-634.43 -630.728)"/><path class="ar" d="M671.1,653.452c-.408.34-.883.611-1.291.2-.543-.611.2-.747.475-1.087.34-.476.815-.951,1.087-1.426.408-.747.951-.611,1.494-.272A6.91,6.91,0,0,1,671.1,653.452Z" transform="translate(-638.417 -633.753)"/><path class="ar" d="M638.647,638.9a.616.616,0,0,1-1.019.34,21.436,21.436,0,0,1-1.97-1.494c-.543-.408-.272-.747.2-.951C636.405,636.588,638.647,638.286,638.647,638.9Z" transform="translate(-627.428 -629.319)"/></g></g><g transform="translate(408.612 460.173)"><path class="ar" d="M608.1,699.607a3.212,3.212,0,0,0,1.291-.407c.543,0,.951.136.883.815a6.811,6.811,0,0,1-3.26.611C606.74,699.947,606.536,700.083,608.1,699.607Z" transform="translate(-603.303 -684.67)"/><path class="ao" d="M637.476,682.982c-.2-.2-.407-.34-.611-.543-1.834-.747-3.464-2.038-5.434-2.377a.528.528,0,0,0-.136.543c-1.019.34-1.494-.475-1.97-1.223a1.879,1.879,0,0,0-.883-.747.5.5,0,0,0-.408.136c-.408.068-.815.2-1.155.272h0c-1.63-1.155-3.4-.679-5.162-.543h0c-.136,0-3.668,1.019-5.366,1.63a17.931,17.931,0,0,0-3.124.951c-.34.408-.815.272-1.223.408a9.668,9.668,0,0,1-2.309.2c-1.426.815-5.23,2.309-5.434,2.785-.272.136-.543.34-.883.475-1.9.815-2.174,1.63-1.155,3.328a10.741,10.741,0,0,0,3.8,3.6c.272.136,1.7.747,1.7.747-.068.475.543.475.815.747a6.511,6.511,0,0,1,1.155,0,29.524,29.524,0,0,0,6.453.883h.815c1.223,0,2.445-.068,3.668-.136a7.483,7.483,0,0,1,1.223.136,1.44,1.44,0,0,0,.476.2,2.53,2.53,0,0,0,2.174-.611c.068,0,.068-.068.136-.068a.612.612,0,0,1,.34.068c1.562-.679,3.124-1.291,4.687-1.97a5.4,5.4,0,0,0,1.358-.408c3.6-1.7,5.909-5.162,6.317-7.4C637.476,683.594,637.748,683.322,637.476,682.982Z" transform="translate(-601.64 -677.961)"/><path class="ar" d="M633.919,700.656a5.56,5.56,0,0,1-2.038.679c-.136.068-.272.2-.408.272-.068.2-.407.34-.2.611a1.325,1.325,0,0,0,1.562,0h0c.747-.2,1.155-.815,1.7-1.291C634.6,700.384,634.258,700.588,633.919,700.656Z" transform="translate(-611.124 -685.106)"/><path class="ar" d="M632.619,685.4c1.222.136,2.445,0,3.26.543a.827.827,0,0,1,.407.815.62.62,0,0,1-.815.34,6.539,6.539,0,0,0-2.309-.272c-.611,0-1.562.068-1.562-.747S632.008,685.536,632.619,685.4Z" transform="translate(-611.251 -680.243)"/><path class="ar" d="M622.687,695.2c-.543-.068-1.019-.068-1.087-.679,0-.476.407-.543.815-.679a17.083,17.083,0,0,0,1.97-.815c.34-.136.747-.34.951.2.136.407.068.883-.272,1.019A6.043,6.043,0,0,1,622.687,695.2Z" transform="translate(-608.043 -682.641)"/><path class="ar" d="M610.7,699.4" transform="translate(-604.547 -684.734)"/><path class="ar" d="M643.317,679.636a4.308,4.308,0,0,0-1.562-1.562c-.815-.543-1.155-.2-1.155.543a.613.613,0,0,1,.34.068l.2.2a3.141,3.141,0,0,0,.475.476h0c.951,2.038,2.174,1.494,2.377,1.358a.452.452,0,0,0,0-.679C643.724,679.84,643.521,679.772,643.317,679.636Z" transform="translate(-614.138 -677.807)"/><path class="ar" d="M613.785,682.036c-.408-.068-.815-.068-1.223-.136h-.815c-.543,0-.611.407-.475.747.068.136.34.2.543.2.34,0,.34.136.679.068h0l.068.068h.136c.272.068,1.019.136,1.291.2.34.2,1.087-.272,1.223-.611A10.645,10.645,0,0,0,613.785,682.036Z" transform="translate(-604.711 -679.12)"/></g></svg>