<svg xmlns="http://www.w3.org/2000/svg" width="1851.622" height="1006.226" viewBox="0 0 1851.622 1006.226"><defs><style>.a{opacity:0.02;}.b,.c{fill:none;stroke:#231815;stroke-width:3px;}.b{stroke-linecap:round;stroke-linejoin:round;}.c{stroke-miterlimit:10;}</style></defs><g transform="translate(1.5 1.5)"><g class="a" transform="translate(-136.431 534.473) rotate(-90)"><g transform="translate(95.633 136.431)"><line class="b" y2="47.539" transform="translate(76.781)"/><line class="b" y2="47.539" transform="translate(76.781 106.024)"/><g transform="translate(20.304 24.765)"><line class="b" x1="34.968" y2="32.205" transform="translate(77.987)"/><line class="b" x1="34.968" y2="32.205" transform="translate(0 71.827)"/></g><line class="b" x2="47.539" transform="translate(0 76.781)"/><line class="b" x2="47.539" transform="translate(106.024 76.781)"/><path class="c" d="M1331.845,454.442" transform="translate(-1257.567 -332.78)"/><g transform="translate(20.304 24.765)"><line class="b" x2="34.968" y2="32.205"/><line class="b" x2="34.968" y2="32.205" transform="translate(77.987 71.827)"/></g></g><g transform="translate(287.143 375.27)"><line class="b" y2="76.567" transform="translate(123.665)"/><line class="b" y2="76.567" transform="translate(123.665 170.764)"/><g transform="translate(32.702 39.887)"><line class="b" x1="56.32" y2="51.87" transform="translate(125.607)"/><line class="b" x1="56.32" y2="51.87" transform="translate(0 115.685)"/></g><line class="b" x2="76.567" transform="translate(0 123.665)"/><line class="b" x2="76.567" transform="translate(170.764 123.665)"/><path class="c" d="M1431.695,586.753" transform="translate(-1312.061 -390.803)"/><g transform="translate(32.702 39.887)"><line class="b" x2="56.32" y2="51.87"/><line class="b" x2="56.32" y2="51.87" transform="translate(125.607 115.685)"/></g></g><g transform="translate(-130.446 375)"><g transform="translate(0)"><line class="b" x1="20.984" y2="19.326" transform="translate(46.799)"/><line class="b" x1="20.984" y2="19.326" transform="translate(0 43.102)"/></g><path class="c" d="M1327.6,711.2" transform="translate(-1295.207 -653.056)"/><g transform="translate(0)"><line class="b" x2="20.984" y2="19.326"/><line class="b" x2="20.984" y2="19.326" transform="translate(46.799 43.102)"/></g></g></g><g class="a" transform="matrix(0.966, 0.259, -0.259, 0.966, 1361.828, 197.944)"><g transform="translate(106.671 552.608)"><line class="b" y2="47.539" transform="translate(76.781)"/><line class="b" y2="47.539" transform="translate(76.781 106.024)"/><g transform="translate(20.304 24.765)"><line class="b" x1="34.968" y2="32.205" transform="translate(77.987)"/><line class="b" x1="34.968" y2="32.205" transform="translate(0 71.827)"/></g><line class="b" x2="47.539" transform="translate(0 76.781)"/><line class="b" x2="47.539" transform="translate(106.024 76.781)"/><path class="c" d="M1331.845,454.442" transform="translate(-1257.567 -332.78)"/><g transform="translate(20.304 24.765)"><line class="b" x2="34.968" y2="32.205"/><line class="b" x2="34.968" y2="32.205" transform="translate(77.987 71.827)"/></g></g><g transform="translate(222.665 173.674)"><line class="b" y2="80.192" transform="translate(129.52)"/><line class="b" y2="80.192" transform="translate(129.52 178.848)"/><g transform="translate(34.25 41.776)"><line class="b" x1="58.986" y2="54.326" transform="translate(131.554)"/><line class="b" x1="58.986" y2="54.326" transform="translate(0 121.162)"/></g><line class="b" x2="80.192" transform="translate(0 129.52)"/><line class="b" x2="80.192" transform="translate(178.848 129.52)"/><path class="c" d="M1431.695,586.753" transform="translate(-1306.396 -381.526)"/><g transform="translate(34.25 41.776)"><line class="b" x2="58.986" y2="54.326"/><line class="b" x2="58.986" y2="54.326" transform="translate(131.554 121.162)"/></g></g><g transform="translate(205.957 -88.874)"><g transform="translate(0)"><line class="b" x1="20.984" y2="19.326" transform="translate(46.799)"/><line class="b" x1="20.984" y2="19.326" transform="translate(0 43.102)"/></g><path class="c" d="M1327.6,711.2" transform="translate(-1295.207 -653.056)"/><g transform="translate(0)"><line class="b" x2="20.984" y2="19.326"/><line class="b" x2="20.984" y2="19.326" transform="translate(46.799 43.102)"/></g></g></g></g></svg>