<svg xmlns="http://www.w3.org/2000/svg" width="101" height="118" viewBox="0 0 101 118"><defs><style>.a{fill:#30e646;}</style></defs><g transform="translate(0 0)"><path class="a" d="M136.934,97.932,124.579,45.2V9.933A2.031,2.031,0,0,0,122.552,7.9h-6.714l-1.482-6.327A2.027,2.027,0,0,0,111.918.055L78.719,7.9H46.157A2.031,2.031,0,0,0,44.13,9.933v6.136l-6.578,1.554a2.036,2.036,0,0,0-1.509,2.448L44.13,54.586v54.338a2.031,2.031,0,0,0,2.027,2.036H57.339l1.282,5.471a2.026,2.026,0,0,0,2.438,1.515l29.576-6.987h31.917a2.031,2.031,0,0,0,2.027-2.036v-5.983l10.846-2.562A2.036,2.036,0,0,0,136.934,97.932Zm-16.41-85.963V27.9l-3.733-15.93Zm-72.34,0h13.3l-13.3,3.142Zm0,94.921v-35l8.2,35Zm72.34,0H107.869l12.656-2.99ZM62.1,113.518l-21.65-92.4,70.42-16.635,21.65,92.4Z" transform="translate(-35.988 -0.001)"/></g><g transform="translate(13.774 21.991)"><g transform="translate(0)"><path class="a" d="M122.162,126.839l-1.9-8.064a9.835,9.835,0,0,0-4.426-6.15,10.06,10.06,0,0,0-1.34-.7,10.5,10.5,0,0,0,.792-1.106A10.318,10.318,0,1,0,102.3,114.8a9.891,9.891,0,0,0-2.118,8.7l1.9,8.064a2.018,2.018,0,0,0,2.43,1.5l16.148-3.8a2.021,2.021,0,0,0,1.5-2.43Zm-21.749-20.009a6.274,6.274,0,1,1,7.545,4.67h0A6.28,6.28,0,0,1,100.413,106.831Zm5.138,21.841-1.435-6.1a5.866,5.866,0,0,1,4.361-7.045l.808-.19a5.9,5.9,0,0,1,1.353-.158,5.865,5.865,0,0,1,5.692,4.519l1.435,6.1Z" transform="translate(-96.201 -95.078)"/></g></g><g transform="translate(31.407 94.305)"><g transform="translate(0)"><path class="a" d="M201.257,409.974a2.022,2.022,0,0,0-2.43-1.5l-24.636,5.8a2.02,2.02,0,1,0,.926,3.933l24.636-5.8A2.021,2.021,0,0,0,201.257,409.974Z" transform="translate(-172.634 -408.416)"/></g></g><g transform="translate(29.408 79.027)"><path class="a" d="M218.912,344.046a2.022,2.022,0,0,0-2.43-1.5l-51.342,12.079a2.02,2.02,0,1,0,.926,3.933l51.342-12.079A2.02,2.02,0,0,0,218.912,344.046Z" transform="translate(-163.583 -342.488)"/></g><g transform="translate(27.323 70.151)"><path class="a" d="M209.863,305.583a2.022,2.022,0,0,0-2.43-1.5l-51.342,12.079a2.02,2.02,0,1,0,.926,3.933l51.342-12.079A2.02,2.02,0,0,0,209.863,305.583Z" transform="translate(-154.534 -304.025)"/></g><g transform="translate(25.237 61.277)"><g transform="translate(0)"><path class="a" d="M200.815,267.121a2.022,2.022,0,0,0-2.43-1.5L147.044,277.7a2.02,2.02,0,1,0,.926,3.933l51.342-12.079A2.02,2.02,0,0,0,200.815,267.121Z" transform="translate(-145.486 -265.563)"/></g></g><g transform="translate(23.151 52.402)"><g transform="translate(0)"><path class="a" d="M191.765,228.659a2.021,2.021,0,0,0-2.43-1.5l-51.342,12.079a2.02,2.02,0,1,0,.926,3.933l51.342-12.079A2.02,2.02,0,0,0,191.765,228.659Z" transform="translate(-136.436 -227.101)"/></g></g><g transform="translate(44.218 38.671)"><path class="a" d="M259.448,169.231a2.021,2.021,0,0,0-2.43-1.5l-27.12,6.381a2.02,2.02,0,1,0,.926,3.933l27.12-6.381A2.021,2.021,0,0,0,259.448,169.231Z" transform="translate(-228.34 -167.673)"/></g><g transform="translate(42.138 29.801)"><path class="a" d="M250.4,130.769a2.02,2.02,0,0,0-2.43-1.5l-27.12,6.38a2.02,2.02,0,1,0,.926,3.933l27.12-6.381A2.02,2.02,0,0,0,250.4,130.769Z" transform="translate(-219.291 -129.211)"/></g><g transform="translate(39.078 20.425)"><path class="a" d="M222.328,90.14a2.021,2.021,0,0,0-2.43-1.5L207.684,91.51a2.02,2.02,0,1,0,.926,3.933l12.214-2.874A2.021,2.021,0,0,0,222.328,90.14Z" transform="translate(-206.126 -88.582)"/></g></svg>