<svg xmlns="http://www.w3.org/2000/svg" width="74" height="118" viewBox="0 0 74 118"><defs><style>.a{fill:#30e646;}</style></defs><path class="a" d="M166.3,9.219h-7.4V0h-3.7V9.219H110.8V0h-3.7V9.219H99.7A3.7,3.7,0,0,0,96,12.906V114.313A3.7,3.7,0,0,0,99.7,118h66.6a3.7,3.7,0,0,0,3.7-3.687V12.906A3.7,3.7,0,0,0,166.3,9.219Zm-9.25,9.219a1.844,1.844,0,1,1-1.85,1.844A1.849,1.849,0,0,1,157.05,18.438Zm-48.1,0a1.844,1.844,0,1,1-1.85,1.844A1.85,1.85,0,0,1,108.95,18.438ZM99.7,114.313V12.906h7.4v2.183a5.55,5.55,0,1,0,3.7,0V12.906h44.4v2.183a5.55,5.55,0,1,0,3.7,0V12.906h7.4l0,101.406Z" transform="translate(-96)"/><g transform="translate(14.943 97.975)"><rect class="a" width="11" height="3"/></g><g transform="translate(30.037 97.975)"><rect class="a" width="29" height="3"/></g><g transform="translate(14.959 89.985)"><rect class="a" width="26" height="4"/></g><g transform="translate(44.054 89.985)"><rect class="a" width="15" height="4"/></g><g transform="translate(57.109 106.975)"><rect class="a" width="10" height="4"/></g><g transform="translate(6.891 106.975)"><rect class="a" width="10" height="4"/></g><g transform="translate(11.176 28.967)"><path class="a" d="M195.4,158.53l-18.445-31.947a1.918,1.918,0,0,0-3.195,0l-8.69,15.053a16.594,16.594,0,1,0,11.7,19.661H193.8a1.845,1.845,0,0,0,1.6-2.767Zm-22,.694v.007a12.935,12.935,0,1,1-8.133-13.65,13.168,13.168,0,0,1,1.721.819c.061.035.118.072.177.107a12.705,12.705,0,0,1,1.262.854c.109.083.223.16.33.247a12.729,12.729,0,0,1,1.086,1c.175.181.343.367.507.557.192.221.373.452.55.684.225.3.439.607.638.926.177.282.347.566.5.861.116.221.221.446.325.673q.238.531.43,1.085c.063.183.127.365.183.552a12.928,12.928,0,0,1,.332,1.439c.028.159.052.321.074.481a13.219,13.219,0,0,1,.131,1.739A12.642,12.642,0,0,1,173.4,159.223Zm3.8-1.616a16.7,16.7,0,0,0-.137-2.027c-.028-.227-.066-.45-.1-.673-.072-.433-.159-.861-.264-1.284-.063-.26-.124-.52-.2-.775-.122-.4-.266-.795-.417-1.186-.19-.5-.408-.979-.644-1.455-.109-.218-.214-.439-.332-.651-.2-.352-.4-.692-.625-1.027-.111-.17-.227-.332-.345-.5a16.351,16.351,0,0,0-2.536-2.822c-.266-.236-.537-.465-.817-.682-.2-.159-.408-.315-.622-.465a16.694,16.694,0,0,0-1.638-1.037l6.834-11.833,15.251,26.414Z" transform="translate(-144 -125.726)"/></g></svg>