<svg xmlns="http://www.w3.org/2000/svg" width="36" height="36" viewBox="0 0 36 36"><defs><style>.a{fill:#efc75e;}.b{fill:#dbb551;}.c{fill:#e7bf55;}.d{fill:#f1d999;}.e{fill:#f7e3af;}.f{fill:#f2f2f2;}</style></defs><path class="a" d="M926.952,180.135l17.993-9.036,18.007,9.042-18.007,9.054Z" transform="translate(-926.952 -171.099)"/><path class="b" d="M945,189.122l.027,17.9-18.016-8.858V180.068Z" transform="translate(-926.992 -171.03)"/><path class="c" d="M926.976,189.13l.037,17.9,17.993-8.869V180.068Z" transform="translate(-909.019 -171.03)"/><path class="d" d="M-12799.655-13870.552v4.895h1.586l1.157-1.413.923.295v-5.642Z" transform="translate(12824.996 13884.931)"/><path class="e" d="M-12817.666-13879.583l17.994,9.077,3.664-1.875-18.036-9Z" transform="translate(12825.008 13884.901)"/><path class="f" d="M.561.774c.973.419,4,1.992,4.826,2.466s1,.533,1,1.785v2.83c0,.552-.059,1.163-1,.705S1.134,6.322.417,5.946s-1.1-.61-1.1-1.253V1.665C-.683.824-.412.355.561.774Z" transform="translate(10.003 23.97)"/><path class="b" d="M-12815.76-13860.924s3.733,1.883,4.135,2.08a.674.674,0,0,1,.447.714c-.029.231-.27.349-.562.214s-3.69-1.9-4.02-2.071-.553-.312-.526-.731S-12815.76-13860.924-12815.76-13860.924Z" transform="translate(12826.291 13886.934)"/><path class="b" d="M-12815.748-13861.208s3.1,1.589,3.5,1.786a.674.674,0,0,1,.447.714c-.029.231-.27.349-.562.214s-3.055-1.608-3.384-1.777-.553-.312-.526-.731S-12815.748-13861.208-12815.748-13861.208Z" transform="translate(12826.291 13888.937)"/></svg>