<svg xmlns="http://www.w3.org/2000/svg" width="34" height="25.517" viewBox="0 0 34 25.517"><defs><style>.a,.b,.c,.d,.f{fill:none;}.a,.b,.d{stroke:#464646;}.a,.d{stroke-linecap:round;}.a{stroke-linejoin:round;}.e,.g{stroke:none;}.g{fill:#464646;}</style></defs><g transform="translate(0.5 0.517)"><path class="a" d="M113.424,54.625V51.612a1.459,1.459,0,0,1,1.493-1.656h14.746c.7,0,1.365.414,1.365,1.656v3.013Z" transform="translate(-113.424 -46.435)"/><path class="b" d="M122.182,50.017s-2.094-2.4-2.648-2.547a1.691,1.691,0,0,0-1.817.365c-.5.593-.218,2-.218,2" transform="translate(-113.588 -46.659)"/><path class="b" d="M117.418,50.357s2.839-3.125,3.481-3.292a1.6,1.6,0,0,1,1.643.411,1.525,1.525,0,0,1,.381,1.407,6.4,6.4,0,0,1-1.237,1.549" transform="translate(-108.708 -46.999)"/><path class="b" d="M120.426,50.351v4.33" transform="translate(-113.762 -46.537)"/><path class="b" d="M0,0V10.638" transform="translate(10.311 19.221) rotate(180)"/><path class="b" d="M120.426,50.351v4.33" transform="translate(-110.116 -46.537)"/><path class="b" d="M0,0V10.839" transform="translate(6.664 19.231) rotate(180)"/><path class="b" d="M114.636,54.984v11.09A2.645,2.645,0,0,0,115,67.561a1.791,1.791,0,0,0,1.321.732h3.594" transform="translate(-113.588 -46.592)"/><path class="b" d="M119.307,54.984V65.915a2.848,2.848,0,0,1-.324,1.465,1.549,1.549,0,0,1-1.169.722h-3.178" transform="translate(-103.262 -46.401)"/><g class="b" transform="translate(5.239 18)"><circle class="e" cx="3.5" cy="3.5" r="3.5"/><circle class="f" cx="3.5" cy="3.5" r="3"/></g><g class="c" transform="translate(23.552 17.966)"><path class="e" d="M3.146.034a3.5,3.5,0,1,1-3.5,3.5A3.5,3.5,0,0,1,3.146.034Z"/><path class="g" d="M 3.1455078125 1.0341796875 C 1.767007827758789 1.0341796875 0.6455078125 2.155679702758789 0.6455078125 3.5341796875 C 0.6455078125 4.912679672241211 1.767007827758789 6.0341796875 3.1455078125 6.0341796875 C 4.524007797241211 6.0341796875 5.6455078125 4.912679672241211 5.6455078125 3.5341796875 C 5.6455078125 2.155679702758789 4.524007797241211 1.0341796875 3.1455078125 1.0341796875 M 3.1455078125 0.0341796875 C 5.078507900238037 0.0341796875 6.6455078125 1.601179599761963 6.6455078125 3.5341796875 C 6.6455078125 5.467179775238037 5.078507900238037 7.0341796875 3.1455078125 7.0341796875 C 1.212507724761963 7.0341796875 -0.3544921875 5.467179775238037 -0.3544921875 3.5341796875 C -0.3544921875 1.601179599761963 1.212507724761963 0.0341796875 3.1455078125 0.0341796875 Z"/></g><path class="b" d="M126,67.7h12.136" transform="translate(-114.08 -46)"/><path class="a" d="M134.2,67.7V53.792s7.6-.009,7.829,0a1.659,1.659,0,0,1,1.074.359c.327.319,4.342,4.736,4.342,4.736v7.846a2.056,2.056,0,0,1-.526.6,2.887,2.887,0,0,1-.8.371h-1.753" transform="translate(-114.448 -46)"/><path class="b" d="M139.371,53.684v5.023" transform="translate(-114.243 -46.158)"/><path class="d" d="M134.2,58.965h12.708" transform="translate(-114.448 -46.326)"/></g></svg>