<svg xmlns="http://www.w3.org/2000/svg" width="40" height="28" viewBox="0 0 40 28"><defs><style>.a{fill:#ff7058;}.b{fill:#ffd15c;}.c{fill:#f2f2f2;}.d{fill:#334a5e;}.e{fill:#40596b;}.f{fill:#acb3ba;}.g{fill:#cdd6e0;}</style></defs><path class="a" d="M740.8,181.889v14.357h12.232v-6.712s-1.437-5.212-1.71-5.715a3.7,3.7,0,0,0-1.286-1.439,3.4,3.4,0,0,0-1.488-.491Z" transform="translate(-713.802 -174.937)"/><path class="b" d="M3,0H24a3,3,0,0,1,3,3V23a0,0,0,0,1,0,0H0a0,0,0,0,1,0,0V3A3,3,0,0,1,3,0Z"/><path class="c" d="M722.585,173.83V180.5l.96-.962,1.031.962,1.153-.962.986.962,1.111-.962,1.016.962,1.017-.962,1.042.962V173.83Z" transform="translate(-713.496 -173.83)"/><path class="d" d="M-13038.945-13858.187v2.88h40v-2.88h-2.717a5.2,5.2,0,0,0-4.911-3.009,5.362,5.362,0,0,0-4.986,3.009h-13.424a4.887,4.887,0,0,0-4.9-3.009,4.976,4.976,0,0,0-4.941,3.009Z" transform="translate(13038.945 13879.005)"/><path class="e" d="M4.291-.462A4.343,4.343,0,1,1-.053,3.881,4.343,4.343,0,0,1,4.291-.462Z" transform="translate(4.762 19.757)"/><path class="e" d="M5.316-.444A4.343,4.343,0,1,1,.973,3.9,4.343,4.343,0,0,1,5.316-.444Z" transform="translate(27.106 19.758)"/><path class="f" d="M2.181-.572a1.85,1.85,0,1,1-1.85,1.85A1.85,1.85,0,0,1,2.181-.572Z" transform="translate(6.901 22.24)"/><path class="f" d="M2.866-.476a1.85,1.85,0,1,1-1.85,1.85A1.85,1.85,0,0,1,2.866-.476Z" transform="translate(29.597 22.289)"/><path class="c" d="M-13009.147-13872.009v6.238h9.278s-.89-3.513-1.177-4.292a2.869,2.869,0,0,0-.878-1.385,2.341,2.341,0,0,0-1.581-.562Z" transform="translate(13037.521 13880.439)"/><path class="g" d="M-13009.215-13871.968v6.237h9.278Z" transform="translate(13037.589 13880.398)"/></svg>