<svg xmlns="http://www.w3.org/2000/svg" width="27" height="33" viewBox="0 0 27 33"><defs><style>.a{fill:#464646;}</style></defs><path class="a" d="M26.038,32.839,24.515,31.35H2.811V28.6H0V0H22.5V8.572l2.533,2.476.279.273v19.25l1.523,1.489a.54.54,0,0,1,0,.778.571.571,0,0,1-.8,0ZM3.935,28.6v1.65H23.39l-4.226-4.133a6.71,6.71,0,0,1-4.286,1.537,6.507,6.507,0,1,1,6.653-6.505,6.39,6.39,0,0,1-1.572,4.19l4.226,4.133V12.1H15.748V3.85H3.935ZM1.123,27.5H2.811V2.75H16.543l.279.273,4.55,4.449V1.1H1.123ZM9.35,21.149a5.53,5.53,0,1,0,5.528-5.405A5.474,5.474,0,0,0,9.35,21.149ZM16.873,11H23.39l-.892-.872-5.625-5.5ZM11.6,23.1a.55.55,0,1,1,0-1.1h6.75a.55.55,0,1,1,0,1.1Zm0-3.3a.55.55,0,1,1,0-1.1h3.375a.55.55,0,1,1,0,1.1Z" transform="translate(0.002)"/></svg>