<svg xmlns="http://www.w3.org/2000/svg" width="38" height="36" viewBox="0 0 38 36"><defs><style>.a{fill:#ebf0f3;}.b{fill:#e1e6e9;}.c{fill:#44c4a1;}.d{fill:#3ea69b;}.e{fill:#fcd462;}.f{fill:#f7be56;}.g{fill:#3a556a;}.h{fill:#2f4859;}.i{fill:#d5d6db;}</style></defs><path class="a" d="M0,0H19l5,4.986V16H0Z" transform="translate(7)"/><rect class="b" width="12" height="16" transform="translate(7)"/><rect class="c" width="38" height="21" rx="3" transform="translate(0 7)"/><path class="d" d="M3,0H35a3,3,0,0,1,3,3v8a0,0,0,0,1,0,0H0a0,0,0,0,1,0,0V3A3,3,0,0,1,3,0Z" transform="translate(0 7)"/><g transform="translate(-543 -171)"><rect class="e" width="24" height="1.5" rx="0.75" transform="translate(547 182)"/><path class="f" d="M.982-.322a1,1,0,1,1-1,1A1,1,0,0,1,.982-.322Z" transform="translate(572 182)"/><path class="f" d="M.99-.331a1,1,0,1,1-1,1A1,1,0,0,1,.99-.331Z" transform="translate(575 182)"/></g><path class="g" d="M2.533-.88a2,2,0,1,1-2,2A2,2,0,0,1,2.533-.88Z" transform="translate(28.467 20.88)"/><path class="g" d="M2.533-.88a2,2,0,1,1-2,2A2,2,0,0,1,2.533-.88Z" transform="translate(4.467 20.88)"/><rect class="a" width="24" height="16" transform="translate(7 20)"/><rect class="b" width="12" height="16" transform="translate(7 20)"/><rect class="h" width="9" height="1.5" rx="0.75" transform="translate(10 23)"/><rect class="h" width="18" height="1.5" rx="0.75" transform="translate(10 26)"/><rect class="h" width="18" height="1.5" rx="0.75" transform="translate(10 29)"/><rect class="h" width="18" height="1.5" rx="0.75" transform="translate(10 32)"/><path class="i" d="M530.333,171.157v5h5Z" transform="translate(-504.333 -171.157)"/></svg>