<svg xmlns="http://www.w3.org/2000/svg" width="31" height="32" viewBox="0 0 31 32"><defs><style>.a,.b{fill:none;stroke:#464646;}.b{stroke-linecap:round;stroke-linejoin:round;}.c{fill:#fff;}.d,.e{stroke:none;}.e{fill:#464646;}</style></defs><g transform="translate(0.5 0.5)"><path class="a" d="M114.434,62.61V75.538l21.946,0c.51,0,1.844-.368,1.844-1.577a1.753,1.753,0,0,0-.956-1.622,2.177,2.177,0,0,0,.956-1.637,2.224,2.224,0,0,0-.757-1.622,2.94,2.94,0,0,0,.757-1.714,1.994,1.994,0,0,0-.757-1.465,2.988,2.988,0,0,0,.668-.91,1.816,1.816,0,0,0-1.858-2.545h-4.3V57.438a1.815,1.815,0,0,0-1.777-1.769,1.908,1.908,0,0,0-1.844,1.769v2.63l-2.444,2.543Z" transform="translate(-114.434 -44.538)"/><path class="b" d="M118.653,48.988l-1.219,2.882-3.292.3,2.375,1.95-.473,2.871,2.608-1.369,2.7,1.369-.463-2.871,2.253-1.95-3.157-.3Z" transform="translate(-113.576 -44.103)"/><path class="b" d="M118.653,48.988l-1.219,2.882-3.292.3,2.375,1.95-.473,2.871,2.608-1.369,2.7,1.369-.463-2.871,2.253-1.95-3.157-.3Z" transform="translate(-93.143 -44.103)"/><path class="b" d="M119.655,48.988l-1.489,3.6-4.023.37,2.9,2.438-.579,3.589,3.188-1.712,3.3,1.712-.566-3.589,2.754-2.438-3.858-.37Z" transform="translate(-104.27 -48.988)"/><path class="a" d="M133.825,65.8H137.2" transform="translate(-113.838 -44.452)"/><path class="a" d="M133.813,66.007h3.377" transform="translate(-113.837 -41.427)"/><path class="a" d="M133.813,66.293h3.377" transform="translate(-113.837 -38.458)"/><path class="a" d="M118.937,62.675c.022.081,0,12.746,0,12.746" transform="translate(-114.434 -44.538)"/><path class="a" d="M118.937,62.675c.022.081,0,12.746,0,12.746" transform="translate(-110.591 -44.538)"/><g class="c" transform="translate(5.451 24.567)"><path class="d" d="M.438-.433h1v1h-1Z"/><path class="e" d="M 0.4375 -0.4326171875 L 1.4375 -0.4326171875 L 1.4375 0.5673828125 L 0.4375 0.5673828125 L 0.4375 -0.4326171875 Z"/></g><g class="c" transform="translate(5.451 26.462)"><path class="d" d="M.438-.335h1v1h-1Z"/><path class="e" d="M 0.4375 -0.3349609375 L 1.4375 -0.3349609375 L 1.4375 0.6650390625 L 0.4375 0.6650390625 L 0.4375 -0.3349609375 Z"/></g><g class="c" transform="translate(5.451 28.462)"><path class="d" d="M.438-.177h1v1h-1Z"/><path class="e" d="M 0.4375 -0.1767578125 L 1.4375 -0.1767578125 L 1.4375 0.8232421875 L 0.4375 0.8232421875 L 0.4375 -0.1767578125 Z"/></g></g></svg>