<svg xmlns="http://www.w3.org/2000/svg" width="34" height="40" viewBox="0 0 34 40"><defs><style>.a{fill:#d5d6db;}.b{fill:#3a556a;}.c{fill:#64798a;}.d{fill:#ce412d;}.e{fill:#ebf0f3;}.f{fill:#e1e6e9;}.g{fill:#2f4859;}</style></defs><rect class="a" width="3" height="3" transform="translate(16 4)"/><g transform="translate(3.234 6)"><rect class="b" width="5.682" height="2.911" rx="1" transform="translate(2.059 0) rotate(45)"/><path class="c" d="M1,0H4.682a1,1,0,0,1,1,1v.534a0,0,0,0,1,0,0H0a0,0,0,0,1,0,0V1A1,1,0,0,1,1,0Z" transform="translate(2.059 0) rotate(45)"/></g><g transform="translate(24.234 6)"><rect class="b" width="5.682" height="2.911" rx="1" transform="translate(6.076 2.059) rotate(135)"/><path class="c" d="M0,0H5.682a0,0,0,0,1,0,0V.534a1,1,0,0,1-1,1H1a1,1,0,0,1-1-1V0A0,0,0,0,1,0,0Z" transform="translate(5.103 1.085) rotate(135)"/></g><circle class="d" cx="17" cy="17" r="17" transform="translate(0 6)"/><circle class="e" cx="13" cy="13" r="13" transform="translate(4 10)"/><path class="f" d="M22.192,3.808A12.792,12.792,0,0,1,26,13,13,13,0,0,1,13,26a13.13,13.13,0,0,1-9.192-3.808Z" transform="translate(4 10)"/><rect class="g" width="2" height="8" rx="1" transform="translate(16 13)"/><circle class="b" cx="3" cy="3" r="3" transform="translate(14 20)"/><rect class="b" width="9" height="4" rx="1" transform="translate(13)"/><path class="g" d="M0,0H3A1,1,0,0,1,4,1V3A1,1,0,0,1,3,4H0A0,0,0,0,1,0,4V0A0,0,0,0,1,0,0Z" transform="translate(18)"/></svg>