<svg xmlns="http://www.w3.org/2000/svg" width="25.992" height="25.991" viewBox="0 0 25.992 25.991"><defs><style>.a{fill:#696969;}</style></defs><path class="a" d="M3.806,22.194A13.018,13.018,0,1,1,13,26,13.018,13.018,0,0,1,3.806,22.194ZM4.723,4.723A11.716,11.716,0,1,0,13,1.3,11.72,11.72,0,0,0,4.723,4.723ZM12.364,17.21V13.642H8.8a.647.647,0,1,1,0-1.294h3.568V8.779a.647.647,0,0,1,1.294,0v3.568h3.568a.643.643,0,0,1,.647.647.653.653,0,0,1-.191.461.663.663,0,0,1-.461.191H13.652v3.568a.653.653,0,0,1-.191.461.663.663,0,0,1-.461.191A.63.63,0,0,1,12.364,17.21Z" transform="translate(-0.004 -0.004)"/></svg>